<?xml version="1.0" encoding="UTF-8"?>
<svg xmlns="http://www.w3.org/2000/svg" xmlns:xlink="http://www.w3.org/1999/xlink" width="200px" height="200px" viewBox="0 0 200 200" version="1.1">
<g id="surface1">
<path style=" stroke:none;fill-rule:nonzero;fill:rgb(94.509804%,35.686275%,25.098041%);fill-opacity:1;" d="M 91.242188 79.9375 C 91.332031 81.949219 89.878906 84.238281 86.890625 86.804688 C 85.523438 87.945312 84.066406 88.976562 82.535156 89.882812 L 80.046875 88.539062 C 86.261719 85.050781 89.414062 81.921875 89.496094 79.152344 C 89.535156 78.214844 88.746094 77.425781 87.128906 76.785156 C 85.992188 76.304688 84.773438 76.046875 83.542969 76.023438 C 79.574219 76.023438 75.542969 77.089844 71.449219 79.222656 C 66.582031 81.738281 64.128906 84.769531 64.082031 88.3125 C 64.082031 89.847656 65.855469 92.132812 69.402344 95.164062 L 76.746094 100.859375 C 79.6875 103.640625 81.15625 106.507812 81.152344 109.460938 C 81.152344 113.265625 79.132812 116.152344 75.085938 118.125 C 71.894531 119.664062 68.167969 120.457031 63.914062 120.5 C 57.472656 120.523438 51.078125 119.460938 44.988281 117.355469 L 46.839844 115.363281 C 49.527344 116.621094 52.300781 117.667969 55.148438 118.492188 C 58.015625 119.179688 60.949219 119.53125 63.898438 119.539062 C 67.640625 119.578125 70.898438 118.953125 73.667969 117.667969 C 77.289062 115.992188 79.097656 113.476562 79.097656 110.121094 C 79.097656 107.414062 77.609375 104.921875 74.636719 102.640625 C 73.191406 101.570312 70.40625 99.429688 66.277344 96.21875 C 63.285156 93.863281 61.769531 91.433594 61.726562 88.925781 C 61.683594 84.4375 64.515625 80.847656 70.21875 78.15625 C 74.386719 76.144531 78.945312 75.089844 83.566406 75.074219 C 88.597656 75.0625 91.15625 76.679688 91.242188 79.9375 Z M 91.242188 79.9375 "/>
<path style=" stroke:none;fill-rule:nonzero;fill:rgb(94.509804%,35.686275%,25.098041%);fill-opacity:1;" d="M 103.519531 106.832031 C 102.835938 109.75 101.695312 112.539062 100.136719 115.097656 C 98.007812 118.6875 95.898438 120.484375 93.8125 120.488281 C 92.027344 120.488281 91.109375 119.179688 91.070312 116.570312 C 91.019531 115.589844 91.148438 114.613281 91.453125 113.679688 C 90.679688 115.097656 89.832031 116.53125 88.898438 117.984375 C 87.789062 119.648438 86.425781 120.484375 84.808594 120.488281 C 84.382812 120.417969 83.992188 120.191406 83.722656 119.851562 C 83.453125 119.453125 83.285156 118.992188 83.238281 118.511719 C 83.238281 113.554688 83.9375 109.78125 85.34375 107.195312 L 87.453125 106.816406 C 86.808594 109.261719 85.933594 112.90625 84.835938 117.75 C 84.835938 118.804688 85.066406 119.351562 85.535156 119.394531 C 86.898438 119.394531 88.539062 117.648438 90.457031 114.15625 C 91.71875 111.882812 92.808594 109.511719 93.710938 107.070312 L 95.820312 106.816406 C 95.480469 107.789062 94.796875 109.863281 93.773438 113.039062 C 93.242188 114.460938 92.917969 115.953125 92.808594 117.46875 C 92.808594 118.765625 93.253906 119.414062 94.148438 119.414062 C 96.234375 119.457031 98.148438 117.101562 99.894531 112.355469 C 100.234375 111.453125 100.878906 109.695312 101.828125 107.089844 Z M 103.519531 106.832031 "/>
<path style=" stroke:none;fill-rule:nonzero;fill:rgb(94.509804%,35.686275%,25.098041%);fill-opacity:1;" d="M 114.679688 109.023438 C 114.722656 110.613281 113.746094 112.226562 111.746094 113.859375 C 109.902344 115.21875 107.910156 116.363281 105.804688 117.265625 L 105.742188 117.78125 C 105.742188 118.855469 106.378906 119.480469 107.675781 119.652344 C 109.378906 119.652344 111.507812 118.261719 114.0625 115.480469 L 114.382812 115.480469 L 114.0625 116.582031 C 111.339844 119.265625 108.851562 120.652344 106.589844 120.738281 C 104.589844 120.78125 103.484375 119.648438 103.269531 117.335938 C 103.269531 115.1875 104.238281 112.878906 106.171875 110.402344 C 108.109375 107.929688 110.117188 106.671875 112.203125 106.632812 C 113.8125 106.59375 114.648438 107.390625 114.679688 109.023438 Z M 113.277344 109.140625 C 113.277344 108.113281 112.796875 107.597656 111.828125 107.597656 C 110.464844 107.597656 109.121094 108.773438 107.804688 111.128906 C 106.601562 113.207031 105.980469 115.027344 105.941406 116.582031 C 107.65625 115.910156 109.234375 114.933594 110.601562 113.695312 C 112.332031 112.15625 113.222656 110.636719 113.277344 109.140625 Z M 113.277344 109.140625 "/>
<path style=" stroke:none;fill-rule:nonzero;fill:rgb(94.509804%,35.686275%,25.098041%);fill-opacity:1;" d="M 127.644531 109.023438 C 127.6875 110.613281 126.707031 112.226562 124.710938 113.859375 C 122.867188 115.21875 120.871094 116.363281 118.769531 117.265625 L 118.707031 117.78125 C 118.707031 118.855469 119.34375 119.480469 120.640625 119.652344 C 122.34375 119.652344 124.472656 118.261719 127.027344 115.480469 L 127.347656 115.480469 L 127.027344 116.582031 C 124.304688 119.265625 121.8125 120.652344 119.554688 120.738281 C 117.554688 120.78125 116.449219 119.648438 116.234375 117.335938 C 116.234375 115.1875 117.203125 112.878906 119.136719 110.402344 C 121.070312 107.929688 123.082031 106.671875 125.167969 106.632812 C 126.773438 106.59375 127.601562 107.390625 127.644531 109.023438 Z M 126.242188 109.140625 C 126.242188 108.113281 125.757812 107.597656 124.792969 107.597656 C 123.425781 107.597656 122.085938 108.773438 120.765625 111.128906 C 119.578125 113.222656 118.960938 115.039062 118.914062 116.582031 C 120.628906 115.910156 122.207031 114.933594 123.578125 113.695312 C 125.308594 112.15625 126.203125 110.636719 126.257812 109.140625 Z M 126.242188 109.140625 "/>
<path style=" stroke:none;fill-rule:nonzero;fill:rgb(94.509804%,35.686275%,25.098041%);fill-opacity:1;" d="M 140.355469 103.554688 L 140.226562 104.710938 L 135.933594 104.710938 L 132.1875 117.292969 C 132.175781 117.554688 132.128906 117.8125 132.058594 118.0625 C 132.058594 118.703125 132.414062 119.035156 133.140625 119.035156 C 133.867188 119.035156 134.738281 118.625 135.761719 117.8125 C 136.910156 116.65625 137.609375 115.933594 137.867188 115.628906 L 138.125 116.273438 C 135.828125 119.140625 133.699219 120.597656 131.738281 120.648438 C 130.289062 120.691406 129.546875 119.875 129.503906 118.214844 C 129.519531 117.867188 129.585938 117.523438 129.691406 117.191406 L 133.398438 104.738281 L 131.675781 104.738281 L 131.925781 103.582031 L 133.65625 103.582031 L 136.417969 93.925781 L 138.886719 93.40625 L 136.039062 103.554688 Z M 140.355469 103.554688 "/>
<path style=" stroke:none;fill-rule:nonzero;fill:rgb(93.725491%,25.490198%,21.176471%);fill-opacity:1;" d="M 108.890625 200 C 107.28125 200 105.695312 198.953125 104.15625 197.945312 C 102.746094 197.015625 101.292969 196.058594 100 196.058594 C 98.707031 196.058594 97.253906 197.03125 95.84375 197.945312 C 94.199219 199.023438 92.507812 200.140625 90.769531 199.984375 C 89.035156 199.828125 87.515625 198.390625 86.078125 197.011719 C 84.882812 195.859375 83.660156 194.667969 82.410156 194.4375 C 81.164062 194.210938 79.546875 194.875 78 195.523438 C 76.546875 196.125 75.097656 196.742188 73.71875 196.742188 C 73.347656 196.746094 72.980469 196.695312 72.625 196.597656 C 70.921875 196.109375 69.722656 194.433594 68.570312 192.816406 C 67.605469 191.457031 66.601562 190.054688 65.425781 189.597656 C 64.363281 189.183594 62.59375 189.484375 60.910156 189.84375 C 58.90625 190.273438 56.777344 190.582031 55.414062 189.898438 C 53.835938 189.105469 52.996094 187.238281 52.132812 185.433594 C 51.425781 183.917969 50.683594 182.351562 49.632812 181.679688 C 48.765625 181.144531 47.5 181.074219 46.371094 181.074219 C 45.96875 181.074219 45.558594 181.074219 45.148438 181.074219 C 43.214844 181.121094 41.1875 181.214844 39.730469 180.101562 C 38.273438 178.988281 37.820312 177.042969 37.3125 175.117188 C 36.894531 173.492188 36.46875 171.816406 35.53125 170.960938 C 34.59375 170.105469 32.890625 169.828125 31.242188 169.5625 C 29.304688 169.246094 27.269531 168.917969 26.082031 167.617188 C 24.898438 166.3125 24.761719 164.261719 24.632812 162.269531 C 24.519531 160.597656 24.398438 158.867188 23.636719 157.84375 C 22.871094 156.824219 21.25 156.25 19.679688 155.683594 C 17.816406 155.015625 15.886719 154.324219 14.957031 152.816406 C 14.027344 151.308594 14.269531 149.289062 14.472656 147.3125 C 14.671875 145.644531 14.871094 143.910156 14.304688 142.777344 C 13.738281 141.644531 12.253906 140.773438 10.816406 139.933594 C 9.105469 138.925781 7.332031 137.890625 6.695312 136.238281 C 6.054688 134.585938 6.671875 132.644531 7.257812 130.753906 C 7.738281 129.148438 8.273438 127.488281 7.921875 126.253906 C 7.574219 125.019531 6.285156 123.914062 5.019531 122.820312 C 3.515625 121.511719 1.964844 120.160156 1.636719 118.40625 C 1.304688 116.652344 2.269531 114.886719 3.191406 113.140625 C 3.980469 111.648438 4.792969 110.113281 4.679688 108.824219 C 4.5625 107.535156 3.496094 106.230469 2.46875 104.933594 C 1.28125 103.410156 0 101.789062 0 100 C 0 98.210938 1.28125 96.597656 2.519531 95.027344 C 3.550781 93.722656 4.621094 92.375 4.730469 91.136719 C 4.84375 89.898438 4.035156 88.3125 3.246094 86.824219 C 2.320312 85.078125 1.367188 83.265625 1.6875 81.542969 C 2.007812 79.824219 3.558594 78.445312 5.074219 77.136719 C 6.328125 76.042969 7.625 74.914062 7.976562 73.703125 C 8.332031 72.492188 7.8125 70.785156 7.3125 69.203125 C 6.730469 67.308594 6.121094 65.351562 6.753906 63.71875 C 7.386719 62.082031 9.171875 61.023438 10.878906 60.015625 C 12.332031 59.175781 13.78125 58.304688 14.363281 57.171875 C 14.941406 56.039062 14.730469 54.304688 14.535156 52.636719 C 14.304688 50.664062 14.054688 48.625 14.992188 47.132812 C 15.929688 45.640625 17.851562 44.9375 19.71875 44.265625 C 21.285156 43.703125 22.910156 43.125 23.675781 42.105469 C 24.4375 41.089844 24.554688 39.359375 24.640625 37.6875 C 24.777344 35.710938 24.917969 33.65625 26.09375 32.339844 C 27.269531 31.023438 29.300781 30.707031 31.253906 30.394531 C 32.90625 30.132812 34.605469 29.855469 35.539062 29 C 36.472656 28.144531 36.910156 26.460938 37.324219 24.839844 C 37.808594 22.894531 38.328125 20.949219 39.746094 19.859375 C 41.160156 18.769531 43.222656 18.84375 45.164062 18.886719 C 45.570312 18.886719 45.980469 18.886719 46.382812 18.886719 C 47.507812 18.886719 48.800781 18.816406 49.640625 18.28125 C 50.714844 17.609375 51.441406 16.042969 52.144531 14.527344 C 52.980469 12.722656 53.847656 10.855469 55.425781 10.0625 C 56.796875 9.378906 58.914062 9.695312 60.917969 10.121094 C 62.601562 10.476562 64.378906 10.785156 65.4375 10.363281 C 66.613281 9.90625 67.613281 8.507812 68.582031 7.152344 C 69.738281 5.527344 70.9375 3.851562 72.640625 3.371094 C 74.1875 2.921875 76.179688 3.671875 78.015625 4.4375 C 79.5625 5.089844 81.144531 5.765625 82.425781 5.523438 C 83.707031 5.28125 84.890625 4.101562 86.09375 2.957031 C 87.542969 1.570312 88.996094 0.144531 90.785156 -0.0195312 C 92.574219 -0.183594 94.214844 0.953125 95.855469 2.023438 C 97.261719 2.945312 98.71875 3.902344 100.007812 3.902344 C 101.300781 3.902344 102.757812 2.929688 104.164062 2.023438 C 105.800781 0.972656 107.503906 -0.136719 109.230469 0 C 110.957031 0.136719 112.484375 1.589844 113.921875 2.976562 C 115.117188 4.121094 116.339844 5.3125 117.589844 5.542969 C 118.835938 5.769531 120.453125 5.109375 122 4.457031 C 123.453125 3.859375 124.902344 3.242188 126.28125 3.242188 C 126.652344 3.238281 127.019531 3.289062 127.375 3.386719 C 129.078125 3.875 130.277344 5.546875 131.429688 7.171875 C 132.398438 8.527344 133.398438 9.933594 134.566406 10.382812 C 135.636719 10.800781 137.410156 10.5 139.089844 10.140625 C 141.09375 9.714844 143.21875 9.402344 144.585938 10.089844 C 146.164062 10.878906 147.03125 12.746094 147.867188 14.550781 C 148.574219 16.0625 149.316406 17.632812 150.367188 18.300781 C 151.234375 18.839844 152.5 18.910156 153.628906 18.910156 C 154.03125 18.910156 154.441406 18.910156 154.847656 18.910156 C 156.78125 18.863281 158.8125 18.769531 160.269531 19.882812 C 161.726562 20.996094 162.179688 22.9375 162.6875 24.867188 C 163.105469 26.488281 163.535156 28.164062 164.46875 29.019531 C 165.402344 29.875 167.109375 30.15625 168.761719 30.417969 C 170.695312 30.734375 172.730469 31.0625 173.917969 32.363281 C 175.101562 33.667969 175.238281 35.714844 175.367188 37.710938 C 175.484375 39.382812 175.601562 41.117188 176.363281 42.132812 C 177.128906 43.148438 178.75 43.726562 180.320312 44.289062 C 182.183594 44.960938 184.113281 45.652344 185.042969 47.152344 C 185.972656 48.65625 185.730469 50.6875 185.496094 52.65625 C 185.304688 54.324219 185.101562 56.058594 185.671875 57.199219 C 186.242188 58.335938 187.71875 59.199219 189.15625 60.042969 C 190.867188 61.046875 192.640625 62.082031 193.28125 63.742188 C 193.917969 65.398438 193.304688 67.328125 192.714844 69.21875 C 192.230469 70.828125 191.703125 72.488281 192.050781 73.722656 C 192.402344 74.957031 193.691406 76.066406 194.953125 77.15625 C 196.453125 78.460938 198.011719 79.820312 198.339844 81.570312 C 198.667969 83.320312 197.707031 85.089844 196.785156 86.835938 C 195.996094 88.328125 195.175781 89.867188 195.296875 91.152344 C 195.417969 92.433594 196.480469 93.746094 197.507812 95.042969 C 198.746094 96.605469 200.027344 98.226562 200.027344 100.007812 C 200.027344 101.792969 198.746094 103.414062 197.507812 104.984375 C 196.480469 106.285156 195.410156 107.628906 195.296875 108.871094 C 195.1875 110.117188 195.996094 111.703125 196.785156 113.191406 C 197.707031 114.933594 198.660156 116.738281 198.339844 118.460938 C 198.019531 120.179688 196.464844 121.5625 194.953125 122.871094 C 193.703125 123.964844 192.40625 125.089844 192.050781 126.308594 C 191.699219 127.523438 192.214844 129.199219 192.714844 130.804688 C 193.304688 132.695312 193.910156 134.652344 193.277344 136.292969 C 192.640625 137.929688 190.855469 138.980469 189.15625 139.988281 C 187.703125 140.828125 186.25 141.699219 185.671875 142.832031 C 185.089844 143.964844 185.304688 145.699219 185.496094 147.367188 C 185.726562 149.339844 185.980469 151.375 185.042969 152.871094 C 184.105469 154.367188 182.183594 155.066406 180.316406 155.738281 C 178.742188 156.296875 177.125 156.882812 176.359375 157.898438 C 175.59375 158.914062 175.480469 160.644531 175.363281 162.316406 C 175.230469 164.296875 175.089844 166.347656 173.910156 167.664062 C 172.730469 168.984375 170.703125 169.292969 168.75 169.609375 C 167.101562 169.878906 165.398438 170.152344 164.460938 171.007812 C 163.519531 171.867188 163.09375 173.546875 162.679688 175.167969 C 162.195312 177.109375 161.679688 179.085938 160.261719 180.148438 C 158.84375 181.214844 156.777344 181.160156 154.835938 181.121094 C 154.429688 181.121094 154.015625 181.121094 153.613281 181.121094 C 152.492188 181.121094 151.222656 181.195312 150.363281 181.734375 C 149.289062 182.402344 148.558594 183.972656 147.855469 185.488281 C 147.019531 187.292969 146.15625 189.160156 144.582031 189.945312 C 143.214844 190.632812 141.085938 190.320312 139.085938 189.890625 C 137.402344 189.53125 135.628906 189.230469 134.5625 189.644531 C 133.386719 190.101562 132.386719 191.507812 131.417969 192.863281 C 130.261719 194.488281 129.066406 196.160156 127.367188 196.644531 C 125.8125 197.09375 123.820312 196.339844 121.992188 195.574219 C 120.445312 194.925781 118.867188 194.242188 117.578125 194.488281 C 116.292969 194.730469 115.113281 195.90625 113.917969 197.058594 C 112.464844 198.4375 110.992188 199.867188 109.21875 200.035156 Z M 100 194.832031 C 101.65625 194.832031 103.265625 195.890625 104.835938 196.917969 C 106.289062 197.890625 107.828125 198.890625 109.132812 198.765625 C 110.4375 198.636719 111.8125 197.363281 113.101562 196.125 C 114.386719 194.886719 115.792969 193.535156 117.386719 193.238281 C 118.976562 192.941406 120.773438 193.679688 122.484375 194.394531 C 124.195312 195.109375 125.871094 195.765625 127.0625 195.421875 C 128.351562 195.050781 129.421875 193.554688 130.445312 192.105469 C 131.472656 190.65625 132.628906 189.046875 134.136719 188.457031 C 135.492188 187.929688 137.492188 188.25 139.351562 188.648438 C 141.136719 189.027344 143 189.328125 144.050781 188.804688 C 145.246094 188.207031 146.019531 186.539062 146.769531 184.914062 C 147.519531 183.289062 148.351562 181.511719 149.734375 180.640625 C 150.855469 179.941406 152.332031 179.847656 153.628906 179.847656 C 154.039062 179.847656 154.464844 179.847656 154.886719 179.847656 C 155.308594 179.847656 155.707031 179.847656 156.109375 179.847656 C 157.328125 179.847656 158.683594 179.761719 159.539062 179.113281 C 160.601562 178.300781 161.058594 176.523438 161.503906 174.800781 C 161.988281 173.003906 162.4375 171.144531 163.640625 170.042969 C 164.847656 168.9375 166.734375 168.636719 168.554688 168.339844 C 170.304688 168.058594 172.113281 167.765625 173.011719 166.773438 C 173.910156 165.785156 174.03125 163.957031 174.152344 162.183594 C 174.273438 160.332031 174.40625 158.417969 175.390625 157.109375 C 176.378906 155.804688 178.167969 155.164062 179.90625 154.539062 C 181.640625 153.910156 183.292969 153.316406 184.007812 152.175781 C 184.722656 151.03125 184.492188 149.226562 184.289062 147.464844 C 184.074219 145.617188 183.847656 143.707031 184.582031 142.238281 C 185.320312 140.769531 186.949219 139.808594 188.539062 138.878906 C 190.132812 137.949219 191.660156 137.054688 192.144531 135.800781 C 192.628906 134.546875 192.082031 132.8125 191.554688 131.121094 C 191.003906 129.34375 190.433594 127.507812 190.882812 125.921875 C 191.332031 124.339844 192.757812 123.109375 194.148438 121.898438 C 195.535156 120.6875 196.878906 119.515625 197.125 118.1875 C 197.375 116.859375 196.511719 115.269531 195.675781 113.714844 C 194.804688 112.066406 193.898438 110.359375 194.050781 108.710938 C 194.199219 107.0625 195.378906 105.609375 196.523438 104.167969 C 197.664062 102.722656 198.777344 101.316406 198.777344 99.957031 C 198.777344 98.59375 197.628906 97.144531 196.523438 95.746094 C 195.414062 94.34375 194.199219 92.828125 194.050781 91.199219 C 193.898438 89.570312 194.800781 87.84375 195.675781 86.199219 C 196.496094 84.636719 197.355469 83.027344 197.125 81.730469 C 196.898438 80.433594 195.492188 79.1875 194.148438 78.015625 C 192.800781 76.84375 191.320312 75.554688 190.882812 73.996094 C 190.441406 72.433594 191.003906 70.589844 191.554688 68.792969 C 192.082031 67.105469 192.621094 65.355469 192.144531 64.121094 C 191.664062 62.886719 190.074219 61.933594 188.539062 61.035156 C 187.007812 60.132812 185.304688 59.136719 184.582031 57.679688 C 183.863281 56.21875 184.074219 54.277344 184.292969 52.453125 C 184.496094 50.691406 184.707031 48.871094 184.011719 47.738281 C 183.316406 46.605469 181.59375 45.976562 179.914062 45.378906 C 178.171875 44.75 176.375 44.109375 175.390625 42.800781 C 174.410156 41.496094 174.28125 39.582031 174.152344 37.730469 C 174.03125 35.957031 173.910156 34.125 173.011719 33.136719 C 172.113281 32.148438 170.277344 31.902344 168.550781 31.601562 C 166.726562 31.304688 164.835938 31 163.632812 29.894531 C 162.425781 28.789062 161.957031 26.933594 161.492188 25.140625 C 161.03125 23.347656 160.597656 21.632812 159.558594 20.828125 C 158.703125 20.175781 157.339844 20.089844 156.121094 20.089844 C 155.71875 20.089844 155.308594 20.089844 154.902344 20.089844 C 154.492188 20.089844 154.0625 20.089844 153.652344 20.089844 C 152.355469 20.089844 150.875 19.996094 149.753906 19.296875 C 148.34375 18.472656 147.542969 16.757812 146.761719 15.070312 C 145.984375 13.382812 145.246094 11.789062 144.042969 11.183594 C 142.996094 10.65625 141.144531 10.953125 139.34375 11.335938 C 137.480469 11.734375 135.472656 12.050781 134.132812 11.527344 C 132.621094 10.9375 131.511719 9.386719 130.441406 7.878906 C 129.375 6.375 128.339844 4.929688 127.054688 4.566406 C 125.867188 4.21875 124.125 4.902344 122.484375 5.585938 C 120.84375 6.273438 118.976562 7.042969 117.378906 6.746094 C 115.785156 6.453125 114.40625 5.148438 113.082031 3.890625 C 111.753906 2.628906 110.464844 1.375 109.117188 1.253906 C 107.773438 1.132812 106.289062 2.132812 104.824219 3.097656 C 103.265625 4.121094 101.65625 5.183594 99.984375 5.183594 C 98.316406 5.183594 96.726562 4.121094 95.148438 3.097656 C 93.695312 2.125 92.1875 1.128906 90.855469 1.253906 C 89.527344 1.378906 88.175781 2.65625 86.890625 3.890625 C 85.601562 5.125 84.191406 6.484375 82.609375 6.804688 C 81.027344 7.128906 79.222656 6.363281 77.503906 5.644531 C 75.871094 4.957031 74.121094 4.28125 72.929688 4.625 C 71.636719 4.988281 70.5625 6.492188 69.542969 7.9375 C 68.523438 9.386719 67.367188 10.996094 65.851562 11.585938 C 64.496094 12.109375 62.503906 11.789062 60.640625 11.390625 C 58.855469 11.011719 56.996094 10.710938 55.945312 11.234375 C 54.746094 11.839844 53.972656 13.503906 53.222656 15.125 C 52.472656 16.742188 51.640625 18.527344 50.257812 19.398438 C 49.132812 20.097656 47.652344 20.195312 46.355469 20.195312 C 45.945312 20.195312 45.523438 20.195312 45.109375 20.195312 C 44.691406 20.195312 44.292969 20.195312 43.894531 20.195312 C 42.671875 20.195312 41.308594 20.28125 40.457031 20.933594 C 39.386719 21.742188 38.933594 23.519531 38.492188 25.242188 C 38.03125 27.039062 37.558594 28.898438 36.355469 30 C 35.148438 31.105469 33.277344 31.320312 31.445312 31.601562 C 29.695312 31.882812 27.886719 32.175781 26.988281 33.167969 C 26.089844 34.160156 25.96875 35.984375 25.847656 37.757812 C 25.722656 39.609375 25.589844 41.523438 24.609375 42.832031 C 23.625 44.140625 21.828125 44.777344 20.089844 45.402344 C 18.351562 46.03125 16.703125 46.625 15.992188 47.761719 C 15.28125 48.898438 15.507812 50.71875 15.707031 52.476562 C 15.925781 54.324219 16.148438 56.234375 15.417969 57.703125 C 14.6875 59.171875 13.046875 60.132812 11.457031 61.058594 C 9.863281 61.980469 8.335938 62.886719 7.851562 64.144531 C 7.367188 65.402344 7.917969 67.128906 8.441406 68.820312 C 8.992188 70.597656 9.5625 72.433594 9.113281 74.019531 C 8.664062 75.605469 7.238281 76.832031 5.847656 78.042969 C 4.460938 79.253906 3.117188 80.425781 2.875 81.753906 C 2.632812 83.082031 3.484375 84.671875 4.324219 86.230469 C 5.195312 87.878906 6.09375 89.582031 5.949219 91.230469 C 5.804688 92.878906 4.613281 94.34375 3.472656 95.773438 C 2.332031 97.203125 1.214844 98.628906 1.214844 99.992188 C 1.214844 101.351562 2.367188 102.800781 3.472656 104.199219 C 4.582031 105.601562 5.796875 107.117188 5.941406 108.746094 C 6.085938 110.375 5.191406 112.109375 4.320312 113.761719 C 3.492188 115.324219 2.640625 116.933594 2.867188 118.230469 C 3.097656 119.53125 4.503906 120.773438 5.847656 121.945312 C 7.191406 123.117188 8.667969 124.40625 9.113281 125.972656 C 9.558594 127.535156 8.988281 129.375 8.4375 131.167969 C 7.914062 132.859375 7.367188 134.605469 7.847656 135.84375 C 8.324219 137.085938 9.917969 138.027344 11.449219 138.925781 C 12.984375 139.828125 14.6875 140.824219 15.414062 142.28125 C 16.136719 143.742188 15.894531 145.683594 15.703125 147.507812 C 15.5 149.269531 15.285156 151.089844 15.984375 152.222656 C 16.679688 153.355469 18.402344 153.984375 20.085938 154.582031 C 21.769531 155.179688 23.621094 155.855469 24.597656 157.160156 C 25.574219 158.460938 25.714844 160.382812 25.839844 162.234375 C 25.960938 164.003906 26.082031 165.835938 26.984375 166.824219 C 27.882812 167.8125 29.6875 168.101562 31.433594 168.390625 C 33.257812 168.679688 35.144531 168.988281 36.355469 170.089844 C 37.5625 171.195312 38.03125 173.050781 38.492188 174.84375 C 38.953125 176.640625 39.386719 178.351562 40.449219 179.15625 C 41.308594 179.808594 42.667969 179.898438 43.878906 179.898438 C 44.28125 179.898438 44.691406 179.898438 45.105469 179.898438 C 45.515625 179.898438 45.945312 179.898438 46.355469 179.898438 C 47.652344 179.898438 49.132812 179.996094 50.257812 180.695312 C 51.640625 181.554688 52.441406 183.289062 53.222656 184.96875 C 54 186.644531 54.742188 188.253906 55.941406 188.855469 C 56.996094 189.382812 58.84375 189.082031 60.640625 188.703125 C 62.503906 188.304688 64.511719 187.980469 65.851562 188.511719 C 67.367188 189.101562 68.472656 190.652344 69.542969 192.152344 C 70.613281 193.65625 71.648438 195.105469 72.929688 195.472656 C 74.121094 195.8125 75.863281 195.136719 77.5 194.449219 C 79.140625 193.757812 81.011719 192.988281 82.605469 193.292969 C 84.195312 193.59375 85.566406 194.90625 86.890625 196.179688 C 88.214844 197.453125 89.507812 198.695312 90.851562 198.820312 C 92.195312 198.941406 93.675781 197.9375 95.148438 196.972656 C 96.75 195.890625 98.34375 194.832031 100 194.832031 Z M 100 194.832031 "/>
<path style=" stroke:none;fill-rule:nonzero;fill:rgb(93.725491%,25.490198%,21.176471%);fill-opacity:1;" d="M 100 185.972656 C 52.785156 185.972656 14.378906 147.40625 14.378906 100 C 14.378906 52.59375 52.792969 14.027344 100 14.027344 C 147.207031 14.027344 185.621094 52.597656 185.621094 100 C 185.621094 147.402344 147.214844 185.972656 100 185.972656 Z M 100 15.25 C 53.457031 15.25 15.589844 53.269531 15.589844 100 C 15.589844 146.730469 53.457031 184.742188 100 184.742188 C 146.542969 184.742188 184.410156 146.726562 184.410156 99.996094 C 184.410156 53.265625 146.542969 15.25 100 15.25 Z M 100 15.25 "/>
<path style=" stroke:none;fill-rule:nonzero;fill:rgb(93.725491%,25.490198%,21.176471%);fill-opacity:1;" d="M 100 168.058594 C 62.625 168.058594 32.210938 137.527344 32.210938 99.996094 C 32.210938 62.464844 62.625 31.929688 100 31.929688 C 137.375 31.929688 167.78125 62.464844 167.78125 99.996094 C 167.78125 137.527344 137.382812 168.058594 100 168.058594 Z M 100 33.160156 C 63.292969 33.160156 33.433594 63.148438 33.433594 100 C 33.433594 136.851562 63.292969 166.839844 100 166.839844 C 136.707031 166.839844 166.566406 136.855469 166.566406 100 C 166.566406 63.144531 136.707031 33.160156 100 33.160156 Z M 100 33.160156 "/>
<path style=" stroke:none;fill-rule:nonzero;fill:rgb(0%,0%,0%);fill-opacity:1;" d="M 25.988281 68.714844 L 25.363281 70.308594 L 33.585938 73.550781 L 33.398438 74.039062 L 25.175781 70.800781 L 24.539062 72.410156 L 24.175781 72.265625 L 24.804688 70.65625 L 25 70.167969 L 25.636719 68.550781 Z M 25.988281 68.714844 "/>
<path style=" stroke:none;fill-rule:nonzero;fill:rgb(0%,0%,0%);fill-opacity:1;" d="M 28.355469 62.714844 L 36.625 66.792969 L 36.390625 67.28125 L 32.140625 65.179688 L 30.960938 67.578125 L 35.207031 69.679688 L 34.976562 70.164062 L 26.707031 66.078125 L 26.941406 65.59375 L 30.605469 67.402344 L 31.769531 65.023438 L 28.125 63.203125 Z M 28.355469 62.714844 "/>
<path style=" stroke:none;fill-rule:nonzero;fill:rgb(0%,0%,0%);fill-opacity:1;" d="M 39.285156 61.394531 L 39.617188 61.59375 L 38.167969 64.023438 L 38.101562 64.136719 L 37.890625 64.484375 L 29.992188 59.730469 L 31.683594 56.882812 L 32.023438 57.085938 L 30.601562 59.472656 L 33.769531 61.378906 L 34.917969 59.433594 L 35.25 59.632812 L 34.105469 61.578125 L 37.832031 63.820312 Z M 39.285156 61.394531 "/>
<path style=" stroke:none;fill-rule:nonzero;fill:rgb(0%,0%,0%);fill-opacity:1;" d="M 38.878906 47.09375 L 46.035156 52.929688 L 45.695312 53.34375 L 38.886719 47.789062 L 44.503906 54.449219 L 44.136719 54.90625 L 36.445312 50.902344 L 43.21875 56.417969 L 42.882812 56.839844 L 35.730469 51.003906 L 35.992188 50.679688 L 36.0625 50.585938 L 36.308594 50.28125 L 43.671875 54.167969 L 38.269531 47.847656 L 38.550781 47.503906 L 38.601562 47.429688 Z M 38.878906 47.09375 "/>
<path style=" stroke:none;fill-rule:nonzero;fill:rgb(0%,0%,0%);fill-opacity:1;" d="M 44.660156 42.691406 L 49.53125 47.519531 C 49.757812 47.742188 49.890625 48.046875 49.898438 48.371094 C 49.90625 48.691406 49.789062 49.003906 49.574219 49.238281 L 48.644531 50.183594 C 48.417969 50.40625 48.109375 50.527344 47.792969 50.527344 C 47.472656 50.527344 47.167969 50.40625 46.9375 50.183594 L 42.085938 45.335938 C 41.859375 45.109375 41.726562 44.804688 41.71875 44.484375 C 41.710938 44.164062 41.828125 43.855469 42.046875 43.617188 L 42.972656 42.675781 C 43.203125 42.460938 43.503906 42.34375 43.816406 42.34375 C 44.132812 42.347656 44.433594 42.472656 44.660156 42.691406 Z M 49.167969 47.890625 L 44.292969 43.066406 C 44.160156 42.917969 43.980469 42.824219 43.785156 42.800781 C 43.585938 42.78125 43.390625 42.835938 43.230469 42.953125 L 42.304688 43.894531 C 42.191406 44.058594 42.140625 44.257812 42.167969 44.453125 C 42.195312 44.648438 42.292969 44.828125 42.445312 44.957031 L 47.316406 49.785156 C 47.445312 49.933594 47.625 50.027344 47.820312 50.050781 C 48.015625 50.070312 48.210938 50.019531 48.371094 49.90625 L 49.292969 48.960938 C 49.410156 48.800781 49.460938 48.601562 49.4375 48.402344 C 49.414062 48.207031 49.316406 48.023438 49.167969 47.890625 Z M 49.167969 47.890625 "/>
<path style=" stroke:none;fill-rule:nonzero;fill:rgb(0%,0%,0%);fill-opacity:1;" d="M 53.121094 41.863281 L 54.316406 43.273438 C 54.519531 43.515625 54.625 43.828125 54.605469 44.144531 C 54.585938 44.460938 54.449219 44.757812 54.21875 44.976562 L 53.183594 45.859375 C 52.933594 46.050781 52.621094 46.140625 52.308594 46.109375 C 51.996094 46.074219 51.707031 45.921875 51.503906 45.679688 L 50.308594 44.269531 L 50.722656 43.925781 L 51.910156 45.332031 C 52.027344 45.492188 52.195312 45.601562 52.390625 45.640625 C 52.582031 45.679688 52.78125 45.644531 52.949219 45.542969 L 53.953125 44.683594 C 54.082031 44.535156 54.148438 44.339844 54.140625 44.140625 C 54.136719 43.945312 54.054688 43.757812 53.917969 43.613281 L 52.726562 42.203125 C 52.398438 41.816406 52.117188 41.828125 51.585938 41.875 C 51.054688 41.917969 50.277344 41.960938 49.652344 42.027344 C 49.390625 42.09375 49.117188 42.085938 48.863281 42.007812 C 48.605469 41.925781 48.375 41.777344 48.199219 41.574219 L 47.171875 40.351562 C 46.960938 40.113281 46.851562 39.796875 46.871094 39.480469 C 46.890625 39.160156 47.03125 38.859375 47.265625 38.644531 L 48.078125 37.949219 C 48.328125 37.753906 48.644531 37.664062 48.960938 37.695312 C 49.277344 37.726562 49.566406 37.882812 49.773438 38.125 L 50.960938 39.53125 L 50.554688 39.878906 L 49.363281 38.46875 C 49.246094 38.3125 49.078125 38.203125 48.886719 38.160156 C 48.695312 38.121094 48.496094 38.15625 48.328125 38.257812 L 47.511719 38.957031 C 47.386719 39.105469 47.320312 39.300781 47.328125 39.496094 C 47.335938 39.695312 47.417969 39.882812 47.558594 40.019531 L 48.496094 41.128906 C 48.910156 41.617188 49.191406 41.5625 49.695312 41.515625 C 50.199219 41.464844 51.234375 41.382812 51.746094 41.324219 C 52.003906 41.273438 52.269531 41.296875 52.511719 41.394531 C 52.753906 41.488281 52.964844 41.652344 53.121094 41.863281 Z M 53.121094 41.863281 "/>
<path style=" stroke:none;fill-rule:nonzero;fill:rgb(0%,0%,0%);fill-opacity:1;" d="M 54.578125 33.511719 L 53.210938 34.519531 L 58.382812 41.707031 L 57.957031 42.015625 L 52.765625 34.828125 L 51.367188 35.839844 L 51.140625 35.523438 L 52.535156 34.519531 L 52.960938 34.210938 L 54.34375 33.207031 Z M 54.578125 33.511719 "/>
<path style=" stroke:none;fill-rule:nonzero;fill:rgb(0%,0%,0%);fill-opacity:1;" d="M 63.894531 28.882812 L 67.128906 34.929688 C 67.277344 35.210938 67.308594 35.539062 67.21875 35.839844 C 67.128906 36.144531 66.921875 36.398438 66.644531 36.550781 L 65.023438 37.433594 L 64.542969 37.683594 L 60.1875 29.53125 L 60.546875 29.339844 L 60.65625 29.277344 L 62.277344 28.402344 C 62.410156 28.316406 62.5625 28.257812 62.722656 28.234375 C 62.878906 28.214844 63.042969 28.226562 63.195312 28.269531 C 63.347656 28.316406 63.488281 28.394531 63.609375 28.5 C 63.730469 28.605469 63.828125 28.738281 63.894531 28.882812 Z M 66.660156 35.203125 L 63.417969 29.152344 C 63.34375 28.96875 63.199219 28.828125 63.015625 28.753906 C 62.835938 28.679688 62.632812 28.679688 62.453125 28.757812 L 60.832031 29.632812 L 64.820312 37.078125 L 66.441406 36.199219 C 66.601562 36.09375 66.714844 35.925781 66.753906 35.738281 C 66.796875 35.550781 66.761719 35.351562 66.660156 35.1875 Z M 66.660156 35.203125 "/>
<path style=" stroke:none;fill-rule:nonzero;fill:rgb(0%,0%,0%);fill-opacity:1;" d="M 72.964844 33.128906 L 73.121094 33.488281 L 70.539062 34.625 L 70.417969 34.679688 L 70.050781 34.839844 L 66.355469 26.359375 L 69.378906 25.027344 L 69.539062 25.386719 L 67.003906 26.507812 L 68.484375 29.910156 L 70.527344 29.007812 L 70.683594 29.371094 L 68.640625 30.269531 L 70.386719 34.269531 Z M 72.964844 33.128906 "/>
<path style=" stroke:none;fill-rule:nonzero;fill:rgb(0%,0%,0%);fill-opacity:1;" d="M 77.808594 31.359375 L 77.941406 31.730469 L 75.589844 32.574219 L 75.105469 32.753906 L 74.980469 32.382812 L 72.078125 24.023438 L 72.5625 23.839844 L 75.464844 32.1875 Z M 77.808594 31.359375 "/>
<path style=" stroke:none;fill-rule:nonzero;fill:rgb(0%,0%,0%);fill-opacity:1;" d="M 80.722656 30.910156 L 80.203125 31.054688 L 77.691406 22.15625 L 78.207031 22.007812 Z M 80.722656 30.910156 "/>
<path style=" stroke:none;fill-rule:nonzero;fill:rgb(0%,0%,0%);fill-opacity:1;" d="M 85.019531 23.359375 L 84.65625 21.679688 C 84.574219 21.292969 84.230469 20.910156 83.84375 20.992188 L 82.683594 21.242188 C 82.492188 21.308594 82.335938 21.449219 82.246094 21.628906 C 82.15625 21.8125 82.140625 22.019531 82.199219 22.214844 L 83.617188 28.9375 C 83.640625 29.125 83.738281 29.296875 83.890625 29.417969 C 84.039062 29.535156 84.230469 29.589844 84.417969 29.570312 L 85.578125 29.320312 C 85.761719 29.265625 85.914062 29.136719 86.007812 28.96875 C 86.097656 28.800781 86.117188 28.601562 86.0625 28.417969 L 85.652344 26.472656 L 86.175781 26.359375 L 86.585938 28.304688 C 86.660156 28.613281 86.613281 28.9375 86.453125 29.207031 C 86.292969 29.480469 86.03125 29.679688 85.730469 29.761719 L 84.515625 30.019531 C 84.199219 30.078125 83.875 30.007812 83.609375 29.824219 C 83.34375 29.644531 83.160156 29.363281 83.097656 29.046875 L 81.679688 22.324219 C 81.613281 22.011719 81.667969 21.683594 81.835938 21.410156 C 82.007812 21.136719 82.273438 20.941406 82.585938 20.867188 L 83.746094 20.617188 C 84.0625 20.5625 84.386719 20.632812 84.652344 20.8125 C 84.917969 20.996094 85.101562 21.273438 85.164062 21.589844 L 85.519531 23.273438 Z M 85.019531 23.359375 "/>
<path style=" stroke:none;fill-rule:nonzero;fill:rgb(0%,0%,0%);fill-opacity:1;" d="M 90.019531 28.960938 L 89.492188 29.039062 L 88.183594 19.875 L 88.710938 19.796875 Z M 90.019531 28.960938 "/>
<path style=" stroke:none;fill-rule:nonzero;fill:rgb(0%,0%,0%);fill-opacity:1;" d="M 95.832031 20.292969 L 96.339844 27.148438 C 96.363281 27.464844 96.261719 27.78125 96.058594 28.027344 C 95.851562 28.273438 95.5625 28.429688 95.246094 28.460938 L 93.933594 28.5625 C 93.613281 28.574219 93.304688 28.464844 93.066406 28.25 C 92.828125 28.039062 92.679688 27.738281 92.65625 27.421875 L 92.171875 20.570312 C 92.148438 20.25 92.25 19.933594 92.453125 19.6875 C 92.65625 19.441406 92.949219 19.285156 93.265625 19.253906 L 94.582031 19.15625 C 94.894531 19.148438 95.199219 19.261719 95.433594 19.472656 C 95.664062 19.683594 95.808594 19.976562 95.832031 20.292969 Z M 95.832031 27.1875 L 95.347656 20.332031 C 95.316406 19.9375 95.011719 19.515625 94.621094 19.542969 L 93.304688 19.640625 C 92.917969 19.671875 92.691406 20.128906 92.71875 20.53125 L 93.203125 27.382812 C 93.230469 27.773438 93.527344 28.199219 93.914062 28.167969 L 95.230469 28.070312 C 95.609375 28.042969 95.84375 27.574219 95.816406 27.1875 Z M 95.832031 27.1875 "/>
<path style=" stroke:none;fill-rule:nonzero;fill:rgb(0%,0%,0%);fill-opacity:1;" d="M 102.875 19.042969 L 102.746094 27.109375 C 102.742188 27.429688 102.613281 27.734375 102.390625 27.960938 C 102.164062 28.1875 101.863281 28.316406 101.542969 28.324219 L 100.351562 28.324219 C 100.191406 28.320312 100.03125 28.28125 99.886719 28.214844 C 99.738281 28.148438 99.609375 28.054688 99.496094 27.933594 C 99.386719 27.816406 99.300781 27.675781 99.246094 27.527344 C 99.1875 27.375 99.160156 27.210938 99.167969 27.050781 L 99.289062 18.988281 L 99.824219 18.988281 L 99.699219 27.054688 C 99.699219 27.449219 99.945312 27.902344 100.339844 27.90625 L 101.527344 27.90625 C 101.921875 27.90625 102.1875 27.46875 102.191406 27.074219 L 102.316406 19.007812 Z M 102.875 19.042969 "/>
<path style=" stroke:none;fill-rule:nonzero;fill:rgb(0%,0%,0%);fill-opacity:1;" d="M 109.328125 25.765625 L 109.144531 27.609375 C 109.113281 27.925781 108.960938 28.21875 108.71875 28.425781 C 108.480469 28.632812 108.167969 28.738281 107.851562 28.71875 L 106.5 28.582031 C 106.191406 28.535156 105.910156 28.375 105.714844 28.128906 C 105.519531 27.878906 105.429688 27.566406 105.457031 27.253906 L 105.640625 25.410156 L 106.171875 25.464844 L 105.988281 27.308594 C 105.949219 27.703125 106.167969 28.167969 106.554688 28.207031 L 107.871094 28.339844 C 108.257812 28.382812 108.578125 27.964844 108.613281 27.570312 L 108.800781 25.734375 C 108.847656 25.246094 108.644531 25.027344 108.246094 24.671875 C 107.851562 24.316406 107.28125 23.785156 106.796875 23.367188 C 106.570312 23.222656 106.390625 23.019531 106.273438 22.777344 C 106.15625 22.539062 106.105469 22.269531 106.128906 22.003906 L 106.289062 20.425781 C 106.316406 20.105469 106.46875 19.8125 106.710938 19.605469 C 106.949219 19.398438 107.261719 19.292969 107.578125 19.316406 L 108.644531 19.421875 C 108.957031 19.46875 109.242188 19.632812 109.4375 19.882812 C 109.632812 20.136719 109.722656 20.453125 109.691406 20.769531 L 109.503906 22.613281 L 108.972656 22.558594 L 109.15625 20.714844 C 109.195312 20.320312 108.980469 19.855469 108.589844 19.816406 L 107.527344 19.710938 C 107.136719 19.671875 106.832031 20.089844 106.792969 20.476562 L 106.648438 21.9375 C 106.582031 22.578125 106.816406 22.742188 107.203125 23.074219 C 107.589844 23.402344 108.363281 24.097656 108.765625 24.429688 C 108.972656 24.578125 109.132812 24.78125 109.234375 25.019531 C 109.332031 25.253906 109.363281 25.515625 109.328125 25.765625 Z M 109.328125 25.765625 "/>
<path style=" stroke:none;fill-rule:nonzero;fill:rgb(0%,0%,0%);fill-opacity:1;" d="M 119.507812 24.394531 L 119.910156 22.726562 C 119.972656 22.539062 119.960938 22.335938 119.878906 22.15625 C 119.796875 21.976562 119.652344 21.832031 119.472656 21.757812 L 118.320312 21.480469 C 117.9375 21.386719 117.578125 21.761719 117.488281 22.140625 L 115.894531 28.820312 C 115.835938 29 115.851562 29.199219 115.933594 29.371094 C 116.019531 29.539062 116.167969 29.671875 116.34375 29.734375 L 117.503906 30.011719 C 117.691406 30.035156 117.878906 29.988281 118.03125 29.875 C 118.183594 29.761719 118.285156 29.589844 118.316406 29.402344 L 118.773438 27.457031 L 119.296875 27.585938 L 118.8125 29.503906 C 118.746094 29.8125 118.5625 30.078125 118.304688 30.25 C 118.046875 30.425781 117.730469 30.492188 117.425781 30.4375 L 116.214844 30.148438 C 115.910156 30.0625 115.652344 29.863281 115.492188 29.59375 C 115.332031 29.320312 115.28125 28.996094 115.347656 28.6875 L 116.945312 22.007812 C 117.019531 21.695312 117.214844 21.421875 117.484375 21.253906 C 117.757812 21.082031 118.085938 21.023438 118.398438 21.09375 L 119.546875 21.371094 C 119.703125 21.410156 119.851562 21.476562 119.980469 21.570312 C 120.113281 21.664062 120.222656 21.785156 120.304688 21.921875 C 120.390625 22.058594 120.445312 22.210938 120.472656 22.371094 C 120.496094 22.53125 120.492188 22.691406 120.453125 22.851562 L 120.054688 24.523438 Z M 119.507812 24.394531 "/>
<path style=" stroke:none;fill-rule:nonzero;fill:rgb(0%,0%,0%);fill-opacity:1;" d="M 124.371094 29.304688 L 122.4375 28.65625 L 120.984375 31.367188 L 120.5 31.210938 L 125.023438 22.945312 L 125.28125 23.035156 L 125.46875 23.097656 L 125.738281 23.183594 L 124.460938 32.511719 L 123.980469 32.34375 Z M 124.433594 28.914062 L 125.1875 23.566406 L 122.613281 28.296875 Z M 124.433594 28.914062 "/>
<path style=" stroke:none;fill-rule:nonzero;fill:rgb(0%,0%,0%);fill-opacity:1;" d="M 129.609375 29.304688 L 128.382812 30.332031 L 127.015625 33.546875 L 126.535156 33.347656 L 130.136719 24.828125 L 130.621094 25.027344 L 128.796875 29.351562 L 132.820312 25.945312 L 133.304688 26.15625 L 130.078125 28.855469 L 129.816406 34.726562 L 129.335938 34.519531 Z M 129.609375 29.304688 "/>
<path style=" stroke:none;fill-rule:nonzero;fill:rgb(0%,0%,0%);fill-opacity:1;" d="M 134.90625 36.917969 L 134.722656 37.269531 L 132.226562 35.976562 L 132.109375 35.917969 L 131.753906 35.726562 L 136.011719 27.527344 L 138.914062 29.058594 L 138.730469 29.410156 L 136.28125 28.125 L 134.574219 31.410156 L 136.550781 32.445312 L 136.375 32.796875 L 134.394531 31.761719 L 132.382812 35.652344 Z M 134.90625 36.917969 "/>
<path style=" stroke:none;fill-rule:nonzero;fill:rgb(0%,0%,0%);fill-opacity:1;" d="M 147.28125 35.839844 L 143.34375 41.449219 C 143.160156 41.710938 142.882812 41.890625 142.570312 41.953125 C 142.257812 42.011719 141.933594 41.949219 141.664062 41.773438 L 140.589844 41.007812 C 140.335938 40.816406 140.167969 40.53125 140.121094 40.214844 C 140.070312 39.898438 140.144531 39.578125 140.328125 39.316406 L 144.269531 33.707031 C 144.449219 33.445312 144.726562 33.261719 145.039062 33.203125 C 145.351562 33.144531 145.675781 33.207031 145.941406 33.386719 L 147.019531 34.148438 C 147.273438 34.339844 147.445312 34.625 147.492188 34.941406 C 147.542969 35.257812 147.464844 35.578125 147.28125 35.839844 Z M 142.925781 41.148438 L 146.867188 35.539062 C 146.988281 35.386719 147.050781 35.191406 147.039062 34.992188 C 147.03125 34.792969 146.945312 34.605469 146.804688 34.46875 L 145.726562 33.707031 C 145.550781 33.621094 145.351562 33.605469 145.160156 33.660156 C 144.972656 33.71875 144.8125 33.84375 144.710938 34.011719 L 140.769531 39.621094 C 140.644531 39.773438 140.582031 39.96875 140.589844 40.164062 C 140.601562 40.363281 140.683594 40.550781 140.824219 40.6875 L 141.898438 41.449219 C 142.074219 41.535156 142.277344 41.550781 142.464844 41.496094 C 142.652344 41.441406 142.816406 41.316406 142.917969 41.148438 Z M 142.925781 41.148438 "/>
<path style=" stroke:none;fill-rule:nonzero;fill:rgb(0%,0%,0%);fill-opacity:1;" d="M 153.566406 39.421875 L 147.601562 46.484375 L 147.261719 46.191406 L 147.203125 46.140625 L 146.792969 45.792969 L 150.839844 37.742188 L 145.191406 44.425781 L 144.785156 44.082031 L 150.75 37.023438 L 151.0625 37.292969 L 151.15625 37.367188 L 151.464844 37.628906 L 147.410156 45.894531 L 153.164062 39.089844 Z M 153.566406 39.421875 "/>
<path style=" stroke:none;fill-rule:nonzero;fill:rgb(0%,0%,0%);fill-opacity:1;" d="M 154.671875 53.175781 L 154.382812 53.441406 L 152.496094 51.339844 L 152.410156 51.242188 L 152.132812 50.9375 L 158.972656 44.726562 L 161.1875 47.191406 L 160.898438 47.453125 L 159.042969 45.394531 L 156.304688 47.878906 L 157.796875 49.546875 L 157.503906 49.808594 L 156.007812 48.128906 L 152.785156 51.046875 Z M 154.671875 53.175781 "/>
<path style=" stroke:none;fill-rule:nonzero;fill:rgb(0%,0%,0%);fill-opacity:1;" d="M 159.785156 55.375 L 158.527344 53.726562 L 155.796875 55.144531 L 155.492188 54.746094 L 163.84375 50.472656 L 164.007812 50.691406 L 164.128906 50.847656 L 164.304688 51.082031 L 158.015625 58.078125 L 157.695312 57.664062 Z M 160.058594 55.082031 L 163.671875 51.085938 L 158.886719 53.550781 Z M 160.058594 55.082031 "/>
<path style=" stroke:none;fill-rule:nonzero;fill:rgb(0%,0%,0%);fill-opacity:1;" d="M 164.273438 59.171875 L 163.472656 57.914062 L 159.601562 60.40625 L 159.320312 59.964844 L 167.0625 54.976562 L 167.269531 55.304688 L 167.34375 55.417969 L 168.332031 56.972656 C 168.5 57.242188 168.558594 57.566406 168.488281 57.871094 C 168.421875 58.179688 168.234375 58.449219 167.972656 58.621094 L 166.09375 59.828125 C 165.863281 59.976562 165.585938 60.039062 165.3125 60.007812 C 165.039062 59.976562 164.785156 59.851562 164.589844 59.65625 L 161.457031 63.34375 L 161.144531 62.855469 Z M 163.792969 57.714844 L 164.785156 59.269531 C 164.902344 59.417969 165.078125 59.515625 165.269531 59.539062 C 165.460938 59.5625 165.652344 59.507812 165.804688 59.390625 L 167.683594 58.183594 C 167.851562 58.09375 167.976562 57.941406 168.035156 57.761719 C 168.09375 57.582031 168.082031 57.386719 168.003906 57.210938 L 167.011719 55.65625 Z M 163.792969 57.714844 "/>
<path style=" stroke:none;fill-rule:nonzero;fill:rgb(0%,0%,0%);fill-opacity:1;" d="M 171.796875 63.886719 L 170.988281 62.375 L 163.210938 66.546875 L 162.96875 66.085938 L 170.761719 61.910156 L 169.953125 60.382812 L 170.296875 60.199219 L 171.109375 61.722656 L 171.355469 62.210938 L 172.160156 63.722656 Z M 171.796875 63.886719 "/>
<path style=" stroke:none;fill-rule:nonzero;fill:rgb(0%,0%,0%);fill-opacity:1;" d="M 174.792969 69.601562 L 166.339844 73.273438 L 166.128906 72.789062 L 170.480469 70.902344 L 169.4375 68.472656 L 165.082031 70.359375 L 164.871094 69.871094 L 173.320312 66.195312 L 173.535156 66.683594 L 169.796875 68.308594 L 170.839844 70.738281 L 174.585938 69.109375 Z M 174.792969 69.601562 "/>
<path style=" stroke:none;fill-rule:nonzero;fill:rgb(80.784315%,28.235295%,19.607843%);fill-opacity:1;" d="M 132.0625 77.621094 C 129.984375 77.625 127.972656 76.890625 126.382812 75.539062 C 124.398438 76.21875 122.296875 76.476562 120.207031 76.296875 C 118.117188 76.121094 116.089844 75.507812 114.246094 74.503906 C 112.496094 76.042969 110.253906 76.894531 107.929688 76.898438 C 107.144531 76.894531 106.363281 76.792969 105.601562 76.597656 L 107.910156 89.140625 L 131.398438 89.140625 L 133.546875 77.472656 C 133.058594 77.5625 132.5625 77.613281 132.0625 77.621094 Z M 115.039062 86.828125 L 114.9375 86.828125 C 114.761719 86.828125 114.59375 86.765625 114.464844 86.648438 C 114.332031 86.535156 114.246094 86.375 114.222656 86.203125 L 113.316406 79.925781 C 113.304688 79.832031 113.308594 79.734375 113.332031 79.644531 C 113.355469 79.550781 113.394531 79.464844 113.449219 79.386719 C 113.507812 79.308594 113.578125 79.246094 113.660156 79.199219 C 113.742188 79.148438 113.832031 79.117188 113.925781 79.105469 C 114.023438 79.089844 114.117188 79.097656 114.210938 79.121094 C 114.304688 79.144531 114.390625 79.1875 114.464844 79.246094 C 114.542969 79.304688 114.605469 79.378906 114.652344 79.460938 C 114.699219 79.542969 114.730469 79.636719 114.746094 79.730469 L 115.648438 86.011719 C 115.675781 86.203125 115.625 86.394531 115.511719 86.546875 C 115.398438 86.699219 115.226562 86.800781 115.039062 86.828125 Z M 120.980469 86.144531 C 120.980469 86.339844 120.902344 86.523438 120.769531 86.660156 C 120.632812 86.796875 120.445312 86.875 120.253906 86.875 C 120.0625 86.875 119.878906 86.796875 119.742188 86.660156 C 119.605469 86.523438 119.527344 86.339844 119.527344 86.144531 L 119.527344 79.796875 C 119.527344 79.601562 119.605469 79.414062 119.742188 79.28125 C 119.878906 79.140625 120.0625 79.066406 120.253906 79.066406 C 120.445312 79.066406 120.632812 79.140625 120.769531 79.28125 C 120.902344 79.414062 120.980469 79.601562 120.980469 79.796875 Z M 127.226562 79.9375 L 126.316406 86.210938 C 126.292969 86.386719 126.207031 86.542969 126.078125 86.660156 C 125.945312 86.773438 125.777344 86.839844 125.605469 86.839844 L 125.496094 86.839844 C 125.402344 86.828125 125.3125 86.792969 125.230469 86.746094 C 125.152344 86.695312 125.078125 86.632812 125.023438 86.554688 C 124.96875 86.480469 124.925781 86.394531 124.90625 86.300781 C 124.882812 86.207031 124.878906 86.113281 124.894531 86.019531 L 125.773438 79.730469 C 125.800781 79.539062 125.902344 79.363281 126.058594 79.246094 C 126.214844 79.128906 126.410156 79.078125 126.601562 79.105469 C 126.796875 79.132812 126.96875 79.238281 127.085938 79.394531 C 127.203125 79.550781 127.253906 79.746094 127.226562 79.941406 Z M 127.226562 79.9375 "/>
<path style=" stroke:none;fill-rule:nonzero;fill:rgb(80.784315%,28.235295%,19.607843%);fill-opacity:1;" d="M 104.53125 74.683594 C 104.730469 74.773438 104.925781 74.863281 105.132812 74.933594 C 105.339844 75 105.546875 75.0625 105.757812 75.128906 C 105.964844 75.191406 106.171875 75.230469 106.386719 75.277344 C 106.597656 75.324219 106.8125 75.355469 107.027344 75.375 C 107.242188 75.402344 107.460938 75.417969 107.675781 75.417969 C 107.894531 75.4375 108.109375 75.4375 108.324219 75.417969 C 108.542969 75.410156 108.757812 75.390625 108.972656 75.359375 L 109.613281 75.253906 C 109.824219 75.214844 110.027344 75.140625 110.234375 75.085938 L 110.550781 74.996094 L 110.851562 74.875 C 111.050781 74.789062 111.257812 74.722656 111.445312 74.617188 L 112.015625 74.3125 C 112.199219 74.199219 112.375 74.066406 112.554688 73.945312 C 112.734375 73.824219 112.902344 73.691406 113.0625 73.542969 C 113.230469 73.410156 113.394531 73.265625 113.542969 73.109375 L 113.988281 72.625 L 114.035156 72.574219 L 114.085938 72.609375 L 114.796875 73.027344 C 115.035156 73.164062 115.28125 73.273438 115.527344 73.402344 C 115.773438 73.527344 116.011719 73.625 116.28125 73.730469 L 116.664062 73.882812 L 117.050781 74.015625 C 117.3125 74.097656 117.570312 74.191406 117.839844 74.246094 C 118.113281 74.304688 118.367188 74.382812 118.636719 74.433594 L 119.445312 74.5625 C 119.71875 74.597656 119.992188 74.613281 120.265625 74.640625 C 120.535156 74.671875 120.804688 74.640625 121.078125 74.671875 L 121.488281 74.671875 L 121.890625 74.644531 L 122.714844 74.589844 C 122.992188 74.589844 123.25 74.503906 123.515625 74.464844 C 123.78125 74.425781 124.046875 74.390625 124.308594 74.316406 L 125.089844 74.097656 C 125.222656 74.058594 125.351562 74.027344 125.480469 73.984375 L 125.855469 73.835938 L 126.617188 73.546875 L 126.804688 73.472656 L 126.980469 73.625 C 127.179688 73.800781 127.371094 73.988281 127.582031 74.15625 C 127.792969 74.320312 128.011719 74.476562 128.242188 74.617188 C 128.464844 74.761719 128.699219 74.886719 128.941406 74.996094 L 129.300781 75.167969 L 129.679688 75.296875 C 130.175781 75.472656 130.695312 75.582031 131.21875 75.632812 C 131.476562 75.667969 131.742188 75.632812 132.003906 75.667969 L 132.0625 75.667969 C 132.089844 75.667969 132.035156 75.667969 132.0625 75.667969 L 132.398438 75.667969 L 132.816406 75.628906 C 132.949219 75.617188 133.078125 75.59375 133.203125 75.558594 L 133.578125 75.476562 L 133.746094 75.445312 L 133.945312 75.386719 L 134.046875 75.351562 L 134.097656 75.351562 L 134.074219 75.351562 L 134.097656 75.351562 L 134.296875 75.277344 L 134.394531 75.238281 L 134.441406 75.238281 L 134.410156 75.238281 L 134.457031 75.214844 L 134.652344 75.132812 C 134.773438 75.074219 134.917969 75.019531 135.019531 74.957031 L 135.347656 74.78125 L 135.675781 74.574219 C 136.105469 74.296875 136.503906 73.96875 136.863281 73.601562 C 137.21875 73.230469 137.53125 72.820312 137.789062 72.375 C 138.050781 71.933594 138.261719 71.464844 138.417969 70.976562 C 138.570312 70.488281 138.667969 69.988281 138.714844 69.480469 C 138.722656 69.351562 138.722656 69.226562 138.714844 69.097656 L 138.714844 68.738281 C 138.699219 68.222656 138.628906 67.710938 138.507812 67.210938 C 138.429688 66.972656 138.375 66.726562 138.273438 66.492188 C 137.910156 65.550781 137.34375 64.703125 136.609375 64.011719 C 135.878906 63.320312 135.003906 62.800781 134.046875 62.492188 L 133.5625 62.347656 L 133.515625 61.742188 L 133.34375 60.769531 C 133.265625 60.453125 133.171875 60.144531 133.089844 59.828125 C 133.007812 59.511719 132.851562 59.21875 132.734375 58.914062 C 132.621094 58.609375 132.453125 58.324219 132.316406 58.027344 C 132 57.453125 131.640625 56.90625 131.234375 56.394531 C 130.828125 55.871094 130.375 55.382812 129.878906 54.9375 C 129.640625 54.714844 129.386719 54.507812 129.121094 54.316406 C 128.984375 54.21875 128.859375 54.105469 128.726562 54.019531 L 128.308594 53.75 L 127.886719 53.484375 L 127.453125 53.25 L 127.015625 53.015625 C 126.871094 52.9375 126.710938 52.886719 126.5625 52.816406 C 126.261719 52.679688 125.957031 52.558594 125.644531 52.453125 L 125.160156 52.296875 C 125.003906 52.238281 124.839844 52.191406 124.675781 52.160156 C 124.351562 52.089844 124.03125 51.996094 123.707031 51.9375 L 122.742188 51.792969 L 121.742188 51.726562 L 120.726562 51.726562 C 120.550781 51.726562 120.386719 51.726562 120.246094 51.757812 L 119.761719 51.800781 C 119.4375 51.824219 119.101562 51.902344 118.792969 51.953125 C 118.484375 52 118.140625 52.101562 117.828125 52.175781 C 117.511719 52.25 117.1875 52.375 116.859375 52.476562 C 116.53125 52.578125 116.234375 52.726562 115.921875 52.851562 C 115.605469 52.976562 115.316406 53.144531 115.015625 53.296875 C 114.714844 53.453125 114.429688 53.632812 114.148438 53.824219 C 113.867188 54.011719 113.582031 54.191406 113.328125 54.410156 C 113.058594 54.617188 112.800781 54.839844 112.558594 55.074219 L 112.183594 55.417969 C 112.066406 55.539062 111.957031 55.671875 111.84375 55.792969 C 111.726562 55.914062 111.609375 56.039062 111.503906 56.171875 L 111.1875 56.574219 C 110.980469 56.84375 110.789062 57.121094 110.609375 57.410156 C 110.410156 57.695312 110.273438 58.003906 110.101562 58.300781 C 109.925781 58.597656 109.820312 58.921875 109.675781 59.234375 L 109.558594 59.488281 L 109.308594 59.449219 C 109.074219 59.414062 108.824219 59.367188 108.609375 59.335938 C 108.398438 59.308594 108.125 59.292969 107.917969 59.292969 L 107.183594 59.292969 L 106.492188 59.386719 C 106.023438 59.46875 105.5625 59.589844 105.117188 59.753906 C 104.894531 59.832031 104.671875 59.925781 104.460938 60.03125 C 104.242188 60.125 104.03125 60.238281 103.832031 60.367188 L 103.519531 60.546875 L 103.226562 60.757812 L 102.9375 60.96875 C 102.84375 61.042969 102.753906 61.125 102.664062 61.203125 C 102.480469 61.351562 102.300781 61.515625 102.136719 61.691406 C 101.964844 61.859375 101.804688 62.039062 101.65625 62.230469 C 101.351562 62.605469 101.085938 63.011719 100.855469 63.433594 C 100.75 63.652344 100.632812 63.867188 100.542969 64.089844 L 100.28125 64.773438 L 100.089844 65.476562 C 100.039062 65.714844 100.007812 65.964844 99.964844 66.195312 C 99.90625 66.679688 99.886719 67.167969 99.898438 67.65625 C 99.898438 67.898438 99.941406 68.140625 99.960938 68.382812 C 99.980469 68.628906 100.035156 68.871094 100.101562 69.105469 C 100.15625 69.34375 100.222656 69.578125 100.304688 69.808594 C 100.378906 70.042969 100.46875 70.269531 100.566406 70.496094 C 100.664062 70.722656 100.777344 70.9375 100.890625 71.15625 C 101 71.375 101.132812 71.582031 101.277344 71.777344 C 101.550781 72.1875 101.863281 72.566406 102.207031 72.914062 C 102.546875 73.273438 102.917969 73.597656 103.320312 73.886719 C 103.699219 74.1875 104.105469 74.453125 104.53125 74.683594 Z M 104.53125 74.683594 C 103.636719 74.269531 102.820312 73.703125 102.113281 73.007812 C 101.769531 72.660156 101.453125 72.28125 101.175781 71.875 C 101.027344 71.679688 100.914062 71.457031 100.777344 71.253906 C 100.644531 71.050781 100.546875 70.820312 100.449219 70.589844 C 100.351562 70.363281 100.25 70.140625 100.175781 69.90625 C 100.09375 69.671875 100.023438 69.4375 99.964844 69.195312 C 99.898438 68.953125 99.863281 68.710938 99.8125 68.46875 C 99.757812 68.222656 99.738281 67.980469 99.730469 67.734375 C 99.695312 67.246094 99.707031 66.757812 99.753906 66.273438 C 99.785156 66.027344 99.816406 65.789062 99.859375 65.535156 L 100.035156 64.8125 L 100.28125 64.105469 C 100.371094 63.871094 100.484375 63.648438 100.585938 63.425781 C 100.8125 62.980469 101.074219 62.554688 101.375 62.15625 C 101.667969 61.75 102 61.375 102.371094 61.039062 L 102.640625 60.78125 L 102.9375 60.546875 L 103.238281 60.3125 L 103.550781 60.109375 C 103.757812 59.96875 103.972656 59.839844 104.199219 59.730469 C 104.417969 59.609375 104.648438 59.503906 104.878906 59.410156 C 105.351562 59.214844 105.835938 59.0625 106.332031 58.953125 L 107.089844 58.820312 L 107.828125 58.761719 C 108.101562 58.761719 108.339844 58.761719 108.601562 58.761719 C 108.863281 58.761719 109.085938 58.816406 109.355469 58.839844 L 108.988281 59.054688 C 109.125 58.71875 109.238281 58.375 109.390625 58.042969 C 109.539062 57.714844 109.691406 57.378906 109.875 57.070312 C 110.046875 56.75 110.238281 56.441406 110.449219 56.144531 L 110.761719 55.695312 C 110.875 55.550781 110.992188 55.414062 111.105469 55.269531 C 111.222656 55.121094 111.335938 54.984375 111.460938 54.847656 L 111.835938 54.457031 C 112.085938 54.183594 112.359375 53.96875 112.628906 53.703125 C 112.902344 53.433594 113.207031 53.25 113.492188 53.023438 C 113.777344 52.792969 114.097656 52.613281 114.402344 52.402344 C 114.707031 52.195312 115.039062 52.050781 115.367188 51.871094 C 115.695312 51.6875 116.03125 51.558594 116.371094 51.417969 C 116.707031 51.277344 117.050781 51.148438 117.40625 51.042969 C 117.757812 50.9375 118.105469 50.824219 118.464844 50.75 C 118.824219 50.679688 119.179688 50.585938 119.554688 50.542969 L 120.113281 50.46875 C 120.304688 50.441406 120.488281 50.421875 120.660156 50.410156 L 121.183594 50.382812 L 121.75 50.382812 C 122.113281 50.382812 122.484375 50.382812 122.851562 50.414062 L 123.949219 50.546875 C 124.316406 50.605469 124.675781 50.691406 125.039062 50.765625 C 125.222656 50.796875 125.402344 50.839844 125.574219 50.902344 L 126.109375 51.0625 C 126.464844 51.167969 126.816406 51.292969 127.15625 51.441406 C 127.328125 51.515625 127.503906 51.574219 127.671875 51.65625 L 128.152344 51.902344 L 128.636719 52.15625 L 129.121094 52.449219 L 129.605469 52.746094 C 129.765625 52.847656 129.90625 52.96875 130.054688 53.074219 C 130.359375 53.292969 130.652344 53.527344 130.929688 53.78125 C 131.496094 54.273438 132.015625 54.816406 132.488281 55.398438 C 132.960938 55.984375 133.382812 56.613281 133.746094 57.269531 C 133.910156 57.609375 134.105469 57.941406 134.230469 58.292969 C 134.355469 58.640625 134.511719 58.996094 134.621094 59.355469 C 134.734375 59.714844 134.828125 60.085938 134.910156 60.453125 L 135.101562 61.578125 L 134.535156 60.894531 C 135.125 61.09375 135.695312 61.351562 136.230469 61.671875 C 136.765625 61.996094 137.257812 62.375 137.707031 62.808594 C 138.15625 63.246094 138.554688 63.734375 138.886719 64.265625 C 139.222656 64.792969 139.496094 65.355469 139.703125 65.945312 C 139.910156 66.535156 140.046875 67.148438 140.113281 67.773438 C 140.148438 68.066406 140.164062 68.363281 140.164062 68.660156 L 140.164062 69.148438 C 140.164062 69.296875 140.164062 69.453125 140.125 69.609375 C 140.058594 70.222656 139.917969 70.828125 139.707031 71.410156 C 139.496094 71.984375 139.21875 72.539062 138.882812 73.050781 C 138.550781 73.566406 138.160156 74.039062 137.71875 74.460938 C 137.277344 74.886719 136.792969 75.257812 136.265625 75.570312 L 135.875 75.792969 L 135.449219 75.996094 C 135.304688 76.070312 135.183594 76.109375 135.046875 76.164062 L 134.847656 76.234375 L 134.800781 76.234375 L 134.71875 76.265625 L 134.617188 76.300781 C 134.039062 76.476562 133.441406 76.59375 132.835938 76.644531 L 131.960938 76.644531 C 131.660156 76.613281 131.363281 76.613281 131.070312 76.5625 C 130.480469 76.46875 129.90625 76.304688 129.355469 76.074219 L 128.941406 75.910156 L 128.550781 75.703125 C 128.285156 75.566406 128.035156 75.414062 127.796875 75.238281 C 127.550781 75.074219 127.316406 74.890625 127.09375 74.695312 C 126.871094 74.503906 126.671875 74.285156 126.464844 74.082031 L 126.832031 74.160156 L 125.625 74.558594 C 125.488281 74.601562 125.347656 74.621094 125.207031 74.65625 L 124.386719 74.839844 C 124.109375 74.902344 123.824219 74.921875 123.542969 74.960938 C 123.261719 75 122.976562 75.050781 122.707031 75.054688 L 121.875 75.078125 L 121.449219 75.078125 L 121.03125 75.054688 C 120.753906 75.03125 120.472656 75.054688 120.195312 74.988281 C 119.921875 74.917969 119.640625 74.917969 119.363281 74.875 L 118.542969 74.703125 C 118.269531 74.640625 118.003906 74.554688 117.734375 74.480469 C 117.464844 74.40625 117.199219 74.320312 116.941406 74.21875 L 116.550781 74.078125 L 116.167969 73.914062 C 115.910156 73.808594 115.65625 73.6875 115.414062 73.558594 C 115.164062 73.421875 114.929688 73.304688 114.675781 73.160156 L 113.96875 72.714844 L 114.066406 72.714844 L 113.582031 73.203125 C 113.433594 73.355469 113.269531 73.5 113.101562 73.628906 C 112.933594 73.773438 112.757812 73.90625 112.574219 74.023438 C 112.390625 74.140625 112.210938 74.265625 112.019531 74.375 L 111.441406 74.675781 C 111.242188 74.773438 111.042969 74.855469 110.835938 74.929688 L 110.53125 75.050781 L 110.214844 75.136719 C 110.007812 75.191406 109.800781 75.261719 109.585938 75.304688 L 108.9375 75.40625 C 108.726562 75.433594 108.507812 75.449219 108.292969 75.453125 C 108.074219 75.46875 107.859375 75.46875 107.644531 75.453125 C 107.207031 75.433594 106.773438 75.382812 106.347656 75.296875 C 106.136719 75.242188 105.921875 75.210938 105.71875 75.140625 C 105.515625 75.074219 105.300781 75.019531 105.097656 74.9375 C 104.894531 74.855469 104.730469 74.773438 104.53125 74.683594 Z M 104.53125 74.683594 "/>
<path style=" stroke:none;fill-rule:nonzero;fill:rgb(0%,0%,0%);fill-opacity:1;" d="M 76.828125 174.816406 L 76.300781 176.640625 C 76.210938 176.953125 76.003906 177.21875 75.722656 177.382812 C 75.441406 177.546875 75.109375 177.59375 74.792969 177.515625 L 73.457031 177.125 C 73.152344 177.019531 72.902344 176.796875 72.753906 176.507812 C 72.605469 176.21875 72.574219 175.886719 72.664062 175.574219 L 73.191406 173.757812 L 73.71875 173.914062 L 73.191406 175.730469 C 73.121094 175.921875 73.121094 176.128906 73.195312 176.320312 C 73.273438 176.507812 73.414062 176.660156 73.597656 176.746094 L 74.894531 177.121094 C 75.28125 177.238281 75.675781 176.878906 75.789062 176.488281 L 76.3125 174.671875 C 76.457031 174.183594 76.285156 173.933594 75.953125 173.5 C 75.621094 173.066406 75.140625 172.421875 74.714844 171.902344 C 74.511719 171.71875 74.367188 171.480469 74.292969 171.21875 C 74.21875 170.953125 74.222656 170.675781 74.296875 170.410156 L 74.75 168.851562 C 74.835938 168.535156 75.042969 168.265625 75.324219 168.101562 C 75.609375 167.941406 75.941406 167.894531 76.257812 167.976562 L 77.308594 168.28125 C 77.617188 168.386719 77.871094 168.605469 78.023438 168.894531 C 78.171875 169.183594 78.203125 169.519531 78.109375 169.832031 L 77.589844 171.652344 L 77.0625 171.496094 L 77.582031 169.679688 C 77.65625 169.488281 77.65625 169.28125 77.582031 169.09375 C 77.507812 168.90625 77.363281 168.753906 77.179688 168.667969 L 76.125 168.355469 C 75.746094 168.242188 75.363281 168.609375 75.246094 168.996094 L 74.835938 170.425781 C 74.652344 171.0625 74.835938 171.273438 75.183594 171.679688 C 75.53125 172.089844 76.152344 172.929688 76.5 173.339844 C 76.6875 173.527344 76.820312 173.769531 76.878906 174.03125 C 76.9375 174.292969 76.917969 174.5625 76.828125 174.816406 Z M 76.828125 174.816406 "/>
<path style=" stroke:none;fill-rule:nonzero;fill:rgb(0%,0%,0%);fill-opacity:1;" d="M 79.601562 178.691406 L 79.0625 178.566406 L 81.164062 169.328125 L 81.695312 169.449219 Z M 79.601562 178.691406 "/>
<path style=" stroke:none;fill-rule:nonzero;fill:rgb(0%,0%,0%);fill-opacity:1;" d="M 88.101562 170.644531 L 86.539062 180.007812 L 86.09375 179.929688 L 86.011719 179.929688 L 85.46875 179.84375 L 84.824219 170.605469 L 83.34375 179.480469 L 82.804688 179.386719 L 84.367188 170.023438 L 84.785156 170.097656 L 84.90625 170.097656 L 85.3125 170.164062 L 86.066406 179.574219 L 87.566406 170.542969 Z M 88.101562 170.644531 "/>
<path style=" stroke:none;fill-rule:nonzero;fill:rgb(0%,0%,0%);fill-opacity:1;" d="M 93.511719 174.257812 L 93.6875 172.507812 C 93.726562 172.101562 93.503906 171.621094 93.105469 171.582031 L 91.898438 171.460938 C 91.496094 171.421875 91.1875 171.851562 91.148438 172.253906 L 90.460938 179.261719 C 90.425781 179.453125 90.46875 179.652344 90.578125 179.816406 C 90.6875 179.976562 90.855469 180.089844 91.046875 180.128906 L 92.261719 180.25 C 92.457031 180.25 92.640625 180.171875 92.78125 180.03125 C 92.917969 179.894531 93 179.707031 93.003906 179.511719 L 93.203125 177.496094 L 93.75 177.550781 L 93.546875 179.570312 C 93.519531 179.890625 93.371094 180.1875 93.132812 180.398438 C 92.894531 180.613281 92.582031 180.726562 92.265625 180.714844 L 91.003906 180.585938 C 90.679688 180.542969 90.382812 180.375 90.179688 180.117188 C 89.976562 179.859375 89.882812 179.535156 89.914062 179.207031 L 90.605469 172.199219 C 90.636719 171.875 90.792969 171.570312 91.042969 171.359375 C 91.292969 171.144531 91.613281 171.039062 91.941406 171.0625 L 93.148438 171.183594 C 93.472656 171.226562 93.769531 171.394531 93.972656 171.648438 C 94.175781 171.90625 94.273438 172.234375 94.238281 172.5625 L 94.0625 174.3125 Z M 93.511719 174.257812 "/>
<path style=" stroke:none;fill-rule:nonzero;fill:rgb(0%,0%,0%);fill-opacity:1;" d="M 99.917969 180.734375 L 99.917969 181.136719 L 97.015625 180.996094 L 96.46875 180.996094 L 96.953125 171.511719 L 100.339844 171.675781 L 100.339844 172.078125 L 97.507812 171.945312 L 97.324219 175.746094 L 99.609375 175.855469 L 99.609375 176.257812 L 97.324219 176.144531 L 97.105469 180.617188 Z M 99.917969 180.734375 "/>
<path style=" stroke:none;fill-rule:nonzero;fill:rgb(0%,0%,0%);fill-opacity:1;" d="M 108.15625 171.417969 L 108.84375 180.890625 L 108.296875 180.925781 L 107.632812 172.128906 L 106.226562 173.191406 L 106.1875 172.65625 L 107.585938 171.457031 Z M 108.15625 171.417969 "/>
<path style=" stroke:none;fill-rule:nonzero;fill:rgb(0%,0%,0%);fill-opacity:1;" d="M 115.4375 171.699219 L 116.074219 175.710938 L 116.558594 178.65625 C 116.605469 178.953125 116.539062 179.257812 116.378906 179.507812 C 116.214844 179.761719 115.964844 179.945312 115.679688 180.023438 L 114.480469 180.21875 C 114.160156 180.265625 113.835938 180.1875 113.578125 179.996094 C 113.320312 179.804688 113.144531 179.519531 113.09375 179.203125 L 112.882812 177.859375 L 113.410156 177.773438 L 113.625 179.113281 C 113.644531 179.3125 113.734375 179.496094 113.878906 179.625 C 114.027344 179.757812 114.21875 179.828125 114.414062 179.820312 L 115.484375 179.644531 C 115.671875 179.589844 115.835938 179.464844 115.933594 179.296875 C 116.03125 179.125 116.0625 178.921875 116.015625 178.730469 L 115.53125 175.847656 C 115.363281 176.019531 115.140625 176.128906 114.902344 176.167969 L 113.703125 176.363281 C 113.386719 176.410156 113.058594 176.332031 112.796875 176.144531 C 112.535156 175.953125 112.359375 175.667969 112.304688 175.347656 L 111.824219 172.265625 C 111.796875 172.105469 111.804688 171.945312 111.839844 171.785156 C 111.878906 171.628906 111.945312 171.484375 112.039062 171.351562 C 112.132812 171.222656 112.25 171.113281 112.386719 171.027344 C 112.523438 170.945312 112.675781 170.890625 112.832031 170.863281 L 114.035156 170.667969 C 114.191406 170.644531 114.355469 170.648438 114.511719 170.6875 C 114.671875 170.726562 114.816406 170.796875 114.949219 170.890625 C 115.078125 170.988281 115.1875 171.109375 115.273438 171.246094 C 115.355469 171.386719 115.414062 171.539062 115.4375 171.699219 Z M 115.382812 174.863281 L 114.898438 171.78125 C 114.882812 171.585938 114.792969 171.40625 114.644531 171.273438 C 114.496094 171.144531 114.304688 171.074219 114.109375 171.082031 L 112.90625 171.277344 C 112.71875 171.332031 112.554688 171.457031 112.457031 171.625 C 112.359375 171.796875 112.328125 172 112.375 172.191406 L 112.859375 175.273438 C 112.875 175.46875 112.96875 175.648438 113.113281 175.777344 C 113.261719 175.90625 113.453125 175.972656 113.644531 175.964844 L 114.851562 175.769531 C 115.039062 175.71875 115.199219 175.59375 115.300781 175.425781 C 115.398438 175.257812 115.429688 175.054688 115.382812 174.863281 Z M 115.382812 174.863281 "/>
<path style=" stroke:none;fill-rule:nonzero;fill:rgb(0%,0%,0%);fill-opacity:1;" d="M 121.183594 170.367188 L 122.152344 174.3125 L 122.867188 177.226562 C 122.941406 177.523438 122.90625 177.835938 122.765625 178.105469 C 122.625 178.375 122.386719 178.582031 122.101562 178.6875 L 120.921875 178.976562 C 120.613281 179.050781 120.285156 179 120.011719 178.832031 C 119.742188 178.664062 119.546875 178.394531 119.472656 178.082031 L 119.148438 176.765625 L 119.664062 176.632812 L 119.96875 177.9375 C 120.003906 178.132812 120.109375 178.308594 120.269531 178.425781 C 120.425781 178.546875 120.625 178.597656 120.820312 178.574219 L 121.871094 178.3125 C 122.058594 178.242188 122.210938 178.101562 122.292969 177.917969 C 122.378906 177.738281 122.390625 177.527344 122.324219 177.339844 L 121.644531 174.535156 C 121.484375 174.71875 121.277344 174.847656 121.042969 174.902344 L 119.863281 175.199219 C 119.550781 175.277344 119.21875 175.226562 118.941406 175.058594 C 118.664062 174.890625 118.464844 174.621094 118.386719 174.304688 L 117.636719 171.277344 C 117.597656 171.121094 117.585938 170.957031 117.609375 170.796875 C 117.628906 170.632812 117.683594 170.480469 117.765625 170.339844 C 117.847656 170.199219 117.957031 170.078125 118.085938 169.980469 C 118.214844 169.882812 118.363281 169.808594 118.519531 169.769531 L 119.703125 169.472656 C 120.015625 169.394531 120.351562 169.445312 120.625 169.613281 C 120.902344 169.78125 121.105469 170.050781 121.183594 170.367188 Z M 121.402344 173.527344 L 120.652344 170.5 C 120.617188 170.304688 120.511719 170.132812 120.355469 170.011719 C 120.195312 169.894531 120 169.84375 119.804688 169.867188 L 118.621094 170.164062 C 118.433594 170.234375 118.28125 170.375 118.195312 170.558594 C 118.113281 170.738281 118.101562 170.945312 118.167969 171.136719 L 118.917969 174.164062 C 118.953125 174.359375 119.058594 174.53125 119.214844 174.644531 C 119.371094 174.761719 119.566406 174.8125 119.761719 174.789062 L 120.945312 174.492188 C 121.039062 174.457031 121.128906 174.410156 121.203125 174.34375 C 121.277344 174.277344 121.339844 174.199219 121.382812 174.109375 C 121.425781 174.019531 121.453125 173.921875 121.457031 173.820312 C 121.464844 173.722656 121.453125 173.621094 121.421875 173.527344 Z M 121.402344 173.527344 "/>
<path style=" stroke:none;fill-rule:nonzero;fill:rgb(0%,0%,0%);fill-opacity:1;" d="M 129.019531 175.230469 C 129.074219 175.382812 129.09375 175.542969 129.085938 175.703125 C 129.074219 175.863281 129.035156 176.019531 128.964844 176.164062 C 128.894531 176.308594 128.796875 176.4375 128.675781 176.546875 C 128.554688 176.652344 128.417969 176.734375 128.265625 176.785156 L 127.238281 177.140625 C 126.933594 177.242188 126.597656 177.222656 126.308594 177.078125 C 126.019531 176.9375 125.796875 176.683594 125.691406 176.378906 L 125.164062 174.839844 L 125.683594 174.660156 L 126.210938 176.203125 C 126.261719 176.394531 126.382812 176.558594 126.550781 176.660156 C 126.714844 176.761719 126.917969 176.796875 127.109375 176.757812 L 128.132812 176.40625 C 128.316406 176.320312 128.457031 176.167969 128.527344 175.984375 C 128.597656 175.796875 128.589844 175.589844 128.511719 175.40625 L 127.59375 172.707031 C 127.542969 172.515625 127.421875 172.351562 127.25 172.25 C 127.082031 172.148438 126.878906 172.121094 126.6875 172.167969 L 125.523438 172.570312 L 125.390625 172.1875 L 126.425781 171.832031 C 126.605469 171.746094 126.742188 171.59375 126.8125 171.40625 C 126.878906 171.222656 126.875 171.015625 126.800781 170.835938 L 126.097656 168.789062 C 126.050781 168.597656 125.929688 168.429688 125.761719 168.328125 C 125.597656 168.222656 125.394531 168.1875 125.203125 168.230469 L 124.429688 168.496094 C 124.257812 168.582031 124.125 168.730469 124.054688 168.910156 C 123.988281 169.089844 123.988281 169.289062 124.0625 169.46875 L 124.546875 170.882812 L 124.027344 171.0625 L 123.542969 169.648438 C 123.441406 169.339844 123.464844 169.003906 123.605469 168.714844 C 123.75 168.421875 124 168.199219 124.304688 168.09375 L 125.0625 167.832031 L 125.089844 167.832031 C 125.394531 167.730469 125.722656 167.757812 126.007812 167.902344 C 126.292969 168.042969 126.507812 168.296875 126.609375 168.597656 L 127.3125 170.644531 C 127.371094 170.824219 127.390625 171.011719 127.367188 171.199219 C 127.339844 171.386719 127.273438 171.5625 127.167969 171.71875 C 127.355469 171.757812 127.535156 171.835938 127.6875 171.953125 C 127.839844 172.070312 127.964844 172.222656 128.050781 172.394531 Z M 129.019531 175.230469 "/>
<path style=" stroke:none;fill-rule:nonzero;fill:rgb(93.725491%,25.490198%,21.176471%);fill-opacity:1;" d="M 66.273438 139.832031 L 141.6875 139.832031 C 141.785156 139.796875 141.867188 139.738281 141.925781 139.65625 C 141.984375 139.570312 142.015625 139.472656 142.015625 139.371094 C 142.015625 139.269531 141.984375 139.171875 141.925781 139.089844 C 141.867188 139.007812 141.785156 138.945312 141.6875 138.914062 L 66.273438 138.914062 C 66.179688 138.945312 66.097656 139.007812 66.039062 139.089844 C 65.980469 139.171875 65.949219 139.269531 65.949219 139.371094 C 65.949219 139.472656 65.980469 139.570312 66.039062 139.65625 C 66.097656 139.738281 66.179688 139.796875 66.273438 139.832031 Z M 66.273438 139.832031 "/>
<path style=" stroke:none;fill-rule:nonzero;fill:rgb(93.725491%,25.490198%,21.176471%);fill-opacity:1;" d="M 66.273438 151.101562 L 141.6875 151.101562 C 141.808594 151.101562 141.925781 151.054688 142.011719 150.96875 C 142.097656 150.882812 142.144531 150.765625 142.144531 150.644531 C 142.144531 150.523438 142.097656 150.40625 142.011719 150.320312 C 141.925781 150.234375 141.808594 150.1875 141.6875 150.1875 L 66.273438 150.1875 C 66.152344 150.1875 66.035156 150.234375 65.953125 150.320312 C 65.867188 150.40625 65.820312 150.523438 65.820312 150.644531 C 65.820312 150.765625 65.867188 150.882812 65.953125 150.96875 C 66.035156 151.054688 66.152344 151.101562 66.273438 151.101562 Z M 66.273438 151.101562 "/>
<path style=" stroke:none;fill-rule:nonzero;fill:rgb(0%,0%,0%);fill-opacity:1;" d="M 76.765625 143.613281 L 76.765625 142.21875 C 76.765625 141.898438 76.554688 141.539062 76.234375 141.539062 L 75.265625 141.539062 C 74.945312 141.539062 74.734375 141.898438 74.734375 142.21875 L 74.734375 147.796875 C 74.722656 147.949219 74.769531 148.105469 74.871094 148.222656 C 74.96875 148.34375 75.113281 148.417969 75.265625 148.433594 L 76.234375 148.433594 C 76.386719 148.417969 76.53125 148.34375 76.628906 148.222656 C 76.730469 148.105469 76.777344 147.949219 76.765625 147.796875 L 76.765625 146.191406 L 77.203125 146.191406 L 77.203125 147.796875 C 77.207031 148.050781 77.117188 148.300781 76.945312 148.484375 C 76.769531 148.671875 76.53125 148.785156 76.277344 148.796875 L 75.269531 148.796875 C 75.011719 148.789062 74.765625 148.679688 74.585938 148.492188 C 74.402344 148.304688 74.304688 148.054688 74.304688 147.796875 L 74.304688 142.21875 C 74.300781 142.089844 74.320312 141.960938 74.367188 141.839844 C 74.414062 141.714844 74.484375 141.605469 74.578125 141.511719 C 74.667969 141.417969 74.773438 141.34375 74.894531 141.292969 C 75.011719 141.242188 75.140625 141.21875 75.269531 141.21875 L 76.238281 141.21875 C 76.496094 141.226562 76.742188 141.332031 76.925781 141.519531 C 77.105469 141.707031 77.207031 141.957031 77.207031 142.21875 L 77.207031 143.613281 Z M 76.765625 143.613281 "/>
<path style=" stroke:none;fill-rule:nonzero;fill:rgb(0%,0%,0%);fill-opacity:1;" d="M 81.453125 146.289062 L 79.78125 146.289062 L 79.335938 148.769531 L 78.933594 148.769531 L 80.300781 141.238281 L 80.917969 141.238281 L 82.324219 148.769531 L 81.898438 148.769531 Z M 81.40625 145.96875 L 80.625 141.65625 L 79.84375 145.96875 Z M 81.40625 145.96875 "/>
<path style=" stroke:none;fill-rule:nonzero;fill:rgb(0%,0%,0%);fill-opacity:1;" d="M 85.328125 144.75 L 84.738281 145.914062 L 84.738281 148.769531 L 84.320312 148.769531 L 84.320312 141.246094 L 84.738281 141.246094 L 84.738281 145.0625 L 86.671875 141.246094 L 87.109375 141.246094 L 85.550781 144.292969 L 87.214844 148.769531 L 86.785156 148.769531 Z M 85.328125 144.75 "/>
<path style=" stroke:none;fill-rule:nonzero;fill:rgb(0%,0%,0%);fill-opacity:1;" d="M 91.800781 148.445312 L 91.800781 148.769531 L 89.078125 148.769531 L 89.078125 141.246094 L 91.761719 141.246094 L 91.761719 141.566406 L 89.492188 141.566406 L 89.492188 144.582031 L 91.308594 144.582031 L 91.308594 144.902344 L 89.492188 144.902344 L 89.492188 148.445312 Z M 91.800781 148.445312 "/>
<path style=" stroke:none;fill-rule:nonzero;fill:rgb(0%,0%,0%);fill-opacity:1;" d="M 96.546875 146.296875 L 96.546875 147.796875 C 96.546875 148.054688 96.445312 148.304688 96.265625 148.492188 C 96.085938 148.679688 95.839844 148.789062 95.578125 148.796875 L 94.476562 148.796875 C 94.214844 148.789062 93.96875 148.679688 93.789062 148.492188 C 93.609375 148.304688 93.507812 148.054688 93.507812 147.796875 L 93.507812 146.292969 L 93.945312 146.292969 L 93.945312 147.796875 C 93.945312 148.117188 94.15625 148.476562 94.472656 148.476562 L 95.542969 148.476562 C 95.859375 148.476562 96.082031 148.117188 96.082031 147.796875 L 96.082031 146.292969 C 96.082031 145.875 95.902344 145.738281 95.554688 145.480469 C 95.207031 145.222656 94.691406 144.84375 94.261719 144.546875 C 94.070312 144.449219 93.90625 144.300781 93.792969 144.117188 C 93.675781 143.933594 93.613281 143.71875 93.613281 143.503906 L 93.613281 142.214844 C 93.609375 142.085938 93.632812 141.953125 93.679688 141.832031 C 93.726562 141.710938 93.796875 141.601562 93.886719 141.507812 C 93.976562 141.414062 94.085938 141.339844 94.203125 141.289062 C 94.324219 141.238281 94.453125 141.210938 94.582031 141.210938 L 95.460938 141.210938 C 95.589844 141.210938 95.71875 141.238281 95.839844 141.289062 C 95.957031 141.339844 96.066406 141.414062 96.15625 141.507812 C 96.246094 141.601562 96.316406 141.710938 96.363281 141.832031 C 96.410156 141.953125 96.433594 142.085938 96.429688 142.214844 L 96.429688 143.714844 L 95.996094 143.714844 L 95.996094 142.214844 C 95.996094 141.894531 95.785156 141.53125 95.46875 141.53125 L 94.597656 141.53125 C 94.277344 141.53125 94.0625 141.894531 94.0625 142.214844 L 94.0625 143.421875 C 94.0625 143.941406 94.269531 144.054688 94.605469 144.296875 C 94.945312 144.53125 95.625 145.027344 95.976562 145.265625 C 96.15625 145.367188 96.304688 145.519531 96.40625 145.703125 C 96.507812 145.882812 96.554688 146.089844 96.546875 146.296875 Z M 96.546875 146.296875 "/>
<path style=" stroke:none;fill-rule:nonzero;fill:rgb(0%,0%,0%);fill-opacity:1;" d="M 107.792969 142.21875 L 107.792969 144.390625 C 107.792969 144.648438 107.691406 144.898438 107.507812 145.078125 C 107.328125 145.261719 107.082031 145.363281 106.824219 145.363281 L 105.332031 145.363281 L 105.332031 148.769531 L 104.898438 148.769531 L 104.898438 141.246094 L 106.835938 141.246094 C 107.089844 141.25 107.332031 141.351562 107.511719 141.535156 C 107.691406 141.714844 107.792969 141.960938 107.792969 142.21875 Z M 107.359375 144.367188 L 107.359375 142.21875 C 107.371094 142.0625 107.320312 141.90625 107.222656 141.785156 C 107.125 141.664062 106.980469 141.585938 106.824219 141.566406 L 105.332031 141.566406 L 105.332031 145.007812 L 106.824219 145.007812 C 106.976562 144.992188 107.113281 144.921875 107.214844 144.804688 C 107.3125 144.691406 107.363281 144.542969 107.359375 144.390625 Z M 107.359375 144.367188 "/>
<path style=" stroke:none;fill-rule:nonzero;fill:rgb(0%,0%,0%);fill-opacity:1;" d="M 111.582031 146.289062 L 109.90625 146.289062 L 109.460938 148.757812 L 109.0625 148.757812 L 110.449219 141.238281 L 111.0625 141.238281 L 112.453125 148.769531 L 112.027344 148.769531 Z M 111.527344 145.96875 L 110.753906 141.65625 L 109.96875 145.96875 Z M 111.527344 145.96875 "/>
<path style=" stroke:none;fill-rule:nonzero;fill:rgb(0%,0%,0%);fill-opacity:1;" d="M 116.582031 141.566406 L 115.195312 141.566406 L 115.195312 148.769531 L 114.773438 148.769531 L 114.773438 141.566406 L 113.375 141.566406 L 113.375 141.246094 L 116.582031 141.246094 Z M 116.582031 141.566406 "/>
<path style=" stroke:none;fill-rule:nonzero;fill:rgb(0%,0%,0%);fill-opacity:1;" d="M 119.941406 145.007812 L 118.730469 145.007812 L 118.730469 148.769531 L 118.304688 148.769531 L 118.304688 141.246094 L 120.238281 141.246094 C 120.496094 141.246094 120.742188 141.347656 120.925781 141.53125 C 121.105469 141.714844 121.207031 141.960938 121.207031 142.21875 L 121.207031 144.039062 C 121.207031 144.261719 121.128906 144.480469 120.988281 144.660156 C 120.847656 144.835938 120.652344 144.960938 120.433594 145.007812 L 121.566406 148.777344 L 121.082031 148.777344 Z M 118.730469 144.6875 L 120.226562 144.6875 C 120.378906 144.667969 120.519531 144.589844 120.621094 144.46875 C 120.71875 144.347656 120.765625 144.191406 120.753906 144.039062 L 120.753906 142.21875 C 120.765625 142.0625 120.71875 141.910156 120.621094 141.785156 C 120.519531 141.664062 120.378906 141.585938 120.226562 141.566406 L 118.730469 141.566406 Z M 118.730469 144.6875 "/>
<path style=" stroke:none;fill-rule:nonzero;fill:rgb(0%,0%,0%);fill-opacity:1;" d="M 123.886719 148.769531 L 123.453125 148.769531 L 123.453125 141.246094 L 123.886719 141.246094 Z M 123.886719 148.769531 "/>
<path style=" stroke:none;fill-rule:nonzero;fill:rgb(0%,0%,0%);fill-opacity:1;" d="M 128.9375 148.445312 L 128.9375 148.769531 L 126.214844 148.769531 L 126.214844 141.246094 L 128.894531 141.246094 L 128.894531 141.566406 L 126.648438 141.566406 L 126.648438 144.582031 L 128.464844 144.582031 L 128.464844 144.902344 L 126.648438 144.902344 L 126.648438 148.445312 Z M 128.9375 148.445312 "/>
<path style=" stroke:none;fill-rule:nonzero;fill:rgb(0%,0%,0%);fill-opacity:1;" d="M 133.683594 146.296875 L 133.683594 147.796875 C 133.683594 148.054688 133.582031 148.304688 133.402344 148.492188 C 133.222656 148.679688 132.976562 148.789062 132.714844 148.796875 L 131.628906 148.796875 C 131.367188 148.789062 131.121094 148.679688 130.941406 148.492188 C 130.761719 148.304688 130.660156 148.054688 130.660156 147.796875 L 130.660156 146.292969 L 131.09375 146.292969 L 131.09375 147.796875 C 131.09375 148.117188 131.308594 148.476562 131.621094 148.476562 L 132.695312 148.476562 C 133.011719 148.476562 133.234375 148.117188 133.234375 147.796875 L 133.234375 146.292969 C 133.234375 145.875 133.054688 145.738281 132.707031 145.480469 C 132.359375 145.222656 131.851562 144.84375 131.414062 144.546875 C 131.21875 144.449219 131.058594 144.300781 130.941406 144.117188 C 130.828125 143.933594 130.765625 143.71875 130.765625 143.503906 L 130.765625 142.214844 C 130.761719 142.085938 130.785156 141.953125 130.832031 141.832031 C 130.878906 141.710938 130.949219 141.601562 131.039062 141.507812 C 131.128906 141.414062 131.238281 141.339844 131.355469 141.289062 C 131.476562 141.238281 131.605469 141.210938 131.734375 141.210938 L 132.613281 141.210938 C 132.742188 141.210938 132.871094 141.238281 132.992188 141.289062 C 133.109375 141.339844 133.21875 141.414062 133.308594 141.507812 C 133.398438 141.601562 133.46875 141.710938 133.515625 141.832031 C 133.5625 141.953125 133.585938 142.085938 133.582031 142.214844 L 133.582031 143.714844 L 133.144531 143.714844 L 133.144531 142.214844 C 133.144531 141.894531 132.9375 141.53125 132.621094 141.53125 L 131.75 141.53125 C 131.433594 141.53125 131.21875 141.894531 131.21875 142.214844 L 131.21875 143.421875 C 131.21875 143.941406 131.417969 144.054688 131.757812 144.296875 C 132.097656 144.53125 132.777344 145.027344 133.125 145.265625 C 133.304688 145.371094 133.453125 145.523438 133.550781 145.703125 C 133.648438 145.886719 133.695312 146.089844 133.683594 146.296875 Z M 133.683594 146.296875 "/>
<path style=" stroke:none;fill-rule:nonzero;fill:rgb(92.941177%,69.411767%,8.627451%);fill-opacity:1;" d="M 25.179688 80.703125 C 25.566406 80.78125 25.921875 80.976562 26.199219 81.257812 C 26.476562 81.539062 26.667969 81.898438 26.742188 82.285156 C 26.816406 82.675781 26.777344 83.082031 26.625 83.445312 C 26.472656 83.8125 26.214844 84.125 25.886719 84.34375 C 25.554688 84.5625 25.171875 84.679688 24.773438 84.679688 C 24.378906 84.679688 23.992188 84.558594 23.667969 84.339844 C 23.339844 84.117188 23.082031 83.800781 22.933594 83.433594 C 22.785156 83.066406 22.746094 82.664062 22.824219 82.273438 C 22.875 82.015625 22.976562 81.769531 23.125 81.550781 C 23.269531 81.332031 23.457031 81.144531 23.675781 81 C 23.894531 80.851562 24.140625 80.75 24.398438 80.699219 C 24.65625 80.648438 24.921875 80.652344 25.179688 80.703125 Z M 25.179688 80.703125 "/>
<path style=" stroke:none;fill-rule:nonzero;fill:rgb(92.941177%,69.411767%,8.627451%);fill-opacity:1;" d="M 23.15625 96.667969 C 23.550781 96.667969 23.941406 96.78125 24.269531 96.996094 C 24.601562 97.214844 24.859375 97.527344 25.015625 97.890625 C 25.167969 98.257812 25.210938 98.660156 25.140625 99.050781 C 25.066406 99.441406 24.878906 99.800781 24.601562 100.085938 C 24.324219 100.367188 23.96875 100.5625 23.582031 100.644531 C 23.195312 100.722656 22.792969 100.6875 22.425781 100.539062 C 22.058594 100.390625 21.746094 100.132812 21.523438 99.804688 C 21.300781 99.476562 21.179688 99.089844 21.179688 98.691406 C 21.175781 98.429688 21.222656 98.167969 21.320312 97.921875 C 21.417969 97.679688 21.566406 97.457031 21.75 97.265625 C 21.933594 97.078125 22.152344 96.929688 22.394531 96.828125 C 22.636719 96.722656 22.894531 96.671875 23.15625 96.667969 Z M 23.15625 96.667969 "/>
<path style=" stroke:none;fill-rule:nonzero;fill:rgb(92.941177%,69.411767%,8.627451%);fill-opacity:1;" d="M 24.480469 112.703125 C 24.867188 112.621094 25.269531 112.652344 25.632812 112.796875 C 26 112.9375 26.316406 113.191406 26.542969 113.515625 C 26.765625 113.839844 26.890625 114.222656 26.902344 114.617188 C 26.910156 115.015625 26.800781 115.402344 26.589844 115.738281 C 26.378906 116.070312 26.074219 116.332031 25.710938 116.492188 C 25.351562 116.652344 24.953125 116.703125 24.566406 116.632812 C 24.175781 116.566406 23.816406 116.382812 23.53125 116.109375 C 23.25 115.839844 23.050781 115.484375 22.964844 115.101562 C 22.90625 114.84375 22.898438 114.574219 22.945312 114.316406 C 22.988281 114.054688 23.085938 113.808594 23.226562 113.585938 C 23.367188 113.363281 23.550781 113.167969 23.765625 113.019531 C 23.984375 112.867188 24.226562 112.761719 24.480469 112.703125 Z M 24.480469 112.703125 "/>
<path style=" stroke:none;fill-rule:nonzero;fill:rgb(92.941177%,69.411767%,8.627451%);fill-opacity:1;" d="M 29.09375 128.109375 C 29.449219 127.941406 29.851562 127.882812 30.242188 127.945312 C 30.632812 128.003906 30.996094 128.179688 31.289062 128.449219 C 31.582031 128.71875 31.785156 129.066406 31.878906 129.453125 C 31.972656 129.839844 31.953125 130.246094 31.816406 130.617188 C 31.679688 130.992188 31.4375 131.316406 31.117188 131.550781 C 30.796875 131.785156 30.414062 131.917969 30.019531 131.933594 C 29.625 131.949219 29.234375 131.847656 28.898438 131.640625 C 28.558594 131.433594 28.289062 131.128906 28.125 130.769531 C 27.902344 130.289062 27.882812 129.738281 28.0625 129.238281 C 28.246094 128.742188 28.613281 128.335938 29.09375 128.109375 Z M 29.09375 128.109375 "/>
<path style=" stroke:none;fill-rule:nonzero;fill:rgb(92.941177%,69.411767%,8.627451%);fill-opacity:1;" d="M 36.792969 142.21875 C 37.109375 141.984375 37.492188 141.847656 37.886719 141.828125 C 38.28125 141.808594 38.671875 141.90625 39.011719 142.109375 C 39.347656 142.316406 39.621094 142.617188 39.789062 142.976562 C 39.957031 143.335938 40.015625 143.734375 39.957031 144.128906 C 39.898438 144.519531 39.726562 144.886719 39.460938 145.179688 C 39.195312 145.476562 38.851562 145.683594 38.46875 145.78125 C 38.085938 145.878906 37.679688 145.855469 37.308594 145.722656 C 36.9375 145.589844 36.613281 145.347656 36.378906 145.027344 C 36.21875 144.816406 36.105469 144.578125 36.042969 144.320312 C 35.980469 144.0625 35.964844 143.796875 36.003906 143.539062 C 36.042969 143.277344 36.132812 143.023438 36.269531 142.796875 C 36.402344 142.574219 36.582031 142.375 36.792969 142.21875 Z M 36.792969 142.21875 "/>
<path style=" stroke:none;fill-rule:nonzero;fill:rgb(92.941177%,69.411767%,8.627451%);fill-opacity:1;" d="M 47.242188 154.410156 C 47.503906 154.113281 47.847656 153.898438 48.230469 153.796875 C 48.613281 153.695312 49.015625 153.710938 49.390625 153.839844 C 49.765625 153.96875 50.089844 154.207031 50.332031 154.523438 C 50.570312 154.839844 50.710938 155.21875 50.734375 155.613281 C 50.761719 156.011719 50.667969 156.40625 50.46875 156.75 C 50.269531 157.09375 49.972656 157.371094 49.617188 157.542969 C 49.261719 157.71875 48.863281 157.78125 48.472656 157.726562 C 48.078125 157.675781 47.710938 157.503906 47.417969 157.242188 C 47.023438 156.886719 46.78125 156.390625 46.75 155.863281 C 46.71875 155.332031 46.894531 154.8125 47.242188 154.410156 Z M 47.242188 154.410156 "/>
<path style=" stroke:none;fill-rule:nonzero;fill:rgb(92.941177%,69.411767%,8.627451%);fill-opacity:1;" d="M 59.984375 164.148438 C 60.179688 163.804688 60.46875 163.523438 60.824219 163.34375 C 61.175781 163.167969 61.574219 163.097656 61.964844 163.144531 C 62.359375 163.191406 62.726562 163.355469 63.027344 163.613281 C 63.324219 163.875 63.542969 164.214844 63.648438 164.597656 C 63.753906 164.980469 63.746094 165.386719 63.621094 165.761719 C 63.5 166.140625 63.269531 166.472656 62.957031 166.71875 C 62.644531 166.960938 62.269531 167.109375 61.875 167.140625 C 61.480469 167.167969 61.089844 167.082031 60.742188 166.886719 C 60.515625 166.757812 60.3125 166.585938 60.152344 166.375 C 59.988281 166.167969 59.871094 165.929688 59.800781 165.675781 C 59.730469 165.421875 59.710938 165.15625 59.742188 164.894531 C 59.773438 164.632812 59.855469 164.378906 59.984375 164.148438 Z M 59.984375 164.148438 "/>
<path style=" stroke:none;fill-rule:nonzero;fill:rgb(92.941177%,69.411767%,8.627451%);fill-opacity:1;" d="M 136.550781 165.835938 C 136.351562 165.496094 136.257812 165.101562 136.277344 164.703125 C 136.300781 164.308594 136.441406 163.925781 136.675781 163.609375 C 136.914062 163.292969 137.242188 163.054688 137.613281 162.921875 C 137.988281 162.792969 138.390625 162.773438 138.773438 162.875 C 139.15625 162.972656 139.5 163.183594 139.761719 163.480469 C 140.027344 163.777344 140.195312 164.144531 140.25 164.535156 C 140.308594 164.929688 140.246094 165.332031 140.074219 165.6875 C 139.902344 166.046875 139.628906 166.34375 139.289062 166.546875 C 139.0625 166.679688 138.8125 166.769531 138.554688 166.808594 C 138.292969 166.84375 138.027344 166.832031 137.773438 166.765625 C 137.519531 166.699219 137.28125 166.582031 137.070312 166.421875 C 136.859375 166.265625 136.683594 166.066406 136.550781 165.835938 Z M 136.550781 165.835938 "/>
<path style=" stroke:none;fill-rule:nonzero;fill:rgb(92.941177%,69.411767%,8.627451%);fill-opacity:1;" d="M 149.710938 156.664062 C 149.445312 156.371094 149.269531 156.007812 149.210938 155.613281 C 149.148438 155.222656 149.207031 154.824219 149.375 154.464844 C 149.539062 154.105469 149.808594 153.804688 150.144531 153.597656 C 150.480469 153.394531 150.871094 153.292969 151.265625 153.308594 C 151.660156 153.328125 152.039062 153.460938 152.355469 153.695312 C 152.675781 153.925781 152.917969 154.25 153.050781 154.621094 C 153.1875 154.996094 153.210938 155.398438 153.117188 155.785156 C 153.023438 156.167969 152.820312 156.515625 152.53125 156.785156 C 152.335938 156.964844 152.109375 157.101562 151.863281 157.195312 C 151.617188 157.285156 151.355469 157.324219 151.09375 157.3125 C 150.832031 157.304688 150.574219 157.238281 150.335938 157.128906 C 150.101562 157.015625 149.886719 156.859375 149.710938 156.664062 Z M 149.710938 156.664062 "/>
<path style=" stroke:none;fill-rule:nonzero;fill:rgb(92.941177%,69.411767%,8.627451%);fill-opacity:1;" d="M 160.679688 144.945312 C 160.359375 144.71875 160.109375 144.398438 159.96875 144.027344 C 159.828125 143.65625 159.796875 143.253906 159.882812 142.863281 C 159.96875 142.476562 160.167969 142.125 160.457031 141.851562 C 160.742188 141.578125 161.101562 141.394531 161.492188 141.328125 C 161.878906 141.257812 162.28125 141.308594 162.640625 141.46875 C 163.003906 141.628906 163.308594 141.894531 163.519531 142.230469 C 163.730469 142.566406 163.839844 142.957031 163.832031 143.351562 C 163.820312 143.75 163.695312 144.136719 163.46875 144.460938 C 163.316406 144.675781 163.125 144.863281 162.902344 145.003906 C 162.679688 145.144531 162.433594 145.242188 162.175781 145.285156 C 161.914062 145.332031 161.648438 145.324219 161.394531 145.265625 C 161.136719 145.207031 160.894531 145.097656 160.679688 144.945312 Z M 160.679688 144.945312 "/>
<path style=" stroke:none;fill-rule:nonzero;fill:rgb(92.941177%,69.411767%,8.627451%);fill-opacity:1;" d="M 168.988281 131.191406 C 168.625 131.035156 168.316406 130.773438 168.101562 130.4375 C 167.886719 130.105469 167.777344 129.714844 167.78125 129.320312 C 167.789062 128.921875 167.910156 128.535156 168.136719 128.207031 C 168.363281 127.882812 168.675781 127.628906 169.042969 127.484375 C 169.414062 127.335938 169.816406 127.304688 170.199219 127.386719 C 170.585938 127.46875 170.941406 127.667969 171.214844 127.953125 C 171.492188 128.238281 171.675781 128.597656 171.746094 128.988281 C 171.816406 129.378906 171.769531 129.78125 171.613281 130.148438 C 171.402344 130.636719 171.007812 131.019531 170.515625 131.214844 C 170.023438 131.410156 169.472656 131.402344 168.988281 131.191406 Z M 168.988281 131.191406 "/>
<path style=" stroke:none;fill-rule:nonzero;fill:rgb(92.941177%,69.411767%,8.627451%);fill-opacity:1;" d="M 174.265625 116 C 173.878906 115.921875 173.523438 115.726562 173.242188 115.445312 C 172.964844 115.164062 172.777344 114.804688 172.703125 114.417969 C 172.625 114.027344 172.667969 113.625 172.820312 113.257812 C 172.972656 112.890625 173.230469 112.578125 173.558594 112.359375 C 173.886719 112.140625 174.273438 112.023438 174.667969 112.023438 C 175.0625 112.027344 175.449219 112.144531 175.777344 112.367188 C 176.105469 112.585938 176.359375 112.902344 176.511719 113.269531 C 176.660156 113.636719 176.699219 114.039062 176.621094 114.429688 C 176.570312 114.6875 176.46875 114.933594 176.320312 115.152344 C 176.175781 115.375 175.984375 115.5625 175.769531 115.707031 C 175.550781 115.851562 175.304688 115.953125 175.046875 116.003906 C 174.789062 116.054688 174.523438 116.054688 174.265625 116 Z M 174.265625 116 "/>
<path style=" stroke:none;fill-rule:nonzero;fill:rgb(92.941177%,69.411767%,8.627451%);fill-opacity:1;" d="M 176.285156 100.039062 C 175.890625 100.042969 175.503906 99.929688 175.171875 99.710938 C 174.84375 99.492188 174.585938 99.183594 174.429688 98.816406 C 174.273438 98.453125 174.230469 98.050781 174.304688 97.660156 C 174.378906 97.269531 174.566406 96.910156 174.839844 96.625 C 175.117188 96.339844 175.472656 96.148438 175.859375 96.066406 C 176.246094 95.984375 176.648438 96.019531 177.015625 96.167969 C 177.378906 96.316406 177.695312 96.570312 177.917969 96.898438 C 178.140625 97.226562 178.261719 97.613281 178.265625 98.011719 C 178.269531 98.273438 178.21875 98.535156 178.121094 98.78125 C 178.023438 99.027344 177.878906 99.25 177.695312 99.4375 C 177.511719 99.625 177.292969 99.773438 177.050781 99.878906 C 176.808594 99.980469 176.550781 100.035156 176.285156 100.039062 Z M 176.285156 100.039062 "/>
<path style=" stroke:none;fill-rule:nonzero;fill:rgb(92.941177%,69.411767%,8.627451%);fill-opacity:1;" d="M 174.960938 84 C 174.578125 84.085938 174.175781 84.054688 173.808594 83.910156 C 173.441406 83.765625 173.125 83.515625 172.902344 83.191406 C 172.675781 82.863281 172.550781 82.480469 172.542969 82.085938 C 172.535156 81.6875 172.644531 81.300781 172.855469 80.964844 C 173.066406 80.632812 173.371094 80.367188 173.734375 80.210938 C 174.09375 80.050781 174.492188 80.003906 174.878906 80.070312 C 175.269531 80.140625 175.628906 80.320312 175.914062 80.597656 C 176.195312 80.871094 176.394531 81.222656 176.480469 81.609375 C 176.539062 81.867188 176.542969 82.132812 176.5 82.390625 C 176.453125 82.652344 176.359375 82.898438 176.214844 83.121094 C 176.074219 83.34375 175.890625 83.535156 175.675781 83.6875 C 175.460938 83.839844 175.21875 83.945312 174.960938 84 Z M 174.960938 84 "/>
</g>
</svg>
