<?xml version="1.0" encoding="UTF-8"?>
<svg xmlns="http://www.w3.org/2000/svg" xmlns:xlink="http://www.w3.org/1999/xlink" width="150px" height="150px" viewBox="0 0 150 150" version="1.1">
<g id="surface1">
<path style=" stroke:none;fill-rule:nonzero;fill:rgb(94.509804%,35.686275%,25.098041%);fill-opacity:1;" d="M 68.433594 59.953125 C 68.5 61.460938 67.410156 63.179688 65.167969 65.105469 C 64.144531 65.957031 63.050781 66.730469 61.902344 67.410156 L 60.035156 66.402344 C 64.695312 63.789062 67.058594 61.441406 67.121094 59.363281 C 67.152344 58.660156 66.558594 58.070312 65.347656 57.589844 C 64.496094 57.230469 63.582031 57.035156 62.65625 57.019531 C 59.679688 57.019531 56.65625 57.816406 53.585938 59.417969 C 49.9375 61.304688 48.097656 63.578125 48.0625 66.234375 C 48.0625 67.386719 49.390625 69.097656 52.050781 71.371094 L 57.558594 75.644531 C 59.765625 77.730469 60.867188 79.878906 60.863281 82.097656 C 60.863281 84.949219 59.347656 87.113281 56.316406 88.59375 C 53.921875 89.746094 51.125 90.34375 47.933594 90.375 C 43.105469 90.394531 38.308594 89.597656 33.742188 88.015625 L 35.128906 86.523438 C 37.144531 87.464844 39.226562 88.25 41.363281 88.871094 C 43.511719 89.386719 45.710938 89.648438 47.925781 89.652344 C 50.730469 89.683594 53.175781 89.214844 55.25 88.25 C 57.964844 86.996094 59.324219 85.105469 59.324219 82.589844 C 59.324219 80.558594 58.207031 78.691406 55.976562 76.980469 C 54.894531 76.175781 52.804688 74.574219 49.707031 72.164062 C 47.464844 70.398438 46.328125 68.574219 46.292969 66.695312 C 46.261719 63.328125 48.386719 60.636719 52.664062 58.617188 C 55.789062 57.109375 59.207031 56.316406 62.675781 56.304688 C 66.449219 56.296875 68.367188 57.511719 68.433594 59.953125 Z M 68.433594 59.953125 "/>
<path style=" stroke:none;fill-rule:nonzero;fill:rgb(94.509804%,35.686275%,25.098041%);fill-opacity:1;" d="M 77.640625 80.125 C 77.128906 82.3125 76.269531 84.402344 75.101562 86.324219 C 73.503906 89.015625 71.925781 90.363281 70.359375 90.367188 C 69.019531 90.367188 68.332031 89.386719 68.300781 87.425781 C 68.265625 86.691406 68.363281 85.960938 68.589844 85.261719 C 68.011719 86.324219 67.375 87.398438 66.675781 88.488281 C 65.839844 89.738281 64.820312 90.363281 63.605469 90.367188 C 63.285156 90.3125 62.996094 90.144531 62.792969 89.886719 C 62.589844 89.589844 62.464844 89.246094 62.429688 88.882812 C 62.429688 85.167969 62.953125 82.335938 64.007812 80.394531 L 65.589844 80.113281 C 65.105469 81.945312 64.449219 84.679688 63.628906 88.3125 C 63.628906 89.105469 63.800781 89.511719 64.152344 89.546875 C 65.175781 89.546875 66.402344 88.238281 67.84375 85.617188 C 68.789062 83.910156 69.605469 82.132812 70.285156 80.300781 L 71.863281 80.113281 C 71.609375 80.839844 71.097656 82.398438 70.332031 84.777344 C 69.933594 85.847656 69.6875 86.964844 69.605469 88.101562 C 69.605469 89.074219 69.941406 89.558594 70.613281 89.558594 C 72.175781 89.59375 73.613281 87.824219 74.921875 84.265625 C 75.175781 83.589844 75.660156 82.269531 76.371094 80.316406 Z M 77.640625 80.125 "/>
<path style=" stroke:none;fill-rule:nonzero;fill:rgb(94.509804%,35.686275%,25.098041%);fill-opacity:1;" d="M 86.011719 81.769531 C 86.042969 82.960938 85.308594 84.167969 83.808594 85.394531 C 82.425781 86.414062 80.933594 87.273438 79.355469 87.949219 L 79.308594 88.335938 C 79.308594 89.140625 79.785156 89.609375 80.757812 89.738281 C 82.035156 89.738281 83.628906 88.695312 85.546875 86.609375 L 85.785156 86.609375 L 85.546875 87.4375 C 83.503906 89.449219 81.636719 90.488281 79.941406 90.554688 C 78.441406 90.585938 77.613281 89.738281 77.453125 88.003906 C 77.453125 86.390625 78.179688 84.660156 79.628906 82.800781 C 81.082031 80.949219 82.589844 80.003906 84.152344 79.972656 C 85.359375 79.945312 85.988281 80.542969 86.011719 81.769531 Z M 84.957031 81.855469 C 84.957031 81.085938 84.597656 80.699219 83.871094 80.699219 C 82.847656 80.699219 81.839844 81.582031 80.855469 83.347656 C 79.949219 84.90625 79.484375 86.269531 79.457031 87.4375 C 80.742188 86.933594 81.925781 86.199219 82.949219 85.269531 C 84.25 84.117188 84.917969 82.976562 84.957031 81.855469 Z M 84.957031 81.855469 "/>
<path style=" stroke:none;fill-rule:nonzero;fill:rgb(94.509804%,35.686275%,25.098041%);fill-opacity:1;" d="M 95.734375 81.769531 C 95.765625 82.960938 95.03125 84.167969 93.535156 85.394531 C 92.152344 86.414062 90.652344 87.273438 89.078125 87.949219 L 89.03125 88.335938 C 89.03125 89.140625 89.507812 89.609375 90.480469 89.738281 C 91.757812 89.738281 93.355469 88.695312 95.269531 86.609375 L 95.511719 86.609375 L 95.269531 87.4375 C 93.230469 89.449219 91.359375 90.488281 89.667969 90.554688 C 88.167969 90.585938 87.335938 89.738281 87.175781 88.003906 C 87.175781 86.390625 87.902344 84.660156 89.351562 82.800781 C 90.800781 80.949219 92.3125 80.003906 93.875 79.972656 C 95.082031 79.945312 95.699219 80.542969 95.734375 81.769531 Z M 94.683594 81.855469 C 94.683594 81.085938 94.316406 80.699219 93.59375 80.699219 C 92.570312 80.699219 91.566406 81.582031 90.574219 83.347656 C 89.683594 84.917969 89.222656 86.277344 89.183594 87.4375 C 90.472656 86.933594 91.65625 86.199219 92.683594 85.269531 C 93.980469 84.117188 94.652344 82.976562 94.691406 81.855469 Z M 94.683594 81.855469 "/>
<path style=" stroke:none;fill-rule:nonzero;fill:rgb(94.509804%,35.686275%,25.098041%);fill-opacity:1;" d="M 105.265625 77.667969 L 105.167969 78.535156 L 101.949219 78.535156 L 99.140625 87.96875 C 99.132812 88.167969 99.097656 88.359375 99.042969 88.546875 C 99.042969 89.027344 99.308594 89.277344 99.855469 89.277344 C 100.402344 89.277344 101.054688 88.96875 101.820312 88.359375 C 102.683594 87.492188 103.207031 86.949219 103.402344 86.722656 L 103.59375 87.207031 C 101.871094 89.355469 100.273438 90.449219 98.804688 90.488281 C 97.714844 90.519531 97.160156 89.90625 97.128906 88.660156 C 97.140625 88.402344 97.191406 88.144531 97.269531 87.894531 L 100.050781 78.554688 L 98.757812 78.554688 L 98.945312 77.6875 L 100.242188 77.6875 L 102.3125 70.445312 L 104.164062 70.054688 L 102.027344 77.667969 Z M 105.265625 77.667969 "/>
<path style=" stroke:none;fill-rule:nonzero;fill:rgb(93.725491%,25.490198%,21.176471%);fill-opacity:1;" d="M 81.667969 150 C 80.460938 150 79.269531 149.214844 78.117188 148.457031 C 77.058594 147.761719 75.96875 147.042969 75 147.042969 C 74.03125 147.042969 72.941406 147.773438 71.882812 148.457031 C 70.648438 149.269531 69.378906 150.105469 68.078125 149.988281 C 66.777344 149.871094 65.636719 148.792969 64.558594 147.757812 C 63.660156 146.894531 62.746094 146 61.808594 145.828125 C 60.871094 145.660156 59.660156 146.15625 58.5 146.644531 C 57.410156 147.09375 56.324219 147.558594 55.289062 147.558594 C 55.011719 147.558594 54.734375 147.519531 54.46875 147.449219 C 53.191406 147.082031 52.292969 145.824219 51.425781 144.613281 C 50.703125 143.59375 49.949219 142.542969 49.070312 142.199219 C 48.273438 141.886719 46.945312 142.113281 45.683594 142.382812 C 44.179688 142.707031 42.582031 142.9375 41.558594 142.425781 C 40.378906 141.828125 39.746094 140.429688 39.097656 139.074219 C 38.570312 137.9375 38.011719 136.761719 37.222656 136.261719 C 36.574219 135.859375 35.625 135.804688 34.777344 135.804688 C 34.476562 135.804688 34.167969 135.804688 33.863281 135.804688 C 32.410156 135.839844 30.890625 135.910156 29.796875 135.074219 C 28.707031 134.242188 28.363281 132.78125 27.984375 131.339844 C 27.671875 130.121094 27.351562 128.863281 26.648438 128.222656 C 25.945312 127.578125 24.667969 127.371094 23.433594 127.171875 C 21.980469 126.933594 20.453125 126.6875 19.5625 125.714844 C 18.675781 124.734375 18.570312 123.195312 18.472656 121.703125 C 18.390625 120.449219 18.300781 119.152344 17.726562 118.382812 C 17.152344 117.617188 15.9375 117.1875 14.761719 116.761719 C 13.363281 116.261719 11.914062 115.742188 11.21875 114.613281 C 10.519531 113.480469 10.703125 111.964844 10.855469 110.484375 C 11.003906 109.234375 11.152344 107.933594 10.730469 107.082031 C 10.304688 106.234375 9.191406 105.582031 8.113281 104.949219 C 6.828125 104.195312 5.5 103.417969 5.019531 102.179688 C 4.542969 100.941406 5.003906 99.484375 5.441406 98.066406 C 5.804688 96.863281 6.207031 95.617188 5.941406 94.691406 C 5.679688 93.765625 4.714844 92.933594 3.765625 92.113281 C 2.636719 91.132812 1.472656 90.121094 1.226562 88.804688 C 0.980469 87.488281 1.703125 86.164062 2.394531 84.855469 C 2.984375 83.738281 3.59375 82.585938 3.511719 81.617188 C 3.421875 80.652344 2.621094 79.671875 1.851562 78.699219 C 0.960938 77.558594 0 76.339844 0 75 C 0 73.660156 0.960938 72.449219 1.890625 71.269531 C 2.664062 70.292969 3.464844 69.28125 3.546875 68.351562 C 3.632812 67.425781 3.027344 66.234375 2.433594 65.117188 C 1.738281 63.808594 1.027344 62.449219 1.265625 61.15625 C 1.503906 59.867188 2.667969 58.832031 3.804688 57.851562 C 4.746094 57.03125 5.71875 56.183594 5.980469 55.277344 C 6.25 54.371094 5.859375 53.089844 5.484375 51.902344 C 5.046875 50.480469 4.589844 49.011719 5.066406 47.789062 C 5.539062 46.5625 6.878906 45.769531 8.160156 45.011719 C 9.25 44.382812 10.335938 43.730469 10.773438 42.878906 C 11.207031 42.027344 11.046875 40.730469 10.902344 39.476562 C 10.730469 37.996094 10.542969 36.46875 11.246094 35.347656 C 11.949219 34.230469 13.386719 33.703125 14.789062 33.199219 C 15.964844 32.777344 17.183594 32.34375 17.757812 31.578125 C 18.328125 30.816406 18.417969 29.519531 18.480469 28.265625 C 18.582031 26.785156 18.6875 25.242188 19.570312 24.253906 C 20.453125 23.269531 21.976562 23.03125 23.441406 22.796875 C 24.679688 22.597656 25.953125 22.390625 26.652344 21.75 C 27.355469 21.109375 27.683594 19.847656 27.992188 18.628906 C 28.355469 17.171875 28.746094 15.710938 29.808594 14.894531 C 30.871094 14.078125 32.417969 14.132812 33.871094 14.164062 C 34.175781 14.164062 34.484375 14.164062 34.785156 14.164062 C 35.628906 14.164062 36.601562 14.113281 37.230469 13.710938 C 38.035156 13.207031 38.582031 12.03125 39.109375 10.894531 C 39.734375 9.542969 40.386719 8.140625 41.570312 7.546875 C 42.597656 7.035156 44.183594 7.269531 45.6875 7.589844 C 46.949219 7.855469 48.285156 8.089844 49.078125 7.773438 C 49.960938 7.429688 50.710938 6.378906 51.4375 5.363281 C 52.304688 4.144531 53.203125 2.886719 54.480469 2.527344 C 55.640625 2.191406 57.136719 2.753906 58.511719 3.328125 C 59.671875 3.816406 60.859375 4.324219 61.820312 4.144531 C 62.78125 3.960938 63.667969 3.074219 64.570312 2.21875 C 65.65625 1.175781 66.746094 0.109375 68.089844 -0.015625 C 69.429688 -0.136719 70.660156 0.714844 71.890625 1.519531 C 72.945312 2.207031 74.039062 2.925781 75.003906 2.925781 C 75.976562 2.925781 77.066406 2.199219 78.121094 1.519531 C 79.351562 0.730469 80.628906 -0.101562 81.921875 0 C 83.21875 0.101562 84.363281 1.191406 85.441406 2.230469 C 86.339844 3.089844 87.253906 3.984375 88.191406 4.15625 C 89.128906 4.328125 90.339844 3.832031 91.5 3.34375 C 92.589844 2.894531 93.675781 2.433594 94.710938 2.433594 C 94.988281 2.429688 95.265625 2.464844 95.53125 2.539062 C 96.808594 2.90625 97.707031 4.160156 98.574219 5.378906 C 99.300781 6.394531 100.050781 7.449219 100.925781 7.785156 C 101.726562 8.101562 103.058594 7.875 104.316406 7.605469 C 105.820312 7.285156 107.414062 7.050781 108.441406 7.566406 C 109.621094 8.160156 110.273438 9.558594 110.902344 10.914062 C 111.429688 12.046875 111.988281 13.222656 112.777344 13.726562 C 113.425781 14.128906 114.375 14.183594 115.222656 14.183594 C 115.523438 14.183594 115.832031 14.183594 116.136719 14.183594 C 117.585938 14.148438 119.109375 14.078125 120.203125 14.910156 C 121.292969 15.746094 121.636719 17.203125 122.015625 18.652344 C 122.328125 19.867188 122.652344 21.121094 123.351562 21.765625 C 124.050781 22.40625 125.332031 22.617188 126.570312 22.8125 C 128.019531 23.050781 129.546875 23.296875 130.4375 24.273438 C 131.324219 25.25 131.429688 26.785156 131.527344 28.285156 C 131.613281 29.535156 131.699219 30.839844 132.273438 31.597656 C 132.847656 32.363281 134.0625 32.792969 135.238281 33.214844 C 136.636719 33.722656 138.085938 34.238281 138.78125 35.363281 C 139.480469 36.492188 139.296875 38.015625 139.121094 39.492188 C 138.980469 40.742188 138.824219 42.042969 139.253906 42.898438 C 139.683594 43.753906 140.789062 44.398438 141.867188 45.03125 C 143.152344 45.785156 144.480469 46.5625 144.960938 47.808594 C 145.4375 49.050781 144.980469 50.496094 144.535156 51.914062 C 144.171875 53.121094 143.777344 54.367188 144.039062 55.292969 C 144.300781 56.21875 145.269531 57.050781 146.214844 57.867188 C 147.339844 58.847656 148.507812 59.863281 148.753906 61.175781 C 149 62.488281 148.28125 63.816406 147.589844 65.128906 C 146.996094 66.246094 146.382812 67.402344 146.472656 68.363281 C 146.5625 69.324219 147.359375 70.308594 148.128906 71.28125 C 149.058594 72.453125 150.019531 73.667969 150.019531 75.003906 C 150.019531 76.34375 149.058594 77.558594 148.128906 78.738281 C 147.359375 79.714844 146.558594 80.722656 146.472656 81.652344 C 146.390625 82.589844 146.996094 83.777344 147.589844 84.894531 C 148.28125 86.199219 148.996094 87.554688 148.753906 88.847656 C 148.515625 90.136719 147.347656 91.171875 146.214844 92.152344 C 145.277344 92.972656 144.304688 93.816406 144.039062 94.730469 C 143.773438 95.644531 144.160156 96.898438 144.535156 98.105469 C 144.980469 99.519531 145.433594 100.988281 144.957031 102.21875 C 144.480469 103.449219 143.140625 104.234375 141.867188 104.992188 C 140.777344 105.621094 139.6875 106.273438 139.253906 107.125 C 138.816406 107.972656 138.980469 109.273438 139.121094 110.527344 C 139.292969 112.003906 139.484375 113.53125 138.78125 114.652344 C 138.078125 115.777344 136.636719 116.300781 135.238281 116.804688 C 134.058594 117.222656 132.84375 117.660156 132.269531 118.425781 C 131.695312 119.183594 131.609375 120.484375 131.523438 121.738281 C 131.421875 123.222656 131.316406 124.761719 130.433594 125.746094 C 129.546875 126.738281 128.027344 126.96875 126.5625 127.207031 C 125.324219 127.410156 124.050781 127.613281 123.347656 128.253906 C 122.640625 128.902344 122.320312 130.160156 122.011719 131.375 C 121.644531 132.832031 121.261719 134.316406 120.195312 135.113281 C 119.132812 135.910156 117.582031 135.871094 116.128906 135.839844 C 115.824219 135.839844 115.511719 135.839844 115.210938 135.839844 C 114.371094 135.839844 113.417969 135.894531 112.773438 136.300781 C 111.964844 136.800781 111.417969 137.980469 110.890625 139.117188 C 110.265625 140.46875 109.617188 141.871094 108.4375 142.457031 C 107.410156 142.972656 105.816406 142.738281 104.316406 142.417969 C 103.050781 142.148438 101.722656 141.921875 100.921875 142.234375 C 100.039062 142.574219 99.289062 143.628906 98.5625 144.648438 C 97.695312 145.867188 96.800781 147.121094 95.527344 147.484375 C 94.359375 147.820312 92.863281 147.253906 91.496094 146.679688 C 90.332031 146.195312 89.152344 145.683594 88.183594 145.867188 C 87.21875 146.046875 86.335938 146.929688 85.4375 147.792969 C 84.347656 148.828125 83.246094 149.902344 81.914062 150.027344 Z M 75 146.125 C 76.242188 146.125 77.449219 146.917969 78.628906 147.6875 C 79.714844 148.417969 80.871094 149.167969 81.847656 149.074219 C 82.828125 148.976562 83.859375 148.023438 84.824219 147.09375 C 85.789062 146.164062 86.84375 145.152344 88.039062 144.929688 C 89.230469 144.707031 90.582031 145.261719 91.863281 145.796875 C 93.144531 146.332031 94.402344 146.824219 95.296875 146.566406 C 96.261719 146.289062 97.066406 145.167969 97.832031 144.078125 C 98.605469 142.992188 99.472656 141.785156 100.601562 141.34375 C 101.621094 140.949219 103.121094 141.1875 104.511719 141.488281 C 105.851562 141.769531 107.25 141.996094 108.039062 141.605469 C 108.933594 141.15625 109.515625 139.902344 110.078125 138.683594 C 110.640625 137.464844 111.261719 136.132812 112.300781 135.480469 C 113.140625 134.957031 114.25 134.886719 115.222656 134.886719 C 115.527344 134.886719 115.847656 134.886719 116.164062 134.886719 C 116.480469 134.886719 116.78125 134.886719 117.082031 134.886719 C 117.996094 134.886719 119.011719 134.820312 119.652344 134.335938 C 120.449219 133.726562 120.792969 132.394531 121.128906 131.101562 C 121.492188 129.753906 121.828125 128.359375 122.730469 127.53125 C 123.636719 126.703125 125.050781 126.476562 126.417969 126.253906 C 127.730469 126.042969 129.085938 125.824219 129.757812 125.082031 C 130.433594 124.339844 130.523438 122.96875 130.613281 121.636719 C 130.707031 120.25 130.804688 118.8125 131.542969 117.832031 C 132.285156 116.855469 133.625 116.371094 134.929688 115.902344 C 136.230469 115.433594 137.46875 114.988281 138.003906 114.132812 C 138.542969 113.273438 138.371094 111.917969 138.214844 110.597656 C 138.054688 109.214844 137.886719 107.78125 138.4375 106.679688 C 138.988281 105.578125 140.210938 104.855469 141.402344 104.160156 C 142.597656 103.460938 143.746094 102.792969 144.109375 101.851562 C 144.472656 100.910156 144.0625 99.609375 143.667969 98.339844 C 143.253906 97.007812 142.824219 95.628906 143.160156 94.441406 C 143.5 93.253906 144.566406 92.332031 145.613281 91.425781 C 146.652344 90.515625 147.660156 89.636719 147.84375 88.640625 C 148.03125 87.644531 147.382812 86.453125 146.757812 85.285156 C 146.105469 84.050781 145.425781 82.769531 145.539062 81.535156 C 145.648438 80.296875 146.535156 79.207031 147.394531 78.125 C 148.246094 77.042969 149.082031 75.988281 149.082031 74.96875 C 149.082031 73.945312 148.222656 72.859375 147.394531 71.808594 C 146.558594 70.757812 145.648438 69.621094 145.539062 68.398438 C 145.425781 67.175781 146.101562 65.882812 146.757812 64.648438 C 147.371094 63.476562 148.015625 62.269531 147.84375 61.296875 C 147.675781 60.324219 146.621094 59.390625 145.613281 58.511719 C 144.601562 57.632812 143.488281 56.667969 143.160156 55.496094 C 142.832031 54.324219 143.253906 52.941406 143.667969 51.59375 C 144.0625 50.328125 144.464844 49.015625 144.109375 48.089844 C 143.746094 47.164062 142.554688 46.449219 141.402344 45.777344 C 140.253906 45.097656 138.980469 44.351562 138.4375 43.261719 C 137.898438 42.164062 138.054688 40.707031 138.21875 39.339844 C 138.371094 38.019531 138.53125 36.652344 138.007812 35.804688 C 137.488281 34.953125 136.195312 34.480469 134.933594 34.035156 C 133.628906 33.5625 132.28125 33.082031 131.542969 32.101562 C 130.808594 31.121094 130.710938 29.6875 130.613281 28.296875 C 130.523438 26.96875 130.433594 25.59375 129.757812 24.851562 C 129.085938 24.113281 127.707031 23.925781 126.414062 23.699219 C 125.042969 23.480469 123.628906 23.25 122.722656 22.421875 C 121.820312 21.589844 121.46875 20.199219 121.121094 18.855469 C 120.773438 17.511719 120.449219 16.222656 119.667969 15.621094 C 119.027344 15.132812 118.003906 15.066406 117.089844 15.066406 C 116.789062 15.066406 116.480469 15.066406 116.175781 15.066406 C 115.871094 15.066406 115.546875 15.066406 115.238281 15.066406 C 114.265625 15.066406 113.15625 14.996094 112.316406 14.472656 C 111.257812 13.855469 110.65625 12.566406 110.070312 11.300781 C 109.488281 10.035156 108.933594 8.839844 108.03125 8.386719 C 107.246094 7.992188 105.859375 8.214844 104.507812 8.503906 C 103.109375 8.800781 101.605469 9.039062 100.597656 8.644531 C 99.464844 8.203125 98.632812 7.039062 97.832031 5.910156 C 97.03125 4.78125 96.253906 3.699219 95.292969 3.425781 C 94.402344 3.164062 93.09375 3.675781 91.863281 4.191406 C 90.632812 4.707031 89.230469 5.28125 88.035156 5.058594 C 86.839844 4.839844 85.804688 3.863281 84.8125 2.917969 C 83.816406 1.972656 82.847656 1.03125 81.839844 0.941406 C 80.832031 0.847656 79.714844 1.597656 78.617188 2.324219 C 77.449219 3.089844 76.242188 3.886719 74.988281 3.886719 C 73.738281 3.886719 72.542969 3.089844 71.363281 2.324219 C 70.269531 1.59375 69.140625 0.847656 68.140625 0.941406 C 67.144531 1.035156 66.132812 1.992188 65.167969 2.917969 C 64.199219 3.84375 63.144531 4.863281 61.957031 5.105469 C 60.769531 5.347656 59.417969 4.773438 58.128906 4.234375 C 56.902344 3.71875 55.589844 3.210938 54.699219 3.46875 C 53.726562 3.742188 52.921875 4.871094 52.15625 5.953125 C 51.394531 7.039062 50.527344 8.246094 49.386719 8.691406 C 48.371094 9.082031 46.878906 8.839844 45.480469 8.542969 C 44.140625 8.257812 42.746094 8.035156 41.957031 8.425781 C 41.058594 8.878906 40.480469 10.128906 39.917969 11.34375 C 39.355469 12.558594 38.730469 13.894531 37.691406 14.550781 C 36.847656 15.074219 35.738281 15.144531 34.765625 15.144531 C 34.457031 15.144531 34.144531 15.144531 33.832031 15.144531 C 33.519531 15.144531 33.21875 15.144531 32.921875 15.144531 C 32.003906 15.144531 30.980469 15.210938 30.34375 15.699219 C 29.539062 16.308594 29.199219 17.640625 28.871094 18.933594 C 28.523438 20.277344 28.167969 21.675781 27.265625 22.5 C 26.363281 23.328125 24.957031 23.488281 23.582031 23.699219 C 22.269531 23.910156 20.914062 24.132812 20.242188 24.875 C 19.566406 25.621094 19.476562 26.988281 19.386719 28.316406 C 19.292969 29.707031 19.191406 31.144531 18.457031 32.125 C 17.71875 33.105469 16.371094 33.582031 15.066406 34.050781 C 13.761719 34.523438 12.527344 34.96875 11.996094 35.820312 C 11.460938 36.675781 11.628906 38.039062 11.78125 39.355469 C 11.945312 40.742188 12.113281 42.175781 11.5625 43.277344 C 11.015625 44.378906 9.785156 45.097656 8.59375 45.792969 C 7.398438 46.484375 6.253906 47.164062 5.886719 48.109375 C 5.527344 49.050781 5.9375 50.347656 6.332031 51.613281 C 6.746094 52.949219 7.171875 54.324219 6.835938 55.515625 C 6.496094 56.703125 5.429688 57.625 4.386719 58.53125 C 3.347656 59.441406 2.339844 60.320312 2.15625 61.316406 C 1.972656 62.3125 2.613281 63.503906 3.242188 64.671875 C 3.894531 65.910156 4.570312 67.1875 4.460938 68.421875 C 4.355469 69.660156 3.460938 70.757812 2.605469 71.832031 C 1.75 72.902344 0.910156 73.972656 0.910156 74.996094 C 0.910156 76.011719 1.777344 77.101562 2.605469 78.148438 C 3.4375 79.199219 4.347656 80.339844 4.457031 81.558594 C 4.566406 82.78125 3.894531 84.082031 3.238281 85.320312 C 2.621094 86.492188 1.980469 87.699219 2.152344 88.671875 C 2.324219 89.648438 3.378906 90.582031 4.386719 91.457031 C 5.394531 92.339844 6.5 93.304688 6.835938 94.480469 C 7.167969 95.652344 6.742188 97.03125 6.328125 98.375 C 5.933594 99.644531 5.527344 100.953125 5.886719 101.882812 C 6.242188 102.816406 7.4375 103.519531 8.585938 104.195312 C 9.738281 104.871094 11.015625 105.617188 11.558594 106.710938 C 12.101562 107.808594 11.921875 109.261719 11.777344 110.628906 C 11.625 111.953125 11.464844 113.316406 11.988281 114.167969 C 12.511719 115.015625 13.800781 115.488281 15.066406 115.9375 C 16.328125 116.386719 17.714844 116.890625 18.449219 117.871094 C 19.179688 118.847656 19.285156 120.285156 19.378906 121.675781 C 19.472656 123.003906 19.5625 124.378906 20.238281 125.117188 C 20.910156 125.859375 22.265625 126.074219 23.574219 126.292969 C 24.941406 126.511719 26.359375 126.742188 27.265625 127.566406 C 28.171875 128.394531 28.523438 129.789062 28.871094 131.132812 C 29.214844 132.480469 29.539062 133.761719 30.335938 134.367188 C 30.980469 134.855469 32 134.925781 32.910156 134.925781 C 33.210938 134.925781 33.519531 134.925781 33.828125 134.925781 C 34.136719 134.925781 34.457031 134.925781 34.765625 134.925781 C 35.738281 134.925781 36.847656 134.996094 37.691406 135.519531 C 38.730469 136.167969 39.332031 137.464844 39.917969 138.726562 C 40.5 139.984375 41.058594 141.191406 41.957031 141.640625 C 42.746094 142.035156 44.132812 141.8125 45.480469 141.527344 C 46.878906 141.230469 48.382812 140.984375 49.386719 141.382812 C 50.527344 141.824219 51.355469 142.988281 52.15625 144.113281 C 52.960938 145.242188 53.738281 146.328125 54.699219 146.605469 C 55.589844 146.859375 56.898438 146.351562 58.125 145.835938 C 59.355469 145.316406 60.757812 144.742188 61.953125 144.96875 C 63.144531 145.195312 64.175781 146.179688 65.167969 147.136719 C 66.160156 148.089844 67.128906 149.019531 68.136719 149.113281 C 69.144531 149.207031 70.257812 148.453125 71.363281 147.730469 C 72.5625 146.917969 73.757812 146.125 75 146.125 Z M 75 146.125 "/>
<path style=" stroke:none;fill-rule:nonzero;fill:rgb(93.725491%,25.490198%,21.176471%);fill-opacity:1;" d="M 75 139.480469 C 39.589844 139.480469 10.785156 110.554688 10.785156 75 C 10.785156 39.445312 39.59375 10.519531 75 10.519531 C 110.40625 10.519531 139.214844 39.449219 139.214844 75 C 139.214844 110.550781 110.410156 139.480469 75 139.480469 Z M 75 11.4375 C 40.09375 11.4375 11.691406 39.953125 11.691406 75 C 11.691406 110.046875 40.09375 138.558594 75 138.558594 C 109.90625 138.558594 138.308594 110.042969 138.308594 74.996094 C 138.308594 39.949219 109.90625 11.4375 75 11.4375 Z M 75 11.4375 "/>
<path style=" stroke:none;fill-rule:nonzero;fill:rgb(93.725491%,25.490198%,21.176471%);fill-opacity:1;" d="M 75 126.042969 C 46.96875 126.042969 24.160156 103.144531 24.160156 74.996094 C 24.160156 46.847656 46.96875 23.949219 75 23.949219 C 103.03125 23.949219 125.835938 46.847656 125.835938 74.996094 C 125.835938 103.144531 103.035156 126.042969 75 126.042969 Z M 75 24.871094 C 47.46875 24.871094 25.074219 47.363281 25.074219 75 C 25.074219 102.636719 47.46875 125.128906 75 125.128906 C 102.53125 125.128906 124.925781 102.640625 124.925781 75 C 124.925781 47.359375 102.53125 24.871094 75 24.871094 Z M 75 24.871094 "/>
<path style=" stroke:none;fill-rule:nonzero;fill:rgb(0%,0%,0%);fill-opacity:1;" d="M 19.492188 51.535156 L 19.023438 52.730469 L 25.191406 55.164062 L 25.050781 55.527344 L 18.882812 53.101562 L 18.402344 54.308594 L 18.132812 54.199219 L 18.605469 52.992188 L 18.75 52.625 L 19.226562 51.414062 Z M 19.492188 51.535156 "/>
<path style=" stroke:none;fill-rule:nonzero;fill:rgb(0%,0%,0%);fill-opacity:1;" d="M 21.265625 47.035156 L 27.46875 50.09375 L 27.292969 50.460938 L 24.105469 48.886719 L 23.222656 50.683594 L 26.40625 52.261719 L 26.230469 52.621094 L 20.03125 49.558594 L 20.207031 49.195312 L 22.953125 50.550781 L 23.828125 48.769531 L 21.09375 47.402344 Z M 21.265625 47.035156 "/>
<path style=" stroke:none;fill-rule:nonzero;fill:rgb(0%,0%,0%);fill-opacity:1;" d="M 29.464844 46.046875 L 29.714844 46.195312 L 28.625 48.019531 L 28.574219 48.101562 L 28.417969 48.363281 L 22.496094 44.796875 L 23.761719 42.660156 L 24.019531 42.816406 L 22.949219 44.605469 L 25.328125 46.035156 L 26.1875 44.574219 L 26.4375 44.722656 L 25.578125 46.183594 L 28.375 47.863281 Z M 29.464844 46.046875 "/>
<path style=" stroke:none;fill-rule:nonzero;fill:rgb(0%,0%,0%);fill-opacity:1;" d="M 29.160156 35.320312 L 34.527344 39.699219 L 34.269531 40.007812 L 29.164062 35.839844 L 33.378906 40.835938 L 33.101562 41.179688 L 27.332031 38.175781 L 32.414062 42.3125 L 32.160156 42.628906 L 26.796875 38.253906 L 26.996094 38.011719 L 27.046875 37.941406 L 27.230469 37.710938 L 32.753906 40.625 L 28.703125 35.886719 L 28.914062 35.628906 L 28.949219 35.574219 Z M 29.160156 35.320312 "/>
<path style=" stroke:none;fill-rule:nonzero;fill:rgb(0%,0%,0%);fill-opacity:1;" d="M 33.496094 32.019531 L 37.148438 35.640625 C 37.316406 35.808594 37.417969 36.035156 37.425781 36.277344 C 37.429688 36.519531 37.339844 36.753906 37.179688 36.929688 L 36.484375 37.636719 C 36.3125 37.804688 36.082031 37.894531 35.84375 37.894531 C 35.605469 37.894531 35.375 37.804688 35.203125 37.636719 L 31.566406 34.003906 C 31.394531 33.832031 31.292969 33.605469 31.289062 33.363281 C 31.285156 33.121094 31.371094 32.890625 31.535156 32.714844 L 32.230469 32.007812 C 32.402344 31.847656 32.628906 31.757812 32.863281 31.757812 C 33.097656 31.761719 33.324219 31.855469 33.496094 32.019531 Z M 36.875 35.917969 L 33.21875 32.300781 C 33.121094 32.1875 32.984375 32.117188 32.839844 32.101562 C 32.691406 32.085938 32.542969 32.128906 32.421875 32.214844 L 31.730469 32.921875 C 31.644531 33.042969 31.605469 33.191406 31.625 33.339844 C 31.644531 33.488281 31.71875 33.621094 31.832031 33.71875 L 35.488281 37.339844 C 35.582031 37.449219 35.71875 37.519531 35.863281 37.539062 C 36.011719 37.550781 36.160156 37.515625 36.277344 37.429688 L 36.96875 36.722656 C 37.058594 36.601562 37.097656 36.449219 37.078125 36.300781 C 37.058594 36.15625 36.988281 36.019531 36.875 35.917969 Z M 36.875 35.917969 "/>
<path style=" stroke:none;fill-rule:nonzero;fill:rgb(0%,0%,0%);fill-opacity:1;" d="M 39.839844 31.398438 L 40.738281 32.457031 C 40.890625 32.636719 40.96875 32.871094 40.953125 33.109375 C 40.941406 33.347656 40.835938 33.566406 40.664062 33.730469 L 39.886719 34.394531 C 39.699219 34.539062 39.464844 34.605469 39.230469 34.582031 C 38.996094 34.554688 38.78125 34.441406 38.628906 34.261719 L 37.730469 33.203125 L 38.042969 32.945312 L 38.933594 34 C 39.019531 34.121094 39.144531 34.199219 39.292969 34.230469 C 39.4375 34.261719 39.585938 34.234375 39.710938 34.15625 L 40.464844 33.511719 C 40.5625 33.402344 40.613281 33.253906 40.605469 33.105469 C 40.601562 32.957031 40.542969 32.816406 40.4375 32.710938 L 39.542969 31.652344 C 39.300781 31.363281 39.089844 31.371094 38.691406 31.40625 C 38.292969 31.4375 37.707031 31.472656 37.238281 31.519531 C 37.042969 31.570312 36.839844 31.566406 36.648438 31.503906 C 36.453125 31.445312 36.28125 31.332031 36.148438 31.179688 L 35.378906 30.261719 C 35.222656 30.085938 35.136719 29.847656 35.152344 29.609375 C 35.167969 29.371094 35.273438 29.144531 35.449219 28.984375 L 36.058594 28.460938 C 36.246094 28.316406 36.484375 28.246094 36.722656 28.269531 C 36.957031 28.292969 37.175781 28.410156 37.332031 28.59375 L 38.222656 29.648438 L 37.917969 29.910156 L 37.023438 28.851562 C 36.933594 28.734375 36.808594 28.652344 36.664062 28.621094 C 36.519531 28.589844 36.371094 28.617188 36.246094 28.691406 L 35.632812 29.21875 C 35.539062 29.328125 35.488281 29.476562 35.496094 29.621094 C 35.503906 29.769531 35.5625 29.910156 35.667969 30.015625 L 36.371094 30.847656 C 36.683594 31.214844 36.894531 31.171875 37.269531 31.136719 C 37.648438 31.097656 38.425781 31.035156 38.808594 30.992188 C 39.003906 30.957031 39.203125 30.972656 39.382812 31.046875 C 39.566406 31.117188 39.722656 31.238281 39.839844 31.398438 Z M 39.839844 31.398438 "/>
<path style=" stroke:none;fill-rule:nonzero;fill:rgb(0%,0%,0%);fill-opacity:1;" d="M 40.933594 25.132812 L 39.910156 25.890625 L 43.785156 31.28125 L 43.46875 31.511719 L 39.574219 26.121094 L 38.527344 26.878906 L 38.355469 26.644531 L 39.402344 25.890625 L 39.722656 25.660156 L 40.757812 24.90625 Z M 40.933594 25.132812 "/>
<path style=" stroke:none;fill-rule:nonzero;fill:rgb(0%,0%,0%);fill-opacity:1;" d="M 47.921875 21.660156 L 50.347656 26.199219 C 50.457031 26.410156 50.480469 26.652344 50.414062 26.878906 C 50.347656 27.109375 50.191406 27.300781 49.984375 27.414062 L 48.769531 28.074219 L 48.40625 28.261719 L 45.140625 22.148438 L 45.410156 22.003906 L 45.492188 21.957031 L 46.707031 21.300781 C 46.808594 21.238281 46.921875 21.191406 47.042969 21.175781 C 47.160156 21.160156 47.28125 21.167969 47.394531 21.203125 C 47.511719 21.238281 47.617188 21.296875 47.707031 21.375 C 47.796875 21.453125 47.871094 21.554688 47.921875 21.660156 Z M 49.996094 26.402344 L 47.5625 21.863281 C 47.507812 21.726562 47.398438 21.621094 47.261719 21.566406 C 47.128906 21.511719 46.972656 21.511719 46.839844 21.566406 L 45.625 22.222656 L 48.613281 27.808594 L 49.832031 27.148438 C 49.949219 27.070312 50.035156 26.945312 50.066406 26.804688 C 50.097656 26.664062 50.070312 26.511719 49.996094 26.390625 Z M 49.996094 26.402344 "/>
<path style=" stroke:none;fill-rule:nonzero;fill:rgb(0%,0%,0%);fill-opacity:1;" d="M 54.722656 24.847656 L 54.839844 25.117188 L 52.902344 25.96875 L 52.8125 26.011719 L 52.539062 26.128906 L 49.765625 19.769531 L 52.035156 18.769531 L 52.152344 19.039062 L 50.253906 19.878906 L 51.363281 22.433594 L 52.894531 21.753906 L 53.011719 22.027344 L 51.480469 22.703125 L 52.789062 25.703125 Z M 54.722656 24.847656 "/>
<path style=" stroke:none;fill-rule:nonzero;fill:rgb(0%,0%,0%);fill-opacity:1;" d="M 58.355469 23.519531 L 58.457031 23.796875 L 56.691406 24.429688 L 56.328125 24.566406 L 56.234375 24.285156 L 54.058594 18.019531 L 54.421875 17.878906 L 56.597656 24.140625 Z M 58.355469 23.519531 "/>
<path style=" stroke:none;fill-rule:nonzero;fill:rgb(0%,0%,0%);fill-opacity:1;" d="M 60.542969 23.183594 L 60.152344 23.292969 L 58.269531 16.617188 L 58.65625 16.503906 Z M 60.542969 23.183594 "/>
<path style=" stroke:none;fill-rule:nonzero;fill:rgb(0%,0%,0%);fill-opacity:1;" d="M 63.765625 17.519531 L 63.492188 16.261719 C 63.429688 15.96875 63.171875 15.683594 62.882812 15.746094 L 62.011719 15.933594 C 61.871094 15.980469 61.753906 16.085938 61.683594 16.222656 C 61.617188 16.359375 61.605469 16.515625 61.648438 16.660156 L 62.714844 21.703125 C 62.730469 21.84375 62.804688 21.972656 62.917969 22.0625 C 63.027344 22.152344 63.171875 22.191406 63.3125 22.175781 L 64.183594 21.988281 C 64.320312 21.949219 64.433594 21.851562 64.503906 21.726562 C 64.574219 21.601562 64.589844 21.449219 64.546875 21.3125 L 64.238281 19.855469 L 64.632812 19.769531 L 64.941406 21.230469 C 64.996094 21.460938 64.960938 21.703125 64.839844 21.90625 C 64.71875 22.109375 64.523438 22.261719 64.296875 22.320312 L 63.386719 22.515625 C 63.148438 22.558594 62.90625 22.503906 62.707031 22.367188 C 62.507812 22.234375 62.371094 22.023438 62.324219 21.785156 L 61.261719 16.742188 C 61.210938 16.507812 61.25 16.261719 61.378906 16.058594 C 61.503906 15.851562 61.707031 15.707031 61.941406 15.652344 L 62.808594 15.464844 C 63.046875 15.421875 63.289062 15.472656 63.488281 15.609375 C 63.6875 15.746094 63.824219 15.957031 63.871094 16.191406 L 64.140625 17.457031 Z M 63.765625 17.519531 "/>
<path style=" stroke:none;fill-rule:nonzero;fill:rgb(0%,0%,0%);fill-opacity:1;" d="M 67.515625 21.722656 L 67.121094 21.777344 L 66.136719 14.90625 L 66.535156 14.847656 Z M 67.515625 21.722656 "/>
<path style=" stroke:none;fill-rule:nonzero;fill:rgb(0%,0%,0%);fill-opacity:1;" d="M 71.875 15.21875 L 72.253906 20.363281 C 72.273438 20.597656 72.195312 20.835938 72.042969 21.019531 C 71.886719 21.207031 71.671875 21.324219 71.433594 21.347656 L 70.449219 21.421875 C 70.210938 21.429688 69.980469 21.347656 69.800781 21.1875 C 69.621094 21.027344 69.511719 20.804688 69.492188 20.566406 L 69.128906 15.425781 C 69.113281 15.1875 69.1875 14.949219 69.339844 14.765625 C 69.492188 14.582031 69.710938 14.464844 69.949219 14.441406 L 70.9375 14.367188 C 71.171875 14.363281 71.398438 14.445312 71.574219 14.605469 C 71.746094 14.761719 71.855469 14.980469 71.875 15.21875 Z M 71.875 20.390625 L 71.511719 15.25 C 71.488281 14.953125 71.257812 14.636719 70.964844 14.65625 L 69.980469 14.730469 C 69.6875 14.753906 69.519531 15.097656 69.539062 15.398438 L 69.902344 20.535156 C 69.921875 20.832031 70.144531 21.148438 70.433594 21.125 L 71.421875 21.050781 C 71.707031 21.03125 71.882812 20.679688 71.863281 20.390625 Z M 71.875 20.390625 "/>
<path style=" stroke:none;fill-rule:nonzero;fill:rgb(0%,0%,0%);fill-opacity:1;" d="M 77.15625 14.28125 L 77.058594 20.332031 C 77.058594 20.574219 76.960938 20.800781 76.792969 20.972656 C 76.621094 21.140625 76.398438 21.238281 76.15625 21.242188 L 75.261719 21.242188 C 75.144531 21.238281 75.023438 21.210938 74.914062 21.160156 C 74.804688 21.113281 74.707031 21.042969 74.621094 20.949219 C 74.539062 20.863281 74.476562 20.757812 74.433594 20.644531 C 74.390625 20.53125 74.371094 20.410156 74.375 20.289062 L 74.464844 14.242188 L 74.867188 14.242188 L 74.773438 20.292969 C 74.773438 20.585938 74.957031 20.925781 75.253906 20.929688 L 76.144531 20.929688 C 76.441406 20.929688 76.640625 20.601562 76.644531 20.304688 L 76.738281 14.253906 Z M 77.15625 14.28125 "/>
<path style=" stroke:none;fill-rule:nonzero;fill:rgb(0%,0%,0%);fill-opacity:1;" d="M 81.996094 19.324219 L 81.859375 20.707031 C 81.835938 20.945312 81.722656 21.164062 81.539062 21.320312 C 81.359375 21.472656 81.125 21.554688 80.886719 21.539062 L 79.875 21.4375 C 79.644531 21.402344 79.433594 21.28125 79.285156 21.097656 C 79.140625 20.910156 79.074219 20.675781 79.09375 20.441406 L 79.230469 19.058594 L 79.628906 19.097656 L 79.492188 20.480469 C 79.460938 20.777344 79.625 21.125 79.917969 21.15625 L 80.902344 21.253906 C 81.191406 21.285156 81.433594 20.972656 81.460938 20.675781 L 81.601562 19.300781 C 81.636719 18.933594 81.484375 18.769531 81.183594 18.503906 C 80.886719 18.238281 80.460938 17.839844 80.097656 17.527344 C 79.925781 17.417969 79.792969 17.265625 79.707031 17.082031 C 79.617188 16.902344 79.578125 16.703125 79.597656 16.503906 L 79.714844 15.320312 C 79.738281 15.078125 79.851562 14.859375 80.035156 14.703125 C 80.210938 14.550781 80.445312 14.46875 80.683594 14.488281 L 81.484375 14.566406 C 81.71875 14.601562 81.933594 14.722656 82.078125 14.910156 C 82.222656 15.101562 82.292969 15.339844 82.269531 15.578125 L 82.128906 16.960938 L 81.730469 16.917969 L 81.867188 15.535156 C 81.894531 15.238281 81.734375 14.890625 81.441406 14.863281 L 80.644531 14.785156 C 80.351562 14.753906 80.125 15.066406 80.09375 15.355469 L 79.988281 16.453125 C 79.9375 16.933594 80.113281 17.058594 80.402344 17.304688 C 80.691406 17.550781 81.273438 18.074219 81.574219 18.324219 C 81.730469 18.433594 81.847656 18.585938 81.925781 18.765625 C 82 18.941406 82.023438 19.136719 81.996094 19.324219 Z M 81.996094 19.324219 "/>
<path style=" stroke:none;fill-rule:nonzero;fill:rgb(0%,0%,0%);fill-opacity:1;" d="M 89.628906 18.296875 L 89.933594 17.042969 C 89.980469 16.902344 89.972656 16.753906 89.910156 16.617188 C 89.847656 16.480469 89.738281 16.375 89.605469 16.316406 L 88.738281 16.109375 C 88.453125 16.039062 88.183594 16.320312 88.117188 16.605469 L 86.921875 21.613281 C 86.878906 21.75 86.886719 21.898438 86.949219 22.027344 C 87.015625 22.152344 87.125 22.253906 87.257812 22.300781 L 88.128906 22.507812 C 88.269531 22.527344 88.410156 22.492188 88.523438 22.40625 C 88.636719 22.320312 88.714844 22.191406 88.738281 22.050781 L 89.082031 20.59375 L 89.472656 20.691406 L 89.109375 22.128906 C 89.058594 22.359375 88.921875 22.558594 88.730469 22.6875 C 88.535156 22.820312 88.296875 22.871094 88.070312 22.828125 L 87.160156 22.613281 C 86.933594 22.546875 86.738281 22.398438 86.621094 22.195312 C 86.5 21.988281 86.460938 21.746094 86.511719 21.515625 L 87.707031 16.503906 C 87.765625 16.269531 87.910156 16.066406 88.113281 15.941406 C 88.316406 15.8125 88.566406 15.769531 88.800781 15.820312 L 89.660156 16.027344 C 89.777344 16.058594 89.886719 16.105469 89.984375 16.175781 C 90.085938 16.246094 90.167969 16.339844 90.230469 16.441406 C 90.292969 16.542969 90.332031 16.660156 90.355469 16.777344 C 90.371094 16.898438 90.371094 17.019531 90.339844 17.136719 L 90.042969 18.394531 Z M 89.628906 18.296875 "/>
<path style=" stroke:none;fill-rule:nonzero;fill:rgb(0%,0%,0%);fill-opacity:1;" d="M 93.277344 21.980469 L 91.828125 21.492188 L 90.738281 23.527344 L 90.375 23.410156 L 93.769531 17.207031 L 93.960938 17.277344 L 94.101562 17.324219 L 94.304688 17.386719 L 93.347656 24.382812 L 92.984375 24.257812 Z M 93.324219 21.683594 L 93.890625 17.675781 L 91.960938 21.222656 Z M 93.324219 21.683594 "/>
<path style=" stroke:none;fill-rule:nonzero;fill:rgb(0%,0%,0%);fill-opacity:1;" d="M 97.207031 21.980469 L 96.285156 22.75 L 95.261719 25.160156 L 94.902344 25.011719 L 97.601562 18.621094 L 97.964844 18.769531 L 96.597656 22.011719 L 99.613281 19.457031 L 99.980469 19.617188 L 97.558594 21.640625 L 97.363281 26.042969 L 97.003906 25.890625 Z M 97.207031 21.980469 "/>
<path style=" stroke:none;fill-rule:nonzero;fill:rgb(0%,0%,0%);fill-opacity:1;" d="M 101.179688 27.6875 L 101.042969 27.953125 L 99.167969 26.980469 L 99.082031 26.9375 L 98.816406 26.792969 L 102.007812 20.644531 L 104.183594 21.792969 L 104.046875 22.058594 L 102.210938 21.09375 L 100.929688 23.558594 L 102.414062 24.332031 L 102.28125 24.597656 L 100.796875 23.820312 L 99.285156 26.738281 Z M 101.179688 27.6875 "/>
<path style=" stroke:none;fill-rule:nonzero;fill:rgb(0%,0%,0%);fill-opacity:1;" d="M 110.460938 26.878906 L 107.507812 31.085938 C 107.371094 31.285156 107.160156 31.417969 106.925781 31.464844 C 106.691406 31.507812 106.449219 31.460938 106.246094 31.332031 L 105.441406 30.753906 C 105.253906 30.613281 105.125 30.398438 105.089844 30.160156 C 105.050781 29.925781 105.109375 29.683594 105.246094 29.488281 L 108.203125 25.28125 C 108.335938 25.082031 108.542969 24.945312 108.777344 24.902344 C 109.011719 24.859375 109.257812 24.90625 109.457031 25.039062 L 110.265625 25.613281 C 110.457031 25.753906 110.582031 25.96875 110.621094 26.207031 C 110.65625 26.441406 110.597656 26.683594 110.460938 26.878906 Z M 107.195312 30.863281 L 110.152344 26.652344 C 110.242188 26.539062 110.289062 26.394531 110.277344 26.246094 C 110.273438 26.09375 110.207031 25.953125 110.105469 25.851562 L 109.292969 25.28125 C 109.164062 25.214844 109.011719 25.203125 108.871094 25.246094 C 108.730469 25.289062 108.609375 25.382812 108.535156 25.507812 L 105.578125 29.714844 C 105.484375 29.832031 105.4375 29.976562 105.441406 30.121094 C 105.449219 30.273438 105.511719 30.414062 105.617188 30.515625 L 106.425781 31.085938 C 106.554688 31.152344 106.707031 31.164062 106.847656 31.121094 C 106.988281 31.082031 107.113281 30.988281 107.1875 30.863281 Z M 107.195312 30.863281 "/>
<path style=" stroke:none;fill-rule:nonzero;fill:rgb(0%,0%,0%);fill-opacity:1;" d="M 115.175781 29.566406 L 110.699219 34.863281 L 110.445312 34.644531 L 110.402344 34.605469 L 110.09375 34.34375 L 113.128906 28.308594 L 108.894531 33.320312 L 108.589844 33.0625 L 113.0625 27.769531 L 113.296875 27.96875 L 113.367188 28.027344 L 113.597656 28.222656 L 110.558594 34.421875 L 114.871094 29.316406 Z M 115.175781 29.566406 "/>
<path style=" stroke:none;fill-rule:nonzero;fill:rgb(0%,0%,0%);fill-opacity:1;" d="M 116.003906 39.882812 L 115.785156 40.082031 L 114.371094 38.503906 L 114.308594 38.433594 L 114.097656 38.203125 L 119.230469 33.542969 L 120.890625 35.394531 L 120.675781 35.589844 L 119.28125 34.046875 L 117.230469 35.910156 L 118.347656 37.160156 L 118.128906 37.355469 L 117.003906 36.097656 L 114.589844 38.285156 Z M 116.003906 39.882812 "/>
<path style=" stroke:none;fill-rule:nonzero;fill:rgb(0%,0%,0%);fill-opacity:1;" d="M 119.839844 41.53125 L 118.894531 40.292969 L 116.847656 41.359375 L 116.621094 41.058594 L 122.882812 37.855469 L 123.003906 38.019531 L 123.097656 38.136719 L 123.230469 38.3125 L 118.511719 43.558594 L 118.269531 43.246094 Z M 120.042969 41.3125 L 122.753906 38.316406 L 119.164062 40.164062 Z M 120.042969 41.3125 "/>
<path style=" stroke:none;fill-rule:nonzero;fill:rgb(0%,0%,0%);fill-opacity:1;" d="M 123.207031 44.378906 L 122.605469 43.433594 L 119.699219 45.304688 L 119.488281 44.972656 L 125.296875 41.230469 L 125.453125 41.480469 L 125.507812 41.5625 L 126.25 42.730469 C 126.375 42.933594 126.417969 43.175781 126.367188 43.402344 C 126.316406 43.636719 126.175781 43.835938 125.980469 43.964844 L 124.570312 44.871094 C 124.398438 44.980469 124.191406 45.027344 123.984375 45.003906 C 123.777344 44.980469 123.589844 44.886719 123.441406 44.742188 L 121.09375 47.507812 L 120.859375 47.140625 Z M 122.84375 43.285156 L 123.589844 44.453125 C 123.675781 44.5625 123.808594 44.636719 123.953125 44.652344 C 124.097656 44.671875 124.238281 44.628906 124.355469 44.542969 L 125.761719 43.636719 C 125.886719 43.570312 125.980469 43.457031 126.027344 43.320312 C 126.070312 43.1875 126.0625 43.039062 126.003906 42.910156 L 125.257812 41.742188 Z M 122.84375 43.285156 "/>
<path style=" stroke:none;fill-rule:nonzero;fill:rgb(0%,0%,0%);fill-opacity:1;" d="M 128.847656 47.914062 L 128.242188 46.78125 L 122.410156 49.910156 L 122.226562 49.566406 L 128.070312 46.433594 L 127.464844 45.285156 L 127.722656 45.148438 L 128.332031 46.292969 L 128.515625 46.660156 L 129.121094 47.792969 Z M 128.847656 47.914062 "/>
<path style=" stroke:none;fill-rule:nonzero;fill:rgb(0%,0%,0%);fill-opacity:1;" d="M 131.09375 52.199219 L 124.753906 54.957031 L 124.597656 54.589844 L 127.859375 53.175781 L 127.078125 51.355469 L 123.8125 52.769531 L 123.652344 52.402344 L 129.988281 49.644531 L 130.152344 50.011719 L 127.347656 51.230469 L 128.128906 53.054688 L 130.941406 51.832031 Z M 131.09375 52.199219 "/>
<path style=" stroke:none;fill-rule:nonzero;fill:rgb(80.784315%,28.235295%,19.607843%);fill-opacity:1;" d="M 99.046875 58.214844 C 97.488281 58.21875 95.980469 57.667969 94.785156 56.652344 C 93.300781 57.164062 91.722656 57.355469 90.15625 57.222656 C 88.589844 57.089844 87.066406 56.628906 85.683594 55.878906 C 84.371094 57.03125 82.691406 57.671875 80.949219 57.675781 C 80.359375 57.671875 79.773438 57.59375 79.199219 57.449219 L 80.933594 66.855469 L 98.550781 66.855469 L 100.160156 58.105469 C 99.792969 58.171875 99.421875 58.210938 99.046875 58.214844 Z M 86.277344 65.121094 L 86.203125 65.121094 C 86.070312 65.121094 85.945312 65.074219 85.847656 64.988281 C 85.75 64.902344 85.683594 64.78125 85.667969 64.652344 L 84.988281 59.945312 C 84.980469 59.875 84.980469 59.800781 85 59.734375 C 85.015625 59.664062 85.046875 59.597656 85.085938 59.539062 C 85.128906 59.480469 85.183594 59.433594 85.246094 59.398438 C 85.308594 59.363281 85.375 59.339844 85.445312 59.328125 C 85.519531 59.316406 85.589844 59.324219 85.660156 59.339844 C 85.730469 59.359375 85.792969 59.390625 85.847656 59.433594 C 85.90625 59.480469 85.953125 59.535156 85.988281 59.597656 C 86.023438 59.65625 86.046875 59.726562 86.058594 59.796875 L 86.738281 64.507812 C 86.757812 64.652344 86.71875 64.796875 86.632812 64.910156 C 86.550781 65.023438 86.417969 65.101562 86.277344 65.121094 Z M 90.734375 64.609375 C 90.734375 64.753906 90.675781 64.894531 90.578125 64.996094 C 90.472656 65.097656 90.332031 65.15625 90.191406 65.15625 C 90.046875 65.15625 89.910156 65.097656 89.808594 64.996094 C 89.703125 64.894531 89.644531 64.753906 89.644531 64.609375 L 89.644531 59.847656 C 89.644531 59.699219 89.703125 59.558594 89.808594 59.460938 C 89.910156 59.355469 90.046875 59.300781 90.191406 59.300781 C 90.332031 59.300781 90.472656 59.355469 90.578125 59.460938 C 90.675781 59.558594 90.734375 59.699219 90.734375 59.847656 Z M 95.417969 59.953125 L 94.738281 64.660156 C 94.71875 64.789062 94.65625 64.90625 94.558594 64.996094 C 94.457031 65.082031 94.332031 65.128906 94.203125 65.128906 L 94.121094 65.128906 C 94.050781 65.121094 93.984375 65.09375 93.921875 65.058594 C 93.863281 65.019531 93.808594 64.972656 93.769531 64.917969 C 93.726562 64.859375 93.695312 64.796875 93.679688 64.726562 C 93.660156 64.65625 93.660156 64.585938 93.671875 64.515625 L 94.332031 59.796875 C 94.351562 59.652344 94.425781 59.523438 94.542969 59.433594 C 94.660156 59.347656 94.808594 59.308594 94.949219 59.328125 C 95.097656 59.347656 95.226562 59.429688 95.316406 59.546875 C 95.402344 59.664062 95.441406 59.808594 95.417969 59.957031 Z M 95.417969 59.953125 "/>
<path style=" stroke:none;fill-rule:nonzero;fill:rgb(80.784315%,28.235295%,19.607843%);fill-opacity:1;" d="M 78.398438 56.011719 C 78.546875 56.082031 78.695312 56.148438 78.847656 56.199219 C 79.003906 56.25 79.160156 56.296875 79.316406 56.347656 C 79.472656 56.394531 79.628906 56.421875 79.789062 56.457031 C 79.949219 56.492188 80.109375 56.515625 80.269531 56.53125 C 80.433594 56.550781 80.597656 56.5625 80.757812 56.5625 C 80.921875 56.578125 81.082031 56.578125 81.242188 56.5625 C 81.40625 56.558594 81.566406 56.542969 81.730469 56.519531 L 82.210938 56.441406 C 82.367188 56.410156 82.519531 56.355469 82.675781 56.316406 L 82.914062 56.246094 L 83.136719 56.15625 C 83.289062 56.089844 83.441406 56.042969 83.582031 55.964844 L 84.011719 55.734375 C 84.148438 55.648438 84.28125 55.550781 84.417969 55.457031 C 84.550781 55.367188 84.675781 55.269531 84.796875 55.15625 C 84.921875 55.058594 85.046875 54.949219 85.15625 54.832031 L 85.492188 54.46875 L 85.527344 54.429688 L 85.566406 54.457031 L 86.097656 54.769531 C 86.277344 54.871094 86.460938 54.957031 86.644531 55.050781 C 86.832031 55.144531 87.007812 55.21875 87.210938 55.296875 L 87.496094 55.410156 L 87.789062 55.511719 C 87.984375 55.574219 88.175781 55.644531 88.378906 55.683594 C 88.585938 55.730469 88.777344 55.785156 88.976562 55.824219 L 89.582031 55.921875 C 89.789062 55.949219 89.996094 55.960938 90.199219 55.980469 C 90.402344 56.003906 90.605469 55.980469 90.808594 56.003906 L 91.117188 56.003906 L 91.417969 55.984375 L 92.035156 55.941406 C 92.246094 55.941406 92.4375 55.878906 92.636719 55.847656 C 92.835938 55.820312 93.035156 55.792969 93.230469 55.738281 L 93.816406 55.574219 C 93.917969 55.542969 94.011719 55.519531 94.109375 55.488281 L 94.390625 55.378906 L 94.964844 55.160156 L 95.105469 55.105469 L 95.234375 55.21875 C 95.386719 55.351562 95.527344 55.492188 95.6875 55.617188 C 95.84375 55.738281 96.007812 55.855469 96.183594 55.964844 C 96.347656 56.070312 96.523438 56.164062 96.707031 56.246094 L 96.976562 56.375 L 97.261719 56.472656 C 97.632812 56.605469 98.019531 56.6875 98.414062 56.722656 C 98.605469 56.75 98.808594 56.722656 99.003906 56.75 L 99.046875 56.75 C 99.066406 56.75 99.027344 56.75 99.046875 56.75 L 99.300781 56.75 L 99.613281 56.722656 C 99.710938 56.714844 99.808594 56.695312 99.902344 56.667969 L 100.183594 56.605469 L 100.308594 56.582031 L 100.457031 56.539062 L 100.535156 56.511719 L 100.574219 56.511719 L 100.554688 56.511719 L 100.574219 56.511719 L 100.796875 56.429688 L 100.832031 56.429688 L 100.808594 56.429688 L 100.84375 56.410156 L 100.988281 56.347656 C 101.082031 56.304688 101.1875 56.265625 101.265625 56.21875 L 101.511719 56.085938 L 101.757812 55.929688 C 102.078125 55.722656 102.378906 55.476562 102.648438 55.199219 C 102.914062 54.921875 103.148438 54.613281 103.339844 54.28125 C 103.539062 53.949219 103.695312 53.597656 103.8125 53.230469 C 103.925781 52.867188 104 52.492188 104.035156 52.109375 C 104.042969 52.011719 104.042969 51.917969 104.035156 51.824219 L 104.035156 51.554688 C 104.023438 51.167969 103.972656 50.785156 103.878906 50.410156 C 103.824219 50.230469 103.78125 50.042969 103.707031 49.871094 C 103.433594 49.164062 103.007812 48.527344 102.457031 48.007812 C 101.910156 47.488281 101.253906 47.101562 100.535156 46.871094 L 100.171875 46.761719 L 100.136719 46.308594 L 100.007812 45.578125 C 99.949219 45.339844 99.878906 45.109375 99.816406 44.871094 C 99.753906 44.632812 99.636719 44.414062 99.550781 44.183594 C 99.464844 43.957031 99.339844 43.742188 99.238281 43.519531 C 99 43.089844 98.730469 42.679688 98.425781 42.296875 C 98.121094 41.902344 97.78125 41.535156 97.410156 41.203125 C 97.230469 41.035156 97.039062 40.878906 96.839844 40.738281 C 96.738281 40.664062 96.644531 40.578125 96.542969 40.515625 L 96.230469 40.3125 L 95.914062 40.113281 L 95.589844 39.9375 L 95.261719 39.761719 C 95.152344 39.703125 95.035156 39.664062 94.921875 39.613281 C 94.695312 39.511719 94.46875 39.417969 94.234375 39.339844 L 93.871094 39.222656 C 93.753906 39.179688 93.628906 39.144531 93.507812 39.121094 C 93.261719 39.066406 93.023438 38.996094 92.78125 38.953125 L 92.058594 38.84375 L 91.308594 38.792969 L 90.542969 38.792969 C 90.414062 38.792969 90.289062 38.792969 90.183594 38.816406 L 89.820312 38.851562 C 89.578125 38.867188 89.324219 38.925781 89.09375 38.964844 C 88.863281 39 88.605469 39.074219 88.371094 39.132812 C 88.132812 39.1875 87.890625 39.28125 87.644531 39.355469 C 87.398438 39.433594 87.175781 39.542969 86.941406 39.636719 C 86.703125 39.730469 86.488281 39.859375 86.261719 39.972656 C 86.035156 40.089844 85.824219 40.222656 85.613281 40.367188 C 85.402344 40.507812 85.1875 40.644531 84.996094 40.808594 C 84.792969 40.964844 84.601562 41.128906 84.417969 41.304688 L 84.136719 41.5625 C 84.050781 41.652344 83.96875 41.753906 83.882812 41.84375 C 83.792969 41.933594 83.707031 42.027344 83.628906 42.128906 L 83.390625 42.429688 C 83.234375 42.632812 83.089844 42.839844 82.957031 43.058594 C 82.808594 43.269531 82.707031 43.503906 82.574219 43.726562 C 82.445312 43.949219 82.363281 44.191406 82.257812 44.425781 L 82.167969 44.617188 L 81.980469 44.585938 C 81.804688 44.558594 81.617188 44.527344 81.457031 44.503906 C 81.300781 44.480469 81.09375 44.46875 80.9375 44.46875 L 80.386719 44.46875 L 79.871094 44.539062 C 79.519531 44.601562 79.171875 44.691406 78.839844 44.816406 C 78.671875 44.875 78.503906 44.945312 78.347656 45.023438 C 78.183594 45.09375 78.023438 45.179688 77.875 45.277344 L 77.640625 45.410156 L 77.417969 45.566406 L 77.203125 45.726562 C 77.132812 45.78125 77.066406 45.84375 76.996094 45.902344 C 76.859375 46.011719 76.726562 46.136719 76.601562 46.269531 C 76.472656 46.394531 76.355469 46.527344 76.242188 46.671875 C 76.011719 46.953125 75.816406 47.257812 75.640625 47.574219 C 75.5625 47.738281 75.472656 47.902344 75.40625 48.066406 L 75.210938 48.582031 L 75.066406 49.105469 C 75.027344 49.285156 75.003906 49.472656 74.972656 49.644531 C 74.929688 50.011719 74.914062 50.375 74.925781 50.742188 C 74.925781 50.925781 74.957031 51.105469 74.972656 51.285156 C 74.984375 51.472656 75.027344 51.652344 75.074219 51.828125 C 75.117188 52.007812 75.167969 52.183594 75.230469 52.355469 C 75.285156 52.53125 75.351562 52.703125 75.425781 52.871094 C 75.496094 53.042969 75.582031 53.203125 75.667969 53.367188 C 75.75 53.53125 75.847656 53.6875 75.957031 53.832031 C 76.164062 54.140625 76.398438 54.425781 76.65625 54.683594 C 76.910156 54.957031 77.1875 55.199219 77.488281 55.414062 C 77.773438 55.640625 78.078125 55.839844 78.398438 56.011719 Z M 78.398438 56.011719 C 77.726562 55.703125 77.113281 55.277344 76.585938 54.753906 C 76.328125 54.496094 76.089844 54.210938 75.882812 53.90625 C 75.769531 53.761719 75.683594 53.59375 75.582031 53.441406 C 75.484375 53.289062 75.410156 53.113281 75.335938 52.941406 C 75.261719 52.773438 75.1875 52.605469 75.132812 52.429688 C 75.070312 52.253906 75.019531 52.078125 74.972656 51.894531 C 74.925781 51.714844 74.898438 51.535156 74.859375 51.351562 C 74.816406 51.167969 74.804688 50.984375 74.796875 50.800781 C 74.769531 50.433594 74.78125 50.066406 74.816406 49.707031 C 74.839844 49.519531 74.863281 49.339844 74.894531 49.152344 L 75.027344 48.609375 L 75.210938 48.078125 C 75.277344 47.902344 75.363281 47.738281 75.441406 47.570312 C 75.609375 47.234375 75.804688 46.917969 76.03125 46.617188 C 76.25 46.3125 76.5 46.03125 76.777344 45.777344 L 76.980469 45.585938 L 77.203125 45.410156 L 77.429688 45.234375 L 77.664062 45.082031 C 77.816406 44.976562 77.980469 44.878906 78.148438 44.796875 C 78.3125 44.707031 78.488281 44.628906 78.660156 44.558594 C 79.011719 44.410156 79.378906 44.296875 79.75 44.214844 L 80.316406 44.113281 L 80.871094 44.070312 C 81.074219 44.070312 81.253906 44.070312 81.449219 44.070312 C 81.648438 44.070312 81.816406 44.113281 82.015625 44.128906 L 81.742188 44.292969 C 81.84375 44.039062 81.929688 43.78125 82.042969 43.53125 C 82.152344 43.285156 82.269531 43.035156 82.40625 42.800781 C 82.535156 42.5625 82.679688 42.332031 82.835938 42.109375 L 83.070312 41.769531 C 83.15625 41.664062 83.246094 41.558594 83.328125 41.453125 C 83.417969 41.339844 83.503906 41.238281 83.597656 41.136719 L 83.878906 40.84375 C 84.066406 40.636719 84.269531 40.476562 84.472656 40.277344 C 84.675781 40.074219 84.90625 39.9375 85.121094 39.769531 C 85.332031 39.59375 85.574219 39.460938 85.800781 39.300781 C 86.03125 39.144531 86.277344 39.039062 86.527344 38.902344 C 86.769531 38.765625 87.023438 38.667969 87.277344 38.5625 C 87.53125 38.457031 87.789062 38.363281 88.054688 38.28125 C 88.316406 38.203125 88.578125 38.117188 88.847656 38.0625 C 89.117188 38.011719 89.386719 37.941406 89.667969 37.90625 L 90.085938 37.851562 C 90.230469 37.832031 90.367188 37.816406 90.496094 37.808594 L 90.886719 37.785156 L 91.3125 37.785156 C 91.585938 37.785156 91.863281 37.785156 92.136719 37.808594 L 92.960938 37.910156 C 93.238281 37.953125 93.507812 38.019531 93.777344 38.074219 C 93.917969 38.097656 94.050781 38.128906 94.179688 38.175781 L 94.582031 38.296875 C 94.847656 38.375 95.113281 38.46875 95.367188 38.582031 C 95.496094 38.636719 95.628906 38.679688 95.753906 38.742188 L 96.113281 38.925781 L 96.476562 39.117188 L 96.839844 39.335938 L 97.203125 39.558594 C 97.324219 39.636719 97.429688 39.726562 97.542969 39.804688 C 97.769531 39.96875 97.988281 40.144531 98.199219 40.335938 C 98.621094 40.707031 99.011719 41.113281 99.367188 41.550781 C 99.722656 41.988281 100.035156 42.460938 100.308594 42.953125 C 100.433594 43.207031 100.578125 43.457031 100.671875 43.71875 C 100.765625 43.980469 100.882812 44.246094 100.964844 44.515625 C 101.050781 44.785156 101.121094 45.066406 101.183594 45.339844 L 101.324219 46.183594 L 100.902344 45.671875 C 101.34375 45.820312 101.769531 46.011719 102.171875 46.253906 C 102.574219 46.496094 102.941406 46.78125 103.28125 47.105469 C 103.617188 47.433594 103.917969 47.800781 104.164062 48.199219 C 104.417969 48.59375 104.621094 49.015625 104.777344 49.457031 C 104.933594 49.902344 105.035156 50.363281 105.085938 50.832031 C 105.113281 51.050781 105.121094 51.273438 105.121094 51.496094 L 105.121094 51.863281 C 105.121094 51.972656 105.121094 52.089844 105.09375 52.207031 C 105.042969 52.667969 104.9375 53.121094 104.78125 53.558594 C 104.621094 53.988281 104.414062 54.402344 104.160156 54.789062 C 103.914062 55.175781 103.621094 55.527344 103.289062 55.847656 C 102.957031 56.164062 102.59375 56.441406 102.199219 56.675781 L 101.90625 56.84375 L 101.585938 56.996094 C 101.480469 57.050781 101.386719 57.082031 101.285156 57.121094 L 101.136719 57.175781 L 101.101562 57.175781 L 101.039062 57.199219 L 100.964844 57.226562 C 100.527344 57.355469 100.082031 57.445312 99.628906 57.484375 L 98.972656 57.484375 C 98.746094 57.460938 98.523438 57.460938 98.300781 57.421875 C 97.859375 57.351562 97.429688 57.230469 97.015625 57.054688 L 96.707031 56.933594 L 96.414062 56.777344 C 96.214844 56.675781 96.027344 56.558594 95.847656 56.429688 C 95.664062 56.304688 95.488281 56.167969 95.320312 56.019531 C 95.152344 55.878906 95.003906 55.714844 94.847656 55.5625 L 95.125 55.621094 L 94.21875 55.917969 C 94.117188 55.949219 94.011719 55.964844 93.90625 55.992188 L 93.289062 56.128906 C 93.082031 56.175781 92.867188 56.191406 92.65625 56.222656 C 92.445312 56.25 92.230469 56.289062 92.03125 56.292969 L 91.40625 56.308594 L 91.085938 56.308594 L 90.773438 56.292969 C 90.566406 56.273438 90.355469 56.292969 90.144531 56.242188 C 89.941406 56.1875 89.730469 56.1875 89.523438 56.15625 L 88.90625 56.027344 C 88.703125 55.980469 88.503906 55.917969 88.300781 55.859375 C 88.097656 55.804688 87.898438 55.738281 87.707031 55.664062 L 87.414062 55.558594 L 87.125 55.433594 C 86.933594 55.355469 86.742188 55.265625 86.558594 55.167969 C 86.371094 55.066406 86.199219 54.980469 86.007812 54.871094 L 85.476562 54.535156 L 85.550781 54.535156 L 85.1875 54.902344 C 85.074219 55.015625 84.953125 55.125 84.824219 55.222656 C 84.699219 55.332031 84.566406 55.429688 84.429688 55.519531 C 84.292969 55.605469 84.160156 55.699219 84.015625 55.78125 L 83.582031 56.007812 C 83.433594 56.082031 83.28125 56.140625 83.128906 56.199219 L 82.898438 56.289062 L 82.660156 56.351562 C 82.503906 56.394531 82.351562 56.445312 82.191406 56.480469 L 81.703125 56.554688 C 81.542969 56.574219 81.378906 56.585938 81.21875 56.589844 C 81.054688 56.601562 80.894531 56.601562 80.734375 56.589844 C 80.40625 56.574219 80.082031 56.535156 79.761719 56.472656 C 79.601562 56.433594 79.441406 56.410156 79.289062 56.355469 C 79.136719 56.304688 78.976562 56.265625 78.824219 56.203125 C 78.671875 56.140625 78.546875 56.082031 78.398438 56.011719 Z M 78.398438 56.011719 "/>
<path style=" stroke:none;fill-rule:nonzero;fill:rgb(0%,0%,0%);fill-opacity:1;" d="M 57.621094 131.113281 L 57.226562 132.480469 C 57.160156 132.714844 57.003906 132.914062 56.792969 133.035156 C 56.582031 133.160156 56.332031 133.195312 56.09375 133.136719 L 55.09375 132.84375 C 54.863281 132.765625 54.675781 132.597656 54.566406 132.378906 C 54.453125 132.164062 54.429688 131.914062 54.496094 131.679688 L 54.894531 130.316406 L 55.289062 130.433594 L 54.894531 131.796875 C 54.839844 131.941406 54.839844 132.097656 54.894531 132.238281 C 54.957031 132.378906 55.058594 132.496094 55.199219 132.558594 L 56.171875 132.839844 C 56.460938 132.929688 56.757812 132.660156 56.839844 132.367188 L 57.234375 131.003906 C 57.34375 130.636719 57.214844 130.449219 56.964844 130.125 C 56.714844 129.800781 56.355469 129.316406 56.035156 128.925781 C 55.882812 128.789062 55.777344 128.609375 55.71875 128.414062 C 55.664062 128.214844 55.667969 128.007812 55.722656 127.808594 L 56.0625 126.636719 C 56.128906 126.402344 56.28125 126.199219 56.492188 126.074219 C 56.707031 125.957031 56.957031 125.921875 57.191406 125.980469 L 57.980469 126.210938 C 58.214844 126.289062 58.402344 126.453125 58.519531 126.671875 C 58.628906 126.886719 58.652344 127.140625 58.582031 127.375 L 58.191406 128.738281 L 57.796875 128.621094 L 58.1875 127.261719 C 58.242188 127.117188 58.242188 126.960938 58.1875 126.820312 C 58.128906 126.679688 58.023438 126.566406 57.886719 126.5 L 57.09375 126.265625 C 56.808594 126.183594 56.523438 126.457031 56.433594 126.746094 L 56.128906 127.820312 C 55.988281 128.296875 56.128906 128.457031 56.386719 128.761719 C 56.648438 129.066406 57.113281 129.699219 57.375 130.003906 C 57.515625 130.144531 57.613281 130.328125 57.660156 130.523438 C 57.703125 130.71875 57.6875 130.921875 57.621094 131.113281 Z M 57.621094 131.113281 "/>
<path style=" stroke:none;fill-rule:nonzero;fill:rgb(0%,0%,0%);fill-opacity:1;" d="M 59.699219 134.019531 L 59.296875 133.925781 L 60.871094 126.996094 L 61.269531 127.085938 Z M 59.699219 134.019531 "/>
<path style=" stroke:none;fill-rule:nonzero;fill:rgb(0%,0%,0%);fill-opacity:1;" d="M 66.074219 127.984375 L 64.902344 135.003906 L 64.570312 134.949219 L 64.507812 134.949219 L 64.101562 134.882812 L 63.617188 127.953125 L 62.507812 134.609375 L 62.105469 134.539062 L 63.277344 127.519531 L 63.589844 127.574219 L 63.679688 127.574219 L 63.984375 127.621094 L 64.550781 134.679688 L 65.675781 127.90625 Z M 66.074219 127.984375 "/>
<path style=" stroke:none;fill-rule:nonzero;fill:rgb(0%,0%,0%);fill-opacity:1;" d="M 70.132812 130.691406 L 70.265625 129.378906 C 70.292969 129.074219 70.128906 128.714844 69.828125 128.6875 L 68.925781 128.597656 C 68.621094 128.566406 68.390625 128.886719 68.363281 129.191406 L 67.847656 134.445312 C 67.820312 134.589844 67.851562 134.738281 67.933594 134.863281 C 68.015625 134.980469 68.140625 135.066406 68.285156 135.097656 L 69.195312 135.1875 C 69.34375 135.1875 69.480469 135.128906 69.585938 135.023438 C 69.6875 134.921875 69.75 134.78125 69.753906 134.632812 L 69.902344 133.121094 L 70.3125 133.164062 L 70.160156 134.675781 C 70.140625 134.917969 70.027344 135.140625 69.847656 135.300781 C 69.671875 135.460938 69.4375 135.542969 69.199219 135.535156 L 68.253906 135.441406 C 68.011719 135.40625 67.785156 135.28125 67.636719 135.089844 C 67.480469 134.894531 67.410156 134.652344 67.433594 134.40625 L 67.953125 129.148438 C 67.976562 128.90625 68.09375 128.675781 68.28125 128.519531 C 68.46875 128.359375 68.710938 128.277344 68.957031 128.296875 L 69.863281 128.386719 C 70.105469 128.417969 70.328125 128.546875 70.480469 128.738281 C 70.632812 128.929688 70.707031 129.175781 70.679688 129.421875 L 70.546875 130.734375 Z M 70.132812 130.691406 "/>
<path style=" stroke:none;fill-rule:nonzero;fill:rgb(0%,0%,0%);fill-opacity:1;" d="M 74.9375 135.550781 L 74.9375 135.851562 L 72.761719 135.746094 L 72.351562 135.746094 L 72.714844 128.632812 L 75.253906 128.757812 L 75.253906 129.058594 L 73.128906 128.957031 L 72.992188 131.808594 L 74.707031 131.890625 L 74.707031 132.191406 L 72.992188 132.109375 L 72.828125 135.464844 Z M 74.9375 135.550781 "/>
<path style=" stroke:none;fill-rule:nonzero;fill:rgb(0%,0%,0%);fill-opacity:1;" d="M 81.117188 128.5625 L 81.632812 135.667969 L 81.222656 135.695312 L 80.722656 129.097656 L 79.667969 129.894531 L 79.640625 129.492188 L 80.691406 128.59375 Z M 81.117188 128.5625 "/>
<path style=" stroke:none;fill-rule:nonzero;fill:rgb(0%,0%,0%);fill-opacity:1;" d="M 86.578125 128.773438 L 87.054688 131.785156 L 87.417969 133.992188 C 87.453125 134.214844 87.402344 134.441406 87.285156 134.628906 C 87.160156 134.820312 86.972656 134.957031 86.761719 135.019531 L 85.859375 135.164062 C 85.621094 135.199219 85.378906 135.140625 85.183594 134.996094 C 84.988281 134.855469 84.859375 134.640625 84.820312 134.402344 L 84.660156 133.394531 L 85.058594 133.332031 L 85.21875 134.335938 C 85.234375 134.484375 85.300781 134.621094 85.410156 134.71875 C 85.519531 134.816406 85.664062 134.871094 85.808594 134.863281 L 86.613281 134.734375 C 86.753906 134.691406 86.878906 134.597656 86.949219 134.472656 C 87.023438 134.34375 87.046875 134.191406 87.011719 134.046875 L 86.648438 131.886719 C 86.523438 132.015625 86.355469 132.097656 86.175781 132.125 L 85.277344 132.273438 C 85.039062 132.308594 84.792969 132.25 84.597656 132.109375 C 84.402344 131.964844 84.269531 131.75 84.230469 131.511719 L 83.867188 129.199219 C 83.847656 129.078125 83.855469 128.957031 83.878906 128.839844 C 83.910156 128.722656 83.957031 128.613281 84.027344 128.511719 C 84.097656 128.417969 84.1875 128.335938 84.289062 128.269531 C 84.394531 128.207031 84.507812 128.167969 84.625 128.148438 L 85.527344 128 C 85.644531 127.984375 85.765625 127.988281 85.882812 128.015625 C 86.003906 128.042969 86.113281 128.097656 86.210938 128.167969 C 86.308594 128.242188 86.390625 128.332031 86.457031 128.433594 C 86.515625 128.539062 86.558594 128.652344 86.578125 128.773438 Z M 86.535156 131.148438 L 86.175781 128.835938 C 86.160156 128.691406 86.09375 128.554688 85.984375 128.457031 C 85.871094 128.359375 85.730469 128.304688 85.582031 128.3125 L 84.679688 128.457031 C 84.539062 128.5 84.417969 128.59375 84.34375 128.71875 C 84.269531 128.847656 84.246094 129 84.28125 129.144531 L 84.644531 131.457031 C 84.65625 131.601562 84.726562 131.738281 84.835938 131.832031 C 84.945312 131.929688 85.089844 131.980469 85.234375 131.972656 L 86.136719 131.828125 C 86.277344 131.789062 86.398438 131.695312 86.476562 131.570312 C 86.550781 131.441406 86.574219 131.292969 86.535156 131.148438 Z M 86.535156 131.148438 "/>
<path style=" stroke:none;fill-rule:nonzero;fill:rgb(0%,0%,0%);fill-opacity:1;" d="M 90.886719 127.777344 L 91.613281 130.734375 L 92.152344 132.917969 C 92.207031 133.144531 92.179688 133.378906 92.074219 133.578125 C 91.96875 133.78125 91.789062 133.9375 91.574219 134.015625 L 90.691406 134.230469 C 90.460938 134.289062 90.214844 134.25 90.007812 134.125 C 89.808594 133.996094 89.660156 133.796875 89.605469 133.5625 L 89.363281 132.574219 L 89.746094 132.472656 L 89.976562 133.453125 C 90.003906 133.597656 90.082031 133.730469 90.203125 133.820312 C 90.320312 133.910156 90.46875 133.949219 90.613281 133.929688 L 91.402344 133.734375 C 91.542969 133.683594 91.660156 133.574219 91.71875 133.4375 C 91.785156 133.304688 91.792969 133.144531 91.742188 133.003906 L 91.234375 130.902344 C 91.113281 131.039062 90.957031 131.136719 90.78125 131.175781 L 89.898438 131.398438 C 89.664062 131.457031 89.414062 131.417969 89.207031 131.292969 C 88.996094 131.167969 88.847656 130.964844 88.789062 130.730469 L 88.226562 128.457031 C 88.199219 128.339844 88.191406 128.21875 88.207031 128.097656 C 88.222656 127.972656 88.261719 127.859375 88.324219 127.753906 C 88.386719 127.648438 88.46875 127.558594 88.566406 127.484375 C 88.660156 127.410156 88.773438 127.355469 88.890625 127.328125 L 89.777344 127.105469 C 90.011719 127.046875 90.261719 127.082031 90.46875 127.210938 C 90.675781 127.335938 90.828125 127.539062 90.886719 127.777344 Z M 91.050781 130.144531 L 90.488281 127.875 C 90.464844 127.730469 90.382812 127.597656 90.265625 127.507812 C 90.144531 127.421875 90 127.382812 89.855469 127.402344 L 88.964844 127.621094 C 88.824219 127.675781 88.710938 127.78125 88.644531 127.917969 C 88.585938 128.054688 88.574219 128.207031 88.625 128.351562 L 89.1875 130.621094 C 89.214844 130.769531 89.292969 130.898438 89.410156 130.984375 C 89.527344 131.070312 89.675781 131.109375 89.820312 131.089844 L 90.707031 130.871094 C 90.777344 130.84375 90.847656 130.808594 90.902344 130.757812 C 90.957031 130.707031 91.003906 130.648438 91.035156 130.582031 C 91.070312 130.515625 91.089844 130.441406 91.09375 130.363281 C 91.097656 130.292969 91.089844 130.214844 91.066406 130.144531 Z M 91.050781 130.144531 "/>
<path style=" stroke:none;fill-rule:nonzero;fill:rgb(0%,0%,0%);fill-opacity:1;" d="M 96.765625 131.421875 C 96.804688 131.535156 96.820312 131.65625 96.816406 131.777344 C 96.804688 131.898438 96.777344 132.015625 96.722656 132.121094 C 96.671875 132.230469 96.597656 132.328125 96.507812 132.410156 C 96.417969 132.488281 96.3125 132.550781 96.199219 132.589844 L 95.429688 132.855469 C 95.199219 132.933594 94.949219 132.917969 94.730469 132.808594 C 94.515625 132.703125 94.347656 132.511719 94.269531 132.285156 L 93.871094 131.128906 L 94.261719 130.996094 L 94.660156 132.152344 C 94.695312 132.296875 94.785156 132.417969 94.914062 132.496094 C 95.035156 132.570312 95.1875 132.597656 95.332031 132.566406 L 96.097656 132.304688 C 96.238281 132.238281 96.34375 132.125 96.394531 131.988281 C 96.449219 131.847656 96.441406 131.691406 96.382812 131.554688 L 95.695312 129.53125 C 95.65625 129.386719 95.566406 129.261719 95.4375 129.1875 C 95.3125 129.113281 95.160156 129.089844 95.015625 129.125 L 94.144531 129.425781 L 94.042969 129.140625 L 94.820312 128.875 C 94.953125 128.808594 95.058594 128.695312 95.109375 128.554688 C 95.160156 128.417969 95.15625 128.261719 95.101562 128.128906 L 94.574219 126.589844 C 94.539062 126.449219 94.449219 126.324219 94.320312 126.246094 C 94.199219 126.167969 94.046875 126.140625 93.902344 126.171875 L 93.324219 126.371094 C 93.191406 126.4375 93.09375 126.546875 93.042969 126.683594 C 92.992188 126.816406 92.992188 126.964844 93.046875 127.101562 L 93.410156 128.160156 L 93.019531 128.296875 L 92.65625 127.238281 C 92.582031 127.003906 92.597656 126.753906 92.703125 126.535156 C 92.8125 126.316406 93 126.148438 93.230469 126.070312 L 93.796875 125.875 L 93.816406 125.875 C 94.046875 125.796875 94.292969 125.816406 94.503906 125.925781 C 94.71875 126.03125 94.878906 126.222656 94.957031 126.449219 L 95.484375 127.984375 C 95.527344 128.117188 95.542969 128.257812 95.527344 128.398438 C 95.503906 128.539062 95.457031 128.671875 95.375 128.789062 C 95.515625 128.816406 95.652344 128.878906 95.765625 128.964844 C 95.878906 129.050781 95.972656 129.167969 96.039062 129.296875 Z M 96.765625 131.421875 "/>
<path style=" stroke:none;fill-rule:nonzero;fill:rgb(93.725491%,25.490198%,21.176471%);fill-opacity:1;" d="M 49.707031 104.875 L 106.265625 104.875 C 106.339844 104.847656 106.402344 104.804688 106.445312 104.742188 C 106.488281 104.675781 106.511719 104.605469 106.511719 104.527344 C 106.511719 104.453125 106.488281 104.378906 106.445312 104.316406 C 106.402344 104.253906 106.339844 104.207031 106.265625 104.183594 L 49.707031 104.183594 C 49.636719 104.207031 49.574219 104.253906 49.527344 104.316406 C 49.484375 104.378906 49.460938 104.453125 49.460938 104.527344 C 49.460938 104.605469 49.484375 104.675781 49.527344 104.742188 C 49.574219 104.804688 49.636719 104.847656 49.707031 104.875 Z M 49.707031 104.875 "/>
<path style=" stroke:none;fill-rule:nonzero;fill:rgb(93.725491%,25.490198%,21.176471%);fill-opacity:1;" d="M 49.707031 113.324219 L 106.265625 113.324219 C 106.355469 113.324219 106.445312 113.292969 106.507812 113.226562 C 106.574219 113.160156 106.609375 113.074219 106.609375 112.984375 C 106.609375 112.894531 106.574219 112.804688 106.507812 112.738281 C 106.445312 112.675781 106.355469 112.640625 106.265625 112.640625 L 49.707031 112.640625 C 49.613281 112.640625 49.527344 112.675781 49.464844 112.738281 C 49.402344 112.804688 49.363281 112.894531 49.363281 112.984375 C 49.363281 113.074219 49.402344 113.160156 49.464844 113.226562 C 49.527344 113.292969 49.613281 113.324219 49.707031 113.324219 Z M 49.707031 113.324219 "/>
<path style=" stroke:none;fill-rule:nonzero;fill:rgb(0%,0%,0%);fill-opacity:1;" d="M 57.574219 107.710938 L 57.574219 106.664062 C 57.574219 106.425781 57.417969 106.152344 57.175781 106.152344 L 56.449219 106.152344 C 56.207031 106.152344 56.050781 106.425781 56.050781 106.664062 L 56.050781 110.847656 C 56.042969 110.960938 56.078125 111.078125 56.152344 111.167969 C 56.226562 111.257812 56.335938 111.3125 56.449219 111.324219 L 57.175781 111.324219 C 57.289062 111.3125 57.398438 111.257812 57.472656 111.167969 C 57.546875 111.078125 57.582031 110.960938 57.574219 110.847656 L 57.574219 109.644531 L 57.902344 109.644531 L 57.902344 110.847656 C 57.90625 111.039062 57.839844 111.226562 57.707031 111.363281 C 57.578125 111.503906 57.398438 111.589844 57.207031 111.597656 L 56.453125 111.597656 C 56.257812 111.589844 56.074219 111.511719 55.941406 111.371094 C 55.800781 111.230469 55.730469 111.042969 55.730469 110.847656 L 55.730469 106.664062 C 55.726562 106.566406 55.738281 106.472656 55.777344 106.378906 C 55.808594 106.285156 55.863281 106.203125 55.933594 106.132812 C 56 106.0625 56.082031 106.007812 56.171875 105.96875 C 56.257812 105.933594 56.355469 105.914062 56.453125 105.914062 L 57.179688 105.914062 C 57.371094 105.917969 57.558594 106 57.695312 106.140625 C 57.828125 106.28125 57.90625 106.46875 57.90625 106.664062 L 57.90625 107.710938 Z M 57.574219 107.710938 "/>
<path style=" stroke:none;fill-rule:nonzero;fill:rgb(0%,0%,0%);fill-opacity:1;" d="M 61.089844 109.714844 L 59.835938 109.714844 L 59.503906 111.578125 L 59.199219 111.578125 L 60.226562 105.929688 L 60.6875 105.929688 L 61.742188 111.578125 L 61.425781 111.578125 Z M 61.054688 109.476562 L 60.46875 106.242188 L 59.882812 109.476562 Z M 61.054688 109.476562 "/>
<path style=" stroke:none;fill-rule:nonzero;fill:rgb(0%,0%,0%);fill-opacity:1;" d="M 63.996094 108.5625 L 63.554688 109.433594 L 63.554688 111.578125 L 63.238281 111.578125 L 63.238281 105.933594 L 63.554688 105.933594 L 63.554688 108.796875 L 65.003906 105.933594 L 65.332031 105.933594 L 64.164062 108.21875 L 65.410156 111.578125 L 65.089844 111.578125 Z M 63.996094 108.5625 "/>
<path style=" stroke:none;fill-rule:nonzero;fill:rgb(0%,0%,0%);fill-opacity:1;" d="M 68.851562 111.332031 L 68.851562 111.578125 L 66.808594 111.578125 L 66.808594 105.933594 L 68.820312 105.933594 L 68.820312 106.175781 L 67.121094 106.175781 L 67.121094 108.4375 L 68.480469 108.4375 L 68.480469 108.675781 L 67.121094 108.675781 L 67.121094 111.332031 Z M 68.851562 111.332031 "/>
<path style=" stroke:none;fill-rule:nonzero;fill:rgb(0%,0%,0%);fill-opacity:1;" d="M 72.410156 109.722656 L 72.410156 110.847656 C 72.410156 111.042969 72.332031 111.230469 72.199219 111.371094 C 72.066406 111.511719 71.878906 111.589844 71.683594 111.597656 L 70.855469 111.597656 C 70.660156 111.589844 70.476562 111.511719 70.339844 111.371094 C 70.207031 111.230469 70.128906 111.042969 70.128906 110.847656 L 70.128906 109.71875 L 70.457031 109.71875 L 70.457031 110.847656 C 70.457031 111.089844 70.617188 111.355469 70.855469 111.355469 L 71.65625 111.355469 C 71.894531 111.355469 72.0625 111.089844 72.0625 110.847656 L 72.0625 109.71875 C 72.0625 109.40625 71.925781 109.304688 71.667969 109.109375 C 71.40625 108.917969 71.019531 108.632812 70.695312 108.410156 C 70.550781 108.335938 70.429688 108.226562 70.34375 108.089844 C 70.257812 107.949219 70.210938 107.789062 70.210938 107.628906 L 70.210938 106.660156 C 70.207031 106.566406 70.222656 106.464844 70.261719 106.375 C 70.292969 106.285156 70.347656 106.199219 70.414062 106.128906 C 70.480469 106.058594 70.566406 106.003906 70.652344 105.964844 C 70.742188 105.929688 70.839844 105.910156 70.9375 105.910156 L 71.597656 105.910156 C 71.691406 105.910156 71.789062 105.929688 71.878906 105.964844 C 71.96875 106.003906 72.050781 106.058594 72.117188 106.128906 C 72.183594 106.199219 72.238281 106.285156 72.273438 106.375 C 72.308594 106.464844 72.324219 106.566406 72.324219 106.660156 L 72.324219 107.785156 L 71.996094 107.785156 L 71.996094 106.660156 C 71.996094 106.421875 71.839844 106.148438 71.601562 106.148438 L 70.949219 106.148438 C 70.707031 106.148438 70.546875 106.421875 70.546875 106.660156 L 70.546875 107.566406 C 70.546875 107.957031 70.703125 108.042969 70.953125 108.222656 C 71.207031 108.398438 71.71875 108.769531 71.980469 108.949219 C 72.117188 109.027344 72.230469 109.140625 72.304688 109.277344 C 72.378906 109.410156 72.417969 109.566406 72.410156 109.722656 Z M 72.410156 109.722656 "/>
<path style=" stroke:none;fill-rule:nonzero;fill:rgb(0%,0%,0%);fill-opacity:1;" d="M 80.84375 106.664062 L 80.84375 108.292969 C 80.84375 108.488281 80.769531 108.675781 80.628906 108.808594 C 80.496094 108.945312 80.3125 109.023438 80.117188 109.023438 L 79 109.023438 L 79 111.578125 L 78.675781 111.578125 L 78.675781 105.933594 L 80.128906 105.933594 C 80.316406 105.9375 80.5 106.011719 80.632812 106.152344 C 80.769531 106.285156 80.84375 106.472656 80.84375 106.664062 Z M 80.519531 108.277344 L 80.519531 106.664062 C 80.527344 106.546875 80.488281 106.429688 80.417969 106.339844 C 80.34375 106.246094 80.234375 106.191406 80.117188 106.175781 L 79 106.175781 L 79 108.753906 L 80.117188 108.753906 C 80.230469 108.746094 80.335938 108.691406 80.410156 108.605469 C 80.484375 108.519531 80.523438 108.40625 80.519531 108.292969 Z M 80.519531 108.277344 "/>
<path style=" stroke:none;fill-rule:nonzero;fill:rgb(0%,0%,0%);fill-opacity:1;" d="M 83.6875 109.714844 L 82.429688 109.714844 L 82.097656 111.566406 L 81.796875 111.566406 L 82.835938 105.929688 L 83.296875 105.929688 L 84.339844 111.578125 L 84.019531 111.578125 Z M 83.644531 109.476562 L 83.066406 106.242188 L 82.476562 109.476562 Z M 83.644531 109.476562 "/>
<path style=" stroke:none;fill-rule:nonzero;fill:rgb(0%,0%,0%);fill-opacity:1;" d="M 87.4375 106.175781 L 86.394531 106.175781 L 86.394531 111.578125 L 86.082031 111.578125 L 86.082031 106.175781 L 85.03125 106.175781 L 85.03125 105.933594 L 87.4375 105.933594 Z M 87.4375 106.175781 "/>
<path style=" stroke:none;fill-rule:nonzero;fill:rgb(0%,0%,0%);fill-opacity:1;" d="M 89.957031 108.753906 L 89.046875 108.753906 L 89.046875 111.578125 L 88.730469 111.578125 L 88.730469 105.933594 L 90.179688 105.933594 C 90.371094 105.933594 90.558594 106.011719 90.695312 106.148438 C 90.828125 106.285156 90.90625 106.472656 90.90625 106.664062 L 90.90625 108.027344 C 90.90625 108.195312 90.847656 108.359375 90.742188 108.496094 C 90.636719 108.628906 90.488281 108.722656 90.324219 108.753906 L 91.175781 111.582031 L 90.8125 111.582031 Z M 89.046875 108.515625 L 90.167969 108.515625 C 90.285156 108.5 90.390625 108.441406 90.464844 108.351562 C 90.539062 108.261719 90.574219 108.144531 90.566406 108.027344 L 90.566406 106.664062 C 90.574219 106.546875 90.539062 106.433594 90.464844 106.339844 C 90.390625 106.246094 90.285156 106.191406 90.167969 106.175781 L 89.046875 106.175781 Z M 89.046875 108.515625 "/>
<path style=" stroke:none;fill-rule:nonzero;fill:rgb(0%,0%,0%);fill-opacity:1;" d="M 92.914062 111.578125 L 92.589844 111.578125 L 92.589844 105.933594 L 92.914062 105.933594 Z M 92.914062 111.578125 "/>
<path style=" stroke:none;fill-rule:nonzero;fill:rgb(0%,0%,0%);fill-opacity:1;" d="M 96.703125 111.332031 L 96.703125 111.578125 L 94.660156 111.578125 L 94.660156 105.933594 L 96.671875 105.933594 L 96.671875 106.175781 L 94.988281 106.175781 L 94.988281 108.4375 L 96.347656 108.4375 L 96.347656 108.675781 L 94.988281 108.675781 L 94.988281 111.332031 Z M 96.703125 111.332031 "/>
<path style=" stroke:none;fill-rule:nonzero;fill:rgb(0%,0%,0%);fill-opacity:1;" d="M 100.261719 109.722656 L 100.261719 110.847656 C 100.261719 111.042969 100.1875 111.230469 100.050781 111.371094 C 99.917969 111.511719 99.730469 111.589844 99.535156 111.597656 L 98.722656 111.597656 C 98.527344 111.589844 98.339844 111.511719 98.207031 111.371094 C 98.070312 111.230469 97.996094 111.042969 97.996094 110.847656 L 97.996094 109.71875 L 98.320312 109.71875 L 98.320312 110.847656 C 98.320312 111.089844 98.480469 111.355469 98.714844 111.355469 L 99.519531 111.355469 C 99.757812 111.355469 99.925781 111.089844 99.925781 110.847656 L 99.925781 109.71875 C 99.925781 109.40625 99.792969 109.304688 99.53125 109.109375 C 99.269531 108.917969 98.886719 108.632812 98.558594 108.410156 C 98.414062 108.335938 98.292969 108.226562 98.207031 108.089844 C 98.121094 107.949219 98.074219 107.789062 98.074219 107.628906 L 98.074219 106.660156 C 98.070312 106.566406 98.089844 106.464844 98.125 106.375 C 98.160156 106.285156 98.210938 106.199219 98.277344 106.128906 C 98.347656 106.058594 98.429688 106.003906 98.515625 105.964844 C 98.605469 105.929688 98.703125 105.910156 98.800781 105.910156 L 99.460938 105.910156 C 99.558594 105.910156 99.652344 105.929688 99.746094 105.964844 C 99.832031 106.003906 99.914062 106.058594 99.980469 106.128906 C 100.050781 106.199219 100.101562 106.285156 100.136719 106.375 C 100.171875 106.464844 100.191406 106.566406 100.1875 106.660156 L 100.1875 107.785156 L 99.859375 107.785156 L 99.859375 106.660156 C 99.859375 106.421875 99.703125 106.148438 99.464844 106.148438 L 98.8125 106.148438 C 98.574219 106.148438 98.414062 106.421875 98.414062 106.660156 L 98.414062 107.566406 C 98.414062 107.957031 98.5625 108.042969 98.816406 108.222656 C 99.074219 108.398438 99.582031 108.769531 99.84375 108.949219 C 99.980469 109.027344 100.089844 109.144531 100.164062 109.277344 C 100.238281 109.414062 100.269531 109.566406 100.261719 109.722656 Z M 100.261719 109.722656 "/>
<path style=" stroke:none;fill-rule:nonzero;fill:rgb(92.941177%,69.411767%,8.627451%);fill-opacity:1;" d="M 18.886719 60.527344 C 19.175781 60.585938 19.441406 60.730469 19.648438 60.941406 C 19.855469 61.152344 20 61.425781 20.058594 61.714844 C 20.113281 62.007812 20.082031 62.3125 19.96875 62.582031 C 19.855469 62.859375 19.660156 63.09375 19.414062 63.257812 C 19.167969 63.421875 18.878906 63.511719 18.582031 63.511719 C 18.285156 63.511719 17.996094 63.417969 17.75 63.253906 C 17.503906 63.089844 17.3125 62.851562 17.199219 62.574219 C 17.089844 62.300781 17.058594 61.996094 17.117188 61.707031 C 17.15625 61.511719 17.230469 61.328125 17.34375 61.164062 C 17.453125 61 17.59375 60.859375 17.757812 60.75 C 17.921875 60.636719 18.105469 60.5625 18.300781 60.523438 C 18.492188 60.488281 18.691406 60.488281 18.886719 60.527344 Z M 18.886719 60.527344 "/>
<path style=" stroke:none;fill-rule:nonzero;fill:rgb(92.941177%,69.411767%,8.627451%);fill-opacity:1;" d="M 17.367188 72.5 C 17.664062 72.5 17.957031 72.585938 18.203125 72.746094 C 18.449219 72.910156 18.644531 73.144531 18.761719 73.417969 C 18.875 73.691406 18.910156 73.996094 18.855469 74.289062 C 18.800781 74.582031 18.660156 74.851562 18.449219 75.066406 C 18.242188 75.277344 17.976562 75.421875 17.6875 75.484375 C 17.394531 75.542969 17.09375 75.515625 16.820312 75.402344 C 16.542969 75.292969 16.308594 75.097656 16.144531 74.855469 C 15.976562 74.605469 15.886719 74.316406 15.886719 74.019531 C 15.882812 73.824219 15.917969 73.625 15.988281 73.441406 C 16.0625 73.261719 16.175781 73.09375 16.3125 72.949219 C 16.449219 72.808594 16.613281 72.699219 16.796875 72.621094 C 16.976562 72.542969 17.171875 72.503906 17.367188 72.5 Z M 17.367188 72.5 "/>
<path style=" stroke:none;fill-rule:nonzero;fill:rgb(92.941177%,69.411767%,8.627451%);fill-opacity:1;" d="M 18.359375 84.527344 C 18.652344 84.464844 18.953125 84.488281 19.222656 84.597656 C 19.5 84.703125 19.738281 84.894531 19.90625 85.136719 C 20.074219 85.378906 20.167969 85.667969 20.175781 85.964844 C 20.183594 86.261719 20.101562 86.550781 19.941406 86.804688 C 19.785156 87.050781 19.554688 87.25 19.285156 87.371094 C 19.011719 87.488281 18.714844 87.527344 18.425781 87.472656 C 18.132812 87.425781 17.863281 87.285156 17.648438 87.082031 C 17.4375 86.878906 17.289062 86.613281 17.222656 86.324219 C 17.179688 86.132812 17.175781 85.929688 17.207031 85.738281 C 17.242188 85.542969 17.316406 85.355469 17.417969 85.191406 C 17.527344 85.023438 17.664062 84.875 17.824219 84.765625 C 17.988281 84.652344 18.167969 84.570312 18.359375 84.527344 Z M 18.359375 84.527344 "/>
<path style=" stroke:none;fill-rule:nonzero;fill:rgb(92.941177%,69.411767%,8.627451%);fill-opacity:1;" d="M 21.820312 96.082031 C 22.085938 95.957031 22.386719 95.910156 22.683594 95.957031 C 22.972656 96.003906 23.246094 96.136719 23.464844 96.335938 C 23.6875 96.539062 23.839844 96.800781 23.910156 97.089844 C 23.980469 97.378906 23.964844 97.683594 23.863281 97.964844 C 23.761719 98.246094 23.578125 98.488281 23.339844 98.664062 C 23.097656 98.839844 22.808594 98.9375 22.515625 98.949219 C 22.21875 98.960938 21.925781 98.886719 21.675781 98.730469 C 21.417969 98.574219 21.214844 98.347656 21.09375 98.078125 C 20.925781 97.714844 20.910156 97.304688 21.046875 96.929688 C 21.183594 96.558594 21.460938 96.253906 21.820312 96.082031 Z M 21.820312 96.082031 "/>
<path style=" stroke:none;fill-rule:nonzero;fill:rgb(92.941177%,69.411767%,8.627451%);fill-opacity:1;" d="M 27.59375 106.664062 C 27.832031 106.488281 28.121094 106.386719 28.414062 106.371094 C 28.710938 106.355469 29.003906 106.429688 29.257812 106.582031 C 29.511719 106.738281 29.714844 106.964844 29.839844 107.230469 C 29.96875 107.503906 30.011719 107.800781 29.96875 108.097656 C 29.925781 108.390625 29.792969 108.664062 29.597656 108.886719 C 29.394531 109.105469 29.136719 109.261719 28.851562 109.335938 C 28.566406 109.410156 28.261719 109.390625 27.980469 109.292969 C 27.703125 109.191406 27.460938 109.011719 27.285156 108.769531 C 27.164062 108.613281 27.078125 108.433594 27.03125 108.238281 C 26.984375 108.046875 26.972656 107.847656 27.003906 107.652344 C 27.03125 107.457031 27.097656 107.269531 27.203125 107.097656 C 27.300781 106.929688 27.4375 106.78125 27.59375 106.664062 Z M 27.59375 106.664062 "/>
<path style=" stroke:none;fill-rule:nonzero;fill:rgb(92.941177%,69.411767%,8.627451%);fill-opacity:1;" d="M 35.433594 115.808594 C 35.628906 115.585938 35.886719 115.425781 36.171875 115.347656 C 36.460938 115.269531 36.761719 115.285156 37.042969 115.378906 C 37.324219 115.476562 37.566406 115.65625 37.75 115.894531 C 37.925781 116.128906 38.035156 116.414062 38.050781 116.710938 C 38.070312 117.007812 38 117.304688 37.851562 117.5625 C 37.703125 117.820312 37.480469 118.027344 37.214844 118.15625 C 36.945312 118.289062 36.648438 118.335938 36.355469 118.292969 C 36.058594 118.257812 35.785156 118.128906 35.5625 117.933594 C 35.269531 117.664062 35.085938 117.292969 35.0625 116.898438 C 35.039062 116.5 35.171875 116.109375 35.433594 115.808594 Z M 35.433594 115.808594 "/>
<path style=" stroke:none;fill-rule:nonzero;fill:rgb(92.941177%,69.411767%,8.627451%);fill-opacity:1;" d="M 44.988281 123.113281 C 45.136719 122.855469 45.351562 122.644531 45.617188 122.507812 C 45.882812 122.375 46.179688 122.324219 46.472656 122.359375 C 46.769531 122.394531 47.042969 122.515625 47.269531 122.710938 C 47.492188 122.90625 47.65625 123.160156 47.738281 123.449219 C 47.816406 123.734375 47.808594 124.039062 47.714844 124.320312 C 47.625 124.605469 47.453125 124.855469 47.21875 125.039062 C 46.984375 125.222656 46.703125 125.332031 46.40625 125.355469 C 46.109375 125.375 45.816406 125.3125 45.558594 125.164062 C 45.386719 125.066406 45.234375 124.941406 45.113281 124.78125 C 44.992188 124.625 44.902344 124.449219 44.851562 124.257812 C 44.796875 124.066406 44.785156 123.867188 44.808594 123.671875 C 44.832031 123.472656 44.890625 123.285156 44.988281 123.113281 Z M 44.988281 123.113281 "/>
<path style=" stroke:none;fill-rule:nonzero;fill:rgb(92.941177%,69.411767%,8.627451%);fill-opacity:1;" d="M 102.414062 124.378906 C 102.261719 124.121094 102.191406 123.824219 102.207031 123.527344 C 102.226562 123.230469 102.332031 122.945312 102.507812 122.707031 C 102.683594 122.46875 102.933594 122.292969 103.210938 122.191406 C 103.492188 122.09375 103.792969 122.082031 104.082031 122.15625 C 104.367188 122.230469 104.625 122.386719 104.820312 122.609375 C 105.019531 122.832031 105.144531 123.109375 105.1875 123.402344 C 105.230469 123.699219 105.183594 124 105.054688 124.265625 C 104.925781 124.535156 104.722656 124.757812 104.464844 124.910156 C 104.296875 125.011719 104.109375 125.078125 103.917969 125.105469 C 103.71875 125.132812 103.519531 125.125 103.332031 125.074219 C 103.140625 125.023438 102.960938 124.9375 102.800781 124.816406 C 102.644531 124.699219 102.511719 124.550781 102.414062 124.378906 Z M 102.414062 124.378906 "/>
<path style=" stroke:none;fill-rule:nonzero;fill:rgb(92.941177%,69.411767%,8.627451%);fill-opacity:1;" d="M 112.285156 117.496094 C 112.082031 117.277344 111.953125 117.003906 111.910156 116.710938 C 111.863281 116.417969 111.90625 116.117188 112.03125 115.847656 C 112.152344 115.578125 112.355469 115.355469 112.609375 115.199219 C 112.859375 115.046875 113.152344 114.96875 113.449219 114.980469 C 113.746094 114.996094 114.027344 115.097656 114.265625 115.269531 C 114.507812 115.445312 114.6875 115.6875 114.789062 115.964844 C 114.890625 116.246094 114.910156 116.550781 114.839844 116.839844 C 114.769531 117.125 114.613281 117.386719 114.398438 117.589844 C 114.253906 117.722656 114.082031 117.824219 113.898438 117.894531 C 113.714844 117.964844 113.515625 117.992188 113.320312 117.984375 C 113.125 117.980469 112.929688 117.929688 112.753906 117.847656 C 112.574219 117.761719 112.414062 117.644531 112.285156 117.496094 Z M 112.285156 117.496094 "/>
<path style=" stroke:none;fill-rule:nonzero;fill:rgb(92.941177%,69.411767%,8.627451%);fill-opacity:1;" d="M 120.511719 108.707031 C 120.269531 108.539062 120.082031 108.300781 119.976562 108.019531 C 119.871094 107.742188 119.847656 107.441406 119.910156 107.148438 C 119.976562 106.855469 120.125 106.59375 120.34375 106.386719 C 120.558594 106.183594 120.824219 106.046875 121.121094 105.996094 C 121.410156 105.941406 121.710938 105.980469 121.980469 106.101562 C 122.253906 106.222656 122.480469 106.421875 122.640625 106.671875 C 122.796875 106.925781 122.878906 107.21875 122.875 107.511719 C 122.863281 107.8125 122.769531 108.101562 122.601562 108.347656 C 122.488281 108.507812 122.34375 108.648438 122.175781 108.753906 C 122.011719 108.859375 121.824219 108.933594 121.632812 108.964844 C 121.433594 109 121.238281 108.992188 121.046875 108.949219 C 120.851562 108.90625 120.671875 108.824219 120.511719 108.707031 Z M 120.511719 108.707031 "/>
<path style=" stroke:none;fill-rule:nonzero;fill:rgb(92.941177%,69.411767%,8.627451%);fill-opacity:1;" d="M 126.742188 98.394531 C 126.46875 98.277344 126.238281 98.082031 126.074219 97.828125 C 125.914062 97.578125 125.832031 97.285156 125.835938 96.988281 C 125.839844 96.691406 125.933594 96.402344 126.101562 96.15625 C 126.273438 95.910156 126.507812 95.722656 126.78125 95.613281 C 127.058594 95.503906 127.363281 95.480469 127.648438 95.539062 C 127.941406 95.601562 128.207031 95.75 128.410156 95.964844 C 128.621094 96.179688 128.757812 96.449219 128.808594 96.742188 C 128.863281 97.035156 128.828125 97.335938 128.710938 97.613281 C 128.550781 97.976562 128.253906 98.265625 127.886719 98.410156 C 127.519531 98.558594 127.105469 98.550781 126.742188 98.394531 Z M 126.742188 98.394531 "/>
<path style=" stroke:none;fill-rule:nonzero;fill:rgb(92.941177%,69.411767%,8.627451%);fill-opacity:1;" d="M 130.699219 87 C 130.410156 86.941406 130.144531 86.792969 129.933594 86.582031 C 129.722656 86.371094 129.582031 86.105469 129.527344 85.8125 C 129.46875 85.519531 129.5 85.21875 129.613281 84.941406 C 129.730469 84.667969 129.921875 84.433594 130.167969 84.269531 C 130.414062 84.105469 130.707031 84.019531 131 84.019531 C 131.296875 84.019531 131.585938 84.109375 131.832031 84.277344 C 132.078125 84.441406 132.269531 84.675781 132.382812 84.953125 C 132.496094 85.226562 132.523438 85.527344 132.464844 85.824219 C 132.425781 86.015625 132.351562 86.199219 132.238281 86.363281 C 132.132812 86.53125 131.988281 86.671875 131.828125 86.78125 C 131.664062 86.886719 131.480469 86.964844 131.285156 87.003906 C 131.089844 87.042969 130.894531 87.042969 130.699219 87 Z M 130.699219 87 "/>
<path style=" stroke:none;fill-rule:nonzero;fill:rgb(92.941177%,69.411767%,8.627451%);fill-opacity:1;" d="M 132.214844 75.027344 C 131.917969 75.03125 131.628906 74.949219 131.378906 74.785156 C 131.132812 74.621094 130.941406 74.386719 130.824219 74.113281 C 130.707031 73.839844 130.671875 73.539062 130.730469 73.246094 C 130.785156 72.953125 130.925781 72.683594 131.128906 72.46875 C 131.339844 72.253906 131.605469 72.113281 131.894531 72.050781 C 132.183594 71.988281 132.488281 72.015625 132.761719 72.125 C 133.035156 72.238281 133.269531 72.425781 133.4375 72.675781 C 133.605469 72.917969 133.695312 73.210938 133.699219 73.507812 C 133.703125 73.707031 133.664062 73.902344 133.589844 74.085938 C 133.519531 74.269531 133.410156 74.4375 133.269531 74.578125 C 133.132812 74.71875 132.96875 74.832031 132.789062 74.910156 C 132.605469 74.984375 132.414062 75.027344 132.214844 75.027344 Z M 132.214844 75.027344 "/>
<path style=" stroke:none;fill-rule:nonzero;fill:rgb(92.941177%,69.411767%,8.627451%);fill-opacity:1;" d="M 131.222656 63 C 130.933594 63.066406 130.632812 63.042969 130.355469 62.933594 C 130.082031 62.824219 129.84375 62.636719 129.675781 62.394531 C 129.507812 62.148438 129.414062 61.859375 129.40625 61.566406 C 129.402344 61.265625 129.484375 60.976562 129.640625 60.722656 C 129.800781 60.472656 130.027344 60.277344 130.300781 60.160156 C 130.570312 60.039062 130.871094 60.003906 131.160156 60.050781 C 131.453125 60.105469 131.722656 60.238281 131.933594 60.449219 C 132.144531 60.652344 132.296875 60.917969 132.359375 61.207031 C 132.402344 61.402344 132.40625 61.597656 132.375 61.792969 C 132.339844 61.988281 132.269531 62.175781 132.160156 62.339844 C 132.054688 62.507812 131.917969 62.652344 131.757812 62.765625 C 131.597656 62.878906 131.414062 62.957031 131.222656 63 Z M 131.222656 63 "/>
</g>
</svg>
