<?xml version="1.0" encoding="UTF-8"?>
<svg xmlns="http://www.w3.org/2000/svg" xmlns:xlink="http://www.w3.org/1999/xlink" width="150px" height="150px" viewBox="0 0 150 150" version="1.1">
<g id="surface1">
<path style=" stroke:none;fill-rule:nonzero;fill:rgb(92.941177%,69.411767%,8.627451%);fill-opacity:1;" d="M 76.644531 18.957031 C 76.644531 19.246094 76.5625 19.53125 76.402344 19.777344 C 76.238281 20.019531 76.007812 20.207031 75.742188 20.316406 C 75.472656 20.429688 75.179688 20.457031 74.890625 20.402344 C 74.605469 20.347656 74.347656 20.207031 74.140625 19.996094 C 73.9375 19.792969 73.796875 19.527344 73.738281 19.242188 C 73.683594 18.957031 73.714844 18.660156 73.824219 18.390625 C 73.933594 18.121094 74.125 17.890625 74.363281 17.726562 C 74.605469 17.566406 74.886719 17.480469 75.179688 17.480469 C 75.566406 17.480469 75.941406 17.636719 76.21875 17.910156 C 76.496094 18.1875 76.644531 18.566406 76.644531 18.957031 Z M 76.644531 18.957031 "/>
<path style=" stroke:none;fill-rule:nonzero;fill:rgb(92.941177%,69.411767%,8.627451%);fill-opacity:1;" d="M 64.917969 19.820312 C 64.976562 20.105469 64.949219 20.402344 64.84375 20.671875 C 64.738281 20.945312 64.550781 21.175781 64.3125 21.34375 C 64.074219 21.507812 63.792969 21.597656 63.5 21.601562 C 63.210938 21.605469 62.925781 21.519531 62.679688 21.363281 C 62.4375 21.207031 62.246094 20.976562 62.132812 20.710938 C 62.019531 20.441406 61.984375 20.144531 62.035156 19.855469 C 62.089844 19.570312 62.226562 19.308594 62.429688 19.097656 C 62.628906 18.886719 62.890625 18.746094 63.171875 18.683594 C 63.554688 18.605469 63.953125 18.675781 64.277344 18.890625 C 64.605469 19.105469 64.832031 19.4375 64.917969 19.820312 Z M 64.917969 19.820312 "/>
<path style=" stroke:none;fill-rule:nonzero;fill:rgb(92.941177%,69.411767%,8.627451%);fill-opacity:1;" d="M 53.621094 23.121094 C 53.738281 23.386719 53.773438 23.683594 53.722656 23.972656 C 53.675781 24.257812 53.542969 24.523438 53.34375 24.734375 C 53.140625 24.945312 52.886719 25.09375 52.601562 25.15625 C 52.316406 25.222656 52.023438 25.199219 51.753906 25.097656 C 51.480469 24.988281 51.246094 24.804688 51.078125 24.566406 C 50.910156 24.332031 50.816406 24.046875 50.8125 23.753906 C 50.808594 23.464844 50.886719 23.175781 51.039062 22.929688 C 51.191406 22.683594 51.417969 22.488281 51.683594 22.371094 C 52.039062 22.210938 52.445312 22.199219 52.808594 22.339844 C 53.171875 22.480469 53.464844 22.761719 53.621094 23.121094 Z M 53.621094 23.121094 "/>
<path style=" stroke:none;fill-rule:nonzero;fill:rgb(92.941177%,69.411767%,8.627451%);fill-opacity:1;" d="M 43.253906 28.707031 C 43.425781 28.941406 43.519531 29.222656 43.53125 29.515625 C 43.542969 29.808594 43.46875 30.097656 43.316406 30.34375 C 43.167969 30.589844 42.941406 30.792969 42.679688 30.910156 C 42.417969 31.035156 42.121094 31.074219 41.835938 31.027344 C 41.550781 30.980469 41.28125 30.851562 41.066406 30.652344 C 40.855469 30.457031 40.707031 30.199219 40.636719 29.914062 C 40.570312 29.628906 40.589844 29.335938 40.691406 29.058594 C 40.789062 28.785156 40.96875 28.550781 41.203125 28.378906 C 41.363281 28.261719 41.535156 28.179688 41.722656 28.136719 C 41.910156 28.089844 42.105469 28.082031 42.296875 28.113281 C 42.488281 28.144531 42.671875 28.214844 42.835938 28.3125 C 43 28.414062 43.144531 28.550781 43.253906 28.707031 Z M 43.253906 28.707031 "/>
<path style=" stroke:none;fill-rule:nonzero;fill:rgb(92.941177%,69.411767%,8.627451%);fill-opacity:1;" d="M 34.269531 36.335938 C 34.484375 36.53125 34.640625 36.785156 34.710938 37.070312 C 34.785156 37.351562 34.769531 37.648438 34.671875 37.925781 C 34.574219 38.199219 34.402344 38.441406 34.167969 38.613281 C 33.9375 38.789062 33.65625 38.890625 33.367188 38.90625 C 33.074219 38.921875 32.789062 38.851562 32.539062 38.699219 C 32.292969 38.550781 32.089844 38.332031 31.964844 38.066406 C 31.839844 37.804688 31.796875 37.511719 31.835938 37.222656 C 31.878906 36.933594 32.003906 36.660156 32.199219 36.445312 C 32.457031 36.15625 32.824219 35.980469 33.210938 35.960938 C 33.601562 35.941406 33.980469 36.074219 34.269531 36.335938 Z M 34.269531 36.335938 "/>
<path style=" stroke:none;fill-rule:nonzero;fill:rgb(92.941177%,69.411767%,8.627451%);fill-opacity:1;" d="M 27.066406 45.679688 C 27.3125 45.824219 27.515625 46.042969 27.644531 46.308594 C 27.773438 46.566406 27.820312 46.859375 27.78125 47.152344 C 27.746094 47.441406 27.621094 47.714844 27.429688 47.929688 C 27.238281 48.148438 26.984375 48.308594 26.703125 48.378906 C 26.425781 48.457031 26.128906 48.445312 25.855469 48.351562 C 25.578125 48.257812 25.339844 48.082031 25.160156 47.851562 C 24.984375 47.621094 24.882812 47.339844 24.863281 47.046875 C 24.84375 46.757812 24.914062 46.46875 25.058594 46.214844 C 25.253906 45.875 25.574219 45.628906 25.949219 45.53125 C 26.324219 45.429688 26.726562 45.484375 27.066406 45.679688 Z M 27.066406 45.679688 "/>
<path style=" stroke:none;fill-rule:nonzero;fill:rgb(92.941177%,69.411767%,8.627451%);fill-opacity:1;" d="M 21.945312 56.320312 C 22.222656 56.410156 22.464844 56.582031 22.644531 56.808594 C 22.824219 57.039062 22.929688 57.316406 22.953125 57.605469 C 22.972656 57.898438 22.914062 58.191406 22.769531 58.445312 C 22.628906 58.699219 22.414062 58.902344 22.152344 59.035156 C 21.894531 59.167969 21.605469 59.222656 21.316406 59.183594 C 21.027344 59.152344 20.757812 59.035156 20.535156 58.84375 C 20.316406 58.652344 20.15625 58.402344 20.078125 58.121094 C 19.996094 57.839844 20.003906 57.542969 20.09375 57.265625 C 20.152344 57.082031 20.25 56.910156 20.371094 56.761719 C 20.5 56.617188 20.652344 56.496094 20.824219 56.410156 C 20.996094 56.320312 21.183594 56.265625 21.375 56.25 C 21.566406 56.234375 21.761719 56.257812 21.945312 56.320312 Z M 21.945312 56.320312 "/>
<path style=" stroke:none;fill-rule:nonzero;fill:rgb(92.941177%,69.411767%,8.627451%);fill-opacity:1;" d="M 19.136719 67.800781 C 19.425781 67.832031 19.699219 67.945312 19.921875 68.132812 C 20.144531 68.316406 20.308594 68.566406 20.390625 68.847656 C 20.472656 69.125 20.472656 69.425781 20.386719 69.703125 C 20.300781 69.980469 20.132812 70.226562 19.90625 70.410156 C 19.683594 70.597656 19.410156 70.707031 19.121094 70.734375 C 18.828125 70.761719 18.539062 70.703125 18.285156 70.566406 C 18.027344 70.425781 17.820312 70.214844 17.6875 69.957031 C 17.550781 69.699219 17.492188 69.402344 17.527344 69.113281 C 17.542969 68.921875 17.601562 68.734375 17.691406 68.5625 C 17.785156 68.394531 17.910156 68.242188 18.058594 68.117188 C 18.207031 67.996094 18.378906 67.90625 18.566406 67.851562 C 18.753906 67.796875 18.945312 67.777344 19.136719 67.800781 Z M 19.136719 67.800781 "/>
<path style=" stroke:none;fill-rule:nonzero;fill:rgb(92.941177%,69.411767%,8.627451%);fill-opacity:1;" d="M 18.769531 79.617188 C 19.058594 79.589844 19.347656 79.644531 19.605469 79.777344 C 19.863281 79.914062 20.074219 80.125 20.210938 80.378906 C 20.351562 80.636719 20.410156 80.925781 20.386719 81.21875 C 20.359375 81.511719 20.246094 81.785156 20.066406 82.011719 C 19.882812 82.238281 19.636719 82.40625 19.359375 82.496094 C 19.082031 82.578125 18.785156 82.582031 18.507812 82.5 C 18.230469 82.417969 17.980469 82.253906 17.792969 82.027344 C 17.609375 81.804688 17.492188 81.53125 17.464844 81.238281 C 17.441406 81.046875 17.460938 80.855469 17.511719 80.667969 C 17.570312 80.480469 17.660156 80.308594 17.78125 80.15625 C 17.902344 80.007812 18.050781 79.878906 18.21875 79.789062 C 18.390625 79.695312 18.578125 79.636719 18.769531 79.617188 Z M 18.769531 79.617188 "/>
<path style=" stroke:none;fill-rule:nonzero;fill:rgb(92.941177%,69.411767%,8.627451%);fill-opacity:1;" d="M 20.855469 91.25 C 21.132812 91.160156 21.425781 91.152344 21.707031 91.234375 C 21.988281 91.3125 22.238281 91.472656 22.425781 91.695312 C 22.613281 91.917969 22.730469 92.191406 22.765625 92.480469 C 22.800781 92.769531 22.75 93.066406 22.617188 93.324219 C 22.484375 93.582031 22.28125 93.800781 22.027344 93.941406 C 21.773438 94.082031 21.484375 94.148438 21.191406 94.125 C 20.902344 94.101562 20.628906 93.992188 20.398438 93.8125 C 20.171875 93.628906 20 93.386719 19.914062 93.109375 C 19.792969 92.738281 19.824219 92.332031 20 91.984375 C 20.175781 91.636719 20.484375 91.375 20.855469 91.25 Z M 20.855469 91.25 "/>
<path style=" stroke:none;fill-rule:nonzero;fill:rgb(92.941177%,69.411767%,8.627451%);fill-opacity:1;" d="M 25.296875 102.195312 C 25.546875 102.050781 25.835938 101.980469 26.128906 102 C 26.417969 102.019531 26.695312 102.121094 26.925781 102.300781 C 27.15625 102.480469 27.328125 102.722656 27.421875 103 C 27.515625 103.273438 27.523438 103.574219 27.449219 103.855469 C 27.375 104.136719 27.214844 104.386719 27 104.582031 C 26.78125 104.773438 26.511719 104.898438 26.222656 104.933594 C 25.9375 104.972656 25.644531 104.925781 25.382812 104.792969 C 25.121094 104.667969 24.90625 104.464844 24.757812 104.207031 C 24.566406 103.871094 24.511719 103.46875 24.613281 103.089844 C 24.714844 102.710938 24.960938 102.390625 25.296875 102.195312 Z M 25.296875 102.195312 "/>
<path style=" stroke:none;fill-rule:nonzero;fill:rgb(92.941177%,69.411767%,8.627451%);fill-opacity:1;" d="M 31.910156 111.972656 C 32.128906 111.777344 32.394531 111.652344 32.683594 111.609375 C 32.972656 111.566406 33.261719 111.613281 33.523438 111.738281 C 33.785156 111.863281 34.003906 112.066406 34.152344 112.316406 C 34.300781 112.566406 34.371094 112.855469 34.355469 113.148438 C 34.339844 113.4375 34.238281 113.71875 34.066406 113.953125 C 33.894531 114.1875 33.652344 114.363281 33.378906 114.460938 C 33.109375 114.558594 32.808594 114.570312 32.527344 114.5 C 32.246094 114.425781 31.996094 114.273438 31.800781 114.058594 C 31.542969 113.765625 31.40625 113.382812 31.425781 112.992188 C 31.449219 112.597656 31.621094 112.234375 31.910156 111.972656 Z M 31.910156 111.972656 "/>
<path style=" stroke:none;fill-rule:nonzero;fill:rgb(92.941177%,69.411767%,8.627451%);fill-opacity:1;" d="M 40.402344 120.15625 C 40.570312 119.917969 40.808594 119.738281 41.082031 119.636719 C 41.351562 119.535156 41.648438 119.519531 41.933594 119.585938 C 42.214844 119.65625 42.46875 119.808594 42.664062 120.019531 C 42.863281 120.238281 42.992188 120.503906 43.035156 120.792969 C 43.082031 121.082031 43.042969 121.378906 42.917969 121.640625 C 42.800781 121.902344 42.601562 122.128906 42.355469 122.277344 C 42.105469 122.433594 41.816406 122.507812 41.527344 122.496094 C 41.238281 122.484375 40.960938 122.386719 40.726562 122.214844 C 40.566406 122.101562 40.433594 121.957031 40.335938 121.792969 C 40.234375 121.625 40.167969 121.445312 40.136719 121.25 C 40.105469 121.058594 40.113281 120.863281 40.160156 120.675781 C 40.203125 120.488281 40.285156 120.308594 40.402344 120.15625 Z M 40.402344 120.15625 "/>
<path style=" stroke:none;fill-rule:nonzero;fill:rgb(92.941177%,69.411767%,8.627451%);fill-opacity:1;" d="M 50.398438 126.382812 C 50.515625 126.117188 50.710938 125.890625 50.957031 125.738281 C 51.203125 125.582031 51.488281 125.503906 51.777344 125.507812 C 52.066406 125.515625 52.351562 125.609375 52.585938 125.777344 C 52.824219 125.949219 53.003906 126.183594 53.109375 126.453125 C 53.210938 126.726562 53.234375 127.027344 53.171875 127.308594 C 53.105469 127.59375 52.960938 127.851562 52.75 128.054688 C 52.539062 128.253906 52.269531 128.386719 51.988281 128.4375 C 51.699219 128.488281 51.40625 128.449219 51.140625 128.328125 C 50.964844 128.253906 50.808594 128.136719 50.671875 127.996094 C 50.539062 127.855469 50.4375 127.691406 50.367188 127.511719 C 50.296875 127.332031 50.265625 127.136719 50.269531 126.941406 C 50.277344 126.75 50.320312 126.558594 50.398438 126.382812 Z M 50.398438 126.382812 "/>
<path style=" stroke:none;fill-rule:nonzero;fill:rgb(92.941177%,69.411767%,8.627451%);fill-opacity:1;" d="M 61.480469 130.386719 C 61.542969 130.105469 61.6875 129.84375 61.894531 129.640625 C 62.105469 129.441406 62.363281 129.300781 62.648438 129.25 C 62.933594 129.195312 63.230469 129.230469 63.492188 129.347656 C 63.757812 129.460938 63.984375 129.652344 64.144531 129.894531 C 64.300781 130.140625 64.382812 130.425781 64.378906 130.714844 C 64.375 131.007812 64.285156 131.292969 64.121094 131.53125 C 63.957031 131.769531 63.726562 131.957031 63.460938 132.066406 C 63.191406 132.171875 62.898438 132.195312 62.613281 132.136719 C 62.421875 132.097656 62.246094 132.019531 62.085938 131.910156 C 61.925781 131.800781 61.789062 131.660156 61.683594 131.5 C 61.582031 131.335938 61.507812 131.152344 61.472656 130.964844 C 61.4375 130.773438 61.441406 130.574219 61.480469 130.386719 Z M 61.480469 130.386719 "/>
<path style=" stroke:none;fill-rule:nonzero;fill:rgb(92.941177%,69.411767%,8.627451%);fill-opacity:1;" d="M 73.121094 131.992188 C 73.121094 131.699219 73.203125 131.414062 73.363281 131.171875 C 73.527344 130.925781 73.753906 130.738281 74.023438 130.628906 C 74.292969 130.519531 74.585938 130.488281 74.871094 130.542969 C 75.160156 130.601562 75.417969 130.738281 75.625 130.949219 C 75.828125 131.152344 75.96875 131.417969 76.027344 131.703125 C 76.082031 131.988281 76.050781 132.285156 75.941406 132.558594 C 75.832031 132.824219 75.640625 133.054688 75.402344 133.21875 C 75.160156 133.378906 74.878906 133.46875 74.585938 133.46875 C 74.394531 133.46875 74.203125 133.429688 74.023438 133.355469 C 73.847656 133.28125 73.683594 133.171875 73.546875 133.035156 C 73.410156 132.898438 73.304688 132.734375 73.226562 132.558594 C 73.152344 132.378906 73.121094 132.183594 73.121094 131.992188 Z M 73.121094 131.992188 "/>
<path style=" stroke:none;fill-rule:nonzero;fill:rgb(92.941177%,69.411767%,8.627451%);fill-opacity:1;" d="M 84.847656 131.125 C 84.789062 130.835938 84.816406 130.542969 84.921875 130.269531 C 85.027344 130 85.214844 129.765625 85.453125 129.601562 C 85.691406 129.4375 85.972656 129.347656 86.265625 129.34375 C 86.558594 129.335938 86.839844 129.417969 87.085938 129.582031 C 87.328125 129.738281 87.519531 129.964844 87.632812 130.234375 C 87.746094 130.503906 87.78125 130.800781 87.730469 131.085938 C 87.675781 131.371094 87.539062 131.636719 87.335938 131.84375 C 87.136719 132.054688 86.875 132.199219 86.589844 132.257812 C 86.402344 132.300781 86.207031 132.304688 86.019531 132.269531 C 85.828125 132.234375 85.644531 132.160156 85.484375 132.054688 C 85.320312 131.949219 85.183594 131.8125 85.074219 131.652344 C 84.964844 131.492188 84.886719 131.316406 84.847656 131.125 Z M 84.847656 131.125 "/>
<path style=" stroke:none;fill-rule:nonzero;fill:rgb(92.941177%,69.411767%,8.627451%);fill-opacity:1;" d="M 96.144531 127.824219 C 96.027344 127.558594 95.996094 127.261719 96.042969 126.980469 C 96.09375 126.691406 96.230469 126.425781 96.429688 126.214844 C 96.628906 126.003906 96.886719 125.859375 97.171875 125.796875 C 97.453125 125.734375 97.75 125.757812 98.019531 125.863281 C 98.292969 125.96875 98.523438 126.148438 98.691406 126.386719 C 98.855469 126.628906 98.949219 126.910156 98.957031 127.199219 C 98.964844 127.492188 98.886719 127.777344 98.730469 128.023438 C 98.574219 128.269531 98.351562 128.464844 98.089844 128.582031 C 97.910156 128.664062 97.71875 128.707031 97.527344 128.710938 C 97.332031 128.714844 97.140625 128.683594 96.957031 128.613281 C 96.777344 128.542969 96.613281 128.4375 96.472656 128.300781 C 96.332031 128.164062 96.222656 128.003906 96.144531 127.824219 Z M 96.144531 127.824219 "/>
<path style=" stroke:none;fill-rule:nonzero;fill:rgb(92.941177%,69.411767%,8.627451%);fill-opacity:1;" d="M 106.511719 122.234375 C 106.339844 122 106.246094 121.71875 106.238281 121.429688 C 106.222656 121.140625 106.300781 120.851562 106.453125 120.605469 C 106.601562 120.355469 106.824219 120.160156 107.089844 120.039062 C 107.347656 119.917969 107.644531 119.878906 107.929688 119.925781 C 108.214844 119.96875 108.480469 120.097656 108.695312 120.296875 C 108.90625 120.492188 109.054688 120.75 109.121094 121.03125 C 109.191406 121.316406 109.171875 121.613281 109.074219 121.882812 C 108.972656 122.15625 108.792969 122.394531 108.5625 122.566406 C 108.402344 122.679688 108.230469 122.761719 108.042969 122.808594 C 107.855469 122.855469 107.65625 122.863281 107.464844 122.832031 C 107.277344 122.800781 107.09375 122.734375 106.929688 122.628906 C 106.765625 122.527344 106.621094 122.394531 106.511719 122.234375 Z M 106.511719 122.234375 "/>
<path style=" stroke:none;fill-rule:nonzero;fill:rgb(92.941177%,69.411767%,8.627451%);fill-opacity:1;" d="M 115.503906 114.605469 C 115.285156 114.414062 115.132812 114.160156 115.0625 113.875 C 114.988281 113.59375 115.003906 113.292969 115.101562 113.019531 C 115.199219 112.746094 115.375 112.503906 115.605469 112.332031 C 115.839844 112.152344 116.117188 112.054688 116.410156 112.039062 C 116.699219 112.023438 116.984375 112.097656 117.234375 112.242188 C 117.484375 112.390625 117.683594 112.613281 117.808594 112.875 C 117.933594 113.136719 117.980469 113.433594 117.9375 113.722656 C 117.894531 114.007812 117.769531 114.277344 117.578125 114.496094 C 117.449219 114.640625 117.292969 114.757812 117.117188 114.839844 C 116.945312 114.925781 116.753906 114.976562 116.5625 114.984375 C 116.371094 114.996094 116.175781 114.964844 115.996094 114.902344 C 115.8125 114.839844 115.644531 114.738281 115.503906 114.605469 Z M 115.503906 114.605469 "/>
<path style=" stroke:none;fill-rule:nonzero;fill:rgb(92.941177%,69.411767%,8.627451%);fill-opacity:1;" d="M 122.699219 105.265625 C 122.453125 105.121094 122.246094 104.902344 122.117188 104.644531 C 121.988281 104.382812 121.941406 104.089844 121.976562 103.800781 C 122.015625 103.507812 122.136719 103.238281 122.328125 103.015625 C 122.519531 102.796875 122.769531 102.640625 123.050781 102.566406 C 123.332031 102.488281 123.628906 102.496094 123.90625 102.589844 C 124.179688 102.683594 124.421875 102.859375 124.597656 103.089844 C 124.777344 103.320312 124.878906 103.597656 124.898438 103.890625 C 124.917969 104.183594 124.851562 104.472656 124.707031 104.722656 C 124.613281 104.890625 124.480469 105.042969 124.332031 105.160156 C 124.175781 105.277344 124.003906 105.363281 123.816406 105.414062 C 123.628906 105.464844 123.4375 105.476562 123.246094 105.449219 C 123.050781 105.425781 122.867188 105.363281 122.699219 105.265625 Z M 122.699219 105.265625 "/>
<path style=" stroke:none;fill-rule:nonzero;fill:rgb(92.941177%,69.411767%,8.627451%);fill-opacity:1;" d="M 127.820312 94.621094 C 127.542969 94.53125 127.300781 94.363281 127.121094 94.132812 C 126.941406 93.90625 126.832031 93.628906 126.808594 93.335938 C 126.785156 93.046875 126.847656 92.753906 126.988281 92.5 C 127.132812 92.246094 127.347656 92.039062 127.605469 91.902344 C 127.863281 91.773438 128.15625 91.71875 128.445312 91.753906 C 128.734375 91.789062 129.003906 91.910156 129.226562 92.097656 C 129.449219 92.289062 129.605469 92.539062 129.683594 92.820312 C 129.765625 93.101562 129.757812 93.398438 129.667969 93.675781 C 129.546875 94.050781 129.285156 94.355469 128.9375 94.535156 C 128.59375 94.710938 128.191406 94.742188 127.820312 94.621094 Z M 127.820312 94.621094 "/>
<path style=" stroke:none;fill-rule:nonzero;fill:rgb(92.941177%,69.411767%,8.627451%);fill-opacity:1;" d="M 130.621094 83.136719 C 130.335938 83.109375 130.0625 82.992188 129.839844 82.808594 C 129.621094 82.621094 129.457031 82.371094 129.378906 82.09375 C 129.296875 81.816406 129.300781 81.515625 129.382812 81.238281 C 129.46875 80.960938 129.636719 80.714844 129.863281 80.53125 C 130.085938 80.347656 130.359375 80.238281 130.644531 80.210938 C 130.9375 80.183594 131.226562 80.246094 131.480469 80.386719 C 131.734375 80.523438 131.941406 80.734375 132.074219 80.992188 C 132.210938 81.25 132.265625 81.539062 132.238281 81.828125 C 132.21875 82.023438 132.160156 82.210938 132.066406 82.378906 C 131.976562 82.550781 131.855469 82.703125 131.699219 82.824219 C 131.550781 82.945312 131.378906 83.035156 131.195312 83.089844 C 131.011719 83.144531 130.816406 83.160156 130.621094 83.136719 Z M 130.621094 83.136719 "/>
<path style=" stroke:none;fill-rule:nonzero;fill:rgb(92.941177%,69.411767%,8.627451%);fill-opacity:1;" d="M 130.992188 71.324219 C 130.707031 71.351562 130.414062 71.296875 130.160156 71.160156 C 129.90625 71.023438 129.695312 70.816406 129.558594 70.558594 C 129.417969 70.304688 129.359375 70.011719 129.386719 69.722656 C 129.417969 69.433594 129.527344 69.160156 129.707031 68.933594 C 129.890625 68.707031 130.136719 68.539062 130.410156 68.457031 C 130.691406 68.371094 130.984375 68.367188 131.261719 68.449219 C 131.539062 68.535156 131.785156 68.695312 131.972656 68.921875 C 132.15625 69.144531 132.273438 69.417969 132.300781 69.707031 C 132.324219 69.898438 132.304688 70.09375 132.25 70.28125 C 132.191406 70.464844 132.101562 70.636719 131.980469 70.789062 C 131.859375 70.941406 131.710938 71.0625 131.539062 71.15625 C 131.371094 71.246094 131.183594 71.304688 130.992188 71.324219 Z M 130.992188 71.324219 "/>
<path style=" stroke:none;fill-rule:nonzero;fill:rgb(92.941177%,69.411767%,8.627451%);fill-opacity:1;" d="M 128.90625 59.691406 C 128.628906 59.78125 128.335938 59.785156 128.058594 59.707031 C 127.777344 59.628906 127.527344 59.464844 127.339844 59.246094 C 127.152344 59.019531 127.03125 58.75 127 58.457031 C 126.964844 58.167969 127.015625 57.875 127.148438 57.613281 C 127.28125 57.355469 127.488281 57.140625 127.738281 57 C 127.996094 56.855469 128.285156 56.792969 128.574219 56.816406 C 128.863281 56.839844 129.136719 56.949219 129.367188 57.132812 C 129.59375 57.308594 129.765625 57.558594 129.851562 57.835938 C 129.910156 58.019531 129.933594 58.214844 129.917969 58.40625 C 129.90625 58.597656 129.851562 58.785156 129.765625 58.960938 C 129.675781 59.132812 129.558594 59.285156 129.40625 59.410156 C 129.261719 59.535156 129.089844 59.628906 128.90625 59.691406 Z M 128.90625 59.691406 "/>
<path style=" stroke:none;fill-rule:nonzero;fill:rgb(92.941177%,69.411767%,8.627451%);fill-opacity:1;" d="M 124.464844 48.746094 C 124.214844 48.894531 123.925781 48.960938 123.636719 48.941406 C 123.347656 48.921875 123.066406 48.816406 122.839844 48.640625 C 122.605469 48.464844 122.433594 48.222656 122.339844 47.945312 C 122.246094 47.667969 122.238281 47.371094 122.3125 47.089844 C 122.386719 46.808594 122.542969 46.550781 122.761719 46.363281 C 122.980469 46.167969 123.253906 46.046875 123.539062 46.007812 C 123.824219 45.96875 124.121094 46.019531 124.378906 46.148438 C 124.640625 46.277344 124.855469 46.480469 125 46.734375 C 125.199219 47.070312 125.25 47.476562 125.148438 47.851562 C 125.046875 48.230469 124.800781 48.550781 124.464844 48.746094 Z M 124.464844 48.746094 "/>
<path style=" stroke:none;fill-rule:nonzero;fill:rgb(92.941177%,69.411767%,8.627451%);fill-opacity:1;" d="M 117.851562 38.972656 C 117.636719 39.164062 117.371094 39.289062 117.082031 39.332031 C 116.792969 39.371094 116.503906 39.324219 116.246094 39.199219 C 115.984375 39.074219 115.761719 38.875 115.617188 38.625 C 115.472656 38.371094 115.398438 38.085938 115.414062 37.796875 C 115.429688 37.503906 115.527344 37.226562 115.703125 36.992188 C 115.875 36.761719 116.113281 36.582031 116.386719 36.488281 C 116.65625 36.390625 116.953125 36.375 117.234375 36.445312 C 117.511719 36.519531 117.769531 36.671875 117.960938 36.886719 C 118.09375 37.027344 118.191406 37.199219 118.257812 37.378906 C 118.320312 37.566406 118.347656 37.757812 118.339844 37.949219 C 118.328125 38.144531 118.28125 38.335938 118.195312 38.511719 C 118.113281 38.6875 117.996094 38.839844 117.851562 38.972656 Z M 117.851562 38.972656 "/>
<path style=" stroke:none;fill-rule:nonzero;fill:rgb(92.941177%,69.411767%,8.627451%);fill-opacity:1;" d="M 109.363281 30.792969 C 109.191406 31.027344 108.953125 31.207031 108.679688 31.308594 C 108.40625 31.40625 108.113281 31.425781 107.832031 31.355469 C 107.550781 31.285156 107.292969 31.136719 107.097656 30.921875 C 106.902344 30.707031 106.773438 30.441406 106.726562 30.152344 C 106.683594 29.863281 106.722656 29.570312 106.84375 29.300781 C 106.964844 29.039062 107.160156 28.816406 107.410156 28.664062 C 107.65625 28.511719 107.945312 28.433594 108.230469 28.449219 C 108.519531 28.457031 108.800781 28.554688 109.035156 28.730469 C 109.195312 28.84375 109.328125 28.988281 109.429688 29.152344 C 109.527344 29.316406 109.597656 29.5 109.625 29.691406 C 109.660156 29.882812 109.648438 30.078125 109.601562 30.269531 C 109.558594 30.457031 109.476562 30.636719 109.363281 30.792969 Z M 109.363281 30.792969 "/>
<path style=" stroke:none;fill-rule:nonzero;fill:rgb(92.941177%,69.411767%,8.627451%);fill-opacity:1;" d="M 99.363281 24.5625 C 99.246094 24.828125 99.050781 25.054688 98.808594 25.210938 C 98.558594 25.363281 98.273438 25.445312 97.984375 25.433594 C 97.691406 25.425781 97.410156 25.332031 97.175781 25.164062 C 96.9375 24.996094 96.753906 24.757812 96.652344 24.488281 C 96.550781 24.214844 96.527344 23.917969 96.589844 23.632812 C 96.65625 23.347656 96.800781 23.089844 97.011719 22.890625 C 97.222656 22.691406 97.488281 22.554688 97.777344 22.503906 C 98.0625 22.457031 98.355469 22.496094 98.621094 22.613281 C 98.796875 22.691406 98.957031 22.804688 99.089844 22.945312 C 99.222656 23.085938 99.324219 23.253906 99.394531 23.433594 C 99.464844 23.613281 99.496094 23.808594 99.492188 24 C 99.488281 24.195312 99.441406 24.386719 99.363281 24.5625 Z M 99.363281 24.5625 "/>
<path style=" stroke:none;fill-rule:nonzero;fill:rgb(92.941177%,69.411767%,8.627451%);fill-opacity:1;" d="M 88.296875 20.558594 C 88.238281 20.84375 88.09375 21.105469 87.886719 21.308594 C 87.675781 21.511719 87.414062 21.652344 87.128906 21.703125 C 86.839844 21.753906 86.550781 21.722656 86.28125 21.605469 C 86.015625 21.492188 85.785156 21.300781 85.628906 21.054688 C 85.472656 20.808594 85.386719 20.523438 85.394531 20.230469 C 85.398438 19.941406 85.488281 19.65625 85.652344 19.414062 C 85.816406 19.175781 86.046875 18.988281 86.316406 18.882812 C 86.585938 18.773438 86.882812 18.746094 87.167969 18.808594 C 87.355469 18.847656 87.535156 18.925781 87.695312 19.035156 C 87.851562 19.144531 87.988281 19.285156 88.09375 19.449219 C 88.199219 19.613281 88.269531 19.792969 88.304688 19.984375 C 88.339844 20.175781 88.335938 20.371094 88.296875 20.558594 Z M 88.296875 20.558594 "/>
<path style=" stroke:none;fill-rule:nonzero;fill:rgb(95.686275%,83.529413%,69.803923%);fill-opacity:1;" d="M 22.519531 75.003906 C 22.523438 77.621094 22.714844 80.226562 23.101562 82.808594 L 126.898438 82.808594 C 127.667969 77.628906 127.667969 72.371094 126.898438 67.191406 L 23.101562 67.191406 C 22.714844 69.777344 22.523438 72.394531 22.519531 75.003906 Z M 22.519531 75.003906 "/>
<path style=" stroke:none;fill-rule:nonzero;fill:rgb(94.509804%,35.686275%,25.098041%);fill-opacity:1;" d="M 74.988281 140.984375 C 38.796875 140.984375 9.347656 111.378906 9.347656 75.003906 C 9.347656 38.628906 38.796875 9.019531 74.988281 9.019531 C 111.175781 9.019531 140.652344 38.621094 140.652344 75.003906 C 140.652344 111.394531 111.199219 140.984375 74.988281 140.984375 Z M 74.988281 10.613281 C 39.675781 10.613281 10.9375 39.5 10.9375 75.003906 C 10.9375 110.511719 39.675781 139.386719 74.988281 139.386719 C 110.300781 139.386719 139.058594 110.503906 139.058594 75.003906 C 139.058594 39.511719 110.324219 10.613281 74.988281 10.613281 Z M 74.988281 10.613281 "/>
<path style=" stroke:none;fill-rule:nonzero;fill:rgb(95.686275%,83.529413%,69.803923%);fill-opacity:1;" d="M 99.792969 75.003906 C 99.792969 79.9375 98.339844 84.753906 95.613281 88.851562 C 92.886719 92.949219 89.019531 96.140625 84.488281 98.027344 C 79.957031 99.914062 74.972656 100.40625 70.164062 99.445312 C 65.351562 98.484375 60.933594 96.113281 57.46875 92.628906 C 54 89.140625 51.636719 84.703125 50.679688 79.871094 C 49.722656 75.039062 50.210938 70.027344 52.085938 65.472656 C 53.960938 60.917969 57.136719 57.027344 61.214844 54.285156 C 65.292969 51.546875 70.082031 50.085938 74.988281 50.082031 C 78.246094 50.082031 81.472656 50.722656 84.480469 51.980469 C 87.488281 53.230469 90.226562 55.066406 92.527344 57.378906 C 94.832031 59.695312 96.660156 62.441406 97.90625 65.464844 C 99.152344 68.488281 99.792969 71.734375 99.792969 75.003906 Z M 99.792969 75.003906 "/>
<path style=" stroke:none;fill-rule:nonzero;fill:rgb(21.960784%,19.215687%,17.647059%);fill-opacity:1;" d="M 74.996094 96.8125 C 86.984375 96.8125 96.703125 87.046875 96.703125 75 C 96.703125 62.953125 86.984375 53.1875 74.996094 53.1875 C 63.011719 53.1875 53.292969 62.953125 53.292969 75 C 53.292969 87.046875 63.011719 96.8125 74.996094 96.8125 Z M 74.996094 96.8125 "/>
<path style=" stroke:none;fill-rule:nonzero;fill:rgb(94.509804%,35.686275%,25.098041%);fill-opacity:1;" d="M 74.988281 128.140625 C 45.847656 128.140625 22.121094 104.296875 22.121094 75.003906 C 22.121094 45.71875 45.847656 21.859375 74.988281 21.859375 C 104.128906 21.859375 127.871094 45.699219 127.871094 75.003906 C 127.871094 104.316406 104.152344 128.140625 74.988281 128.140625 Z M 74.988281 22.660156 C 46.269531 22.660156 22.90625 46.140625 22.90625 75 C 22.90625 103.859375 46.285156 127.339844 74.988281 127.339844 C 103.691406 127.339844 127.082031 103.863281 127.082031 75.003906 C 127.082031 46.152344 103.714844 22.660156 74.988281 22.660156 Z M 74.988281 22.660156 "/>
<path style=" stroke:none;fill-rule:nonzero;fill:rgb(94.509804%,35.686275%,25.098041%);fill-opacity:1;" d="M 55.015625 39.523438 C 54.890625 39.609375 54.738281 39.652344 54.585938 39.640625 C 54.429688 39.628906 54.285156 39.570312 54.167969 39.472656 C 53.992188 39.335938 53.78125 39.253906 53.558594 39.226562 C 53.324219 39.304688 53.109375 39.425781 52.917969 39.582031 C 52.363281 39.964844 52.035156 40.824219 51.9375 42.144531 C 51.800781 43.933594 52.082031 45.339844 52.785156 46.371094 C 53.101562 46.851562 53.582031 47.195312 54.140625 47.328125 C 54.402344 47.40625 54.679688 47.421875 54.949219 47.375 C 55.21875 47.332031 55.476562 47.226562 55.703125 47.066406 C 56.113281 46.78125 56.453125 46.394531 56.683594 45.941406 C 56.902344 45.496094 57.089844 45.027344 57.242188 44.554688 C 57.300781 44.332031 57.414062 44.128906 57.574219 43.96875 C 57.652344 43.914062 57.742188 43.875 57.835938 43.855469 C 57.929688 43.84375 58.027344 43.847656 58.117188 43.871094 C 58.214844 43.890625 58.308594 43.929688 58.390625 43.988281 C 58.472656 44.042969 58.542969 44.117188 58.59375 44.207031 C 58.644531 44.292969 58.679688 44.386719 58.691406 44.488281 C 58.703125 44.589844 58.691406 44.691406 58.664062 44.785156 C 58.265625 46.386719 57.546875 47.542969 56.511719 48.257812 C 56.128906 48.527344 55.695312 48.707031 55.238281 48.789062 C 54.78125 48.867188 54.3125 48.847656 53.863281 48.726562 C 52.949219 48.511719 52.152344 47.953125 51.628906 47.164062 C 50.738281 45.859375 50.371094 44.136719 50.527344 42.011719 C 50.652344 40.238281 51.183594 39.035156 52.105469 38.394531 C 52.277344 38.277344 52.453125 38.171875 52.636719 38.070312 C 52.777344 37.992188 52.929688 37.929688 53.089844 37.878906 C 53.082031 37.753906 53.105469 37.625 53.164062 37.511719 C 53.222656 37.398438 53.304688 37.300781 53.410156 37.226562 C 53.675781 37.042969 53.960938 37.105469 54.273438 37.40625 C 54.597656 37.742188 54.890625 38.105469 55.148438 38.496094 C 55.253906 38.644531 55.308594 38.820312 55.308594 39 C 55.308594 39.105469 55.28125 39.207031 55.230469 39.300781 C 55.179688 39.394531 55.105469 39.46875 55.015625 39.523438 Z M 55.015625 39.523438 "/>
<path style=" stroke:none;fill-rule:nonzero;fill:rgb(94.509804%,35.686275%,25.098041%);fill-opacity:1;" d="M 69.203125 42.792969 C 68.792969 42.914062 68.28125 42.492188 67.667969 41.523438 C 67.433594 41.164062 67.074219 40.488281 66.601562 39.535156 C 66.164062 39.726562 65.601562 40.015625 64.90625 40.402344 L 63.238281 41.296875 C 63.183594 41.949219 63.054688 42.925781 62.847656 44.214844 C 62.828125 44.339844 62.769531 44.460938 62.691406 44.558594 C 62.605469 44.652344 62.496094 44.726562 62.375 44.765625 C 62.195312 44.816406 62.003906 44.800781 61.835938 44.714844 C 61.753906 44.671875 61.675781 44.613281 61.613281 44.539062 C 61.550781 44.464844 61.507812 44.382812 61.480469 44.292969 C 61.417969 44.074219 61.515625 43.152344 61.769531 41.53125 C 61.660156 41.4375 61.578125 41.316406 61.539062 41.175781 C 61.433594 40.820312 61.582031 40.515625 61.992188 40.285156 C 62.226562 39.167969 62.546875 37.875 62.949219 36.394531 C 63.511719 34.382812 63.917969 33.332031 64.175781 33.257812 C 64.53125 33.152344 64.84375 33.328125 65.117188 33.785156 L 66.203125 35.929688 L 68.589844 40.292969 L 69.285156 41.246094 C 69.449219 41.445312 69.585938 41.671875 69.691406 41.910156 C 69.722656 42.003906 69.730469 42.097656 69.71875 42.191406 C 69.707031 42.285156 69.675781 42.378906 69.625 42.457031 C 69.582031 42.539062 69.519531 42.613281 69.449219 42.667969 C 69.375 42.726562 69.289062 42.769531 69.203125 42.792969 Z M 64.582031 35.800781 L 63.578125 39.472656 C 64.078125 39.171875 64.847656 38.761719 65.886719 38.234375 Z M 64.582031 35.800781 "/>
<path style=" stroke:none;fill-rule:nonzero;fill:rgb(94.509804%,35.686275%,25.098041%);fill-opacity:1;" d="M 79.582031 42.628906 C 78.871094 42.613281 77.878906 41.960938 76.609375 40.679688 L 74.574219 38.511719 L 74.574219 38.609375 L 74.472656 42.289062 C 74.472656 42.753906 74.253906 42.980469 73.847656 42.96875 C 73.71875 42.964844 73.597656 42.933594 73.488281 42.871094 C 73.378906 42.808594 73.285156 42.722656 73.222656 42.613281 C 73.097656 42.425781 73.035156 42.207031 73.039062 41.980469 C 73.070312 40.890625 73.144531 39.253906 73.261719 37.074219 C 73.378906 34.890625 73.453125 33.25 73.480469 32.144531 C 73.480469 32.050781 73.5 31.957031 73.535156 31.871094 C 73.570312 31.785156 73.621094 31.707031 73.691406 31.636719 C 73.753906 31.574219 73.832031 31.519531 73.917969 31.484375 C 74.003906 31.453125 74.09375 31.433594 74.1875 31.4375 C 74.28125 31.4375 74.375 31.457031 74.460938 31.5 C 74.546875 31.539062 74.621094 31.59375 74.6875 31.664062 C 74.746094 31.734375 74.796875 31.816406 74.832031 31.902344 C 74.863281 31.992188 74.875 32.085938 74.871094 32.183594 C 74.871094 32.632812 74.8125 33.34375 74.730469 34.300781 C 74.648438 35.253906 74.609375 35.933594 74.605469 36.441406 C 75.238281 35.863281 75.964844 35.136719 76.777344 34.257812 L 78.835938 31.972656 C 78.894531 31.894531 78.972656 31.832031 79.058594 31.785156 C 79.148438 31.738281 79.246094 31.714844 79.339844 31.710938 C 79.441406 31.707031 79.539062 31.726562 79.628906 31.761719 C 79.71875 31.800781 79.800781 31.855469 79.867188 31.929688 C 79.933594 32 79.988281 32.082031 80.019531 32.171875 C 80.058594 32.257812 80.070312 32.351562 80.066406 32.449219 C 80.066406 32.761719 79.449219 33.570312 78.207031 34.875 C 77.351562 35.769531 76.472656 36.636719 75.566406 37.488281 C 76.109375 38.089844 76.964844 38.960938 78.128906 40.101562 L 78.839844 40.738281 C 79.097656 40.941406 79.382812 41.105469 79.691406 41.21875 C 79.847656 41.253906 79.988281 41.347656 80.085938 41.480469 C 80.183594 41.605469 80.230469 41.769531 80.222656 41.933594 C 80.21875 42.097656 80.160156 42.253906 80.066406 42.386719 C 80.011719 42.464844 79.941406 42.527344 79.855469 42.570312 C 79.773438 42.613281 79.679688 42.632812 79.582031 42.628906 Z M 79.582031 42.628906 "/>
<path style=" stroke:none;fill-rule:nonzero;fill:rgb(94.509804%,35.686275%,25.098041%);fill-opacity:1;" d="M 91.335938 35.949219 C 91.265625 35.925781 91.199219 35.894531 91.140625 35.851562 C 90.507812 35.410156 89.8125 35.0625 89.082031 34.8125 C 88.683594 34.683594 88.277344 34.585938 87.863281 34.519531 C 87.371094 34.4375 86.875 34.386719 86.371094 34.367188 C 86.332031 34.609375 86.277344 34.847656 86.207031 35.082031 C 86.003906 35.699219 85.6875 36.539062 85.261719 37.582031 L 88.253906 38.265625 C 89.136719 38.460938 89.675781 38.589844 89.871094 38.652344 C 89.960938 38.679688 90.050781 38.726562 90.121094 38.789062 C 90.195312 38.851562 90.257812 38.925781 90.300781 39.011719 C 90.347656 39.097656 90.371094 39.191406 90.378906 39.289062 C 90.382812 39.386719 90.371094 39.484375 90.335938 39.574219 C 90.316406 39.664062 90.277344 39.746094 90.226562 39.820312 C 90.171875 39.894531 90.101562 39.957031 90.023438 40 C 89.945312 40.046875 89.859375 40.074219 89.769531 40.082031 C 89.675781 40.09375 89.585938 40.082031 89.503906 40.054688 L 87.878906 39.671875 L 84.730469 38.933594 C 84.613281 39.242188 84.5 39.535156 84.398438 39.816406 C 84.296875 40.09375 84.203125 40.355469 84.121094 40.597656 C 83.796875 41.582031 83.679688 42.1875 83.765625 42.386719 C 83.832031 42.546875 84.160156 42.746094 84.746094 42.917969 C 85.019531 43.011719 85.433594 43.140625 85.996094 43.308594 C 86.550781 43.476562 86.964844 43.605469 87.246094 43.691406 C 87.378906 43.734375 87.511719 43.761719 87.652344 43.785156 C 87.785156 43.800781 87.917969 43.828125 88.050781 43.867188 C 88.148438 43.878906 88.242188 43.921875 88.324219 43.980469 C 88.402344 44.042969 88.472656 44.121094 88.519531 44.207031 C 88.566406 44.300781 88.589844 44.398438 88.589844 44.503906 C 88.589844 44.601562 88.566406 44.699219 88.523438 44.792969 C 88.480469 44.960938 88.378906 45.109375 88.230469 45.199219 C 88.082031 45.289062 87.910156 45.320312 87.738281 45.277344 C 86.808594 45.09375 85.894531 44.835938 85 44.511719 C 83.628906 44.054688 82.808594 43.578125 82.535156 43.082031 C 82.242188 42.546875 82.332031 41.566406 82.800781 40.140625 C 82.894531 39.851562 82.996094 39.546875 83.121094 39.210938 C 83.246094 38.875 83.386719 38.523438 83.535156 38.136719 C 83.519531 38.019531 83.53125 37.894531 83.570312 37.78125 C 83.621094 37.636719 83.710938 37.515625 83.832031 37.425781 C 84.34375 36.167969 84.699219 35.234375 84.894531 34.621094 C 84.972656 34.378906 85.027344 34.128906 85.070312 33.875 C 85.109375 33.621094 85.167969 33.371094 85.238281 33.128906 C 85.414062 32.605469 85.71875 32.414062 86.164062 32.558594 C 86.253906 32.585938 86.335938 32.632812 86.40625 32.695312 C 86.480469 32.753906 86.535156 32.832031 86.578125 32.914062 C 87.117188 32.945312 87.652344 33.003906 88.1875 33.097656 C 88.648438 33.171875 89.105469 33.285156 89.550781 33.425781 C 90.4375 33.683594 91.265625 34.105469 92 34.667969 C 92.117188 34.753906 92.207031 34.878906 92.246094 35.023438 C 92.292969 35.164062 92.285156 35.316406 92.230469 35.457031 C 92.179688 35.628906 92.0625 35.78125 91.902344 35.871094 C 91.824219 35.929688 91.730469 35.96875 91.628906 35.980469 C 91.527344 35.996094 91.429688 35.980469 91.335938 35.949219 Z M 91.335938 35.949219 "/>
<path style=" stroke:none;fill-rule:nonzero;fill:rgb(94.509804%,35.686275%,25.098041%);fill-opacity:1;" d="M 91.949219 44.691406 C 91.996094 44.613281 92.0625 44.550781 92.136719 44.503906 C 92.214844 44.457031 92.300781 44.425781 92.390625 44.417969 C 92.5 44.410156 92.605469 44.417969 92.710938 44.457031 C 92.8125 44.496094 92.90625 44.558594 92.980469 44.636719 C 93.054688 44.714844 93.113281 44.8125 93.144531 44.917969 C 93.175781 45.019531 93.183594 45.132812 93.167969 45.238281 C 93.136719 45.5625 93.167969 45.886719 93.257812 46.199219 C 93.511719 46.75 93.917969 47.210938 94.425781 47.535156 C 94.988281 47.953125 95.640625 48.230469 96.328125 48.34375 C 97.207031 48.484375 97.855469 48.265625 98.273438 47.683594 C 98.628906 47.207031 98.628906 46.632812 98.273438 45.964844 C 97.925781 45.324219 97.441406 44.769531 96.851562 44.34375 C 96.324219 43.949219 95.902344 43.433594 95.613281 42.84375 C 95.457031 42.542969 95.386719 42.207031 95.414062 41.871094 C 95.4375 41.535156 95.558594 41.210938 95.761719 40.941406 C 96.246094 40.265625 97.074219 39.929688 98.246094 39.925781 C 99.261719 39.894531 100.261719 40.191406 101.089844 40.777344 C 101.503906 41.085938 101.878906 41.445312 102.195312 41.851562 C 102.683594 42.457031 102.839844 42.886719 102.660156 43.144531 C 102.621094 43.21875 102.566406 43.285156 102.496094 43.332031 C 102.425781 43.382812 102.34375 43.414062 102.257812 43.429688 C 102.171875 43.441406 102.089844 43.433594 102.003906 43.40625 C 101.925781 43.378906 101.851562 43.332031 101.792969 43.269531 C 101.53125 43.058594 101.292969 42.816406 101.082031 42.558594 C 100.84375 42.277344 100.578125 42.023438 100.289062 41.800781 C 99.761719 41.402344 99.128906 41.175781 98.472656 41.148438 C 98.207031 41.117188 97.941406 41.160156 97.691406 41.265625 C 97.449219 41.371094 97.238281 41.535156 97.074219 41.746094 C 96.84375 42.066406 96.964844 42.488281 97.425781 43.023438 C 97.773438 43.386719 98.140625 43.722656 98.53125 44.035156 C 99.261719 44.605469 99.769531 45.417969 99.957031 46.332031 C 100.019531 46.691406 100.011719 47.066406 99.925781 47.429688 C 99.839844 47.792969 99.683594 48.128906 99.460938 48.425781 C 99.144531 48.867188 98.71875 49.214844 98.226562 49.433594 C 97.734375 49.65625 97.191406 49.738281 96.65625 49.679688 C 95.566406 49.609375 94.519531 49.214844 93.652344 48.554688 C 92.988281 48.085938 92.4375 47.476562 92.039062 46.769531 C 91.585938 45.972656 91.550781 45.269531 91.949219 44.691406 Z M 91.949219 44.691406 "/>
<path style=" stroke:none;fill-rule:nonzero;fill:rgb(94.509804%,35.686275%,25.098041%);fill-opacity:1;" d="M 51.027344 110.089844 L 49.917969 110.980469 L 49.433594 110.660156 L 53.011719 107.867188 L 53.570312 108.226562 L 52.425781 112.625 L 51.933594 112.292969 L 52.289062 110.914062 Z M 52.449219 110.511719 L 52.777344 109.246094 C 52.855469 108.957031 52.941406 108.707031 53.023438 108.464844 C 52.832031 108.640625 52.628906 108.820312 52.417969 108.992188 L 51.382812 109.800781 Z M 52.449219 110.511719 "/>
<path style=" stroke:none;fill-rule:nonzero;fill:rgb(94.509804%,35.686275%,25.098041%);fill-opacity:1;" d="M 56.316406 109.894531 L 56.808594 110.140625 L 55.085938 113.582031 L 56.722656 114.414062 L 56.511719 114.832031 L 54.378906 113.761719 Z M 56.316406 109.894531 "/>
<path style=" stroke:none;fill-rule:nonzero;fill:rgb(94.509804%,35.686275%,25.098041%);fill-opacity:1;" d="M 58.855469 115.847656 L 59.277344 111.417969 L 59.832031 111.617188 L 59.578125 113.839844 C 59.515625 114.394531 59.445312 114.933594 59.378906 115.355469 C 59.585938 114.976562 59.886719 114.539062 60.210938 114.066406 L 61.480469 112.210938 L 62.027344 112.40625 L 61.78125 114.640625 C 61.726562 115.167969 61.660156 115.6875 61.566406 116.136719 C 61.8125 115.722656 62.085938 115.3125 62.394531 114.847656 L 63.660156 112.996094 L 64.191406 113.183594 L 61.597656 116.832031 L 61.050781 116.636719 L 61.296875 114.339844 C 61.339844 113.859375 61.410156 113.382812 61.503906 112.910156 C 61.261719 113.324219 61.003906 113.730469 60.722656 114.121094 L 59.394531 116.03125 Z M 58.855469 115.847656 "/>
<path style=" stroke:none;fill-rule:nonzero;fill:rgb(94.509804%,35.686275%,25.098041%);fill-opacity:1;" d="M 65.503906 116.488281 L 64.789062 117.722656 L 64.230469 117.605469 L 66.535156 113.691406 L 67.191406 113.832031 L 67.738281 118.347656 L 67.167969 118.222656 L 67.003906 116.796875 Z M 66.964844 116.359375 L 66.808594 115.058594 C 66.773438 114.761719 66.765625 114.496094 66.753906 114.238281 C 66.636719 114.472656 66.515625 114.71875 66.378906 114.957031 L 65.703125 116.082031 Z M 66.964844 116.359375 "/>
<path style=" stroke:none;fill-rule:nonzero;fill:rgb(94.509804%,35.686275%,25.098041%);fill-opacity:1;" d="M 70.386719 118.667969 L 70.566406 116.851562 L 69.457031 114.246094 L 70.082031 114.308594 L 70.570312 115.550781 C 70.707031 115.910156 70.804688 116.164062 70.925781 116.480469 C 71.074219 116.210938 71.246094 115.949219 71.441406 115.640625 L 72.167969 114.515625 L 72.796875 114.574219 L 71.128906 116.898438 L 70.949219 118.726562 Z M 70.386719 118.667969 "/>
<path style=" stroke:none;fill-rule:nonzero;fill:rgb(94.509804%,35.686275%,25.098041%);fill-opacity:1;" d="M 74.277344 118.25 C 74.578125 118.425781 74.925781 118.519531 75.273438 118.515625 C 75.839844 118.515625 76.164062 118.203125 76.15625 117.769531 C 76.148438 117.332031 75.917969 117.140625 75.339844 116.925781 C 74.628906 116.6875 74.199219 116.328125 74.1875 115.722656 C 74.1875 115.050781 74.722656 114.542969 75.558594 114.535156 C 75.886719 114.515625 76.210938 114.582031 76.503906 114.730469 L 76.359375 115.183594 C 76.105469 115.050781 75.824219 114.988281 75.542969 114.992188 C 74.957031 114.992188 74.742188 115.351562 74.746094 115.648438 C 74.746094 116.054688 75.015625 116.246094 75.609375 116.46875 C 76.339844 116.738281 76.714844 117.082031 76.722656 117.714844 C 76.730469 118.347656 76.253906 118.960938 75.242188 118.976562 C 74.863281 118.988281 74.484375 118.898438 74.144531 118.71875 Z M 74.277344 118.25 "/>
<path style=" stroke:none;fill-rule:nonzero;fill:rgb(94.509804%,35.686275%,25.098041%);fill-opacity:1;" d="M 81.085938 114.148438 L 83.359375 113.734375 L 83.4375 114.191406 L 81.710938 114.507812 L 81.964844 115.9375 L 83.5625 115.644531 L 83.644531 116.097656 L 82.050781 116.386719 L 82.40625 118.304688 L 81.863281 118.402344 Z M 81.085938 114.148438 "/>
<path style=" stroke:none;fill-rule:nonzero;fill:rgb(94.509804%,35.686275%,25.098041%);fill-opacity:1;" d="M 85.214844 113.339844 C 85.53125 113.183594 85.863281 113.050781 86.203125 112.949219 C 86.617188 112.777344 87.074219 112.769531 87.496094 112.925781 C 87.628906 112.992188 87.75 113.089844 87.84375 113.207031 C 87.941406 113.324219 88.011719 113.464844 88.050781 113.609375 C 88.121094 113.847656 88.121094 114.097656 88.035156 114.332031 C 87.953125 114.566406 87.796875 114.765625 87.589844 114.898438 L 87.589844 114.917969 C 87.777344 114.941406 87.953125 115.011719 88.101562 115.125 C 88.25 115.238281 88.371094 115.390625 88.441406 115.566406 C 88.628906 115.929688 88.847656 116.277344 89.097656 116.605469 L 88.550781 116.769531 C 88.332031 116.488281 88.140625 116.183594 87.980469 115.863281 C 87.6875 115.335938 87.402344 115.1875 86.914062 115.3125 L 86.417969 115.464844 L 86.949219 117.25 L 86.417969 117.410156 Z M 86.304688 115.058594 L 86.847656 114.894531 C 87.414062 114.726562 87.679688 114.304688 87.535156 113.824219 C 87.378906 113.292969 86.925781 113.179688 86.363281 113.339844 C 86.183594 113.386719 86.015625 113.457031 85.855469 113.546875 Z M 86.304688 115.058594 "/>
<path style=" stroke:none;fill-rule:nonzero;fill:rgb(94.509804%,35.686275%,25.098041%);fill-opacity:1;" d="M 92.402344 113.089844 L 90.871094 113.746094 L 91.476562 115.175781 L 93.183594 114.460938 L 93.363281 114.890625 L 91.152344 115.839844 L 89.464844 111.878906 L 91.597656 110.964844 L 91.78125 111.394531 L 90.164062 112.089844 L 90.691406 113.34375 L 92.226562 112.683594 Z M 92.402344 113.089844 "/>
<path style=" stroke:none;fill-rule:nonzero;fill:rgb(94.509804%,35.686275%,25.098041%);fill-opacity:1;" d="M 95.058594 113.269531 C 95.410156 113.28125 95.757812 113.199219 96.0625 113.027344 C 96.558594 112.75 96.699219 112.316406 96.488281 111.957031 C 96.273438 111.601562 95.976562 111.519531 95.367188 111.601562 C 94.636719 111.730469 94.078125 111.625 93.785156 111.097656 C 93.457031 110.511719 93.695312 109.800781 94.421875 109.390625 C 94.703125 109.222656 95.019531 109.121094 95.351562 109.109375 L 95.4375 109.582031 C 95.152344 109.585938 94.875 109.660156 94.628906 109.800781 C 94.121094 110.089844 94.097656 110.515625 94.238281 110.761719 C 94.433594 111.121094 94.757812 111.160156 95.386719 111.066406 C 96.15625 110.957031 96.648438 111.066406 96.957031 111.632812 C 97.269531 112.195312 97.136719 112.953125 96.246094 113.457031 C 95.914062 113.644531 95.542969 113.746094 95.160156 113.75 Z M 95.058594 113.269531 "/>
<path style=" stroke:none;fill-rule:nonzero;fill:rgb(94.509804%,35.686275%,25.098041%);fill-opacity:1;" d="M 97.425781 107.582031 L 98.492188 109.035156 L 100.164062 107.808594 L 99.097656 106.355469 L 99.546875 106.015625 L 102.082031 109.496094 L 101.628906 109.824219 L 100.441406 108.195312 L 98.769531 109.425781 L 99.957031 111.054688 L 99.511719 111.390625 L 96.976562 107.910156 Z M 97.425781 107.582031 "/>
<path style=" stroke:none;fill-rule:nonzero;fill:rgb(21.960784%,19.215687%,17.647059%);fill-opacity:1;" d="M 29.558594 74.855469 L 27.890625 74.855469 L 27.890625 76.410156 L 29.746094 76.410156 L 29.746094 76.875 L 27.335938 76.875 L 27.335938 72.589844 L 29.652344 72.589844 L 29.652344 73.058594 L 27.875 73.058594 L 27.875 74.414062 L 29.542969 74.414062 Z M 29.558594 74.855469 "/>
<path style=" stroke:none;fill-rule:nonzero;fill:rgb(21.960784%,19.215687%,17.647059%);fill-opacity:1;" d="M 31.660156 76.199219 C 31.964844 76.378906 32.304688 76.472656 32.652344 76.480469 C 33.21875 76.480469 33.546875 76.183594 33.546875 75.746094 C 33.546875 75.308594 33.324219 75.113281 32.742188 74.886719 C 32.03125 74.640625 31.613281 74.273438 31.613281 73.667969 C 31.613281 73 32.164062 72.5 32.996094 72.5 C 33.324219 72.488281 33.652344 72.5625 33.941406 72.710938 L 33.792969 73.164062 C 33.539062 73.03125 33.261719 72.960938 32.976562 72.960938 C 32.394531 72.960938 32.171875 73.316406 32.171875 73.609375 C 32.171875 74.007812 32.429688 74.207031 33.023438 74.433594 C 33.730469 74.71875 34.113281 75.066406 34.113281 75.699219 C 34.113281 76.332031 33.628906 76.941406 32.621094 76.941406 C 32.234375 76.945312 31.855469 76.851562 31.523438 76.664062 Z M 31.660156 76.199219 "/>
<path style=" stroke:none;fill-rule:nonzero;fill:rgb(21.960784%,19.215687%,17.647059%);fill-opacity:1;" d="M 36.960938 73.046875 L 35.65625 73.046875 L 35.65625 72.570312 L 38.828125 72.570312 L 38.828125 73.046875 L 37.519531 73.046875 L 37.519531 76.875 L 36.960938 76.875 Z M 36.960938 73.046875 "/>
<path style=" stroke:none;fill-rule:nonzero;fill:rgb(21.960784%,19.215687%,17.647059%);fill-opacity:1;" d="M 40.578125 72.628906 C 40.96875 72.566406 41.363281 72.539062 41.753906 72.539062 C 42.378906 72.488281 43 72.679688 43.488281 73.074219 C 43.691406 73.273438 43.855469 73.515625 43.960938 73.78125 C 44.0625 74.046875 44.109375 74.335938 44.09375 74.621094 C 44.109375 74.925781 44.058594 75.234375 43.953125 75.519531 C 43.847656 75.8125 43.683594 76.074219 43.472656 76.296875 C 42.949219 76.742188 42.269531 76.964844 41.582031 76.914062 C 41.246094 76.917969 40.910156 76.898438 40.578125 76.863281 Z M 41.128906 76.433594 C 41.316406 76.460938 41.503906 76.472656 41.691406 76.46875 C 42.871094 76.46875 43.515625 75.800781 43.515625 74.640625 C 43.515625 73.625 42.949219 72.980469 41.78125 72.980469 C 41.558594 72.976562 41.34375 72.996094 41.128906 73.039062 Z M 41.128906 76.433594 "/>
<path style=" stroke:none;fill-rule:nonzero;fill:rgb(21.960784%,19.215687%,17.647059%);fill-opacity:1;" d="M 107.78125 73.25 L 107.066406 73.636719 L 106.964844 73.210938 L 107.863281 72.722656 L 108.339844 72.722656 L 108.339844 76.875 L 107.800781 76.875 Z M 107.78125 73.25 "/>
<path style=" stroke:none;fill-rule:nonzero;fill:rgb(21.960784%,19.215687%,17.647059%);fill-opacity:1;" d="M 111.425781 76.480469 C 111.574219 76.488281 111.726562 76.480469 111.871094 76.460938 C 112.199219 76.421875 112.5 76.28125 112.738281 76.058594 C 113.046875 75.765625 113.238281 75.375 113.285156 74.953125 L 113.269531 74.953125 C 113.105469 75.152344 112.878906 75.292969 112.632812 75.359375 C 112.382812 75.425781 112.121094 75.414062 111.878906 75.324219 C 111.636719 75.230469 111.429688 75.066406 111.285156 74.855469 C 111.144531 74.640625 111.066406 74.386719 111.074219 74.128906 C 111.066406 73.9375 111.097656 73.746094 111.167969 73.566406 C 111.238281 73.386719 111.339844 73.222656 111.472656 73.085938 C 111.605469 72.953125 111.765625 72.839844 111.941406 72.769531 C 112.117188 72.691406 112.304688 72.652344 112.496094 72.652344 C 113.339844 72.652344 113.863281 73.339844 113.863281 74.402344 C 113.882812 74.761719 113.832031 75.117188 113.710938 75.449219 C 113.585938 75.785156 113.394531 76.09375 113.152344 76.351562 C 112.824219 76.664062 112.402344 76.859375 111.953125 76.90625 C 111.78125 76.9375 111.613281 76.945312 111.441406 76.941406 Z M 111.628906 74.089844 C 111.613281 74.199219 111.628906 74.316406 111.660156 74.417969 C 111.699219 74.527344 111.753906 74.625 111.828125 74.710938 C 111.902344 74.792969 111.992188 74.859375 112.097656 74.902344 C 112.199219 74.949219 112.308594 74.972656 112.421875 74.972656 C 112.582031 74.976562 112.742188 74.941406 112.882812 74.863281 C 113.027344 74.789062 113.148438 74.675781 113.234375 74.539062 C 113.269531 74.480469 113.289062 74.410156 113.285156 74.335938 C 113.285156 73.621094 113.023438 73.082031 112.441406 73.082031 C 111.949219 73.082031 111.628906 73.503906 111.628906 74.089844 Z M 111.628906 74.089844 "/>
<path style=" stroke:none;fill-rule:nonzero;fill:rgb(21.960784%,19.215687%,17.647059%);fill-opacity:1;" d="M 115.636719 76.875 L 115.636719 76.519531 L 116.070312 76.089844 C 117.136719 75.078125 117.605469 74.542969 117.609375 73.917969 C 117.621094 73.808594 117.605469 73.695312 117.570312 73.589844 C 117.535156 73.484375 117.472656 73.390625 117.394531 73.3125 C 117.3125 73.238281 117.21875 73.175781 117.113281 73.140625 C 117.007812 73.105469 116.898438 73.09375 116.789062 73.105469 C 116.464844 73.121094 116.15625 73.246094 115.914062 73.464844 L 115.738281 73.066406 C 116.066406 72.792969 116.480469 72.644531 116.90625 72.648438 C 117.070312 72.632812 117.238281 72.652344 117.390625 72.707031 C 117.546875 72.761719 117.6875 72.847656 117.808594 72.964844 C 117.929688 73.078125 118.023438 73.214844 118.082031 73.371094 C 118.148438 73.523438 118.175781 73.6875 118.171875 73.855469 C 118.171875 74.621094 117.613281 75.238281 116.75 76.082031 L 116.417969 76.386719 L 118.273438 76.386719 L 118.273438 76.855469 Z M 115.636719 76.875 "/>
<path style=" stroke:none;fill-rule:nonzero;fill:rgb(21.960784%,19.215687%,17.647059%);fill-opacity:1;" d="M 122.910156 74.757812 C 122.910156 76.167969 122.394531 76.945312 121.492188 76.945312 C 120.683594 76.945312 120.136719 76.1875 120.125 74.804688 C 120.113281 73.421875 120.722656 72.640625 121.546875 72.640625 C 122.371094 72.640625 122.910156 73.433594 122.910156 74.757812 Z M 120.667969 74.820312 C 120.667969 75.894531 121 76.511719 121.507812 76.511719 C 122.082031 76.511719 122.351562 75.84375 122.351562 74.785156 C 122.351562 73.722656 122.09375 73.089844 121.515625 73.089844 C 121.027344 73.089844 120.667969 73.691406 120.667969 74.820312 Z M 120.667969 74.820312 "/>
<path style=" stroke:none;fill-rule:nonzero;fill:rgb(94.509804%,35.686275%,25.098041%);fill-opacity:1;" d="M 81.667969 150.015625 C 80.460938 150.015625 79.269531 149.230469 78.113281 148.472656 C 77.046875 147.777344 75.980469 147.042969 74.996094 147.042969 C 74.011719 147.042969 72.941406 147.753906 71.886719 148.472656 C 70.652344 149.28125 69.378906 150.121094 68.082031 150.003906 C 66.777344 149.886719 65.636719 148.808594 64.5625 147.773438 C 63.660156 146.910156 62.730469 146.019531 61.808594 145.847656 C 60.886719 145.675781 59.675781 146.175781 58.5 146.65625 C 57.433594 147.109375 56.316406 147.570312 55.304688 147.570312 C 55.027344 147.574219 54.75 147.535156 54.480469 147.464844 C 53.207031 147.109375 52.308594 145.84375 51.441406 144.625 C 50.714844 143.609375 49.964844 142.554688 49.085938 142.214844 C 48.285156 141.898438 46.953125 142.128906 45.699219 142.402344 C 44.195312 142.714844 42.597656 142.953125 41.574219 142.4375 C 40.390625 141.847656 39.742188 140.445312 39.113281 139.09375 C 38.582031 137.957031 38.046875 136.78125 37.238281 136.277344 C 36.589844 135.871094 35.640625 135.820312 34.792969 135.820312 C 34.492188 135.820312 34.1875 135.820312 33.875 135.820312 C 32.421875 135.859375 30.90625 135.929688 29.808594 135.105469 C 28.714844 134.285156 28.386719 132.8125 28.007812 131.367188 C 27.699219 130.152344 27.375 128.890625 26.675781 128.253906 C 25.972656 127.613281 24.691406 127.402344 23.457031 127.199219 C 21.988281 126.964844 20.480469 126.71875 19.589844 125.738281 C 18.699219 124.761719 18.59375 123.238281 18.496094 121.738281 C 18.410156 120.488281 18.324219 119.183594 17.746094 118.425781 C 17.175781 117.664062 15.972656 117.230469 14.78125 116.808594 C 13.382812 116.300781 11.9375 115.78125 11.226562 114.664062 C 10.515625 113.546875 10.710938 112.015625 10.871094 110.539062 C 11.019531 109.289062 11.171875 107.996094 10.742188 107.136719 C 10.316406 106.273438 9.207031 105.636719 8.128906 104.992188 C 6.839844 104.238281 5.515625 103.457031 5.035156 102.21875 C 4.554688 100.980469 5.035156 99.527344 5.457031 98.105469 C 5.832031 96.902344 6.21875 95.660156 5.957031 94.734375 C 5.691406 93.808594 4.726562 92.976562 3.785156 92.160156 C 2.664062 91.171875 1.496094 90.160156 1.253906 88.847656 C 1.011719 87.535156 1.730469 86.203125 2.421875 84.894531 C 3.015625 83.78125 3.625 82.621094 3.535156 81.660156 C 3.449219 80.691406 2.652344 79.714844 1.878906 78.734375 C 0.964844 77.558594 0 76.339844 0 75.003906 C 0 73.667969 0.964844 72.449219 1.890625 71.273438 C 2.667969 70.292969 3.464844 69.292969 3.554688 68.347656 C 3.640625 67.40625 3.027344 66.230469 2.4375 65.113281 C 1.746094 63.804688 1.015625 62.449219 1.269531 61.160156 C 1.519531 59.871094 2.691406 58.832031 3.800781 57.851562 C 4.738281 57.035156 5.714844 56.183594 5.972656 55.277344 C 6.226562 54.371094 5.84375 53.105469 5.46875 51.902344 C 5.035156 50.472656 4.574219 49.015625 5.050781 47.785156 C 5.523438 46.558594 6.859375 45.769531 8.144531 45.015625 C 9.210938 44.382812 10.335938 43.730469 10.757812 42.871094 C 11.179688 42.015625 11.03125 40.730469 10.886719 39.472656 C 10.714844 37.992188 10.527344 36.464844 11.242188 35.34375 C 11.953125 34.222656 13.375 33.699219 14.792969 33.199219 C 15.972656 32.777344 17.183594 32.34375 17.761719 31.582031 C 18.335938 30.820312 18.425781 29.519531 18.503906 28.265625 C 18.609375 26.78125 18.710938 25.246094 19.597656 24.265625 C 20.488281 23.289062 21.980469 23.042969 23.457031 22.804688 C 24.691406 22.605469 25.96875 22.398438 26.652344 21.753906 C 27.339844 21.113281 27.675781 19.851562 27.988281 18.636719 C 28.34375 17.207031 28.738281 15.699219 29.792969 14.902344 C 30.84375 14.101562 32.402344 14.140625 33.855469 14.1875 C 34.164062 14.1875 34.472656 14.207031 34.773438 14.207031 C 35.617188 14.207031 36.566406 14.148438 37.214844 13.742188 C 38.019531 13.246094 38.566406 12.070312 39.09375 10.929688 C 39.722656 9.578125 40.371094 8.175781 41.554688 7.582031 C 42.582031 7.074219 44.171875 7.304688 45.675781 7.625 C 46.9375 7.898438 48.265625 8.121094 49.066406 7.808594 C 49.941406 7.453125 50.695312 6.417969 51.421875 5.398438 C 52.289062 4.183594 53.199219 2.925781 54.464844 2.558594 C 55.625 2.230469 57.121094 2.789062 58.496094 3.363281 C 59.65625 3.847656 60.84375 4.363281 61.800781 4.175781 C 62.761719 3.996094 63.652344 3.109375 64.550781 2.25 C 65.621094 1.214844 66.746094 0.144531 68.074219 0.0195312 C 69.402344 -0.0976562 70.644531 0.734375 71.878906 1.550781 C 72.941406 2.246094 74.011719 2.964844 74.992188 2.964844 C 75.972656 2.964844 77.054688 2.25 78.109375 1.550781 C 79.339844 0.746094 80.621094 -0.09375 81.914062 0.0195312 C 83.207031 0.136719 84.355469 1.214844 85.433594 2.25 C 86.332031 3.113281 87.257812 4.007812 88.183594 4.175781 C 89.105469 4.351562 90.316406 3.847656 91.492188 3.363281 C 92.558594 2.914062 93.675781 2.449219 94.691406 2.449219 C 94.964844 2.449219 95.242188 2.488281 95.507812 2.558594 C 96.789062 2.917969 97.683594 4.183594 98.550781 5.417969 C 99.261719 6.4375 100.027344 7.484375 100.90625 7.828125 C 101.707031 8.136719 103.039062 7.917969 104.296875 7.644531 C 105.796875 7.328125 107.394531 7.089844 108.417969 7.609375 C 109.601562 8.199219 110.253906 9.597656 110.878906 10.949219 C 111.40625 12.089844 111.941406 13.261719 112.753906 13.765625 C 113.40625 14.167969 114.355469 14.222656 115.199219 14.222656 C 115.503906 14.222656 115.808594 14.222656 116.113281 14.222656 C 117.570312 14.1875 119.089844 14.117188 120.179688 14.9375 C 121.269531 15.753906 121.597656 17.230469 121.984375 18.675781 C 122.292969 19.894531 122.617188 21.148438 123.316406 21.789062 C 124.015625 22.425781 125.300781 22.640625 126.535156 22.859375 C 128 23.09375 129.519531 23.339844 130.402344 24.316406 C 131.289062 25.292969 131.394531 26.816406 131.5 28.320312 C 131.582031 29.574219 131.667969 30.871094 132.246094 31.632812 C 132.820312 32.394531 134.019531 32.832031 135.210938 33.253906 C 136.609375 33.753906 138.054688 34.273438 138.765625 35.394531 C 139.476562 36.519531 139.277344 38.046875 139.121094 39.523438 C 138.972656 40.777344 138.824219 42.074219 139.25 42.929688 C 139.675781 43.785156 140.785156 44.433594 141.863281 45.074219 C 143.148438 45.824219 144.476562 46.609375 144.957031 47.847656 C 145.433594 49.085938 144.976562 50.539062 144.535156 51.957031 C 144.160156 53.160156 143.773438 54.40625 144.03125 55.332031 C 144.292969 56.257812 145.261719 57.089844 146.203125 57.910156 C 147.332031 58.894531 148.496094 59.90625 148.738281 61.21875 C 148.980469 62.535156 148.261719 63.859375 147.566406 65.171875 C 146.976562 66.289062 146.363281 67.441406 146.453125 68.40625 C 146.542969 69.371094 147.335938 70.355469 148.113281 71.332031 C 149.039062 72.503906 150.003906 73.714844 150.003906 75.054688 C 150.003906 76.398438 149.039062 77.613281 148.109375 78.785156 C 147.335938 79.761719 146.539062 80.769531 146.453125 81.707031 C 146.367188 82.644531 146.976562 83.832031 147.566406 84.945312 C 148.261719 86.257812 148.992188 87.609375 148.738281 88.898438 C 148.484375 90.1875 147.316406 91.226562 146.203125 92.207031 C 145.261719 93.027344 144.292969 93.871094 144.03125 94.785156 C 143.773438 95.695312 144.160156 96.953125 144.53125 98.15625 C 144.972656 99.585938 145.429688 101.042969 144.953125 102.277344 C 144.476562 103.503906 143.148438 104.292969 141.863281 105.042969 C 140.792969 105.675781 139.667969 106.328125 139.25 107.183594 C 138.828125 108.042969 138.972656 109.328125 139.121094 110.589844 C 139.292969 112.066406 139.472656 113.59375 138.761719 114.714844 C 138.050781 115.835938 136.628906 116.363281 135.207031 116.855469 C 134.035156 117.277344 132.816406 117.71875 132.246094 118.476562 C 131.671875 119.230469 131.582031 120.535156 131.5 121.789062 C 131.398438 123.28125 131.296875 124.816406 130.40625 125.789062 C 129.519531 126.765625 128 127.015625 126.535156 127.25 C 125.300781 127.449219 124.023438 127.660156 123.320312 128.300781 C 122.621094 128.945312 122.292969 130.199219 121.984375 131.417969 C 121.628906 132.847656 121.230469 134.359375 120.179688 135.15625 C 119.128906 135.953125 117.566406 135.917969 116.113281 135.871094 C 115.808594 135.871094 115.496094 135.871094 115.195312 135.871094 C 114.351562 135.871094 113.402344 135.929688 112.753906 136.328125 C 111.953125 136.832031 111.402344 138.003906 110.878906 139.144531 C 110.25 140.496094 109.601562 141.894531 108.417969 142.488281 C 107.394531 143.003906 105.800781 142.769531 104.300781 142.449219 C 103.039062 142.179688 101.707031 141.953125 100.90625 142.261719 C 100.027344 142.621094 99.277344 143.660156 98.550781 144.675781 C 97.683594 145.894531 96.773438 147.148438 95.511719 147.511719 C 94.339844 147.847656 92.851562 147.285156 91.476562 146.710938 C 90.320312 146.222656 89.136719 145.714844 88.171875 145.894531 C 87.210938 146.078125 86.320312 146.96875 85.421875 147.820312 C 84.355469 148.859375 83.230469 149.933594 81.898438 150.050781 C 81.835938 150.015625 81.742188 150.015625 81.667969 150.015625 Z M 74.988281 146.125 C 76.230469 146.125 77.4375 146.921875 78.605469 147.691406 C 79.707031 148.40625 80.84375 149.167969 81.824219 149.074219 C 82.808594 148.984375 83.832031 148.027344 84.800781 147.097656 C 85.765625 146.167969 86.820312 145.148438 88 144.929688 C 89.175781 144.707031 90.539062 145.261719 91.824219 145.800781 C 93.105469 146.339844 94.355469 146.824219 95.253906 146.566406 C 96.226562 146.292969 97.03125 145.167969 97.800781 144.066406 C 98.566406 142.964844 99.441406 141.773438 100.574219 141.332031 C 101.582031 140.9375 103.082031 141.179688 104.480469 141.476562 C 105.820312 141.765625 107.214844 141.988281 108.003906 141.589844 C 108.902344 141.144531 109.480469 139.894531 110.042969 138.683594 C 110.605469 137.46875 111.230469 136.121094 112.269531 135.464844 C 113.109375 134.941406 114.214844 134.875 115.191406 134.875 C 115.496094 134.875 115.816406 134.875 116.128906 134.875 C 116.441406 134.875 116.746094 134.875 117.046875 134.875 C 117.960938 134.875 118.980469 134.808594 119.621094 134.320312 C 120.421875 133.714844 120.761719 132.378906 121.09375 131.089844 C 121.425781 129.792969 121.800781 128.347656 122.699219 127.515625 C 123.59375 126.683594 125.015625 126.464844 126.382812 126.238281 C 127.695312 126.027344 129.050781 125.808594 129.726562 125.066406 C 130.398438 124.320312 130.496094 122.949219 130.582031 121.621094 C 130.671875 120.230469 130.769531 118.796875 131.507812 117.816406 C 132.25 116.832031 133.59375 116.351562 134.898438 115.886719 C 136.195312 115.417969 137.441406 114.972656 137.972656 114.097656 C 138.503906 113.230469 138.328125 111.886719 138.183594 110.566406 C 138.023438 109.179688 137.855469 107.75 138.402344 106.636719 C 138.953125 105.527344 140.179688 104.820312 141.371094 104.136719 C 142.5625 103.457031 143.714844 102.769531 144.074219 101.824219 C 144.441406 100.878906 144.027344 99.585938 143.628906 98.316406 C 143.21875 96.984375 142.792969 95.605469 143.128906 94.414062 C 143.460938 93.226562 144.546875 92.304688 145.578125 91.398438 C 146.609375 90.492188 147.628906 89.613281 147.816406 88.613281 C 148 87.617188 147.351562 86.433594 146.746094 85.265625 C 146.09375 84.027344 145.417969 82.761719 145.527344 81.511719 C 145.636719 80.257812 146.527344 79.183594 147.382812 78.101562 C 148.242188 77.023438 149.078125 75.960938 149.078125 74.945312 C 149.078125 73.925781 148.214844 72.835938 147.382812 71.789062 C 146.550781 70.742188 145.636719 69.585938 145.527344 68.371094 C 145.417969 67.164062 146.09375 65.875 146.746094 64.621094 C 147.367188 63.457031 148.003906 62.246094 147.816406 61.269531 C 147.621094 60.296875 146.582031 59.367188 145.578125 58.488281 C 144.574219 57.609375 143.445312 56.640625 143.128906 55.472656 C 142.808594 54.300781 143.21875 52.902344 143.632812 51.574219 C 144.027344 50.304688 144.433594 48.992188 144.074219 48.066406 C 143.714844 47.136719 142.523438 46.425781 141.371094 45.75 C 140.222656 45.074219 138.945312 44.324219 138.402344 43.25 C 137.859375 42.179688 138.023438 40.714844 138.183594 39.324219 C 138.339844 38 138.5 36.632812 137.972656 35.785156 C 137.445312 34.941406 136.152344 34.46875 134.902344 34 C 133.597656 33.535156 132.25 33.046875 131.511719 32.066406 C 130.777344 31.089844 130.679688 29.652344 130.582031 28.261719 C 130.496094 26.933594 130.402344 25.558594 129.730469 24.820312 C 129.054688 24.082031 127.699219 23.859375 126.386719 23.644531 C 125.019531 23.421875 123.605469 23.195312 122.699219 22.371094 C 121.792969 21.542969 121.441406 20.148438 121.097656 18.796875 C 120.765625 17.503906 120.425781 16.167969 119.625 15.582031 C 118.980469 15.09375 117.960938 15.027344 117.042969 15.027344 C 116.746094 15.027344 116.441406 15.027344 116.128906 15.042969 L 115.195312 15.042969 C 114.222656 15.042969 113.113281 14.976562 112.269531 14.453125 C 111.238281 13.804688 110.632812 12.503906 110.046875 11.234375 C 109.460938 9.96875 108.90625 8.773438 108.003906 8.324219 C 107.21875 7.925781 105.824219 8.152344 104.480469 8.4375 C 103.082031 8.738281 101.589844 8.976562 100.574219 8.578125 C 99.441406 8.136719 98.605469 6.976562 97.804688 5.847656 C 97 4.71875 96.226562 3.632812 95.257812 3.347656 C 94.363281 3.089844 93.054688 3.601562 91.824219 4.113281 C 90.597656 4.628906 89.199219 5.207031 88 4.984375 C 86.796875 4.757812 85.78125 3.777344 84.800781 2.816406 C 83.816406 1.859375 82.835938 0.933594 81.824219 0.839844 C 80.8125 0.746094 79.691406 1.5 78.605469 2.226562 C 77.4375 2.988281 76.230469 3.785156 74.988281 3.785156 C 73.742188 3.785156 72.542969 2.988281 71.371094 2.226562 C 70.269531 1.511719 69.152344 0.746094 68.152344 0.839844 C 67.152344 0.933594 66.144531 1.890625 65.179688 2.816406 C 64.214844 3.746094 63.15625 4.761719 61.980469 4.984375 C 60.800781 5.203125 59.441406 4.65625 58.15625 4.113281 C 56.925781 3.601562 55.613281 3.09375 54.722656 3.347656 C 53.753906 3.621094 52.945312 4.75 52.175781 5.847656 C 51.402344 6.941406 50.535156 8.214844 49.402344 8.652344 C 48.386719 9.050781 46.890625 8.8125 45.488281 8.511719 C 44.152344 8.226562 42.753906 8 41.964844 8.394531 C 41.066406 8.84375 40.484375 10.097656 39.925781 11.308594 C 39.363281 12.519531 38.738281 13.871094 37.699219 14.523438 C 36.859375 15.050781 35.746094 15.121094 34.777344 15.121094 C 34.464844 15.121094 34.152344 15.121094 33.839844 15.121094 C 33.527344 15.121094 33.226562 15.121094 32.925781 15.121094 C 32.011719 15.121094 30.988281 15.183594 30.347656 15.675781 C 29.546875 16.28125 29.207031 17.617188 28.875 18.886719 C 28.519531 20.234375 28.167969 21.628906 27.273438 22.457031 C 26.382812 23.292969 24.953125 23.53125 23.585938 23.734375 C 22.277344 23.949219 20.917969 24.167969 20.246094 24.910156 C 19.566406 25.652344 19.480469 27.023438 19.390625 28.355469 C 19.296875 29.714844 19.191406 31.152344 18.480469 32.144531 C 17.769531 33.136719 16.398438 33.605469 15.09375 34.074219 C 13.789062 34.542969 12.546875 34.988281 12.019531 35.839844 C 11.488281 36.699219 11.664062 38.058594 11.808594 39.378906 C 11.964844 40.761719 12.136719 42.195312 11.585938 43.308594 C 11.035156 44.417969 9.808594 45.125 8.621094 45.808594 C 7.425781 46.492188 6.277344 47.179688 5.914062 48.121094 C 5.550781 49.066406 5.964844 50.363281 6.355469 51.628906 C 6.769531 52.964844 7.199219 54.339844 6.863281 55.527344 C 6.523438 56.71875 5.441406 57.640625 4.414062 58.550781 C 3.386719 59.457031 2.363281 60.332031 2.179688 61.332031 C 1.996094 62.324219 2.636719 63.515625 3.246094 64.6875 C 3.898438 65.925781 4.574219 67.191406 4.457031 68.433594 C 4.347656 69.683594 3.464844 70.761719 2.605469 71.847656 C 1.753906 72.929688 0.917969 73.988281 0.917969 75.003906 C 0.917969 76.015625 1.777344 77.113281 2.605469 78.164062 C 3.441406 79.21875 4.351562 80.363281 4.457031 81.570312 C 4.570312 82.785156 3.898438 84.074219 3.238281 85.320312 C 2.621094 86.488281 1.984375 87.699219 2.175781 88.675781 C 2.367188 89.652344 3.402344 90.582031 4.410156 91.457031 C 5.417969 92.339844 6.542969 93.304688 6.859375 94.476562 C 7.175781 95.648438 6.769531 97.046875 6.355469 98.375 C 5.957031 99.644531 5.550781 100.957031 5.910156 101.878906 C 6.269531 102.804688 7.460938 103.523438 8.613281 104.195312 C 9.769531 104.867188 11.039062 105.625 11.582031 106.714844 C 12.125 107.804688 11.960938 109.25 11.804688 110.644531 C 11.648438 111.964844 11.488281 113.328125 12.011719 114.179688 C 12.535156 115.027344 13.839844 115.5 15.089844 115.964844 C 16.339844 116.429688 17.742188 116.917969 18.472656 117.894531 C 19.203125 118.871094 19.3125 120.308594 19.402344 121.703125 C 19.496094 123.027344 19.589844 124.40625 20.261719 125.144531 C 20.933594 125.882812 22.289062 126.105469 23.601562 126.316406 C 24.96875 126.535156 26.386719 126.765625 27.289062 127.59375 C 28.195312 128.421875 28.550781 129.8125 28.894531 131.164062 C 29.238281 132.519531 29.566406 133.796875 30.363281 134.402344 C 31.003906 134.886719 32.023438 134.957031 32.9375 134.957031 C 33.238281 134.957031 33.542969 134.957031 33.847656 134.9375 C 34.15625 134.921875 34.480469 134.9375 34.792969 134.9375 C 35.765625 134.9375 36.875 135.007812 37.714844 135.535156 C 38.75 136.179688 39.355469 137.480469 39.941406 138.75 C 40.527344 140.015625 41.082031 141.210938 41.980469 141.660156 C 42.769531 142.058594 44.164062 141.832031 45.503906 141.542969 C 46.902344 141.246094 48.402344 141.003906 49.414062 141.402344 C 50.546875 141.839844 51.378906 143.011719 52.179688 144.136719 C 52.988281 145.261719 53.761719 146.347656 54.734375 146.636719 C 55.625 146.886719 56.933594 146.382812 58.164062 145.863281 C 59.394531 145.34375 60.792969 144.773438 61.988281 144.996094 C 63.183594 145.21875 64.210938 146.207031 65.203125 147.164062 C 66.199219 148.121094 67.167969 149.050781 68.175781 149.140625 C 69.183594 149.234375 70.308594 148.480469 71.394531 147.753906 C 72.554688 146.921875 73.761719 146.125 74.988281 146.125 Z M 74.988281 146.125 "/>
<path style=" stroke:none;fill-rule:nonzero;fill:rgb(92.941177%,62.352943%,38.039216%);fill-opacity:1;" d="M 77.527344 87.589844 C 77.527344 87.589844 77.457031 87.511719 77.324219 87.386719 C 77.144531 87.214844 76.949219 87.054688 76.746094 86.910156 C 76.621094 86.816406 76.480469 86.722656 76.328125 86.632812 C 76.175781 86.542969 76.007812 86.457031 75.832031 86.371094 C 75.746094 86.328125 75.65625 86.289062 75.5625 86.25 L 75.421875 86.195312 L 75.277344 86.144531 C 75.183594 86.109375 75.082031 86.085938 74.988281 86.054688 C 74.890625 86.019531 74.785156 86.003906 74.6875 85.988281 C 74.585938 85.96875 74.480469 85.941406 74.378906 85.933594 L 74.226562 85.917969 C 74.175781 85.914062 74.125 85.914062 74.074219 85.917969 L 73.773438 85.917969 C 73.671875 85.910156 73.574219 85.910156 73.476562 85.917969 C 73.382812 85.917969 73.285156 85.925781 73.191406 85.941406 L 73.054688 85.941406 L 72.921875 85.964844 C 72.746094 85.988281 72.566406 86.03125 72.433594 86.066406 L 72.214844 86.128906 L 72.117188 86.160156 L 72.023438 86.183594 C 71.90625 86.230469 71.800781 86.265625 71.714844 86.300781 L 71.453125 86.410156 L 71.433594 86.410156 L 71.691406 86.289062 C 71.773438 86.246094 71.882812 86.203125 72 86.160156 C 72.117188 86.113281 72.253906 86.066406 72.402344 86.015625 L 72.640625 85.949219 L 72.902344 85.894531 L 73.035156 85.871094 L 73.175781 85.851562 C 73.269531 85.851562 73.367188 85.824219 73.46875 85.824219 C 73.566406 85.816406 73.664062 85.816406 73.761719 85.824219 L 74.074219 85.824219 C 74.285156 85.832031 74.492188 85.859375 74.699219 85.902344 L 75.007812 85.972656 C 75.109375 86.003906 75.207031 86.03125 75.308594 86.066406 L 75.453125 86.117188 L 75.59375 86.175781 C 75.691406 86.210938 75.78125 86.257812 75.871094 86.296875 C 76.042969 86.378906 76.214844 86.472656 76.375 86.574219 C 76.527344 86.667969 76.667969 86.765625 76.796875 86.859375 C 76.925781 86.949219 77.035156 87.046875 77.128906 87.136719 C 77.226562 87.21875 77.308594 87.292969 77.371094 87.363281 C 77.503906 87.488281 77.574219 87.570312 77.574219 87.570312 C 77.574219 87.578125 77.578125 87.582031 77.578125 87.582031 C 77.582031 87.585938 77.582031 87.589844 77.582031 87.59375 C 77.582031 87.601562 77.582031 87.605469 77.578125 87.609375 C 77.578125 87.613281 77.574219 87.613281 77.574219 87.617188 C 77.566406 87.621094 77.558594 87.625 77.554688 87.621094 C 77.550781 87.621094 77.546875 87.621094 77.539062 87.617188 C 77.535156 87.613281 77.53125 87.613281 77.527344 87.605469 C 77.527344 87.601562 77.527344 87.59375 77.527344 87.589844 Z M 77.527344 87.589844 "/>
<path style=" stroke:none;fill-rule:nonzero;fill:rgb(92.941177%,62.352943%,38.039216%);fill-opacity:1;" d="M 77.523438 87.582031 C 77.484375 87.488281 77.457031 87.394531 77.429688 87.300781 C 77.40625 87.214844 77.375 87.105469 77.347656 86.980469 C 77.316406 86.855469 77.292969 86.707031 77.273438 86.550781 C 77.253906 86.394531 77.230469 86.222656 77.226562 86.042969 C 77.214844 85.851562 77.214844 85.660156 77.226562 85.46875 C 77.226562 85.367188 77.226562 85.269531 77.253906 85.167969 C 77.28125 85.070312 77.253906 85.066406 77.273438 85.015625 C 77.292969 84.964844 77.292969 84.910156 77.300781 84.863281 C 77.300781 84.757812 77.34375 84.652344 77.363281 84.550781 C 77.386719 84.449219 77.417969 84.347656 77.449219 84.246094 C 77.511719 84.042969 77.589844 83.847656 77.683594 83.65625 C 77.707031 83.609375 77.726562 83.558594 77.753906 83.515625 L 77.828125 83.382812 C 77.875 83.292969 77.929688 83.207031 77.980469 83.121094 C 78.027344 83.035156 78.089844 82.957031 78.144531 82.882812 C 78.207031 82.808594 78.199219 82.804688 78.230469 82.769531 L 78.316406 82.660156 C 78.429688 82.519531 78.550781 82.402344 78.675781 82.285156 C 78.792969 82.167969 78.890625 82.074219 78.992188 81.992188 C 79.097656 81.914062 79.175781 81.839844 79.25 81.792969 L 79.488281 81.621094 L 79.503906 81.621094 L 79.28125 81.804688 C 79.210938 81.859375 79.128906 81.9375 79.03125 82.019531 C 79.011719 82.042969 78.988281 82.0625 78.960938 82.082031 L 78.886719 82.15625 L 78.730469 82.316406 C 78.625 82.433594 78.511719 82.558594 78.398438 82.703125 C 78.375 82.738281 78.347656 82.769531 78.316406 82.804688 L 78.238281 82.917969 C 78.183594 82.996094 78.128906 83.078125 78.078125 83.160156 C 78.027344 83.242188 77.976562 83.324219 77.929688 83.414062 L 77.859375 83.550781 L 77.792969 83.6875 L 77.730469 83.828125 L 77.675781 83.96875 C 77.636719 84.066406 77.605469 84.164062 77.574219 84.261719 C 77.535156 84.355469 77.511719 84.460938 77.488281 84.5625 C 77.464844 84.660156 77.441406 84.761719 77.425781 84.863281 C 77.410156 84.960938 77.410156 84.964844 77.394531 85.011719 C 77.386719 85.058594 77.394531 85.117188 77.378906 85.164062 C 77.378906 85.261719 77.378906 85.363281 77.347656 85.457031 C 77.347656 85.652344 77.332031 85.839844 77.347656 86.019531 C 77.367188 86.199219 77.371094 86.375 77.390625 86.523438 C 77.417969 86.769531 77.464844 87.019531 77.527344 87.265625 C 77.574219 87.441406 77.605469 87.535156 77.605469 87.535156 C 77.605469 87.542969 77.605469 87.542969 77.605469 87.546875 C 77.605469 87.554688 77.605469 87.558594 77.605469 87.5625 C 77.601562 87.566406 77.597656 87.570312 77.597656 87.570312 C 77.59375 87.578125 77.589844 87.578125 77.585938 87.582031 C 77.582031 87.582031 77.578125 87.582031 77.574219 87.582031 C 77.570312 87.582031 77.5625 87.582031 77.558594 87.582031 C 77.558594 87.578125 77.550781 87.578125 77.550781 87.570312 C 77.546875 87.566406 77.542969 87.566406 77.542969 87.5625 Z M 77.523438 87.582031 "/>
<path style=" stroke:none;fill-rule:nonzero;fill:rgb(91.764706%,61.176473%,25.490198%);fill-opacity:1;" d="M 68.589844 83.222656 C 68.589844 83.222656 71.84375 80.152344 75.160156 83.492188 C 75.160156 83.488281 72.207031 86.832031 68.589844 83.222656 Z M 68.589844 83.222656 "/>
<path style=" stroke:none;fill-rule:nonzero;fill:rgb(92.941177%,62.352943%,38.039216%);fill-opacity:1;" d="M 78.253906 77.652344 C 78.253906 77.652344 73.972656 78.921875 75.160156 83.488281 C 75.160156 83.488281 79.523438 82.625 78.253906 77.652344 Z M 78.253906 77.652344 "/>
<path style=" stroke:none;fill-rule:nonzero;fill:rgb(91.764706%,61.176473%,25.490198%);fill-opacity:1;" d="M 65.980469 78.769531 C 65.980469 78.769531 69.234375 75.703125 72.550781 79.039062 C 72.550781 79.039062 69.597656 82.386719 65.980469 78.769531 Z M 65.980469 78.769531 "/>
<path style=" stroke:none;fill-rule:nonzero;fill:rgb(92.941177%,62.352943%,38.039216%);fill-opacity:1;" d="M 75.644531 73.222656 C 75.644531 73.222656 71.378906 74.488281 72.550781 79.050781 C 72.550781 79.039062 76.914062 78.179688 75.644531 73.222656 Z M 75.644531 73.222656 "/>
<path style=" stroke:none;fill-rule:nonzero;fill:rgb(91.764706%,61.176473%,25.490198%);fill-opacity:1;" d="M 63.371094 74.320312 C 63.371094 74.320312 66.625 71.253906 69.941406 74.597656 C 69.941406 74.597656 66.988281 77.9375 63.371094 74.320312 Z M 63.371094 74.320312 "/>
<path style=" stroke:none;fill-rule:nonzero;fill:rgb(92.941177%,62.352943%,38.039216%);fill-opacity:1;" d="M 73.035156 68.761719 C 73.035156 68.761719 68.769531 70.03125 69.941406 74.597656 C 69.941406 74.597656 74.304688 73.734375 73.035156 68.761719 Z M 73.035156 68.761719 "/>
<path style=" stroke:none;fill-rule:nonzero;fill:rgb(91.764706%,61.176473%,25.490198%);fill-opacity:1;" d="M 60.769531 69.878906 C 60.769531 69.878906 64.03125 66.808594 67.34375 70.148438 C 67.332031 70.148438 64.382812 73.496094 60.769531 69.878906 Z M 60.769531 69.878906 "/>
<path style=" stroke:none;fill-rule:nonzero;fill:rgb(92.941177%,62.352943%,38.039216%);fill-opacity:1;" d="M 70.433594 64.320312 C 70.433594 64.320312 66.148438 65.585938 67.332031 70.148438 C 67.332031 70.148438 71.695312 69.292969 70.433594 64.320312 Z M 70.433594 64.320312 "/>
<path style=" stroke:none;fill-rule:nonzero;fill:rgb(91.764706%,61.176473%,25.490198%);fill-opacity:1;" d="M 58.152344 65.433594 C 58.152344 65.433594 61.410156 62.367188 64.722656 65.707031 C 64.722656 65.722656 61.777344 69.050781 58.152344 65.433594 Z M 58.152344 65.433594 "/>
<path style=" stroke:none;fill-rule:nonzero;fill:rgb(92.941177%,62.352943%,38.039216%);fill-opacity:1;" d="M 67.824219 59.875 C 67.824219 59.875 63.539062 61.144531 64.722656 65.707031 C 64.722656 65.722656 69.089844 64.847656 67.824219 59.875 Z M 67.824219 59.875 "/>
<path style=" stroke:none;fill-rule:nonzero;fill:rgb(91.764706%,61.176473%,25.490198%);fill-opacity:1;" d="M 55.542969 60.988281 C 55.542969 60.988281 58.800781 57.917969 62.113281 61.261719 C 62.113281 61.261719 59.164062 64.605469 55.542969 60.988281 Z M 55.542969 60.988281 "/>
<path style=" stroke:none;fill-rule:nonzero;fill:rgb(91.764706%,61.176473%,25.490198%);fill-opacity:1;" d="M 57.449219 53.1875 C 57.449219 53.1875 61.785156 54.277344 60.792969 58.902344 C 60.792969 58.886719 56.394531 58.21875 57.449219 53.1875 Z M 57.449219 53.1875 "/>
<path style=" stroke:none;fill-rule:nonzero;fill:rgb(92.941177%,62.352943%,38.039216%);fill-opacity:1;" d="M 65.214844 55.429688 C 65.214844 55.429688 60.933594 56.699219 62.113281 61.261719 C 62.113281 61.261719 66.484375 60.398438 65.214844 55.429688 Z M 65.214844 55.429688 "/>
<path style=" stroke:none;fill-rule:nonzero;fill:rgb(91.764706%,61.176473%,25.490198%);fill-opacity:1;" d="M 77.996094 88.390625 C 77.980469 88.386719 77.972656 88.386719 77.957031 88.378906 C 77.949219 88.375 77.941406 88.363281 77.933594 88.355469 L 60.464844 58.574219 C 60.457031 58.5625 60.457031 58.542969 60.460938 58.527344 C 60.464844 58.507812 60.476562 58.496094 60.492188 58.484375 C 60.496094 58.480469 60.507812 58.476562 60.515625 58.476562 C 60.523438 58.472656 60.535156 58.476562 60.542969 58.476562 C 60.550781 58.480469 60.558594 58.480469 60.566406 58.488281 C 60.574219 58.496094 60.582031 58.503906 60.582031 58.507812 L 78.050781 88.285156 C 78.0625 88.296875 78.066406 88.316406 78.058594 88.332031 C 78.054688 88.351562 78.042969 88.363281 78.027344 88.378906 C 78.019531 88.382812 78.003906 88.386719 77.996094 88.390625 Z M 77.996094 88.390625 "/>
<path style=" stroke:none;fill-rule:nonzero;fill:rgb(92.941177%,62.352943%,38.039216%);fill-opacity:1;" d="M 80.234375 87.042969 C 80.261719 86.980469 80.28125 86.917969 80.300781 86.851562 C 80.351562 86.675781 80.390625 86.503906 80.417969 86.324219 C 80.4375 86.207031 80.449219 86.089844 80.457031 85.96875 C 80.457031 85.84375 80.457031 85.707031 80.457031 85.566406 C 80.457031 85.5 80.457031 85.429688 80.457031 85.359375 C 80.457031 85.285156 80.457031 85.285156 80.457031 85.25 C 80.457031 85.214844 80.457031 85.179688 80.457031 85.144531 C 80.457031 85.105469 80.433594 84.996094 80.417969 84.925781 C 80.402344 84.855469 80.386719 84.777344 80.363281 84.710938 C 80.34375 84.644531 80.324219 84.566406 80.300781 84.496094 C 80.289062 84.464844 80.273438 84.425781 80.265625 84.394531 L 80.179688 84.191406 C 80.179688 84.160156 80.148438 84.125 80.132812 84.09375 C 80.121094 84.0625 80.066406 83.96875 80.035156 83.910156 C 80 83.847656 79.964844 83.789062 79.925781 83.734375 L 79.875 83.652344 C 79.851562 83.625 79.832031 83.597656 79.816406 83.574219 C 79.742188 83.464844 79.664062 83.375 79.59375 83.292969 L 79.480469 83.175781 L 79.433594 83.117188 L 79.382812 83.066406 C 79.316406 83.007812 79.261719 82.949219 79.214844 82.90625 L 79.058594 82.773438 L 79.21875 82.898438 C 79.273438 82.9375 79.332031 82.988281 79.402344 83.050781 C 79.472656 83.113281 79.542969 83.183594 79.621094 83.269531 C 79.707031 83.347656 79.695312 83.347656 79.738281 83.402344 C 79.78125 83.453125 79.816406 83.492188 79.855469 83.542969 L 79.917969 83.621094 C 79.941406 83.652344 79.949219 83.679688 79.972656 83.707031 C 79.996094 83.738281 80.050781 83.820312 80.082031 83.882812 C 80.113281 83.945312 80.160156 84.007812 80.191406 84.074219 C 80.222656 84.136719 80.222656 84.136719 80.242188 84.167969 L 80.28125 84.273438 C 80.34375 84.410156 80.394531 84.554688 80.433594 84.699219 C 80.453125 84.773438 80.472656 84.847656 80.484375 84.917969 C 80.5 84.988281 80.515625 85.070312 80.527344 85.144531 C 80.53125 85.21875 80.527344 85.214844 80.527344 85.25 L 80.527344 85.363281 C 80.527344 85.433594 80.527344 85.507812 80.527344 85.578125 C 80.53125 85.714844 80.53125 85.851562 80.527344 85.988281 C 80.527344 86.113281 80.496094 86.234375 80.480469 86.34375 C 80.460938 86.453125 80.433594 86.554688 80.414062 86.644531 C 80.394531 86.734375 80.367188 86.8125 80.347656 86.875 C 80.324219 86.9375 80.300781 87.003906 80.277344 87.066406 C 80.273438 87.070312 80.269531 87.074219 80.269531 87.074219 C 80.265625 87.074219 80.261719 87.074219 80.257812 87.074219 C 80.253906 87.074219 80.253906 87.074219 80.25 87.074219 C 80.246094 87.074219 80.246094 87.070312 80.246094 87.066406 C 80.242188 87.066406 80.238281 87.0625 80.234375 87.058594 C 80.234375 87.050781 80.234375 87.050781 80.234375 87.042969 Z M 80.234375 87.042969 "/>
<path style=" stroke:none;fill-rule:nonzero;fill:rgb(92.941177%,62.352943%,38.039216%);fill-opacity:1;" d="M 80.242188 87.039062 L 80.390625 86.886719 L 80.566406 86.734375 C 80.640625 86.675781 80.71875 86.613281 80.8125 86.550781 C 80.90625 86.484375 81.011719 86.417969 81.121094 86.355469 C 81.238281 86.289062 81.355469 86.226562 81.476562 86.175781 L 81.675781 86.089844 L 81.777344 86.054688 L 81.886719 86.019531 C 81.957031 85.996094 82.03125 85.984375 82.101562 85.964844 C 82.175781 85.949219 82.246094 85.933594 82.320312 85.921875 C 82.472656 85.898438 82.621094 85.882812 82.777344 85.882812 L 82.996094 85.882812 L 83.207031 85.902344 C 83.277344 85.902344 83.347656 85.917969 83.414062 85.929688 L 83.511719 85.929688 L 83.609375 85.953125 C 83.730469 85.980469 83.847656 86.011719 83.964844 86.054688 C 84.0625 86.085938 84.160156 86.125 84.253906 86.164062 C 84.332031 86.203125 84.410156 86.230469 84.464844 86.265625 L 84.648438 86.363281 L 84.464844 86.277344 C 84.402344 86.246094 84.328125 86.222656 84.246094 86.183594 L 84.179688 86.160156 L 83.957031 86.085938 C 83.851562 86.058594 83.734375 86.019531 83.601562 86 L 83.511719 85.984375 L 83.410156 85.984375 C 83.34375 85.972656 83.277344 85.964844 83.207031 85.957031 C 83.136719 85.953125 83.066406 85.953125 82.996094 85.957031 L 82.566406 85.957031 L 82.34375 85.988281 L 82.128906 86.03125 C 82.058594 86.03125 81.984375 86.0625 81.917969 86.082031 L 81.8125 86.117188 L 81.710938 86.15625 C 81.644531 86.175781 81.582031 86.203125 81.511719 86.230469 C 81.386719 86.289062 81.265625 86.339844 81.160156 86.40625 C 81.046875 86.46875 80.941406 86.53125 80.847656 86.589844 C 80.699219 86.691406 80.558594 86.796875 80.421875 86.914062 C 80.324219 87 80.273438 87.054688 80.273438 87.054688 C 80.269531 87.054688 80.269531 87.058594 80.265625 87.058594 C 80.261719 87.0625 80.257812 87.0625 80.253906 87.0625 C 80.253906 87.0625 80.25 87.0625 80.246094 87.058594 C 80.246094 87.058594 80.242188 87.054688 80.242188 87.054688 C 80.238281 87.050781 80.234375 87.050781 80.234375 87.046875 C 80.230469 87.042969 80.230469 87.042969 80.230469 87.039062 C 80.230469 87.035156 80.230469 87.03125 80.234375 87.027344 C 80.234375 87.027344 80.238281 87.023438 80.242188 87.023438 Z M 80.242188 87.039062 "/>
<path style=" stroke:none;fill-rule:nonzero;fill:rgb(91.764706%,61.176473%,25.490198%);fill-opacity:1;" d="M 80.136719 79.90625 C 80.136719 79.90625 83.128906 81.007812 82.078125 84.191406 C 82.097656 84.207031 79.007812 83.390625 80.136719 79.90625 Z M 80.136719 79.90625 "/>
<path style=" stroke:none;fill-rule:nonzero;fill:rgb(92.941177%,62.352943%,38.039216%);fill-opacity:1;" d="M 86.769531 84.316406 C 86.769531 84.316406 84.59375 81.980469 82.078125 84.207031 C 82.097656 84.207031 84.027344 86.722656 86.769531 84.316406 Z M 86.769531 84.316406 "/>
<path style=" stroke:none;fill-rule:nonzero;fill:rgb(91.764706%,61.176473%,25.490198%);fill-opacity:1;" d="M 82.117188 76.792969 C 82.117188 76.792969 85.113281 77.890625 84.0625 81.078125 C 84.0625 81.101562 80.984375 80.292969 82.117188 76.792969 Z M 82.117188 76.792969 "/>
<path style=" stroke:none;fill-rule:nonzero;fill:rgb(92.941177%,62.352943%,38.039216%);fill-opacity:1;" d="M 88.753906 81.214844 C 88.753906 81.214844 86.574219 78.878906 84.0625 81.101562 C 84.0625 81.101562 86.003906 83.621094 88.753906 81.214844 Z M 88.753906 81.214844 "/>
<path style=" stroke:none;fill-rule:nonzero;fill:rgb(91.764706%,61.176473%,25.490198%);fill-opacity:1;" d="M 84.097656 73.703125 C 84.097656 73.703125 87.089844 74.808594 86.039062 77.988281 C 86.039062 78.003906 82.96875 77.1875 84.097656 73.703125 Z M 84.097656 73.703125 "/>
<path style=" stroke:none;fill-rule:nonzero;fill:rgb(92.941177%,62.352943%,38.039216%);fill-opacity:1;" d="M 90.734375 78.113281 C 90.734375 78.113281 88.550781 75.777344 86.039062 78.003906 C 86.039062 78.003906 87.988281 80.523438 90.734375 78.113281 Z M 90.734375 78.113281 "/>
<path style=" stroke:none;fill-rule:nonzero;fill:rgb(91.764706%,61.176473%,25.490198%);fill-opacity:1;" d="M 86.082031 70.601562 C 86.082031 70.601562 89.070312 71.707031 88.023438 74.886719 C 88.023438 74.902344 84.9375 74.089844 86.082031 70.601562 Z M 86.082031 70.601562 "/>
<path style=" stroke:none;fill-rule:nonzero;fill:rgb(92.941177%,62.352943%,38.039216%);fill-opacity:1;" d="M 92.71875 75.003906 C 92.71875 75.003906 90.535156 72.671875 88.023438 74.902344 C 88.023438 74.902344 89.972656 77.421875 92.71875 75.003906 Z M 92.71875 75.003906 "/>
<path style=" stroke:none;fill-rule:nonzero;fill:rgb(91.764706%,61.176473%,25.490198%);fill-opacity:1;" d="M 88.0625 67.503906 C 88.0625 67.503906 91.054688 68.605469 90.003906 71.792969 C 90.003906 71.792969 86.929688 70.988281 88.0625 67.503906 Z M 88.0625 67.503906 "/>
<path style=" stroke:none;fill-rule:nonzero;fill:rgb(92.941177%,62.352943%,38.039216%);fill-opacity:1;" d="M 94.695312 71.910156 C 94.695312 71.910156 92.515625 69.574219 90.003906 71.800781 C 90.003906 71.792969 91.949219 74.320312 94.695312 71.910156 Z M 94.695312 71.910156 "/>
<path style=" stroke:none;fill-rule:nonzero;fill:rgb(91.764706%,61.176473%,25.490198%);fill-opacity:1;" d="M 90.042969 64.402344 C 90.042969 64.402344 93.035156 65.503906 91.988281 68.691406 C 91.988281 68.699219 88.914062 67.882812 90.042969 64.402344 Z M 90.042969 64.402344 "/>
<path style=" stroke:none;fill-rule:nonzero;fill:rgb(91.764706%,61.176473%,25.490198%);fill-opacity:1;" d="M 95.601562 63.117188 C 95.601562 63.117188 96.308594 66.242188 93.058594 67.089844 C 93.0625 67.089844 92.078125 64.050781 95.601562 63.117188 Z M 95.601562 63.117188 "/>
<path style=" stroke:none;fill-rule:nonzero;fill:rgb(92.941177%,62.352943%,38.039216%);fill-opacity:1;" d="M 96.664062 68.808594 C 96.664062 68.808594 94.480469 66.472656 91.972656 68.699219 C 91.988281 68.699219 93.933594 71.222656 96.664062 68.808594 Z M 96.664062 68.808594 "/>
<path style=" stroke:none;fill-rule:nonzero;fill:rgb(91.764706%,61.176473%,25.490198%);fill-opacity:1;" d="M 79.878906 87.601562 C 79.878906 87.59375 79.875 87.585938 79.875 87.578125 C 79.875 87.566406 79.878906 87.558594 79.878906 87.550781 L 93.152344 66.792969 C 93.160156 66.78125 93.171875 66.777344 93.183594 66.777344 C 93.199219 66.777344 93.210938 66.78125 93.21875 66.792969 C 93.230469 66.800781 93.230469 66.816406 93.230469 66.824219 C 93.230469 66.839844 93.230469 66.847656 93.21875 66.863281 L 79.964844 87.605469 C 79.953125 87.613281 79.941406 87.617188 79.929688 87.617188 C 79.917969 87.617188 79.90625 87.613281 79.898438 87.605469 C 79.894531 87.605469 79.886719 87.605469 79.878906 87.601562 Z M 79.878906 87.601562 "/>
<path style=" stroke:none;fill-rule:nonzero;fill:rgb(97.647059%,61.176473%,58.431375%);fill-opacity:1;" d="M 64.597656 76.210938 C 64.597656 76.210938 62.535156 74.066406 64.894531 72.417969 C 63.4375 69.394531 67.210938 65.558594 72.488281 65.085938 C 72.445312 62.714844 75.449219 63.230469 75.96875 62.757812 C 76.488281 62.28125 75.753906 61.035156 74.546875 61.550781 C 76.261719 59.269531 79.523438 61.421875 79.394531 63.019531 C 82.097656 62.371094 81.796875 64.914062 81.796875 64.914062 C 81.796875 64.914062 84.027344 64.355469 83.816406 66.59375 C 87.332031 66.164062 86.902344 69.488281 86.902344 69.957031 C 88.832031 69.441406 90.335938 72.375 89.175781 74.601562 C 90.636719 75.769531 88.875 79.085938 83.46875 80.164062 C 78.066406 81.242188 63.867188 82.464844 64.597656 76.210938 Z M 64.597656 76.210938 "/>
<path style=" stroke:none;fill-rule:nonzero;fill:rgb(21.960784%,19.215687%,17.647059%);fill-opacity:1;" d="M 81.683594 63.894531 C 79.917969 65.699219 77.558594 66.800781 75.050781 67 C 79.457031 67.457031 82.945312 64.523438 82.945312 64.523438 Z M 81.683594 63.894531 "/>
<path style=" stroke:none;fill-rule:nonzero;fill:rgb(21.960784%,19.215687%,17.647059%);fill-opacity:1;" d="M 62.972656 75.167969 C 62.972656 75.167969 67.289062 76.726562 71.8125 76.238281 C 67.296875 78.027344 60.679688 75.792969 60.679688 75.792969 Z M 62.972656 75.167969 "/>
<path style=" stroke:none;fill-rule:nonzero;fill:rgb(21.960784%,19.215687%,17.647059%);fill-opacity:1;" d="M 86.863281 68.601562 C 86.230469 69.566406 85.390625 70.382812 84.414062 70.988281 C 83.433594 71.597656 82.335938 71.980469 81.191406 72.113281 C 86.035156 72.347656 87.855469 69.527344 87.855469 69.527344 Z M 86.863281 68.601562 "/>
<path style=" stroke:none;fill-rule:nonzero;fill:rgb(21.960784%,19.215687%,17.647059%);fill-opacity:1;" d="M 72.855469 63.894531 C 72.855469 63.894531 74.539062 65.722656 76.484375 65.46875 C 73.738281 66.136719 70.875 64.695312 70.875 64.695312 Z M 72.855469 63.894531 "/>
<path style=" stroke:none;fill-rule:nonzero;fill:rgb(21.960784%,19.215687%,17.647059%);fill-opacity:1;" d="M 89.582031 73.097656 C 89.582031 73.097656 88.519531 75.597656 83.542969 75.792969 C 88.480469 76.308594 90.539062 74.722656 90.539062 74.722656 Z M 89.582031 73.097656 "/>
<path style=" stroke:none;fill-rule:nonzero;fill:rgb(21.960784%,19.215687%,17.647059%);fill-opacity:1;" d="M 64.066406 69.355469 C 66.066406 71.769531 71.375 73.726562 77.960938 72.925781 C 70.191406 74.191406 65.097656 73.285156 62.519531 71.234375 C 63.324219 68.664062 64.066406 69.355469 64.066406 69.355469 Z M 64.066406 69.355469 "/>
<path style=" stroke:none;fill-rule:nonzero;fill:rgb(21.960784%,19.215687%,17.647059%);fill-opacity:1;" d="M 73.835938 62.667969 C 76.539062 63.683594 77.390625 62.128906 76.71875 61.503906 C 76.046875 60.871094 74.550781 61.550781 74.550781 61.550781 Z M 73.835938 62.667969 "/>
<path style=" stroke:none;fill-rule:nonzero;fill:rgb(21.960784%,19.215687%,17.647059%);fill-opacity:1;" d="M 83.933594 64.554688 C 83.933594 64.554688 83.582031 67.613281 80.539062 68.238281 C 84.253906 67.800781 85.074219 66.058594 85.074219 66.058594 Z M 83.933594 64.554688 "/>
<path style=" stroke:none;fill-rule:nonzero;fill:rgb(95.686275%,83.529413%,69.803923%);fill-opacity:1;" d="M 66.324219 78.144531 L 68.921875 78.144531 L 70.582031 78.546875 L 72.128906 78.066406 L 73.058594 78.546875 L 74.238281 78.144531 L 75.253906 78.546875 L 76.628906 78.066406 L 78.003906 78.546875 L 79.015625 78.144531 L 80.199219 78.546875 L 81.128906 78.066406 L 82.679688 78.546875 L 84.335938 78.144531 L 86.53125 78.304688 L 88.902344 77.496094 C 88.902344 77.496094 85.855469 86.863281 84.84375 90.332031 C 82.3125 91.707031 70.949219 91.707031 68.417969 90.332031 C 67.402344 86.863281 64.714844 77.707031 64.714844 77.707031 Z M 66.324219 78.144531 "/>
<path style=" stroke:none;fill-rule:nonzero;fill:rgb(21.960784%,19.215687%,17.647059%);fill-opacity:1;" d="M 76.628906 91.691406 C 73.535156 91.691406 69.707031 91.410156 68.25 90.625 L 68.125 90.554688 L 68.085938 90.417969 C 67.074219 86.949219 64.382812 77.792969 64.382812 77.792969 L 64.210938 77.199219 L 66.371094 77.796875 L 68.957031 77.796875 L 70.566406 78.1875 L 72.160156 77.6875 L 73.085938 78.171875 L 74.246094 77.773438 L 75.257812 78.175781 L 76.628906 77.691406 L 77.996094 78.175781 L 79.011719 77.773438 L 80.175781 78.171875 L 81.097656 77.6875 L 82.6875 78.1875 L 84.308594 77.792969 L 86.488281 77.953125 L 89.4375 76.941406 L 89.230469 77.601562 C 89.199219 77.691406 86.171875 87 85.171875 90.425781 L 85.132812 90.566406 L 85.003906 90.632812 C 83.550781 91.410156 79.726562 91.691406 76.628906 91.691406 Z M 68.699219 90.078125 C 69.910156 90.644531 72.964844 91.003906 76.628906 91.003906 C 80.292969 91.003906 83.347656 90.648438 84.558594 90.078125 C 85.433594 87.089844 87.664062 80.183594 88.363281 78.03125 L 86.582031 78.636719 L 84.371094 78.476562 L 82.675781 78.890625 L 81.167969 78.421875 L 80.234375 78.910156 L 79.035156 78.496094 L 78.019531 78.90625 L 76.636719 78.417969 L 75.25 78.90625 L 74.238281 78.496094 L 73.035156 78.910156 L 72.101562 78.421875 L 70.597656 78.890625 L 68.886719 78.472656 L 66.285156 78.472656 L 65.21875 78.179688 C 65.816406 80.246094 67.820312 87.0625 68.699219 90.078125 Z M 68.699219 90.078125 "/>
<path style=" stroke:none;fill-rule:nonzero;fill:rgb(21.960784%,19.215687%,17.647059%);fill-opacity:1;" d="M 87.855469 77.839844 L 83.933594 87.285156 L 86.03125 78.253906 L 86.53125 78.289062 Z M 87.855469 77.839844 "/>
<path style=" stroke:none;fill-rule:nonzero;fill:rgb(21.960784%,19.215687%,17.647059%);fill-opacity:1;" d="M 83.558594 78.320312 L 81.191406 87.042969 L 81.824219 78.261719 L 82.679688 78.535156 Z M 83.558594 78.320312 "/>
<path style=" stroke:none;fill-rule:nonzero;fill:rgb(21.960784%,19.215687%,17.647059%);fill-opacity:1;" d="M 78.003906 78.535156 L 76.71875 86.761719 L 75.253906 78.535156 L 76.628906 77.683594 Z M 78.003906 78.535156 "/>
<path style=" stroke:none;fill-rule:nonzero;fill:rgb(21.960784%,19.215687%,17.647059%);fill-opacity:1;" d="M 71.042969 78.363281 L 71.667969 86.761719 L 69.75 78.363281 L 70.261719 78.628906 Z M 71.042969 78.363281 "/>
<path style=" stroke:none;fill-rule:nonzero;fill:rgb(21.960784%,19.215687%,17.647059%);fill-opacity:1;" d="M 65.582031 77.9375 L 69.148438 87.042969 L 66.945312 78.140625 L 66.324219 78.144531 Z M 65.582031 77.9375 "/>
</g>
</svg>
