<?xml version="1.0" encoding="UTF-8"?>
<svg xmlns="http://www.w3.org/2000/svg" xmlns:xlink="http://www.w3.org/1999/xlink" width="150px" height="150px" viewBox="0 0 150 150" version="1.1">
<g id="surface1">
<path style=" stroke:none;fill-rule:nonzero;fill:rgb(93.725491%,25.490198%,21.176471%);fill-opacity:1;" d="M 75 150 C 33.644531 150 0 116.355469 0 75.003906 C 0 33.648438 33.644531 0 75 0 C 116.355469 0 150 33.644531 150 75.003906 C 150 116.359375 116.351562 150 75 150 Z M 75 0.890625 C 34.136719 0.890625 0.890625 34.136719 0.890625 75.003906 C 0.890625 115.867188 34.136719 149.109375 75 149.109375 C 115.863281 149.109375 149.109375 115.863281 149.109375 75.003906 C 149.109375 34.140625 115.863281 0.890625 75 0.890625 Z M 75 0.890625 "/>
<path style=" stroke:none;fill-rule:nonzero;fill:rgb(93.725491%,25.490198%,21.176471%);fill-opacity:1;" d="M 75 140.175781 C 39.0625 140.175781 9.828125 110.933594 9.828125 75.003906 C 9.828125 39.066406 39.0625 9.828125 75 9.828125 C 110.9375 9.828125 140.171875 39.066406 140.171875 75.003906 C 140.171875 110.941406 110.929688 140.175781 75 140.175781 Z M 75 10.71875 C 39.554688 10.71875 10.71875 39.558594 10.71875 75.003906 C 10.71875 110.445312 39.554688 139.28125 75 139.28125 C 110.445312 139.28125 139.28125 110.441406 139.28125 75.003906 C 139.28125 39.558594 110.445312 10.71875 75 10.71875 Z M 75 10.71875 "/>
<path style=" stroke:none;fill-rule:nonzero;fill:rgb(0%,0%,0%);fill-opacity:1;" d="M 36.851562 35.785156 L 35.816406 34.777344 C 35.707031 34.652344 35.554688 34.574219 35.390625 34.554688 C 35.226562 34.539062 35.058594 34.582031 34.925781 34.679688 L 34.226562 35.394531 C 34.128906 35.535156 34.09375 35.699219 34.117188 35.863281 C 34.140625 36.027344 34.222656 36.179688 34.351562 36.285156 L 38.488281 40.3125 C 38.59375 40.433594 38.742188 40.503906 38.902344 40.519531 C 39.0625 40.53125 39.21875 40.480469 39.347656 40.378906 L 40.042969 39.65625 C 40.144531 39.53125 40.191406 39.371094 40.171875 39.214844 C 40.152344 39.050781 40.074219 38.90625 39.957031 38.804688 L 38.761719 37.640625 L 39.074219 37.316406 L 40.265625 38.480469 C 40.457031 38.660156 40.570312 38.910156 40.585938 39.167969 C 40.597656 39.433594 40.511719 39.691406 40.339844 39.890625 L 39.613281 40.644531 C 39.417969 40.832031 39.160156 40.933594 38.890625 40.933594 C 38.621094 40.933594 38.363281 40.832031 38.171875 40.644531 L 34.035156 36.617188 C 33.839844 36.429688 33.730469 36.175781 33.722656 35.90625 C 33.710938 35.636719 33.808594 35.375 33.988281 35.175781 L 34.691406 34.457031 C 34.882812 34.269531 35.140625 34.167969 35.410156 34.167969 C 35.679688 34.167969 35.9375 34.269531 36.132812 34.457031 L 37.167969 35.464844 Z M 36.851562 35.785156 "/>
<path style=" stroke:none;fill-rule:nonzero;fill:rgb(0%,0%,0%);fill-opacity:1;" d="M 43.621094 33.535156 L 42.269531 34.625 L 43.519531 36.882812 L 43.195312 37.144531 L 39.433594 30.199219 L 39.613281 30.050781 L 39.746094 29.953125 L 39.933594 29.796875 L 45.945312 34.925781 L 45.609375 35.207031 Z M 43.367188 33.308594 L 39.9375 30.351562 L 42.113281 34.332031 Z M 43.367188 33.308594 "/>
<path style=" stroke:none;fill-rule:nonzero;fill:rgb(0%,0%,0%);fill-opacity:1;" d="M 47.253906 29.003906 L 47.378906 30.347656 L 48.957031 32.84375 L 48.582031 33.074219 L 44.441406 26.496094 L 44.816406 26.269531 L 46.921875 29.601562 L 46.507812 25.195312 L 46.882812 24.949219 L 47.191406 28.476562 L 51.121094 31.484375 L 50.746094 31.726562 Z M 47.253906 29.003906 "/>
<path style=" stroke:none;fill-rule:nonzero;fill:rgb(0%,0%,0%);fill-opacity:1;" d="M 56.292969 28.449219 L 56.433594 28.746094 L 54.292969 29.78125 L 54.191406 29.828125 L 53.886719 29.972656 L 50.503906 22.96875 L 53.019531 21.757812 L 53.164062 22.054688 L 51.058594 23.070312 L 52.414062 25.878906 L 54.113281 25.058594 L 54.253906 25.359375 L 52.558594 26.175781 L 54.148438 29.480469 Z M 56.292969 28.449219 "/>
<path style=" stroke:none;fill-rule:nonzero;fill:rgb(0%,0%,0%);fill-opacity:1;" d="M 65.863281 21.144531 L 65.945312 21.46875 L 65.292969 21.628906 L 66.019531 24.535156 C 66.078125 24.792969 66.039062 25.066406 65.902344 25.292969 C 65.765625 25.523438 65.542969 25.6875 65.289062 25.753906 L 64.425781 25.964844 C 64.164062 26.03125 63.890625 25.988281 63.664062 25.851562 C 63.4375 25.714844 63.273438 25.496094 63.207031 25.238281 L 62.613281 22.863281 C 62.59375 22.707031 62.605469 22.546875 62.65625 22.402344 C 62.710938 22.25 62.796875 22.117188 62.910156 22.003906 C 62.769531 21.945312 62.644531 21.851562 62.550781 21.734375 C 62.453125 21.617188 62.382812 21.480469 62.347656 21.332031 L 61.917969 19.613281 C 61.855469 19.359375 61.890625 19.097656 62.015625 18.871094 C 62.144531 18.648438 62.355469 18.480469 62.601562 18.40625 L 62.636719 18.40625 L 62.753906 18.378906 L 63.285156 18.242188 C 63.542969 18.179688 63.816406 18.21875 64.042969 18.355469 C 64.269531 18.496094 64.433594 18.714844 64.5 18.972656 L 64.800781 20.160156 L 64.363281 20.269531 L 64.066406 19.082031 C 64.039062 18.921875 63.953125 18.777344 63.820312 18.683594 C 63.691406 18.585938 63.527344 18.542969 63.367188 18.566406 L 62.714844 18.726562 C 62.5625 18.785156 62.4375 18.894531 62.367188 19.042969 C 62.300781 19.191406 62.289062 19.359375 62.339844 19.511719 L 62.796875 21.21875 C 62.824219 21.378906 62.910156 21.523438 63.042969 21.621094 C 63.171875 21.71875 63.335938 21.757812 63.496094 21.738281 Z M 64.855469 21.738281 L 63.457031 22.082031 C 63.304688 22.144531 63.183594 22.253906 63.113281 22.398438 C 63.042969 22.542969 63.027344 22.710938 63.078125 22.863281 L 63.648438 25.121094 C 63.675781 25.28125 63.765625 25.425781 63.894531 25.519531 C 64.027344 25.617188 64.191406 25.660156 64.355469 25.636719 L 65.222656 25.421875 C 65.371094 25.363281 65.496094 25.246094 65.5625 25.101562 C 65.632812 24.957031 65.644531 24.789062 65.597656 24.636719 Z M 64.855469 21.738281 "/>
<path style=" stroke:none;fill-rule:nonzero;fill:rgb(0%,0%,0%);fill-opacity:1;" d="M 76.851562 18.894531 L 76.792969 17.457031 C 76.792969 17.128906 76.550781 16.761719 76.21875 16.773438 L 75.21875 16.808594 C 74.886719 16.808594 74.679688 17.183594 74.695312 17.535156 L 74.90625 23.316406 C 74.902344 23.476562 74.957031 23.628906 75.066406 23.75 C 75.167969 23.871094 75.324219 23.945312 75.480469 23.953125 L 76.480469 23.914062 C 76.640625 23.894531 76.785156 23.808594 76.882812 23.683594 C 76.980469 23.554688 77.027344 23.394531 77.007812 23.234375 L 76.949219 21.574219 L 77.398438 21.574219 L 77.460938 23.234375 C 77.472656 23.5 77.386719 23.753906 77.214844 23.953125 C 77.042969 24.152344 76.800781 24.277344 76.542969 24.304688 L 75.496094 24.34375 C 75.222656 24.34375 74.957031 24.234375 74.761719 24.042969 C 74.570312 23.851562 74.457031 23.589844 74.457031 23.316406 L 74.246094 17.550781 C 74.230469 17.28125 74.324219 17.019531 74.507812 16.820312 C 74.6875 16.621094 74.9375 16.496094 75.207031 16.480469 L 76.207031 16.445312 C 76.476562 16.441406 76.734375 16.542969 76.925781 16.730469 C 77.125 16.917969 77.234375 17.171875 77.246094 17.441406 L 77.296875 18.882812 Z M 76.851562 18.894531 "/>
<path style=" stroke:none;fill-rule:nonzero;fill:rgb(0%,0%,0%);fill-opacity:1;" d="M 84.671875 16.792969 L 84.101562 23.539062 C 84.082031 23.808594 83.957031 24.058594 83.753906 24.234375 C 83.550781 24.414062 83.285156 24.503906 83.019531 24.488281 L 82.019531 24.402344 C 81.75 24.375 81.503906 24.238281 81.332031 24.027344 C 81.164062 23.816406 81.082031 23.546875 81.105469 23.277344 L 81.679688 16.546875 L 82.125 16.578125 L 81.558594 23.347656 C 81.53125 23.679688 81.714844 24.070312 82.046875 24.097656 L 83.046875 24.1875 C 83.371094 24.214844 83.625 23.855469 83.652344 23.527344 L 84.21875 16.761719 Z M 84.671875 16.792969 "/>
<path style=" stroke:none;fill-rule:nonzero;fill:rgb(0%,0%,0%);fill-opacity:1;" d="M 91.925781 19.058594 L 91.46875 21.234375 C 91.410156 21.492188 91.25 21.714844 91.03125 21.855469 C 90.808594 21.996094 90.539062 22.046875 90.28125 21.988281 L 88.742188 21.679688 L 88.011719 25.160156 L 87.570312 25.070312 L 89.175781 17.457031 L 89.507812 17.527344 L 89.617188 17.550781 L 91.121094 17.867188 C 91.25 17.894531 91.378906 17.945312 91.488281 18.019531 C 91.597656 18.089844 91.695312 18.183594 91.769531 18.296875 C 91.847656 18.40625 91.898438 18.53125 91.925781 18.660156 C 91.949219 18.792969 91.949219 18.925781 91.925781 19.058594 Z M 91.023438 21.144531 L 91.480469 18.964844 C 91.519531 18.8125 91.503906 18.652344 91.429688 18.511719 C 91.355469 18.371094 91.230469 18.261719 91.082031 18.210938 L 89.558594 17.890625 L 88.828125 21.375 L 90.347656 21.699219 C 90.511719 21.714844 90.675781 21.664062 90.800781 21.558594 C 90.925781 21.457031 91.007812 21.308594 91.023438 21.144531 Z M 91.023438 21.144531 "/>
<path style=" stroke:none;fill-rule:nonzero;fill:rgb(0%,0%,0%);fill-opacity:1;" d="M 97.933594 22.382812 L 98.398438 21.019531 C 98.464844 20.863281 98.472656 20.691406 98.417969 20.535156 C 98.363281 20.382812 98.253906 20.25 98.105469 20.171875 L 97.160156 19.847656 C 96.847656 19.742188 96.515625 20.023438 96.40625 20.339844 L 94.527344 25.792969 C 94.460938 25.941406 94.457031 26.105469 94.515625 26.253906 C 94.574219 26.410156 94.6875 26.527344 94.832031 26.597656 L 95.78125 26.921875 C 95.9375 26.960938 96.109375 26.933594 96.25 26.855469 C 96.390625 26.769531 96.492188 26.628906 96.53125 26.472656 L 97.070312 24.902344 L 97.496094 25.050781 L 96.957031 26.621094 C 96.875 26.871094 96.703125 27.078125 96.472656 27.207031 C 96.238281 27.328125 95.96875 27.359375 95.714844 27.289062 L 94.726562 26.949219 C 94.472656 26.855469 94.269531 26.667969 94.152344 26.421875 C 94.039062 26.179688 94.027344 25.902344 94.113281 25.644531 L 95.996094 20.1875 C 96.085938 19.941406 96.265625 19.738281 96.503906 19.621094 C 96.742188 19.5 97.015625 19.476562 97.269531 19.554688 L 98.21875 19.878906 C 98.464844 19.972656 98.671875 20.160156 98.785156 20.40625 C 98.902344 20.648438 98.914062 20.925781 98.832031 21.183594 L 98.359375 22.546875 Z M 97.933594 22.382812 "/>
<path style=" stroke:none;fill-rule:nonzero;fill:rgb(0%,0%,0%);fill-opacity:1;" d="M 102.882812 27.515625 L 101.316406 26.761719 L 99.785156 28.867188 L 99.40625 28.683594 L 104.085938 22.289062 L 104.296875 22.386719 L 104.441406 22.460938 L 104.667969 22.566406 L 102.585938 30.207031 L 102.1875 30.011719 Z M 102.980469 27.191406 L 104.1875 22.824219 L 101.527344 26.488281 Z M 102.980469 27.191406 "/>
<path style=" stroke:none;fill-rule:nonzero;fill:rgb(0%,0%,0%);fill-opacity:1;" d="M 108.523438 28.886719 L 107.359375 29.570312 L 105.769531 32.058594 L 105.394531 31.824219 L 109.59375 25.269531 L 109.972656 25.5 L 107.851562 28.828125 L 111.671875 26.574219 L 112.046875 26.8125 L 108.988281 28.597656 L 107.957031 33.429688 L 107.578125 33.183594 Z M 108.523438 28.886719 "/>
<path style=" stroke:none;fill-rule:nonzero;fill:rgb(0%,0%,0%);fill-opacity:1;" d="M 112.878906 36.828125 L 112.667969 37.082031 L 110.824219 35.582031 L 110.738281 35.511719 L 110.476562 35.296875 L 115.363281 29.277344 L 117.53125 31.03125 L 117.324219 31.285156 L 115.503906 29.816406 L 113.5625 32.226562 L 115.023438 33.410156 L 114.816406 33.671875 L 113.351562 32.480469 L 111.03125 35.347656 Z M 112.878906 36.828125 "/>
<path style=" stroke:none;fill-rule:nonzero;fill:rgb(0%,0%,0%);fill-opacity:1;" d="M 118.875 39.542969 L 117.769531 40.613281 C 117.574219 40.800781 117.316406 40.902344 117.050781 40.902344 C 116.785156 40.902344 116.527344 40.800781 116.335938 40.613281 L 115.53125 39.792969 C 115.355469 39.59375 115.261719 39.332031 115.273438 39.070312 C 115.285156 38.804688 115.394531 38.550781 115.585938 38.367188 L 116.714844 37.285156 L 117.027344 37.609375 L 115.902344 38.691406 C 115.777344 38.796875 115.691406 38.949219 115.667969 39.113281 C 115.648438 39.277344 115.691406 39.441406 115.785156 39.578125 L 116.5625 40.378906 C 116.699219 40.472656 116.863281 40.519531 117.027344 40.503906 C 117.191406 40.484375 117.347656 40.40625 117.457031 40.285156 L 118.566406 39.199219 C 118.875 38.898438 118.847656 38.667969 118.78125 38.21875 C 118.714844 37.714844 118.632812 37.121094 118.53125 36.582031 C 118.464844 36.371094 118.457031 36.140625 118.507812 35.921875 C 118.566406 35.703125 118.679688 35.503906 118.835938 35.347656 L 119.789062 34.414062 C 119.980469 34.226562 120.238281 34.125 120.507812 34.125 C 120.773438 34.125 121.03125 34.226562 121.222656 34.414062 L 121.855469 35.0625 C 122.035156 35.261719 122.128906 35.523438 122.117188 35.789062 C 122.109375 36.054688 121.996094 36.308594 121.804688 36.496094 L 120.707031 37.605469 L 120.390625 37.28125 L 121.519531 36.199219 C 121.644531 36.089844 121.730469 35.941406 121.753906 35.777344 C 121.777344 35.613281 121.734375 35.445312 121.640625 35.3125 L 121.007812 34.667969 C 120.875 34.566406 120.707031 34.523438 120.542969 34.542969 C 120.378906 34.558594 120.230469 34.640625 120.121094 34.765625 L 119.246094 35.621094 C 118.871094 35.996094 118.921875 36.230469 118.992188 36.652344 C 119.0625 37.066406 119.1875 37.941406 119.269531 38.367188 C 119.320312 38.582031 119.3125 38.804688 119.242188 39.011719 C 119.171875 39.21875 119.042969 39.402344 118.875 39.542969 Z M 118.875 39.542969 "/>
<path style=" stroke:none;fill-rule:evenodd;fill:rgb(0%,29.803923%,36.470589%);fill-opacity:1;" d="M 67.410156 62.183594 C 67.03125 60.882812 65.769531 60.070312 63.582031 59.761719 C 61.960938 59.527344 60.308594 59.617188 58.714844 60.023438 C 57.4375 60.355469 56.207031 60.878906 55.078125 61.570312 L 54.050781 62.351562 C 53.703125 62.609375 53.34375 62.863281 52.972656 63.101562 C 52.277344 62.992188 51.667969 62.898438 51.148438 62.816406 L 49.855469 62.636719 C 48.089844 62.53125 46.320312 62.738281 44.628906 63.25 C 42.160156 63.933594 40.171875 64.84375 38.660156 65.976562 C 38.300781 66.269531 37.230469 67.3125 35.457031 69.101562 C 33.765625 68.839844 32.035156 68.90625 30.371094 69.304688 C 26.640625 70.335938 23.816406 72.636719 21.894531 76.203125 C 19.976562 79.777344 19.542969 83.410156 20.59375 87.113281 C 21.5 90.402344 23.304688 92.722656 26.003906 94.082031 C 28.699219 95.4375 31.707031 95.660156 35.027344 94.742188 C 38.960938 93.660156 42.03125 91.910156 44.246094 89.503906 C 46.082031 87.445312 47.597656 84.511719 48.78125 80.699219 C 49.113281 79.582031 49.296875 77.746094 49.339844 75.191406 C 49.339844 73.941406 49.40625 72.886719 49.5 72.011719 C 49.558594 71.296875 49.710938 70.59375 49.957031 69.917969 C 51.144531 66.796875 52.15625 64.855469 52.996094 64.097656 C 54.183594 64.378906 55.125 65.78125 55.820312 68.300781 C 56.277344 69.96875 55.75 72.050781 54.222656 74.546875 C 53.59375 74.183594 52.851562 74.0625 52.136719 74.210938 C 51.316406 74.4375 50.980469 74.832031 51.140625 75.402344 C 51.195312 75.566406 51.296875 75.710938 51.425781 75.824219 C 51.558594 75.941406 51.722656 76.015625 51.894531 76.050781 C 52.257812 76.167969 52.644531 76.183594 53.019531 76.09375 C 53.226562 76.035156 53.394531 75.976562 53.574219 75.917969 C 53.722656 75.867188 53.863281 75.804688 54.003906 75.734375 C 54.367188 76.472656 54.660156 77.234375 54.882812 78.027344 C 55.457031 80.109375 55.425781 81.652344 54.792969 82.660156 C 53.019531 83.128906 51.335938 83.875 49.800781 84.863281 C 47.699219 86.277344 46.875 87.792969 47.320312 89.410156 C 47.640625 90.566406 48.679688 90.929688 50.441406 90.496094 C 51.527344 90.226562 52.570312 89.796875 53.535156 89.226562 C 54.46875 88.675781 55.3125 87.988281 56.039062 87.183594 C 57.519531 85.566406 58.425781 83.5 58.613281 81.308594 C 60.117188 80.121094 61.421875 78.695312 62.476562 77.089844 L 62.097656 76.867188 C 61.207031 78.328125 60.035156 79.597656 58.644531 80.601562 C 57.976562 78.160156 56.8125 76.351562 55.15625 75.175781 C 55.75 74.605469 56.292969 73.988281 56.78125 73.328125 C 57.148438 72.839844 57.480469 72.328125 57.769531 71.789062 C 58.429688 70.515625 58.566406 69.027344 58.144531 67.65625 C 57.824219 66.585938 57.175781 65.644531 56.289062 64.972656 L 54.972656 64.109375 C 54.566406 63.847656 54.175781 63.589844 53.804688 63.335938 C 55.714844 61.832031 57.386719 60.886719 58.828125 60.496094 C 60.277344 60.117188 61.789062 60.023438 63.277344 60.21875 C 65.316406 60.488281 66.492188 61.199219 66.808594 62.355469 C 66.972656 62.945312 66.746094 63.578125 66.125 64.238281 C 65.890625 64.496094 65.628906 64.738281 65.347656 64.949219 C 65.058594 65.175781 64.738281 65.359375 64.402344 65.503906 L 64.894531 65.78125 C 65.621094 65.445312 66.261719 64.957031 66.777344 64.347656 C 67.375 63.597656 67.574219 62.882812 67.386719 62.183594 Z M 53.671875 75.113281 C 53.414062 75.289062 53.128906 75.425781 52.824219 75.511719 C 52.3125 75.652344 52.003906 75.542969 51.910156 75.183594 C 51.84375 74.949219 51.964844 74.808594 52.285156 74.710938 C 52.660156 74.605469 53.136719 74.734375 53.683594 75.113281 Z M 43.425781 76.777344 C 43.546875 77.480469 43.535156 78.207031 43.390625 78.90625 C 42.746094 79.972656 41.710938 80.75 40.503906 81.070312 C 38.886719 81.519531 37.484375 81.351562 36.300781 80.574219 C 35.0625 79.71875 34.191406 78.433594 33.855469 76.972656 C 33.488281 75.683594 33.515625 74.320312 33.933594 73.050781 C 34.089844 72.558594 34.289062 72.074219 34.53125 71.617188 C 34.820312 71.054688 35.183594 70.410156 35.621094 69.679688 C 39.792969 70.683594 42.394531 73.050781 43.425781 76.777344 Z M 54.800781 83.269531 L 53.523438 86.441406 C 52.4375 88.425781 51.15625 89.597656 49.679688 89.945312 C 48.589844 90.21875 47.949219 89.996094 47.746094 89.277344 C 47.371094 87.914062 48.054688 86.628906 49.800781 85.433594 C 51.332031 84.441406 53.027344 83.707031 54.800781 83.269531 Z M 52.316406 63.746094 C 50.316406 65.300781 48.710938 67.308594 47.628906 69.605469 C 46.480469 71.855469 45.769531 74.304688 45.515625 76.824219 C 45.386719 78.074219 45.292969 79.035156 45.230469 79.703125 C 45.164062 80.367188 45.121094 80.761719 45.097656 80.878906 C 44.785156 82.957031 44.128906 84.96875 43.152344 86.832031 C 42.246094 88.519531 41.082031 90.050781 39.699219 91.378906 C 38.339844 92.714844 36.675781 93.703125 34.847656 94.253906 C 31.660156 95.136719 28.800781 94.953125 26.277344 93.714844 C 23.621094 92.410156 21.851562 90.167969 20.980469 86.996094 C 19.996094 83.425781 20.445312 79.898438 22.332031 76.417969 C 24.21875 72.941406 26.921875 70.699219 30.4375 69.699219 C 31.957031 69.277344 33.5625 69.246094 35.097656 69.613281 C 34.257812 71.066406 33.765625 71.949219 33.632812 72.246094 C 33.027344 73.777344 32.9375 75.460938 33.378906 77.042969 C 33.863281 78.800781 34.730469 80.09375 35.992188 80.925781 C 36.660156 81.378906 37.425781 81.675781 38.222656 81.792969 C 39.023438 81.910156 39.839844 81.84375 40.613281 81.601562 C 41.53125 81.28125 42.398438 80.832031 43.191406 80.269531 C 43.152344 81.109375 42.941406 81.933594 42.578125 82.691406 C 42.207031 83.453125 41.6875 84.125 41.046875 84.675781 C 40.015625 85.65625 39.046875 86.199219 38.136719 86.304688 L 38.289062 86.847656 C 39.097656 86.628906 39.859375 86.273438 40.542969 85.792969 C 41.210938 85.320312 41.800781 84.746094 42.292969 84.089844 C 42.792969 83.417969 43.1875 82.683594 43.472656 81.894531 C 43.761719 81.085938 43.941406 80.242188 44.003906 79.382812 C 45.023438 77.582031 45.355469 76.078125 44.996094 74.871094 C 44.855469 74.300781 44.597656 73.765625 44.246094 73.296875 C 44.15625 73.226562 44.074219 73.152344 43.996094 73.074219 C 43.863281 72.945312 43.660156 72.734375 43.390625 72.449219 L 43.011719 72.683594 C 43.90625 73.714844 44.414062 74.5 44.535156 75.046875 C 44.636719 75.542969 44.621094 76.058594 44.496094 76.550781 L 44.085938 78.074219 C 44.019531 77.621094 43.96875 77.285156 43.949219 77.054688 C 43.929688 76.824219 43.914062 76.695312 43.902344 76.679688 C 42.902344 73.054688 40.246094 70.605469 35.945312 69.332031 C 36.964844 68.089844 38.136719 66.972656 39.425781 66.003906 C 41.058594 64.933594 42.859375 64.144531 44.75 63.664062 C 47.230469 62.957031 49.855469 62.988281 52.316406 63.746094 Z M 52.316406 63.746094 "/>
<path style=" stroke:none;fill-rule:evenodd;fill:rgb(0%,29.803923%,36.470589%);fill-opacity:1;" d="M 78.933594 72.535156 L 78.558594 72.347656 C 78.128906 73.296875 77.652344 74.28125 77.136719 75.3125 C 76.617188 76.34375 76.03125 77.417969 75.371094 78.539062 C 73.566406 81.722656 72.230469 83.433594 71.355469 83.675781 C 70.789062 83.832031 70.433594 83.652344 70.292969 83.136719 C 70.195312 82.777344 70.25 82.128906 70.460938 81.183594 L 72.882812 70.320312 C 72.683594 70.550781 72.519531 70.800781 72.386719 71.070312 C 72.164062 71.449219 72.011719 71.675781 71.898438 71.703125 C 71.628906 71.769531 71.347656 71.808594 71.070312 71.824219 C 70.785156 71.832031 70.503906 71.867188 70.226562 71.929688 C 69.996094 71.996094 69.777344 72.261719 69.578125 72.734375 C 69.269531 72.488281 68.902344 72.328125 68.511719 72.261719 C 68.128906 72.195312 67.730469 72.230469 67.355469 72.355469 C 65.199219 72.953125 63.449219 74.347656 62.121094 76.542969 C 60.792969 78.730469 60.433594 80.90625 61.058594 83.058594 C 61.753906 85.566406 62.960938 86.589844 64.683594 86.125 C 66.019531 85.753906 67.035156 84.671875 67.730469 82.878906 C 68.832031 84.183594 70.015625 84.652344 71.277344 84.304688 C 73.152344 83.785156 75.707031 79.871094 78.941406 72.5625 Z M 69.191406 73.566406 C 69.320312 74.03125 68.691406 76.859375 67.308594 82.058594 C 66.777344 84.03125 65.996094 85.160156 64.96875 85.441406 C 64.449219 85.589844 64.074219 85.238281 63.839844 84.382812 C 63.457031 83 63.671875 80.921875 64.480469 78.148438 C 65.394531 75.046875 66.613281 73.292969 68.128906 72.886719 C 68.652344 72.714844 69.007812 72.953125 69.191406 73.566406 Z M 69.191406 73.566406 "/>
<path style=" stroke:none;fill-rule:evenodd;fill:rgb(0%,29.803923%,36.470589%);fill-opacity:1;" d="M 89.871094 53.457031 C 89.820312 53.28125 89.722656 53.121094 89.59375 52.996094 C 89.460938 52.871094 89.296875 52.777344 89.121094 52.738281 C 88.753906 52.617188 88.363281 52.609375 87.992188 52.703125 C 86.324219 53.164062 84.285156 56.464844 81.886719 62.605469 C 80.953125 64.933594 80.195312 66.96875 79.605469 68.707031 C 79.101562 70.164062 78.683594 71.652344 78.367188 73.160156 C 77.992188 75.003906 77.617188 76.777344 77.238281 78.476562 C 76.859375 80.175781 76.484375 81.835938 76.109375 83.453125 C 76.347656 83.214844 76.550781 82.949219 76.722656 82.660156 C 76.96875 82.261719 77.160156 82.039062 77.292969 82.007812 C 77.5 81.964844 77.710938 81.957031 77.921875 81.980469 C 78.144531 81.996094 78.375 81.984375 78.59375 81.9375 C 79.058594 81.808594 79.421875 81.222656 79.691406 80.183594 C 79.917969 79.011719 80.125 78.015625 80.316406 77.175781 C 80.503906 76.335938 80.667969 75.695312 80.808594 75.207031 L 82.234375 74.832031 C 83.019531 74.675781 83.4375 74.683594 83.488281 74.863281 C 83.542969 75.042969 83.488281 75.824219 83.277344 77.117188 C 83.085938 78.308594 83.035156 79.082031 83.132812 79.445312 C 83.183594 79.644531 83.28125 79.835938 83.417969 79.996094 C 83.558594 80.160156 83.734375 80.28125 83.925781 80.363281 C 84.339844 80.542969 84.804688 80.570312 85.238281 80.441406 C 86.367188 80.128906 87.707031 78.46875 89.257812 75.46875 C 89.511719 75.007812 89.875 74.230469 90.355469 73.132812 C 90.832031 72.035156 91.425781 70.625 92.136719 68.90625 L 91.761719 68.722656 C 88.847656 75.492188 86.9375 79 86.035156 79.25 C 85.753906 79.328125 85.585938 79.25 85.527344 79.058594 C 85.578125 78.421875 85.695312 77.792969 85.878906 77.179688 C 86.160156 76.082031 86.246094 75.351562 86.152344 74.992188 C 86.066406 74.683594 85.691406 74.246094 85.039062 73.679688 C 87.347656 71.519531 88.304688 69.722656 87.90625 68.28125 C 87.628906 67.277344 86.976562 66.917969 85.949219 67.199219 C 84.714844 67.542969 83.277344 68.910156 81.644531 71.296875 C 81.816406 70.722656 81.960938 70.246094 82.082031 69.871094 C 82.199219 69.488281 82.285156 69.222656 82.355469 69.066406 C 83.953125 67.738281 85.691406 65.363281 87.566406 61.945312 C 89.636719 58.109375 90.417969 55.277344 89.914062 53.453125 Z M 88.03125 54.300781 C 88.332031 55.601562 87.925781 57.746094 86.816406 60.734375 C 85.574219 63.957031 84.128906 66.394531 82.480469 68.035156 C 82.542969 66.746094 83.175781 64.136719 84.386719 60.207031 C 85.664062 56.007812 86.667969 53.808594 87.394531 53.609375 C 87.703125 53.523438 87.917969 53.753906 88.046875 54.300781 Z M 85.398438 69.628906 C 85.589844 70.324219 85.425781 71.089844 84.910156 71.921875 C 84.089844 73.253906 82.710938 74.144531 80.777344 74.597656 C 80.910156 73.78125 81.371094 72.742188 82.15625 71.476562 C 82.960938 70.089844 83.699219 69.308594 84.367188 69.121094 C 84.921875 68.972656 85.261719 69.136719 85.394531 69.628906 Z M 85.398438 69.628906 "/>
<path style=" stroke:none;fill-rule:evenodd;fill:rgb(0%,29.803923%,36.470589%);fill-opacity:1;" d="M 103.84375 65.65625 L 103.464844 65.472656 C 103.15625 66.503906 102.769531 67.511719 102.304688 68.480469 C 101.71875 69.675781 101.050781 70.824219 100.304688 71.917969 C 98.320312 74.957031 96.480469 76.710938 94.785156 77.183594 C 94.09375 77.375 93.613281 77 93.351562 76.054688 C 93.128906 75.109375 93.109375 74.121094 93.300781 73.167969 C 94.480469 72.839844 95.859375 72.015625 97.433594 70.695312 C 99.476562 68.972656 100.273438 67.296875 99.824219 65.679688 C 99.753906 65.394531 99.621094 65.128906 99.433594 64.902344 C 99.25 64.671875 99.019531 64.484375 98.753906 64.355469 C 98.230469 64.070312 97.617188 64 97.042969 64.164062 C 95.242188 64.664062 93.613281 65.945312 92.15625 68 C 90.464844 70.402344 89.957031 72.824219 90.632812 75.265625 C 90.746094 75.722656 90.945312 76.148438 91.226562 76.523438 C 91.511719 76.898438 91.867188 77.214844 92.269531 77.449219 C 92.667969 77.683594 93.113281 77.832031 93.566406 77.886719 C 94.027344 77.945312 94.492188 77.90625 94.933594 77.773438 C 96.78125 77.269531 98.726562 75.394531 100.761719 72.132812 C 102.332031 69.597656 103.359375 67.449219 103.835938 65.683594 Z M 97.683594 65.433594 C 97.933594 66.332031 97.523438 67.609375 96.457031 69.253906 C 95.386719 70.902344 94.378906 71.847656 93.421875 72.089844 C 94.324219 67.546875 95.394531 65.109375 96.628906 64.769531 C 97.171875 64.636719 97.519531 64.855469 97.683594 65.433594 Z M 97.683594 65.433594 "/>
<path style=" stroke:none;fill-rule:evenodd;fill:rgb(0%,29.803923%,36.470589%);fill-opacity:1;" d="M 115.214844 62.515625 L 114.839844 62.328125 C 112.519531 68.949219 110.347656 72.535156 108.3125 73.097656 C 107.648438 73.28125 107.214844 73.027344 107.019531 72.34375 C 106.953125 72.089844 107.046875 71.492188 107.320312 70.5625 L 108.929688 64.515625 C 109.210938 63.441406 109.308594 62.738281 109.214844 62.40625 C 109.117188 62.011719 108.875 61.671875 108.539062 61.449219 C 108.382812 61.339844 108.207031 61.265625 108.015625 61.238281 C 107.828125 61.203125 107.632812 61.21875 107.453125 61.269531 C 106.855469 61.503906 106.34375 61.921875 105.996094 62.460938 L 104.128906 65.058594 C 104.738281 63.75 104.941406 62.738281 104.738281 62.019531 C 104.578125 61.433594 104.1875 61.222656 103.570312 61.386719 C 103.007812 61.546875 102.589844 62.035156 102.316406 62.855469 C 102.070312 63.519531 102.023438 64.238281 102.183594 64.925781 C 102.453125 65.902344 102.894531 66.300781 103.515625 66.136719 C 104.03125 65.957031 104.472656 65.617188 104.777344 65.164062 C 105.15625 64.613281 105.433594 64.316406 105.613281 64.269531 C 105.714844 64.238281 105.792969 64.316406 105.839844 64.496094 C 105.917969 64.78125 105.664062 65.964844 105.085938 68.066406 C 104.507812 70.167969 104.316406 71.53125 104.496094 72.089844 C 105.042969 73.960938 105.980469 74.714844 107.316406 74.34375 C 109.296875 73.800781 111.027344 72.160156 112.511719 69.425781 C 113.347656 67.921875 114.25 65.625 115.222656 62.535156 Z M 104.160156 62.207031 C 104.304688 62.722656 104.054688 63.746094 103.410156 65.277344 C 103.128906 65.355469 102.921875 65.179688 102.800781 64.742188 C 102.695312 64.210938 102.730469 63.65625 102.902344 63.136719 C 103.097656 62.449219 103.375 62.050781 103.738281 61.953125 C 103.78125 61.9375 103.828125 61.929688 103.875 61.933594 C 103.921875 61.941406 103.96875 61.949219 104.011719 61.976562 C 104.050781 62 104.085938 62.035156 104.113281 62.074219 C 104.136719 62.113281 104.15625 62.160156 104.160156 62.207031 Z M 104.160156 62.207031 "/>
<path style=" stroke:none;fill-rule:evenodd;fill:rgb(0%,29.803923%,36.470589%);fill-opacity:1;" d="M 129.941406 58.449219 L 129.566406 58.261719 L 125.808594 64.449219 L 123.847656 67.730469 C 123.449219 68.308594 123.066406 68.855469 122.683594 69.378906 C 122.324219 69.878906 121.925781 70.347656 121.496094 70.785156 C 122.65625 67.726562 123.589844 64.582031 124.292969 61.386719 L 125.488281 55.789062 C 125.257812 56.03125 125.070312 56.304688 124.925781 56.605469 C 124.683594 57.035156 124.496094 57.261719 124.371094 57.300781 C 124.132812 57.347656 123.894531 57.355469 123.65625 57.332031 C 123.402344 57.304688 123.148438 57.320312 122.902344 57.371094 C 122.527344 57.484375 122.246094 57.886719 122.082031 58.597656 L 120.03125 66.964844 C 119.769531 68 119.203125 68.933594 118.410156 69.652344 C 117.714844 70.339844 117.203125 70.734375 116.867188 70.824219 C 116.535156 70.914062 116.230469 70.617188 116.03125 69.898438 C 115.90625 69.214844 115.941406 68.507812 116.125 67.832031 L 118.402344 57.746094 C 118.195312 57.992188 118.019531 58.265625 117.875 58.550781 C 117.636719 58.984375 117.449219 59.210938 117.324219 59.246094 C 117.074219 59.296875 116.820312 59.3125 116.570312 59.292969 C 116.292969 59.269531 116.011719 59.292969 115.738281 59.355469 C 115.359375 59.460938 115.078125 59.871094 114.910156 60.578125 L 113.410156 67.300781 C 113.195312 68.144531 113.195312 69.027344 113.410156 69.871094 C 113.886719 71.597656 114.804688 72.265625 116.164062 71.890625 C 117.015625 71.65625 118.097656 70.679688 119.417969 68.957031 L 118.695312 72.644531 C 116.152344 74.308594 114.316406 75.726562 113.183594 76.902344 C 111.539062 78.65625 110.925781 80.285156 111.34375 81.789062 C 111.441406 82.191406 111.628906 82.570312 111.886719 82.894531 C 112.148438 83.222656 112.476562 83.484375 112.847656 83.667969 C 113.605469 84.054688 114.484375 84.132812 115.292969 83.886719 C 116.683594 83.503906 117.8125 82.542969 118.679688 80.996094 C 119.035156 80.320312 119.339844 79.621094 119.59375 78.902344 C 119.898438 78.027344 120.136719 77.136719 120.308594 76.230469 C 120.539062 75.148438 120.730469 74.207031 120.902344 73.414062 C 121.074219 72.621094 121.207031 71.957031 121.308594 71.4375 C 122.371094 70.445312 123.320312 69.332031 124.128906 68.125 C 124.613281 67.371094 125.019531 66.679688 125.355469 66.105469 C 125.691406 65.527344 125.980469 65.058594 126.207031 64.6875 C 128.167969 61.464844 129.421875 59.375 129.96875 58.421875 Z M 118.660156 73.058594 C 118.261719 74.527344 117.917969 75.710938 117.628906 76.621094 C 117.347656 77.527344 117.136719 78.167969 117.019531 78.535156 C 116.035156 81.074219 114.921875 82.511719 113.691406 82.855469 C 112.613281 83.152344 111.921875 82.761719 111.621094 81.679688 C 111.238281 80.292969 111.835938 78.792969 113.40625 77.167969 C 114.042969 76.539062 114.714844 75.945312 115.425781 75.402344 C 116.308594 74.722656 117.386719 73.941406 118.664062 73.058594 Z M 118.660156 73.058594 "/>
<path style=" stroke:none;fill-rule:nonzero;fill:rgb(92.941177%,69.411767%,8.627451%);fill-opacity:1;" d="M 78.152344 26.679688 L 79.808594 30.042969 L 83.515625 30.582031 L 80.835938 33.195312 L 81.46875 36.886719 L 78.152344 35.144531 L 74.835938 36.886719 L 75.464844 33.195312 L 72.785156 30.582031 L 76.496094 30.042969 Z M 78.152344 26.679688 "/>
<path style=" stroke:none;fill-rule:nonzero;fill:rgb(92.941177%,69.411767%,8.627451%);fill-opacity:1;" d="M 90.230469 31.589844 L 91.089844 33.332031 L 93.011719 33.613281 L 91.621094 34.972656 L 91.949219 36.886719 L 90.230469 35.980469 L 88.503906 36.886719 L 88.832031 34.972656 L 87.441406 33.613281 L 89.367188 33.332031 Z M 90.230469 31.589844 "/>
<path style=" stroke:none;fill-rule:nonzero;fill:rgb(92.941177%,69.411767%,8.627451%);fill-opacity:1;" d="M 66.074219 31.589844 L 66.933594 33.332031 L 68.859375 33.613281 L 67.46875 34.972656 L 67.796875 36.886719 L 66.074219 35.980469 L 64.355469 36.886719 L 64.683594 34.972656 L 63.289062 33.613281 L 65.214844 33.332031 Z M 66.074219 31.589844 "/>
<path style=" stroke:none;fill-rule:nonzero;fill:rgb(92.941177%,69.411767%,8.627451%);fill-opacity:1;" d="M 78.152344 122.90625 L 76.496094 119.542969 L 72.785156 119.007812 L 75.464844 116.386719 L 74.835938 112.699219 L 78.152344 114.441406 L 81.46875 112.699219 L 80.835938 116.386719 L 83.515625 119.007812 L 79.808594 119.542969 Z M 78.152344 122.90625 "/>
<path style=" stroke:none;fill-rule:nonzero;fill:rgb(92.941177%,69.411767%,8.627451%);fill-opacity:1;" d="M 66.074219 118 L 65.210938 116.253906 L 63.289062 115.972656 L 64.683594 114.613281 L 64.351562 112.699219 L 66.074219 113.601562 L 67.796875 112.699219 L 67.46875 114.613281 L 68.859375 115.972656 L 66.933594 116.253906 Z M 66.074219 118 "/>
<path style=" stroke:none;fill-rule:nonzero;fill:rgb(92.941177%,69.411767%,8.627451%);fill-opacity:1;" d="M 90.230469 118 L 89.367188 116.253906 L 87.441406 115.972656 L 88.832031 114.613281 L 88.503906 112.699219 L 90.230469 113.601562 L 91.949219 112.699219 L 91.621094 114.613281 L 93.011719 115.972656 L 91.089844 116.253906 Z M 90.230469 118 "/>
<path style=" stroke:none;fill-rule:nonzero;fill:rgb(0%,0%,0%);fill-opacity:1;" d="M 44.863281 118.550781 L 43.550781 117.402344 L 41.523438 119.019531 L 41.207031 118.746094 L 47.410156 113.859375 L 47.582031 114.007812 L 47.707031 114.117188 L 47.886719 114.28125 L 43.855469 121.085938 L 43.527344 120.796875 Z M 45.039062 118.265625 L 47.371094 114.378906 L 43.820312 117.203125 Z M 45.039062 118.265625 "/>
<path style=" stroke:none;fill-rule:nonzero;fill:rgb(0%,0%,0%);fill-opacity:1;" d="M 49.636719 124.847656 L 49.453125 125.121094 L 47.703125 123.953125 L 47.328125 123.699219 L 47.511719 123.425781 L 51.648438 117.238281 L 52.027344 117.492188 L 47.886719 123.675781 Z M 49.636719 124.847656 "/>
<path style=" stroke:none;fill-rule:nonzero;fill:rgb(0%,0%,0%);fill-opacity:1;" d="M 60.746094 122.300781 L 56.257812 128.765625 L 56.160156 128.714844 L 55.851562 128.570312 L 55.753906 128.519531 L 57.636719 122.363281 L 53.957031 127.652344 L 53.859375 127.601562 L 53.550781 127.457031 L 53.453125 127.40625 L 55.738281 119.886719 L 56.144531 120.085938 L 54.167969 126.589844 L 58.039062 121 L 58.449219 121.195312 L 56.46875 127.707031 L 60.335938 122.113281 Z M 60.746094 122.300781 "/>
<path style=" stroke:none;fill-rule:nonzero;fill:rgb(0%,0%,0%);fill-opacity:1;" d="M 63.761719 128.808594 L 62.105469 128.277344 L 60.886719 130.574219 L 60.488281 130.453125 L 64.210938 123.472656 L 64.433594 123.542969 L 64.589844 123.59375 L 64.820312 123.667969 L 63.847656 131.511719 L 63.429688 131.382812 Z M 63.804688 128.476562 L 64.386719 123.980469 L 62.265625 127.988281 Z M 63.804688 128.476562 "/>
<path style=" stroke:none;fill-rule:nonzero;fill:rgb(0%,0%,0%);fill-opacity:1;" d="M 71.75 125.296875 L 69.46875 129.269531 L 68.828125 132.652344 L 68.394531 132.570312 L 69.035156 129.1875 L 68.363281 124.644531 L 68.808594 124.734375 L 69.375 128.605469 L 71.316406 125.222656 Z M 71.75 125.296875 "/>
<path style=" stroke:none;fill-rule:nonzero;fill:rgb(0%,0%,0%);fill-opacity:1;" d="M 77.464844 131.035156 L 77.371094 132.582031 C 77.359375 132.847656 77.242188 133.097656 77.042969 133.28125 C 76.847656 133.464844 76.589844 133.566406 76.324219 133.558594 L 75.195312 133.496094 C 74.933594 133.46875 74.691406 133.339844 74.515625 133.132812 C 74.347656 132.933594 74.261719 132.671875 74.277344 132.402344 L 74.363281 130.851562 L 74.816406 130.878906 L 74.722656 132.425781 C 74.722656 132.757812 74.90625 133.144531 75.238281 133.179688 L 76.347656 133.242188 C 76.675781 133.242188 76.929688 132.902344 76.949219 132.570312 L 77.039062 131.019531 C 77.066406 130.59375 76.882812 130.4375 76.539062 130.152344 C 76.191406 129.867188 75.683594 129.441406 75.25 129.109375 C 75.050781 128.996094 74.890625 128.832031 74.785156 128.628906 C 74.675781 128.433594 74.628906 128.207031 74.644531 127.976562 L 74.71875 126.648438 C 74.730469 126.378906 74.847656 126.128906 75.042969 125.949219 C 75.238281 125.765625 75.5 125.667969 75.769531 125.675781 L 76.667969 125.726562 C 76.9375 125.75 77.183594 125.878906 77.355469 126.085938 C 77.53125 126.285156 77.621094 126.550781 77.601562 126.816406 L 77.511719 128.367188 L 77.058594 128.339844 L 77.152344 126.792969 C 77.171875 126.460938 76.96875 126.074219 76.640625 126.039062 L 75.738281 125.984375 C 75.410156 125.96875 75.164062 126.328125 75.144531 126.660156 L 75.074219 127.878906 C 75.042969 128.417969 75.25 128.550781 75.585938 128.8125 C 75.925781 129.074219 76.597656 129.632812 76.949219 129.894531 C 77.132812 130.015625 77.277344 130.191406 77.371094 130.386719 C 77.464844 130.589844 77.496094 130.8125 77.464844 131.035156 Z M 77.464844 131.035156 "/>
<path style=" stroke:none;fill-rule:nonzero;fill:rgb(0%,0%,0%);fill-opacity:1;" d="M 86.328125 125.574219 L 86.847656 128.648438 L 88.816406 128.316406 L 88.871094 128.640625 L 86.90625 128.976562 L 87.570312 132.910156 L 87.125 132.988281 L 86.460938 129.050781 L 86.40625 128.722656 L 85.878906 125.652344 L 85.832031 125.324219 L 86.273438 125.25 L 88.464844 124.871094 L 88.523438 125.199219 Z M 86.328125 125.574219 "/>
<path style=" stroke:none;fill-rule:nonzero;fill:rgb(0%,0%,0%);fill-opacity:1;" d="M 94.257812 127.375 L 93.058594 127.75 L 94.1875 131.46875 L 93.765625 131.597656 L 91.488281 124.164062 L 91.808594 124.0625 L 91.914062 124.035156 L 93.394531 123.582031 C 93.652344 123.503906 93.921875 123.53125 94.15625 123.652344 C 94.390625 123.777344 94.566406 123.988281 94.644531 124.246094 L 95.199219 126.046875 C 95.265625 126.269531 95.253906 126.507812 95.164062 126.722656 C 95.078125 126.933594 94.921875 127.113281 94.71875 127.226562 L 96.976562 130.613281 L 96.511719 130.75 Z M 92.957031 127.425781 L 94.445312 126.976562 C 94.59375 126.910156 94.707031 126.789062 94.773438 126.636719 C 94.832031 126.488281 94.832031 126.324219 94.777344 126.167969 L 94.222656 124.367188 C 94.191406 124.210938 94.09375 124.074219 93.957031 123.980469 C 93.824219 123.894531 93.660156 123.859375 93.5 123.886719 L 91.996094 124.339844 Z M 92.957031 127.425781 "/>
<path style=" stroke:none;fill-rule:nonzero;fill:rgb(0%,0%,0%);fill-opacity:1;" d="M 103.300781 127.605469 L 103.433594 127.910156 L 101.269531 128.898438 L 101.171875 128.941406 L 100.863281 129.085938 L 97.628906 122.011719 L 100.164062 120.851562 L 100.304688 121.152344 L 98.179688 122.128906 L 99.472656 124.960938 L 101.183594 124.175781 L 101.324219 124.476562 L 99.613281 125.261719 L 101.152344 128.605469 Z M 103.300781 127.605469 "/>
<path style=" stroke:none;fill-rule:nonzero;fill:rgb(0%,0%,0%);fill-opacity:1;" d="M 108.332031 122.125 L 109.160156 123.441406 C 109.304688 123.664062 109.355469 123.9375 109.296875 124.199219 C 109.246094 124.460938 109.09375 124.691406 108.871094 124.84375 L 107.921875 125.457031 C 107.691406 125.582031 107.417969 125.621094 107.160156 125.550781 C 106.902344 125.488281 106.683594 125.324219 106.542969 125.097656 L 105.714844 123.78125 L 106.089844 123.542969 L 106.917969 124.855469 C 106.996094 125.003906 107.125 125.117188 107.277344 125.175781 C 107.433594 125.230469 107.605469 125.226562 107.761719 125.160156 L 108.703125 124.574219 C 108.828125 124.460938 108.910156 124.308594 108.925781 124.144531 C 108.941406 123.976562 108.898438 123.808594 108.800781 123.675781 L 107.972656 122.363281 C 107.746094 121.984375 107.511719 121.984375 107.066406 121.941406 C 106.550781 121.898438 105.957031 121.859375 105.410156 121.835938 C 105.1875 121.855469 104.96875 121.816406 104.769531 121.71875 C 104.570312 121.621094 104.398438 121.472656 104.28125 121.28125 L 103.570312 120.152344 C 103.425781 119.925781 103.375 119.652344 103.429688 119.390625 C 103.480469 119.128906 103.636719 118.898438 103.859375 118.746094 L 104.613281 118.269531 C 104.84375 118.136719 105.121094 118.097656 105.378906 118.164062 C 105.636719 118.226562 105.863281 118.390625 106.003906 118.621094 L 106.828125 119.933594 L 106.449219 120.171875 L 105.625 118.859375 C 105.546875 118.714844 105.417969 118.597656 105.261719 118.542969 C 105.105469 118.488281 104.933594 118.492188 104.78125 118.554688 L 104.03125 119.035156 C 103.902344 119.144531 103.824219 119.296875 103.808594 119.460938 C 103.789062 119.628906 103.835938 119.792969 103.9375 119.925781 L 104.589844 120.960938 C 104.878906 121.417969 105.117188 121.410156 105.542969 121.425781 C 105.972656 121.4375 106.847656 121.503906 107.28125 121.519531 C 107.496094 121.511719 107.710938 121.566406 107.894531 121.671875 C 108.078125 121.777344 108.230469 121.9375 108.332031 122.125 Z M 108.332031 122.125 "/>
<path style=" stroke:none;fill-rule:nonzero;fill:rgb(0%,0%,0%);fill-opacity:1;" d="M 110.769531 113.621094 L 115.78125 119.558594 L 115.4375 119.855469 L 112.859375 116.796875 L 111.160156 118.234375 L 113.738281 121.289062 L 113.394531 121.578125 L 108.378906 115.636719 L 108.722656 115.347656 L 110.945312 117.980469 L 112.644531 116.542969 L 110.421875 113.910156 Z M 110.769531 113.621094 "/>
<path style=" stroke:none;fill-rule:nonzero;fill:rgb(92.941177%,69.411767%,8.627451%);fill-opacity:1;" d="M 77.144531 6.683594 C 77.140625 7.035156 77.035156 7.378906 76.835938 7.671875 C 76.636719 7.964844 76.359375 8.1875 76.035156 8.324219 C 75.707031 8.457031 75.347656 8.488281 75.003906 8.417969 C 74.660156 8.347656 74.34375 8.175781 74.09375 7.925781 C 73.847656 7.675781 73.679688 7.359375 73.613281 7.011719 C 73.542969 6.667969 73.578125 6.308594 73.714844 5.984375 C 73.851562 5.660156 74.082031 5.382812 74.371094 5.1875 C 74.667969 4.992188 75.007812 4.890625 75.359375 4.890625 C 75.597656 4.890625 75.828125 4.9375 76.046875 5.023438 C 76.261719 5.113281 76.460938 5.25 76.625 5.417969 C 76.792969 5.582031 76.925781 5.78125 77.011719 6 C 77.101562 6.214844 77.144531 6.449219 77.144531 6.683594 Z M 77.144531 6.683594 "/>
<path style=" stroke:none;fill-rule:nonzero;fill:rgb(92.941177%,69.411767%,8.627451%);fill-opacity:1;" d="M 62.890625 7.734375 C 62.964844 8.082031 62.933594 8.4375 62.804688 8.765625 C 62.675781 9.09375 62.449219 9.375 62.160156 9.574219 C 61.871094 9.773438 61.523438 9.886719 61.171875 9.886719 C 60.820312 9.894531 60.472656 9.792969 60.179688 9.601562 C 59.882812 9.410156 59.648438 9.136719 59.511719 8.808594 C 59.371094 8.484375 59.332031 8.128906 59.394531 7.78125 C 59.460938 7.433594 59.625 7.113281 59.871094 6.863281 C 60.117188 6.609375 60.433594 6.4375 60.777344 6.363281 C 61.242188 6.261719 61.722656 6.355469 62.117188 6.613281 C 62.515625 6.871094 62.792969 7.273438 62.890625 7.734375 Z M 62.890625 7.734375 "/>
<path style=" stroke:none;fill-rule:nonzero;fill:rgb(92.941177%,69.411767%,8.627451%);fill-opacity:1;" d="M 49.167969 11.722656 C 49.316406 12.042969 49.359375 12.402344 49.300781 12.75 C 49.238281 13.097656 49.078125 13.417969 48.835938 13.675781 C 48.59375 13.929688 48.28125 14.109375 47.933594 14.183594 C 47.59375 14.265625 47.230469 14.238281 46.902344 14.113281 C 46.574219 13.988281 46.289062 13.761719 46.085938 13.476562 C 45.882812 13.191406 45.769531 12.847656 45.761719 12.492188 C 45.753906 12.140625 45.847656 11.792969 46.035156 11.496094 C 46.222656 11.199219 46.496094 10.964844 46.820312 10.820312 C 47.25 10.625 47.742188 10.613281 48.183594 10.785156 C 48.621094 10.953125 48.980469 11.292969 49.167969 11.722656 Z M 49.167969 11.722656 "/>
<path style=" stroke:none;fill-rule:nonzero;fill:rgb(92.941177%,69.411767%,8.627451%);fill-opacity:1;" d="M 36.582031 18.472656 C 36.789062 18.757812 36.90625 19.101562 36.917969 19.453125 C 36.933594 19.804688 36.84375 20.152344 36.660156 20.457031 C 36.472656 20.753906 36.207031 20.996094 35.886719 21.140625 C 35.5625 21.289062 35.207031 21.335938 34.859375 21.285156 C 34.511719 21.230469 34.1875 21.070312 33.929688 20.832031 C 33.667969 20.59375 33.488281 20.28125 33.402344 19.941406 C 33.324219 19.597656 33.347656 19.238281 33.464844 18.90625 C 33.589844 18.574219 33.804688 18.285156 34.089844 18.078125 C 34.472656 17.804688 34.949219 17.691406 35.417969 17.761719 C 35.882812 17.839844 36.300781 18.09375 36.582031 18.472656 Z M 36.582031 18.472656 "/>
<path style=" stroke:none;fill-rule:nonzero;fill:rgb(92.941177%,69.411767%,8.627451%);fill-opacity:1;" d="M 25.667969 27.699219 C 25.929688 27.933594 26.113281 28.246094 26.199219 28.585938 C 26.289062 28.925781 26.269531 29.289062 26.152344 29.621094 C 26.035156 29.949219 25.820312 30.238281 25.535156 30.449219 C 25.253906 30.660156 24.914062 30.78125 24.5625 30.800781 C 24.210938 30.820312 23.863281 30.730469 23.558594 30.550781 C 23.253906 30.371094 23.011719 30.105469 22.863281 29.785156 C 22.710938 29.464844 22.660156 29.113281 22.707031 28.761719 C 22.761719 28.414062 22.914062 28.089844 23.148438 27.824219 C 23.304688 27.652344 23.496094 27.511719 23.707031 27.410156 C 23.917969 27.308594 24.144531 27.253906 24.378906 27.238281 C 24.613281 27.230469 24.847656 27.261719 25.070312 27.34375 C 25.292969 27.421875 25.496094 27.542969 25.667969 27.699219 Z M 25.667969 27.699219 "/>
<path style=" stroke:none;fill-rule:nonzero;fill:rgb(92.941177%,69.411767%,8.627451%);fill-opacity:1;" d="M 16.921875 38.988281 C 17.226562 39.164062 17.472656 39.425781 17.628906 39.746094 C 17.785156 40.058594 17.839844 40.414062 17.792969 40.765625 C 17.746094 41.113281 17.597656 41.441406 17.367188 41.707031 C 17.136719 41.972656 16.828125 42.160156 16.488281 42.253906 C 16.148438 42.34375 15.789062 42.332031 15.453125 42.214844 C 15.121094 42.105469 14.828125 41.894531 14.613281 41.613281 C 14.398438 41.335938 14.273438 40.996094 14.25 40.644531 C 14.226562 40.292969 14.308594 39.941406 14.484375 39.636719 C 14.722656 39.230469 15.113281 38.933594 15.566406 38.808594 C 16.027344 38.691406 16.511719 38.75 16.921875 38.988281 Z M 16.921875 38.988281 "/>
<path style=" stroke:none;fill-rule:nonzero;fill:rgb(92.941177%,69.411767%,8.627451%);fill-opacity:1;" d="M 10.691406 51.851562 C 11.027344 51.964844 11.324219 52.171875 11.535156 52.449219 C 11.753906 52.730469 11.882812 53.066406 11.90625 53.417969 C 11.933594 53.769531 11.855469 54.121094 11.675781 54.425781 C 11.503906 54.730469 11.242188 54.980469 10.925781 55.136719 C 10.613281 55.292969 10.257812 55.355469 9.910156 55.3125 C 9.558594 55.269531 9.230469 55.121094 8.960938 54.890625 C 8.695312 54.660156 8.503906 54.355469 8.410156 54.015625 C 8.316406 53.675781 8.324219 53.316406 8.4375 52.980469 C 8.511719 52.757812 8.628906 52.550781 8.785156 52.378906 C 8.933594 52.199219 9.121094 52.054688 9.332031 51.949219 C 9.542969 51.84375 9.769531 51.78125 10.003906 51.765625 C 10.238281 51.746094 10.472656 51.777344 10.691406 51.851562 Z M 10.691406 51.851562 "/>
<path style=" stroke:none;fill-rule:nonzero;fill:rgb(92.941177%,69.411767%,8.627451%);fill-opacity:1;" d="M 7.285156 65.726562 C 7.636719 65.765625 7.964844 65.90625 8.238281 66.132812 C 8.507812 66.355469 8.707031 66.660156 8.808594 66.996094 C 8.90625 67.335938 8.902344 67.691406 8.796875 68.03125 C 8.691406 68.367188 8.488281 68.667969 8.21875 68.886719 C 7.941406 69.109375 7.609375 69.246094 7.257812 69.277344 C 6.90625 69.308594 6.554688 69.234375 6.242188 69.066406 C 5.933594 68.898438 5.679688 68.640625 5.519531 68.328125 C 5.355469 68.015625 5.289062 67.660156 5.324219 67.3125 C 5.375 66.839844 5.609375 66.414062 5.976562 66.113281 C 6.34375 65.816406 6.816406 65.679688 7.285156 65.726562 Z M 7.285156 65.726562 "/>
<path style=" stroke:none;fill-rule:nonzero;fill:rgb(92.941177%,69.411767%,8.627451%);fill-opacity:1;" d="M 6.835938 80.011719 C 7.1875 79.972656 7.542969 80.035156 7.855469 80.199219 C 8.167969 80.363281 8.425781 80.609375 8.597656 80.921875 C 8.765625 81.230469 8.839844 81.582031 8.8125 81.933594 C 8.785156 82.285156 8.648438 82.621094 8.429688 82.894531 C 8.207031 83.171875 7.910156 83.371094 7.574219 83.480469 C 7.238281 83.585938 6.878906 83.59375 6.539062 83.492188 C 6.203125 83.394531 5.902344 83.199219 5.671875 82.929688 C 5.445312 82.660156 5.300781 82.328125 5.265625 81.980469 C 5.210938 81.511719 5.347656 81.039062 5.644531 80.667969 C 5.9375 80.300781 6.367188 80.0625 6.835938 80.011719 Z M 6.835938 80.011719 "/>
<path style=" stroke:none;fill-rule:nonzero;fill:rgb(92.941177%,69.411767%,8.627451%);fill-opacity:1;" d="M 9.367188 94.074219 C 9.699219 93.964844 10.058594 93.957031 10.402344 94.050781 C 10.738281 94.140625 11.042969 94.332031 11.277344 94.597656 C 11.507812 94.867188 11.652344 95.195312 11.699219 95.542969 C 11.742188 95.894531 11.679688 96.25 11.523438 96.5625 C 11.367188 96.878906 11.117188 97.140625 10.8125 97.316406 C 10.503906 97.488281 10.152344 97.570312 9.800781 97.542969 C 9.449219 97.519531 9.117188 97.390625 8.835938 97.175781 C 8.558594 96.957031 8.347656 96.664062 8.238281 96.332031 C 8.164062 96.109375 8.132812 95.875 8.152344 95.640625 C 8.167969 95.40625 8.230469 95.175781 8.335938 94.96875 C 8.4375 94.757812 8.582031 94.574219 8.761719 94.417969 C 8.9375 94.265625 9.144531 94.148438 9.367188 94.074219 Z M 9.367188 94.074219 "/>
<path style=" stroke:none;fill-rule:nonzero;fill:rgb(92.941177%,69.411767%,8.627451%);fill-opacity:1;" d="M 14.765625 107.300781 C 15.074219 107.125 15.421875 107.042969 15.773438 107.066406 C 16.125 107.089844 16.460938 107.214844 16.742188 107.429688 C 17.019531 107.644531 17.230469 107.933594 17.347656 108.269531 C 17.460938 108.605469 17.472656 108.964844 17.382812 109.304688 C 17.292969 109.644531 17.101562 109.949219 16.832031 110.183594 C 16.570312 110.414062 16.242188 110.5625 15.894531 110.609375 C 15.542969 110.65625 15.1875 110.597656 14.871094 110.441406 C 14.554688 110.289062 14.292969 110.042969 14.113281 109.738281 C 13.996094 109.535156 13.921875 109.308594 13.894531 109.078125 C 13.859375 108.847656 13.875 108.609375 13.9375 108.382812 C 13.996094 108.160156 14.101562 107.945312 14.246094 107.761719 C 14.386719 107.574219 14.5625 107.417969 14.765625 107.300781 Z M 14.765625 107.300781 "/>
<path style=" stroke:none;fill-rule:nonzero;fill:rgb(92.941177%,69.411767%,8.627451%);fill-opacity:1;" d="M 22.800781 119.117188 C 23.058594 118.882812 23.386719 118.730469 23.738281 118.683594 C 24.085938 118.628906 24.441406 118.683594 24.757812 118.835938 C 25.074219 118.988281 25.339844 119.230469 25.523438 119.535156 C 25.703125 119.835938 25.789062 120.183594 25.769531 120.539062 C 25.753906 120.890625 25.628906 121.226562 25.417969 121.511719 C 25.210938 121.792969 24.917969 122.007812 24.585938 122.125 C 24.253906 122.242188 23.894531 122.257812 23.554688 122.175781 C 23.210938 122.085938 22.902344 121.902344 22.667969 121.636719 C 22.511719 121.464844 22.386719 121.261719 22.308594 121.039062 C 22.234375 120.820312 22.199219 120.585938 22.210938 120.351562 C 22.222656 120.117188 22.28125 119.886719 22.382812 119.675781 C 22.480469 119.464844 22.625 119.277344 22.800781 119.117188 Z M 22.800781 119.117188 "/>
<path style=" stroke:none;fill-rule:nonzero;fill:rgb(92.941177%,69.411767%,8.627451%);fill-opacity:1;" d="M 33.113281 129.007812 C 33.324219 128.722656 33.613281 128.511719 33.941406 128.386719 C 34.273438 128.269531 34.636719 128.25 34.976562 128.335938 C 35.320312 128.417969 35.628906 128.605469 35.863281 128.863281 C 36.105469 129.125 36.257812 129.449219 36.308594 129.800781 C 36.363281 130.148438 36.3125 130.503906 36.160156 130.824219 C 36.011719 131.140625 35.769531 131.410156 35.46875 131.59375 C 35.167969 131.773438 34.816406 131.863281 34.464844 131.84375 C 34.113281 131.832031 33.773438 131.707031 33.488281 131.5 C 33.113281 131.21875 32.855469 130.800781 32.785156 130.332031 C 32.714844 129.863281 32.832031 129.390625 33.113281 129.007812 Z M 33.113281 129.007812 "/>
<path style=" stroke:none;fill-rule:nonzero;fill:rgb(92.941177%,69.411767%,8.627451%);fill-opacity:1;" d="M 45.253906 136.539062 C 45.398438 136.214844 45.636719 135.941406 45.933594 135.753906 C 46.230469 135.566406 46.574219 135.472656 46.929688 135.480469 C 47.28125 135.488281 47.625 135.605469 47.910156 135.804688 C 48.199219 136.007812 48.421875 136.292969 48.546875 136.621094 C 48.675781 136.949219 48.699219 137.308594 48.625 137.652344 C 48.542969 137.996094 48.371094 138.308594 48.113281 138.554688 C 47.855469 138.796875 47.535156 138.957031 47.1875 139.019531 C 46.84375 139.078125 46.484375 139.035156 46.164062 138.890625 C 45.945312 138.796875 45.753906 138.660156 45.589844 138.492188 C 45.429688 138.324219 45.304688 138.121094 45.21875 137.902344 C 45.136719 137.683594 45.09375 137.453125 45.101562 137.21875 C 45.109375 136.984375 45.160156 136.753906 45.253906 136.539062 Z M 45.253906 136.539062 "/>
<path style=" stroke:none;fill-rule:nonzero;fill:rgb(92.941177%,69.411767%,8.627451%);fill-opacity:1;" d="M 58.703125 141.394531 C 58.777344 141.050781 58.949219 140.734375 59.203125 140.488281 C 59.457031 140.246094 59.773438 140.082031 60.121094 140.015625 C 60.464844 139.949219 60.824219 139.992188 61.144531 140.128906 C 61.46875 140.269531 61.742188 140.503906 61.933594 140.792969 C 62.125 141.089844 62.222656 141.4375 62.222656 141.789062 C 62.214844 142.140625 62.105469 142.480469 61.90625 142.773438 C 61.710938 143.0625 61.429688 143.285156 61.105469 143.417969 C 60.777344 143.546875 60.417969 143.578125 60.074219 143.503906 C 59.84375 143.457031 59.628906 143.363281 59.433594 143.230469 C 59.246094 143.101562 59.078125 142.929688 58.949219 142.734375 C 58.824219 142.539062 58.734375 142.316406 58.691406 142.085938 C 58.648438 141.859375 58.652344 141.621094 58.703125 141.394531 Z M 58.703125 141.394531 "/>
<path style=" stroke:none;fill-rule:nonzero;fill:rgb(92.941177%,69.411767%,8.627451%);fill-opacity:1;" d="M 72.855469 143.316406 C 72.855469 142.960938 72.960938 142.617188 73.15625 142.324219 C 73.355469 142.03125 73.632812 141.800781 73.957031 141.667969 C 74.28125 141.535156 74.640625 141.496094 74.984375 141.566406 C 75.332031 141.636719 75.652344 141.804688 75.898438 142.054688 C 76.148438 142.304688 76.316406 142.621094 76.386719 142.964844 C 76.457031 143.3125 76.421875 143.671875 76.285156 143.996094 C 76.152344 144.324219 75.921875 144.601562 75.628906 144.796875 C 75.335938 144.992188 74.992188 145.097656 74.640625 145.097656 C 74.164062 145.097656 73.714844 144.910156 73.378906 144.574219 C 73.042969 144.238281 72.855469 143.785156 72.855469 143.316406 Z M 72.855469 143.316406 "/>
<path style=" stroke:none;fill-rule:nonzero;fill:rgb(92.941177%,69.411767%,8.627451%);fill-opacity:1;" d="M 87.109375 142.269531 C 87.035156 141.925781 87.066406 141.566406 87.195312 141.238281 C 87.328125 140.914062 87.554688 140.632812 87.84375 140.433594 C 88.132812 140.234375 88.472656 140.128906 88.824219 140.125 C 89.175781 140.117188 89.523438 140.21875 89.816406 140.410156 C 90.113281 140.601562 90.34375 140.878906 90.484375 141.199219 C 90.621094 141.519531 90.660156 141.878906 90.597656 142.222656 C 90.535156 142.570312 90.371094 142.890625 90.125 143.140625 C 89.878906 143.394531 89.566406 143.566406 89.222656 143.640625 C 88.992188 143.691406 88.753906 143.695312 88.527344 143.652344 C 88.292969 143.609375 88.074219 143.523438 87.878906 143.394531 C 87.683594 143.269531 87.511719 143.105469 87.378906 142.90625 C 87.25 142.714844 87.15625 142.496094 87.109375 142.269531 Z M 87.109375 142.269531 "/>
<path style=" stroke:none;fill-rule:nonzero;fill:rgb(92.941177%,69.411767%,8.627451%);fill-opacity:1;" d="M 100.824219 138.277344 C 100.683594 137.957031 100.636719 137.597656 100.699219 137.253906 C 100.761719 136.902344 100.921875 136.582031 101.164062 136.328125 C 101.410156 136.074219 101.71875 135.894531 102.066406 135.816406 C 102.40625 135.742188 102.769531 135.769531 103.097656 135.894531 C 103.425781 136.019531 103.707031 136.242188 103.914062 136.527344 C 104.113281 136.816406 104.230469 137.160156 104.238281 137.511719 C 104.246094 137.863281 104.152344 138.210938 103.964844 138.511719 C 103.777344 138.804688 103.503906 139.042969 103.179688 139.183594 C 102.964844 139.28125 102.734375 139.332031 102.5 139.339844 C 102.265625 139.34375 102.03125 139.308594 101.816406 139.222656 C 101.597656 139.136719 101.394531 139.011719 101.226562 138.847656 C 101.058594 138.683594 100.921875 138.492188 100.824219 138.277344 Z M 100.824219 138.277344 "/>
<path style=" stroke:none;fill-rule:nonzero;fill:rgb(92.941177%,69.411767%,8.627451%);fill-opacity:1;" d="M 113.417969 131.527344 C 113.210938 131.246094 113.09375 130.902344 113.082031 130.550781 C 113.066406 130.199219 113.160156 129.847656 113.339844 129.550781 C 113.527344 129.25 113.792969 129.007812 114.117188 128.863281 C 114.4375 128.714844 114.792969 128.667969 115.140625 128.722656 C 115.488281 128.777344 115.8125 128.933594 116.070312 129.171875 C 116.332031 129.414062 116.511719 129.722656 116.597656 130.066406 C 116.675781 130.410156 116.652344 130.765625 116.535156 131.097656 C 116.410156 131.429688 116.195312 131.714844 115.90625 131.925781 C 115.527344 132.203125 115.050781 132.316406 114.582031 132.238281 C 114.113281 132.167969 113.699219 131.910156 113.417969 131.527344 Z M 113.417969 131.527344 "/>
<path style=" stroke:none;fill-rule:nonzero;fill:rgb(92.941177%,69.411767%,8.627451%);fill-opacity:1;" d="M 124.332031 122.304688 C 124.070312 122.066406 123.886719 121.761719 123.796875 121.417969 C 123.710938 121.078125 123.730469 120.71875 123.847656 120.382812 C 123.964844 120.050781 124.175781 119.761719 124.457031 119.550781 C 124.742188 119.339844 125.082031 119.222656 125.433594 119.199219 C 125.785156 119.183594 126.136719 119.269531 126.4375 119.449219 C 126.742188 119.628906 126.980469 119.894531 127.132812 120.214844 C 127.285156 120.53125 127.339844 120.886719 127.289062 121.238281 C 127.238281 121.585938 127.085938 121.910156 126.851562 122.175781 C 126.695312 122.347656 126.503906 122.488281 126.292969 122.589844 C 126.082031 122.691406 125.855469 122.746094 125.621094 122.761719 C 125.386719 122.773438 125.152344 122.738281 124.929688 122.660156 C 124.707031 122.582031 124.503906 122.460938 124.332031 122.304688 Z M 124.332031 122.304688 "/>
<path style=" stroke:none;fill-rule:nonzero;fill:rgb(92.941177%,69.411767%,8.627451%);fill-opacity:1;" d="M 133.089844 111.011719 C 132.785156 110.835938 132.539062 110.574219 132.378906 110.253906 C 132.226562 109.941406 132.167969 109.585938 132.214844 109.238281 C 132.257812 108.886719 132.40625 108.558594 132.640625 108.292969 C 132.871094 108.027344 133.179688 107.835938 133.519531 107.746094 C 133.859375 107.652344 134.222656 107.667969 134.554688 107.78125 C 134.886719 107.894531 135.183594 108.101562 135.394531 108.382812 C 135.609375 108.664062 135.734375 109.003906 135.757812 109.355469 C 135.78125 109.707031 135.699219 110.058594 135.519531 110.363281 C 135.40625 110.5625 135.25 110.742188 135.066406 110.882812 C 134.878906 111.027344 134.667969 111.132812 134.441406 111.191406 C 134.214844 111.253906 133.980469 111.265625 133.75 111.238281 C 133.515625 111.207031 133.292969 111.128906 133.089844 111.011719 Z M 133.089844 111.011719 "/>
<path style=" stroke:none;fill-rule:nonzero;fill:rgb(92.941177%,69.411767%,8.627451%);fill-opacity:1;" d="M 139.308594 98.148438 C 138.972656 98.035156 138.675781 97.828125 138.464844 97.550781 C 138.246094 97.269531 138.117188 96.933594 138.09375 96.582031 C 138.066406 96.230469 138.144531 95.878906 138.324219 95.574219 C 138.496094 95.269531 138.757812 95.019531 139.074219 94.863281 C 139.386719 94.707031 139.742188 94.644531 140.09375 94.6875 C 140.441406 94.730469 140.769531 94.878906 141.039062 95.109375 C 141.304688 95.339844 141.496094 95.644531 141.589844 95.984375 C 141.683594 96.324219 141.675781 96.683594 141.5625 97.019531 C 141.488281 97.242188 141.371094 97.449219 141.21875 97.625 C 141.066406 97.800781 140.878906 97.949219 140.667969 98.054688 C 140.457031 98.15625 140.230469 98.222656 139.996094 98.234375 C 139.761719 98.253906 139.527344 98.222656 139.308594 98.148438 Z M 139.308594 98.148438 "/>
<path style=" stroke:none;fill-rule:nonzero;fill:rgb(92.941177%,69.411767%,8.627451%);fill-opacity:1;" d="M 142.714844 84.273438 C 142.363281 84.234375 142.03125 84.09375 141.757812 83.867188 C 141.488281 83.644531 141.289062 83.34375 141.191406 83.003906 C 141.089844 82.667969 141.089844 82.308594 141.195312 81.96875 C 141.300781 81.632812 141.503906 81.335938 141.777344 81.113281 C 142.050781 80.890625 142.386719 80.757812 142.734375 80.722656 C 143.085938 80.691406 143.441406 80.761719 143.746094 80.933594 C 144.058594 81.097656 144.308594 81.355469 144.472656 81.667969 C 144.640625 81.980469 144.707031 82.332031 144.671875 82.683594 C 144.648438 82.917969 144.578125 83.140625 144.464844 83.347656 C 144.355469 83.554688 144.203125 83.738281 144.019531 83.882812 C 143.839844 84.03125 143.628906 84.140625 143.40625 84.207031 C 143.179688 84.277344 142.945312 84.296875 142.714844 84.273438 Z M 142.714844 84.273438 "/>
<path style=" stroke:none;fill-rule:nonzero;fill:rgb(92.941177%,69.411767%,8.627451%);fill-opacity:1;" d="M 143.160156 69.988281 C 142.808594 70.027344 142.457031 69.957031 142.144531 69.792969 C 141.832031 69.628906 141.578125 69.378906 141.40625 69.066406 C 141.238281 68.757812 141.167969 68.40625 141.199219 68.054688 C 141.230469 67.703125 141.367188 67.367188 141.589844 67.097656 C 141.8125 66.820312 142.109375 66.617188 142.445312 66.511719 C 142.78125 66.410156 143.140625 66.40625 143.480469 66.507812 C 143.816406 66.605469 144.121094 66.804688 144.347656 67.078125 C 144.570312 67.347656 144.707031 67.679688 144.746094 68.03125 C 144.769531 68.261719 144.75 68.5 144.683594 68.722656 C 144.617188 68.949219 144.507812 69.160156 144.359375 69.339844 C 144.214844 69.519531 144.03125 69.675781 143.824219 69.785156 C 143.621094 69.894531 143.394531 69.964844 143.160156 69.988281 Z M 143.160156 69.988281 "/>
<path style=" stroke:none;fill-rule:nonzero;fill:rgb(92.941177%,69.411767%,8.627451%);fill-opacity:1;" d="M 140.636719 55.925781 C 140.300781 56.035156 139.941406 56.042969 139.601562 55.949219 C 139.261719 55.859375 138.957031 55.667969 138.726562 55.402344 C 138.496094 55.132812 138.347656 54.804688 138.304688 54.457031 C 138.261719 54.105469 138.324219 53.75 138.480469 53.4375 C 138.636719 53.121094 138.886719 52.859375 139.191406 52.683594 C 139.496094 52.511719 139.847656 52.433594 140.199219 52.457031 C 140.550781 52.480469 140.886719 52.609375 141.167969 52.824219 C 141.445312 53.042969 141.652344 53.335938 141.765625 53.667969 C 141.839844 53.890625 141.871094 54.125 141.851562 54.359375 C 141.839844 54.59375 141.773438 54.824219 141.671875 55.03125 C 141.566406 55.242188 141.417969 55.425781 141.242188 55.582031 C 141.066406 55.734375 140.859375 55.851562 140.636719 55.925781 Z M 140.636719 55.925781 "/>
<path style=" stroke:none;fill-rule:nonzero;fill:rgb(92.941177%,69.411767%,8.627451%);fill-opacity:1;" d="M 135.230469 42.699219 C 134.925781 42.875 134.574219 42.957031 134.222656 42.933594 C 133.871094 42.910156 133.53125 42.78125 133.253906 42.566406 C 132.976562 42.351562 132.765625 42.0625 132.652344 41.726562 C 132.539062 41.394531 132.527344 41.035156 132.617188 40.691406 C 132.707031 40.355469 132.898438 40.046875 133.167969 39.816406 C 133.429688 39.582031 133.757812 39.433594 134.105469 39.386719 C 134.457031 39.34375 134.8125 39.402344 135.128906 39.558594 C 135.445312 39.710938 135.707031 39.957031 135.886719 40.261719 C 136.003906 40.464844 136.078125 40.691406 136.109375 40.921875 C 136.140625 41.152344 136.125 41.390625 136.0625 41.617188 C 136.003906 41.84375 135.894531 42.054688 135.753906 42.242188 C 135.613281 42.425781 135.433594 42.582031 135.230469 42.699219 Z M 135.230469 42.699219 "/>
<path style=" stroke:none;fill-rule:nonzero;fill:rgb(92.941177%,69.411767%,8.627451%);fill-opacity:1;" d="M 127.199219 30.882812 C 126.933594 31.117188 126.609375 31.269531 126.261719 31.316406 C 125.910156 31.371094 125.554688 31.316406 125.238281 31.164062 C 124.917969 31.011719 124.652344 30.769531 124.472656 30.464844 C 124.292969 30.164062 124.207031 29.816406 124.222656 29.460938 C 124.246094 29.109375 124.363281 28.773438 124.574219 28.488281 C 124.785156 28.207031 125.078125 27.992188 125.410156 27.875 C 125.742188 27.757812 126.101562 27.742188 126.441406 27.824219 C 126.785156 27.914062 127.09375 28.097656 127.332031 28.363281 C 127.484375 28.535156 127.609375 28.738281 127.6875 28.960938 C 127.765625 29.179688 127.800781 29.414062 127.789062 29.648438 C 127.777344 29.882812 127.714844 30.113281 127.617188 30.324219 C 127.515625 30.535156 127.371094 30.722656 127.199219 30.882812 Z M 127.199219 30.882812 "/>
<path style=" stroke:none;fill-rule:nonzero;fill:rgb(92.941177%,69.411767%,8.627451%);fill-opacity:1;" d="M 116.882812 20.996094 C 116.671875 21.277344 116.386719 21.492188 116.054688 21.613281 C 115.722656 21.730469 115.363281 21.75 115.019531 21.664062 C 114.675781 21.582031 114.371094 21.394531 114.132812 21.136719 C 113.894531 20.875 113.738281 20.550781 113.6875 20.203125 C 113.632812 19.855469 113.6875 19.496094 113.835938 19.175781 C 113.984375 18.859375 114.226562 18.589844 114.527344 18.410156 C 114.828125 18.230469 115.179688 18.136719 115.53125 18.15625 C 115.882812 18.171875 116.222656 18.292969 116.507812 18.5 C 116.886719 18.78125 117.136719 19.203125 117.210938 19.667969 C 117.28125 20.136719 117.160156 20.613281 116.882812 20.996094 Z M 116.882812 20.996094 "/>
<path style=" stroke:none;fill-rule:nonzero;fill:rgb(92.941177%,69.411767%,8.627451%);fill-opacity:1;" d="M 104.738281 13.464844 C 104.597656 13.785156 104.363281 14.058594 104.0625 14.246094 C 103.761719 14.433594 103.417969 14.527344 103.0625 14.519531 C 102.710938 14.507812 102.371094 14.394531 102.082031 14.191406 C 101.792969 13.988281 101.574219 13.703125 101.449219 13.375 C 101.324219 13.046875 101.296875 12.683594 101.375 12.34375 C 101.457031 12 101.628906 11.6875 101.886719 11.441406 C 102.144531 11.199219 102.464844 11.039062 102.8125 10.980469 C 103.160156 10.921875 103.515625 10.964844 103.835938 11.109375 C 104.269531 11.300781 104.605469 11.65625 104.777344 12.097656 C 104.949219 12.542969 104.933594 13.035156 104.738281 13.464844 Z M 104.738281 13.464844 "/>
<path style=" stroke:none;fill-rule:nonzero;fill:rgb(92.941177%,69.411767%,8.627451%);fill-opacity:1;" d="M 91.296875 8.625 C 91.222656 8.972656 91.050781 9.285156 90.796875 9.53125 C 90.542969 9.777344 90.226562 9.941406 89.878906 10.003906 C 89.53125 10.070312 89.175781 10.03125 88.851562 9.890625 C 88.527344 9.753906 88.25 9.519531 88.058594 9.226562 C 87.867188 8.929688 87.769531 8.582031 87.773438 8.230469 C 87.777344 7.878906 87.886719 7.535156 88.082031 7.246094 C 88.285156 6.957031 88.566406 6.730469 88.890625 6.601562 C 89.21875 6.46875 89.574219 6.4375 89.921875 6.511719 C 90.148438 6.558594 90.371094 6.652344 90.5625 6.78125 C 90.753906 6.917969 90.917969 7.082031 91.050781 7.285156 C 91.175781 7.480469 91.261719 7.699219 91.308594 7.929688 C 91.351562 8.160156 91.347656 8.394531 91.296875 8.625 Z M 91.296875 8.625 "/>
<path style=" stroke:none;fill-rule:nonzero;fill:rgb(95.686275%,83.529413%,69.803923%);fill-opacity:1;" d="M 86.820312 96.863281 C 82.09375 94.121094 76.667969 92.796875 71.207031 93.058594 C 65.746094 93.316406 60.472656 95.144531 56.023438 98.324219 L 56.222656 98.601562 C 60.621094 95.460938 65.832031 93.652344 71.226562 93.398438 C 76.621094 93.144531 81.980469 94.453125 86.648438 97.167969 C 89.976562 99.09375 90.191406 98.824219 86.820312 96.863281 Z M 86.820312 96.863281 "/>
<path style=" stroke:none;fill-rule:nonzero;fill:rgb(95.686275%,83.529413%,69.803923%);fill-opacity:1;" d="M 58.410156 97.128906 C 56.976562 98.523438 56.78125 103.410156 50.910156 103.003906 C 52.074219 102.035156 51.5625 97.050781 58.410156 97.128906 Z M 58.410156 97.128906 "/>
<path style=" stroke:none;fill-rule:nonzero;fill:rgb(21.960784%,19.215687%,17.647059%);fill-opacity:1;" d="M 58.527344 97.25 C 58.125 97.734375 57.800781 98.277344 57.566406 98.863281 C 56.628906 100.816406 55.347656 103.496094 50.902344 103.175781 L 50.472656 103.144531 L 50.800781 102.871094 C 51.113281 102.488281 51.339844 102.046875 51.460938 101.570312 C 52.148438 99.6875 53.191406 96.898438 58.410156 96.957031 L 58.832031 96.957031 Z M 57.257812 98.714844 C 57.472656 98.222656 57.730469 97.75 58.035156 97.300781 C 53.378906 97.378906 52.425781 99.964844 51.78125 101.6875 C 51.652344 102.089844 51.484375 102.484375 51.269531 102.851562 C 55.207031 103 56.339844 100.628906 57.257812 98.714844 Z M 57.257812 98.714844 "/>
<path style=" stroke:none;fill-rule:nonzero;fill:rgb(21.960784%,19.215687%,17.647059%);fill-opacity:1;" d="M 58.410156 97.128906 C 58.410156 97.128906 54.871094 99.382812 53.898438 101.152344 C 54.511719 99.523438 56.765625 97.960938 56.765625 97.960938 C 56.765625 97.960938 55.367188 98.363281 54.761719 98.972656 C 54.917969 98.289062 58.410156 97.128906 58.410156 97.128906 Z M 58.410156 97.128906 "/>
<path style=" stroke:none;fill-rule:nonzero;fill:rgb(95.686275%,83.529413%,69.803923%);fill-opacity:1;" d="M 60.988281 95.65625 C 60.171875 97.476562 61.828125 102.109375 56.210938 103.902344 C 56.933594 102.574219 54.605469 98.148438 60.988281 95.65625 Z M 60.988281 95.65625 "/>
<path style=" stroke:none;fill-rule:nonzero;fill:rgb(21.960784%,19.215687%,17.647059%);fill-opacity:1;" d="M 61.144531 95.722656 C 60.949219 96.324219 60.847656 96.953125 60.851562 97.582031 C 60.710938 99.742188 60.519531 102.707031 56.265625 104.066406 L 55.859375 104.195312 L 56.0625 103.820312 C 56.210938 103.351562 56.257812 102.851562 56.195312 102.367188 C 56.136719 100.402344 56.058594 97.394531 60.917969 95.511719 L 61.292969 95.363281 Z M 60.511719 97.5625 C 60.523438 97.023438 60.589844 96.488281 60.703125 95.957031 C 56.410156 97.761719 56.488281 100.519531 56.535156 102.351562 C 56.566406 102.777344 56.550781 103.199219 56.488281 103.621094 C 60.199219 102.300781 60.371094 99.675781 60.511719 97.5625 Z M 60.511719 97.5625 "/>
<path style=" stroke:none;fill-rule:nonzero;fill:rgb(21.960784%,19.215687%,17.647059%);fill-opacity:1;" d="M 60.988281 95.65625 C 60.988281 95.65625 58.542969 99.074219 58.300781 101.074219 C 58.265625 99.332031 59.777344 97.042969 59.777344 97.042969 C 59.777344 97.042969 58.625 97.941406 58.292969 98.726562 C 58.179688 98.03125 60.988281 95.65625 60.988281 95.65625 Z M 60.988281 95.65625 "/>
<path style=" stroke:none;fill-rule:nonzero;fill:rgb(95.686275%,83.529413%,69.803923%);fill-opacity:1;" d="M 60.988281 95.65625 C 59.019531 95.363281 56.011719 91.472656 51.472656 95.230469 C 52.980469 95.339844 55.460938 99.699219 60.988281 95.65625 Z M 60.988281 95.65625 "/>
<path style=" stroke:none;fill-rule:nonzero;fill:rgb(21.960784%,19.215687%,17.647059%);fill-opacity:1;" d="M 61.089844 95.796875 C 56.875 98.878906 54.394531 97.191406 52.753906 96.078125 C 52.378906 95.761719 51.933594 95.53125 51.460938 95.402344 L 51.035156 95.371094 L 51.363281 95.101562 C 54.800781 92.253906 57.378906 93.691406 59.296875 94.726562 C 59.828125 95.066406 60.40625 95.316406 61.015625 95.480469 L 61.429688 95.535156 Z M 52.945312 95.796875 C 54.449219 96.832031 56.746094 98.378906 60.582031 95.742188 C 60.078125 95.550781 59.59375 95.316406 59.132812 95.042969 C 57.273438 94.011719 54.972656 92.746094 51.851562 95.152344 C 52.238281 95.324219 52.605469 95.542969 52.945312 95.792969 Z M 52.945312 95.796875 "/>
<path style=" stroke:none;fill-rule:nonzero;fill:rgb(21.960784%,19.215687%,17.647059%);fill-opacity:1;" d="M 60.988281 95.65625 C 60.988281 95.65625 56.792969 95.871094 54.972656 95.003906 C 56.417969 95.972656 59.160156 95.933594 59.160156 95.933594 C 59.160156 95.933594 57.785156 96.414062 56.9375 96.277344 C 57.476562 96.746094 60.988281 95.65625 60.988281 95.65625 Z M 60.988281 95.65625 "/>
<path style=" stroke:none;fill-rule:nonzero;fill:rgb(95.686275%,83.529413%,69.803923%);fill-opacity:1;" d="M 64.734375 94.273438 C 63.800781 96.039062 65.171875 100.761719 59.46875 102.207031 C 60.261719 100.921875 58.207031 96.347656 64.734375 94.273438 Z M 64.734375 94.273438 "/>
<path style=" stroke:none;fill-rule:nonzero;fill:rgb(21.960784%,19.215687%,17.647059%);fill-opacity:1;" d="M 64.882812 94.355469 C 64.652344 94.9375 64.515625 95.558594 64.480469 96.183594 C 64.199219 98.335938 63.824219 101.277344 59.496094 102.375 L 59.085938 102.472656 L 59.308594 102.097656 C 59.492188 101.808594 59.511719 101.277344 59.535156 100.65625 C 59.601562 98.675781 59.703125 95.675781 64.683594 94.097656 L 65.082031 93.96875 Z M 64.132812 96.144531 C 64.179688 95.605469 64.28125 95.074219 64.425781 94.554688 C 60.027344 96.089844 59.914062 98.84375 59.867188 100.683594 C 59.875 101.109375 59.832031 101.535156 59.746094 101.949219 C 63.550781 100.851562 63.867188 98.25 64.136719 96.144531 Z M 64.132812 96.144531 "/>
<path style=" stroke:none;fill-rule:nonzero;fill:rgb(21.960784%,19.215687%,17.647059%);fill-opacity:1;" d="M 64.734375 94.273438 C 64.734375 94.273438 62.082031 97.527344 61.726562 99.511719 C 61.800781 97.773438 63.449219 95.574219 63.449219 95.574219 C 63.449219 95.574219 62.246094 96.402344 61.867188 97.167969 C 61.78125 96.464844 64.734375 94.273438 64.734375 94.273438 Z M 64.734375 94.273438 "/>
<path style=" stroke:none;fill-rule:nonzero;fill:rgb(95.686275%,83.529413%,69.803923%);fill-opacity:1;" d="M 64.734375 94.273438 C 62.796875 93.855469 60.027344 89.789062 55.277344 93.257812 C 56.761719 93.464844 58.964844 97.964844 64.734375 94.273438 Z M 64.734375 94.273438 "/>
<path style=" stroke:none;fill-rule:nonzero;fill:rgb(21.960784%,19.215687%,17.647059%);fill-opacity:1;" d="M 64.824219 94.421875 C 60.425781 97.230469 58.054688 95.394531 56.488281 94.179688 C 56.128906 93.84375 55.703125 93.589844 55.238281 93.425781 L 54.816406 93.371094 L 55.160156 93.121094 C 58.765625 90.488281 61.269531 92.085938 63.097656 93.25 C 63.605469 93.621094 64.167969 93.910156 64.761719 94.105469 L 65.175781 94.191406 Z M 56.695312 93.910156 C 58.148438 95.035156 60.332031 96.726562 64.324219 94.328125 C 63.832031 94.105469 63.359375 93.84375 62.914062 93.535156 C 61.121094 92.410156 58.902344 90.988281 55.644531 93.199219 C 56.019531 93.398438 56.371094 93.636719 56.695312 93.910156 Z M 56.695312 93.910156 "/>
<path style=" stroke:none;fill-rule:nonzero;fill:rgb(21.960784%,19.215687%,17.647059%);fill-opacity:1;" d="M 64.734375 94.273438 C 64.734375 94.273438 60.542969 94.226562 58.777344 93.257812 C 60.160156 94.316406 62.914062 94.449219 62.914062 94.449219 C 62.914062 94.449219 61.507812 94.847656 60.675781 94.648438 C 61.164062 95.136719 64.734375 94.273438 64.734375 94.273438 Z M 64.734375 94.273438 "/>
<path style=" stroke:none;fill-rule:nonzero;fill:rgb(95.686275%,83.529413%,69.803923%);fill-opacity:1;" d="M 67.878906 93.449219 C 66.816406 95.140625 67.828125 99.953125 62.019531 100.972656 C 62.917969 99.75 61.214844 95.035156 67.878906 93.449219 Z M 67.878906 93.449219 "/>
<path style=" stroke:none;fill-rule:nonzero;fill:rgb(21.960784%,19.215687%,17.647059%);fill-opacity:1;" d="M 68.019531 93.542969 C 67.746094 94.105469 67.566406 94.714844 67.480469 95.339844 C 67.042969 97.457031 66.449219 100.363281 62.054688 101.136719 L 61.632812 101.207031 L 61.882812 100.867188 C 62.09375 100.421875 62.207031 99.9375 62.214844 99.445312 C 62.429688 97.472656 62.757812 94.492188 67.855469 93.285156 L 68.261719 93.1875 Z M 67.140625 95.269531 C 67.230469 94.738281 67.371094 94.214844 67.554688 93.707031 C 63.042969 94.914062 62.753906 97.652344 62.550781 99.484375 C 62.527344 99.90625 62.453125 100.328125 62.332031 100.734375 C 66.183594 99.921875 66.722656 97.351562 67.140625 95.269531 Z M 67.140625 95.269531 "/>
<path style=" stroke:none;fill-rule:nonzero;fill:rgb(21.960784%,19.215687%,17.647059%);fill-opacity:1;" d="M 67.878906 93.449219 C 67.878906 93.449219 64.988281 96.503906 64.496094 98.449219 C 64.691406 96.714844 66.5 94.65625 66.5 94.65625 C 66.5 94.65625 65.242188 95.40625 64.804688 96.121094 C 64.773438 95.417969 67.878906 93.449219 67.878906 93.449219 Z M 67.878906 93.449219 "/>
<path style=" stroke:none;fill-rule:nonzero;fill:rgb(95.686275%,83.529413%,69.803923%);fill-opacity:1;" d="M 67.878906 93.449219 C 65.964844 92.894531 63.515625 88.628906 58.503906 91.730469 C 59.984375 92.042969 61.851562 96.699219 67.878906 93.449219 Z M 67.878906 93.449219 "/>
<path style=" stroke:none;fill-rule:nonzero;fill:rgb(21.960784%,19.215687%,17.647059%);fill-opacity:1;" d="M 67.957031 93.601562 C 63.355469 96.078125 61.136719 94.074219 59.65625 92.742188 C 59.203125 92.328125 58.804688 91.96875 58.472656 91.902344 L 58.054688 91.808594 L 58.433594 91.589844 C 62.222656 89.234375 64.601562 91.011719 66.328125 92.308594 C 66.808594 92.714844 67.347656 93.046875 67.929688 93.285156 L 68.332031 93.402344 Z M 59.890625 92.507812 C 61.257812 93.734375 63.300781 95.578125 67.464844 93.488281 C 66.988281 93.230469 66.539062 92.933594 66.117188 92.597656 C 64.417969 91.328125 62.3125 89.757812 58.894531 91.714844 C 59.253906 91.941406 59.585938 92.207031 59.890625 92.507812 Z M 59.890625 92.507812 "/>
<path style=" stroke:none;fill-rule:nonzero;fill:rgb(21.960784%,19.215687%,17.647059%);fill-opacity:1;" d="M 67.878906 93.449219 C 67.878906 93.449219 63.6875 93.09375 62.015625 91.980469 C 63.316406 93.136719 66.039062 93.484375 66.039062 93.484375 C 66.039062 93.484375 64.613281 93.773438 63.78125 93.519531 C 64.246094 94.046875 67.878906 93.449219 67.878906 93.449219 Z M 67.878906 93.449219 "/>
<path style=" stroke:none;fill-rule:nonzero;fill:rgb(95.686275%,83.529413%,69.803923%);fill-opacity:1;" d="M 72.265625 93.144531 C 71.035156 94.710938 71.511719 99.597656 65.644531 99.992188 C 66.667969 98.875 65.472656 94.011719 72.265625 93.144531 Z M 72.265625 93.144531 "/>
<path style=" stroke:none;fill-rule:nonzero;fill:rgb(21.960784%,19.215687%,17.647059%);fill-opacity:1;" d="M 72.398438 93.257812 C 72.066406 93.792969 71.816406 94.378906 71.667969 94.988281 C 71.011719 97.050781 70.109375 99.875 65.652344 100.175781 L 65.230469 100.203125 L 65.515625 99.886719 C 65.769531 99.46875 65.933594 98.996094 65.992188 98.507812 C 66.417969 96.570312 67.058594 93.648438 72.238281 92.984375 L 72.652344 92.933594 Z M 71.339844 94.882812 C 71.488281 94.363281 71.675781 93.863281 71.917969 93.378906 C 67.316406 94.097656 66.722656 96.792969 66.328125 98.585938 C 66.257812 99.003906 66.140625 99.414062 65.980469 99.804688 C 69.902344 99.398438 70.691406 96.890625 71.339844 94.871094 Z M 71.339844 94.882812 "/>
<path style=" stroke:none;fill-rule:nonzero;fill:rgb(21.960784%,19.215687%,17.647059%);fill-opacity:1;" d="M 72.265625 93.144531 C 72.265625 93.144531 69.070312 95.867188 68.355469 97.746094 C 68.730469 96.050781 70.753906 94.191406 70.753906 94.191406 C 70.753906 94.191406 69.425781 94.785156 68.910156 95.46875 C 68.96875 94.761719 72.265625 93.144531 72.265625 93.144531 Z M 72.265625 93.144531 "/>
<path style=" stroke:none;fill-rule:nonzero;fill:rgb(95.686275%,83.529413%,69.803923%);fill-opacity:1;" d="M 72.265625 93.144531 C 70.421875 92.390625 68.441406 87.878906 63.132812 90.433594 C 64.566406 90.90625 65.925781 95.734375 72.265625 93.144531 Z M 72.265625 93.144531 "/>
<path style=" stroke:none;fill-rule:nonzero;fill:rgb(21.960784%,19.215687%,17.647059%);fill-opacity:1;" d="M 72.332031 93.300781 C 67.496094 95.273438 65.5 93.042969 64.167969 91.566406 C 63.882812 91.167969 63.511719 90.839844 63.078125 90.601562 L 62.675781 90.464844 L 63.050781 90.285156 C 67.070312 88.347656 69.246094 90.363281 70.835938 91.839844 C 71.269531 92.292969 71.769531 92.671875 72.324219 92.972656 L 72.699219 93.125 Z M 64.433594 91.332031 C 65.652344 92.707031 67.496094 94.757812 71.855469 93.121094 C 71.410156 92.816406 70.996094 92.46875 70.613281 92.089844 C 69.058594 90.644531 67.132812 88.859375 63.523438 90.445312 C 63.855469 90.707031 64.160156 91.007812 64.429688 91.332031 Z M 64.433594 91.332031 "/>
<path style=" stroke:none;fill-rule:nonzero;fill:rgb(21.960784%,19.215687%,17.647059%);fill-opacity:1;" d="M 72.265625 93.144531 C 72.265625 93.144531 68.128906 92.339844 66.589844 91.054688 C 67.761719 92.347656 70.433594 92.972656 70.433594 92.972656 C 70.433594 92.972656 68.980469 93.105469 68.199219 92.761719 C 68.597656 93.347656 72.265625 93.144531 72.265625 93.144531 Z M 72.265625 93.144531 "/>
<path style=" stroke:none;fill-rule:nonzero;fill:rgb(95.686275%,83.529413%,69.803923%);fill-opacity:1;" d="M 76.886719 99.371094 C 79.753906 94.710938 83.902344 90.976562 88.839844 88.617188 C 93.777344 86.257812 99.285156 85.375 104.714844 86.070312 L 104.667969 86.410156 C 99.308594 85.726562 93.867188 86.597656 88.992188 88.925781 C 84.121094 91.261719 80.019531 94.945312 77.1875 99.542969 C 75.160156 102.820312 74.832031 102.683594 76.886719 99.371094 Z M 76.886719 99.371094 "/>
<path style=" stroke:none;fill-rule:nonzero;fill:rgb(95.686275%,83.529413%,69.803923%);fill-opacity:1;" d="M 102.039062 86.148438 C 103.957031 86.6875 106.449219 90.921875 111.4375 87.773438 C 109.945312 87.472656 108.035156 82.839844 102.039062 86.148438 Z M 102.039062 86.148438 "/>
<path style=" stroke:none;fill-rule:nonzero;fill:rgb(21.960784%,19.215687%,17.647059%);fill-opacity:1;" d="M 101.589844 86.199219 L 101.964844 85.996094 C 106.539062 83.46875 108.789062 85.457031 110.273438 86.769531 C 110.605469 87.132812 111.015625 87.417969 111.472656 87.605469 L 111.886719 87.683594 L 111.511719 87.914062 C 107.753906 90.300781 105.347656 88.550781 103.597656 87.273438 C 103.117188 86.867188 102.570312 86.542969 101.988281 86.308594 Z M 111.039062 87.804688 C 110.675781 87.585938 110.339844 87.324219 110.035156 87.027344 C 108.65625 85.808594 106.589844 83.984375 102.449219 86.121094 C 102.929688 86.371094 103.378906 86.664062 103.804688 86.996094 C 105.519531 88.25 107.636719 89.796875 111.039062 87.804688 Z M 111.039062 87.804688 "/>
<path style=" stroke:none;fill-rule:nonzero;fill:rgb(21.960784%,19.215687%,17.647059%);fill-opacity:1;" d="M 102.039062 86.148438 C 102.039062 86.148438 106.222656 86.460938 107.914062 87.558594 C 106.601562 86.410156 103.875 86.105469 103.875 86.105469 C 103.875 86.105469 105.300781 85.800781 106.128906 86.042969 C 105.664062 85.515625 102.039062 86.148438 102.039062 86.148438 Z M 102.039062 86.148438 "/>
<path style=" stroke:none;fill-rule:nonzero;fill:rgb(95.686275%,83.529413%,69.803923%);fill-opacity:1;" d="M 99.070312 86.078125 C 100.648438 87.289062 101.386719 92.152344 107.183594 91.074219 C 105.914062 90.25 105.863281 85.230469 99.070312 86.078125 Z M 99.070312 86.078125 "/>
<path style=" stroke:none;fill-rule:nonzero;fill:rgb(21.960784%,19.215687%,17.647059%);fill-opacity:1;" d="M 98.636719 85.957031 L 99.046875 85.902344 C 104.230469 85.261719 105.582031 87.941406 106.472656 89.714844 C 106.644531 90.171875 106.921875 90.589844 107.273438 90.933594 L 107.628906 91.164062 L 107.210938 91.242188 C 102.824219 92.058594 101.25 89.539062 100.101562 87.703125 C 99.804688 87.144531 99.425781 86.640625 98.972656 86.199219 Z M 106.792969 90.960938 C 106.539062 90.621094 106.324219 90.253906 106.152344 89.863281 C 105.324219 88.222656 104.085938 85.761719 99.449219 86.203125 C 99.796875 86.613281 100.109375 87.054688 100.378906 87.519531 C 101.527344 89.320312 102.914062 91.546875 106.792969 90.960938 Z M 106.792969 90.960938 "/>
<path style=" stroke:none;fill-rule:nonzero;fill:rgb(21.960784%,19.215687%,17.647059%);fill-opacity:1;" d="M 99.070312 86.078125 C 99.070312 86.078125 102.828125 87.925781 104 89.570312 C 103.207031 88.019531 100.792969 86.714844 100.792969 86.714844 C 100.792969 86.714844 102.230469 86.964844 102.894531 87.5 C 102.65625 86.832031 99.070312 86.078125 99.070312 86.078125 Z M 99.070312 86.078125 "/>
<path style=" stroke:none;fill-rule:nonzero;fill:rgb(95.686275%,83.529413%,69.803923%);fill-opacity:1;" d="M 99.070312 86.070312 C 100.667969 84.878906 101.472656 80.035156 107.253906 81.183594 C 105.980469 82.003906 105.851562 87.011719 99.070312 86.070312 Z M 99.070312 86.070312 "/>
<path style=" stroke:none;fill-rule:nonzero;fill:rgb(21.960784%,19.215687%,17.647059%);fill-opacity:1;" d="M 98.632812 86.183594 L 98.96875 85.9375 C 99.429688 85.507812 99.824219 85.011719 100.128906 84.460938 C 101.300781 82.636719 102.910156 80.148438 107.269531 81.023438 L 107.691406 81.109375 L 107.3125 81.332031 C 106.957031 81.675781 106.675781 82.082031 106.496094 82.542969 C 105.574219 84.300781 104.1875 86.957031 99.019531 86.242188 Z M 106.878906 81.296875 C 102.988281 80.652344 101.5625 82.859375 100.410156 84.644531 C 100.140625 85.105469 99.824219 85.542969 99.464844 85.949219 C 104.09375 86.460938 105.371094 84.015625 106.234375 82.382812 C 106.410156 82 106.625 81.636719 106.878906 81.296875 Z M 106.878906 81.296875 "/>
<path style=" stroke:none;fill-rule:nonzero;fill:rgb(21.960784%,19.215687%,17.647059%);fill-opacity:1;" d="M 99.070312 86.070312 C 99.070312 86.070312 102.867188 84.277344 104.046875 82.648438 C 103.238281 84.1875 100.804688 85.457031 100.804688 85.457031 C 100.804688 85.457031 102.238281 85.226562 102.917969 84.703125 C 102.679688 85.363281 99.070312 86.070312 99.070312 86.070312 Z M 99.070312 86.070312 "/>
<path style=" stroke:none;fill-rule:nonzero;fill:rgb(95.686275%,83.529413%,69.803923%);fill-opacity:1;" d="M 95.136719 86.625 C 96.792969 87.753906 97.824219 92.542969 103.539062 91.117188 C 102.207031 90.363281 101.847656 85.363281 95.136719 86.625 Z M 95.136719 86.625 "/>
<path style=" stroke:none;fill-rule:nonzero;fill:rgb(21.960784%,19.215687%,17.647059%);fill-opacity:1;" d="M 94.679688 86.535156 L 95.089844 86.457031 C 100.222656 85.496094 101.726562 88.082031 102.730469 89.796875 C 102.933594 90.25 103.230469 90.644531 103.605469 90.964844 L 103.980469 91.175781 L 103.570312 91.28125 C 99.238281 92.363281 97.519531 89.949219 96.257812 88.1875 C 95.925781 87.652344 95.511719 87.167969 95.027344 86.765625 Z M 103.140625 91.027344 C 102.867188 90.699219 102.628906 90.347656 102.429688 89.96875 C 101.503906 88.382812 100.121094 86 95.515625 86.726562 C 95.890625 87.117188 96.230469 87.539062 96.523438 87.988281 C 97.769531 89.714844 99.273438 91.851562 103.140625 91.027344 Z M 103.140625 91.027344 "/>
<path style=" stroke:none;fill-rule:nonzero;fill:rgb(21.960784%,19.215687%,17.647059%);fill-opacity:1;" d="M 95.136719 86.625 C 95.136719 86.625 99.015625 88.242188 100.273438 89.808594 C 99.386719 88.308594 96.886719 87.160156 96.886719 87.160156 C 96.886719 87.160156 98.339844 87.316406 99.042969 87.816406 C 98.753906 87.160156 95.136719 86.625 95.136719 86.625 Z M 95.136719 86.625 "/>
<path style=" stroke:none;fill-rule:nonzero;fill:rgb(95.686275%,83.529413%,69.803923%);fill-opacity:1;" d="M 95.136719 86.625 C 96.640625 85.335938 97.160156 80.445312 103 81.242188 C 101.761719 82.136719 101.941406 87.144531 95.136719 86.625 Z M 95.136719 86.625 "/>
<path style=" stroke:none;fill-rule:nonzero;fill:rgb(21.960784%,19.215687%,17.647059%);fill-opacity:1;" d="M 94.691406 86.765625 L 95.011719 86.492188 C 95.441406 86.039062 95.800781 85.519531 96.070312 84.949219 C 97.128906 83.066406 98.582031 80.46875 103.003906 81.074219 L 103.425781 81.136719 L 103.082031 81.386719 C 102.746094 81.746094 102.488281 82.171875 102.332031 82.636719 C 101.523438 84.449219 100.304688 87.191406 95.097656 86.792969 Z M 102.613281 81.375 C 98.691406 80.972656 97.410156 83.253906 96.371094 85.113281 C 96.125 85.597656 95.839844 86.058594 95.511719 86.488281 C 100.164062 86.707031 101.285156 84.191406 102.027344 82.511719 C 102.183594 82.113281 102.378906 81.730469 102.613281 81.375 Z M 102.613281 81.375 "/>
<path style=" stroke:none;fill-rule:nonzero;fill:rgb(21.960784%,19.215687%,17.647059%);fill-opacity:1;" d="M 95.136719 86.625 C 95.136719 86.625 98.816406 84.597656 99.894531 82.902344 C 99.175781 84.488281 96.824219 85.910156 96.824219 85.910156 C 96.824219 85.910156 98.25 85.589844 98.894531 85.027344 C 98.671875 85.695312 95.136719 86.625 95.136719 86.625 Z M 95.136719 86.625 "/>
<path style=" stroke:none;fill-rule:nonzero;fill:rgb(95.686275%,83.529413%,69.803923%);fill-opacity:1;" d="M 91.960938 87.390625 C 93.691406 88.378906 95.078125 93.09375 100.671875 91.238281 C 99.308594 90.589844 98.578125 85.628906 91.960938 87.390625 Z M 91.960938 87.390625 "/>
<path style=" stroke:none;fill-rule:nonzero;fill:rgb(21.960784%,19.215687%,17.647059%);fill-opacity:1;" d="M 91.511719 87.332031 L 91.917969 87.222656 C 96.960938 85.878906 98.660156 88.351562 99.785156 89.988281 C 100.023438 90.417969 100.351562 90.792969 100.746094 91.082031 L 101.125 91.265625 L 100.714844 91.402344 C 96.484375 92.804688 94.578125 90.527344 93.195312 88.863281 C 92.828125 88.355469 92.375 87.90625 91.867188 87.539062 Z M 100.289062 91.179688 C 99.992188 90.875 99.730469 90.542969 99.5 90.183594 C 98.460938 88.679688 96.898438 86.394531 92.359375 87.464844 C 92.761719 87.824219 93.128906 88.21875 93.460938 88.644531 C 94.824219 90.273438 96.503906 92.292969 100.289062 91.179688 Z M 100.289062 91.179688 "/>
<path style=" stroke:none;fill-rule:nonzero;fill:rgb(21.960784%,19.215687%,17.647059%);fill-opacity:1;" d="M 91.960938 87.390625 C 91.960938 87.390625 95.945312 88.714844 97.316406 90.183594 C 96.324219 88.75 93.75 87.792969 93.75 87.792969 C 93.75 87.792969 95.207031 87.84375 95.945312 88.28125 C 95.625 87.652344 91.960938 87.390625 91.960938 87.390625 Z M 91.960938 87.390625 "/>
<path style=" stroke:none;fill-rule:nonzero;fill:rgb(95.686275%,83.529413%,69.803923%);fill-opacity:1;" d="M 91.960938 87.390625 C 93.378906 85.988281 93.515625 81.074219 99.402344 81.441406 C 98.246094 82.414062 98.808594 87.394531 91.960938 87.390625 Z M 91.960938 87.390625 "/>
<path style=" stroke:none;fill-rule:nonzero;fill:rgb(21.960784%,19.215687%,17.647059%);fill-opacity:1;" d="M 91.542969 87.558594 L 91.839844 87.269531 C 92.242188 86.785156 92.558594 86.234375 92.785156 85.644531 C 93.699219 83.683594 94.957031 80.992188 99.414062 81.265625 L 99.832031 81.296875 L 99.511719 81.570312 C 99.203125 81.953125 98.980469 82.402344 98.863281 82.875 C 98.191406 84.753906 97.183594 87.566406 91.960938 87.558594 Z M 99.042969 81.601562 C 95.105469 81.496094 93.988281 83.878906 93.09375 85.800781 C 92.886719 86.292969 92.636719 86.769531 92.34375 87.21875 C 97.003906 87.097656 97.929688 84.5 98.550781 82.773438 C 98.671875 82.363281 98.839844 81.972656 99.042969 81.601562 Z M 99.042969 81.601562 "/>
<path style=" stroke:none;fill-rule:nonzero;fill:rgb(21.960784%,19.215687%,17.647059%);fill-opacity:1;" d="M 91.960938 87.390625 C 91.960938 87.390625 95.476562 85.09375 96.425781 83.320312 C 95.828125 84.957031 93.589844 86.542969 93.589844 86.542969 C 93.589844 86.542969 94.988281 86.121094 95.582031 85.507812 C 95.433594 86.199219 91.960938 87.390625 91.960938 87.390625 Z M 91.960938 87.390625 "/>
<path style=" stroke:none;fill-rule:nonzero;fill:rgb(95.686275%,83.529413%,69.803923%);fill-opacity:1;" d="M 87.945312 89.195312 C 89.773438 89.996094 91.65625 94.53125 97.019531 92.09375 C 95.597656 91.59375 94.339844 86.742188 87.945312 89.195312 Z M 87.945312 89.195312 "/>
<path style=" stroke:none;fill-rule:nonzero;fill:rgb(21.960784%,19.215687%,17.647059%);fill-opacity:1;" d="M 87.496094 89.183594 L 87.871094 89.035156 C 92.761719 87.15625 94.695312 89.4375 95.992188 90.941406 C 96.273438 91.34375 96.636719 91.683594 97.058594 91.929688 L 97.464844 92.074219 L 97.085938 92.25 C 93.023438 94.097656 90.894531 92.035156 89.335938 90.527344 C 88.917969 90.058594 88.421875 89.660156 87.871094 89.351562 Z M 96.632812 92.074219 C 96.304688 91.804688 96.007812 91.503906 95.746094 91.167969 C 94.546875 89.769531 92.738281 87.683594 88.359375 89.222656 C 88.800781 89.535156 89.207031 89.894531 89.578125 90.285156 C 91.101562 91.753906 92.988281 93.585938 96.640625 92.074219 Z M 96.632812 92.074219 "/>
<path style=" stroke:none;fill-rule:nonzero;fill:rgb(21.960784%,19.215687%,17.647059%);fill-opacity:1;" d="M 87.945312 89.195312 C 87.945312 89.195312 92.054688 90.085938 93.589844 91.402344 C 92.460938 90.085938 89.789062 89.40625 89.789062 89.40625 C 89.789062 89.40625 91.242188 89.300781 92.019531 89.65625 C 91.621094 89.066406 87.945312 89.195312 87.945312 89.195312 Z M 87.945312 89.195312 "/>
<path style=" stroke:none;fill-rule:nonzero;fill:rgb(95.686275%,83.529413%,69.803923%);fill-opacity:1;" d="M 87.945312 89.195312 C 89.207031 87.652344 88.824219 82.753906 94.714844 82.488281 C 93.671875 83.582031 94.761719 88.476562 87.945312 89.195312 Z M 87.945312 89.195312 "/>
<path style=" stroke:none;fill-rule:nonzero;fill:rgb(21.960784%,19.215687%,17.647059%);fill-opacity:1;" d="M 87.546875 89.410156 L 87.816406 89.085938 C 88.152344 88.558594 88.410156 87.980469 88.566406 87.375 C 89.269531 85.324219 90.230469 82.515625 94.691406 82.316406 L 95.113281 82.296875 L 94.820312 82.605469 C 94.585938 82.847656 94.445312 83.359375 94.3125 83.972656 C 93.847656 85.902344 93.140625 88.816406 87.945312 89.363281 Z M 94.386719 82.683594 C 90.453125 82.988281 89.605469 85.480469 88.917969 87.484375 C 88.761719 88.003906 88.558594 88.503906 88.3125 88.988281 C 92.929688 88.363281 93.578125 85.6875 94.007812 83.902344 C 94.085938 83.480469 94.214844 83.074219 94.386719 82.683594 Z M 94.386719 82.683594 "/>
<path style=" stroke:none;fill-rule:nonzero;fill:rgb(21.960784%,19.215687%,17.647059%);fill-opacity:1;" d="M 87.945312 89.195312 C 87.945312 89.195312 91.199219 86.535156 91.953125 84.683594 C 91.539062 86.371094 89.480469 88.1875 89.480469 88.1875 C 89.480469 88.1875 90.820312 87.617188 91.355469 86.945312 C 91.277344 87.640625 87.945312 89.195312 87.945312 89.195312 Z M 87.945312 89.195312 "/>
</g>
</svg>
