<?xml version="1.0" encoding="UTF-8"?>
<svg xmlns="http://www.w3.org/2000/svg" xmlns:xlink="http://www.w3.org/1999/xlink" width="200px" height="200px" viewBox="0 0 200 200" version="1.1">
<g id="surface1">
<path style=" stroke:none;fill-rule:nonzero;fill:rgb(93.725491%,25.490198%,21.176471%);fill-opacity:1;" d="M 100 200 C 44.859375 200 0 155.140625 0 100.003906 C 0 44.863281 44.859375 0 100 0 C 155.140625 0 200 44.859375 200 100.003906 C 200 155.144531 155.136719 200 100 200 Z M 100 1.1875 C 45.515625 1.1875 1.1875 45.515625 1.1875 100.003906 C 1.1875 154.488281 45.515625 198.8125 100 198.8125 C 154.484375 198.8125 198.8125 154.484375 198.8125 100.003906 C 198.8125 45.519531 154.484375 1.1875 100 1.1875 Z M 100 1.1875 "/>
<path style=" stroke:none;fill-rule:nonzero;fill:rgb(93.725491%,25.490198%,21.176471%);fill-opacity:1;" d="M 100 186.898438 C 52.082031 186.898438 13.105469 147.914062 13.105469 100.003906 C 13.105469 52.089844 52.082031 13.105469 100 13.105469 C 147.917969 13.105469 186.894531 52.085938 186.894531 100.003906 C 186.894531 147.921875 147.90625 186.898438 100 186.898438 Z M 100 14.292969 C 52.738281 14.292969 14.292969 52.742188 14.292969 100.003906 C 14.292969 147.261719 52.738281 185.707031 100 185.707031 C 147.261719 185.707031 185.707031 147.257812 185.707031 100.003906 C 185.707031 52.746094 147.261719 14.292969 100 14.292969 Z M 100 14.292969 "/>
<path style=" stroke:none;fill-rule:nonzero;fill:rgb(0%,0%,0%);fill-opacity:1;" d="M 49.136719 47.710938 L 47.757812 46.367188 C 47.609375 46.203125 47.40625 46.097656 47.1875 46.074219 C 46.96875 46.050781 46.746094 46.109375 46.566406 46.238281 L 45.636719 47.195312 C 45.507812 47.378906 45.457031 47.601562 45.488281 47.820312 C 45.519531 48.039062 45.628906 48.238281 45.800781 48.378906 L 51.316406 53.75 C 51.457031 53.910156 51.65625 54.007812 51.871094 54.027344 C 52.082031 54.042969 52.292969 53.976562 52.460938 53.839844 L 53.390625 52.875 C 53.523438 52.707031 53.585938 52.496094 53.5625 52.285156 C 53.539062 52.070312 53.433594 51.875 53.273438 51.738281 L 51.683594 50.1875 L 52.097656 49.757812 L 53.6875 51.308594 C 53.941406 51.546875 54.09375 51.878906 54.113281 52.226562 C 54.132812 52.578125 54.015625 52.921875 53.789062 53.1875 L 52.816406 54.191406 C 52.558594 54.441406 52.214844 54.578125 51.855469 54.578125 C 51.496094 54.578125 51.152344 54.441406 50.894531 54.191406 L 45.378906 48.824219 C 45.121094 48.574219 44.972656 48.234375 44.960938 47.875 C 44.949219 47.515625 45.078125 47.167969 45.320312 46.898438 L 46.253906 45.941406 C 46.511719 45.691406 46.855469 45.554688 47.214844 45.554688 C 47.574219 45.554688 47.917969 45.691406 48.175781 45.941406 L 49.554688 47.285156 Z M 49.136719 47.710938 "/>
<path style=" stroke:none;fill-rule:nonzero;fill:rgb(0%,0%,0%);fill-opacity:1;" d="M 58.160156 44.710938 L 56.359375 46.167969 L 58.023438 49.175781 L 57.59375 49.527344 L 52.578125 40.265625 L 52.816406 40.070312 L 52.992188 39.9375 L 53.242188 39.730469 L 61.261719 46.570312 L 60.8125 46.941406 Z M 57.824219 44.414062 L 53.25 40.46875 L 56.148438 45.773438 Z M 57.824219 44.414062 "/>
<path style=" stroke:none;fill-rule:nonzero;fill:rgb(0%,0%,0%);fill-opacity:1;" d="M 63.007812 38.671875 L 63.171875 40.460938 L 65.273438 43.792969 L 64.773438 44.097656 L 59.257812 35.328125 L 59.757812 35.023438 L 62.5625 39.46875 L 62.011719 33.59375 L 62.511719 33.265625 L 62.921875 37.96875 L 68.164062 41.980469 L 67.660156 42.300781 Z M 63.007812 38.671875 "/>
<path style=" stroke:none;fill-rule:nonzero;fill:rgb(0%,0%,0%);fill-opacity:1;" d="M 75.054688 37.929688 L 75.246094 38.328125 L 72.390625 39.707031 L 72.257812 39.769531 L 71.847656 39.964844 L 67.335938 30.625 L 70.695312 29.011719 L 70.886719 29.40625 L 68.078125 30.761719 L 69.886719 34.503906 L 72.148438 33.414062 L 72.339844 33.8125 L 70.078125 34.902344 L 72.199219 39.308594 Z M 75.054688 37.929688 "/>
<path style=" stroke:none;fill-rule:nonzero;fill:rgb(0%,0%,0%);fill-opacity:1;" d="M 87.820312 28.191406 L 87.925781 28.625 L 87.054688 28.839844 L 88.023438 32.714844 C 88.105469 33.058594 88.050781 33.421875 87.871094 33.726562 C 87.6875 34.03125 87.390625 34.25 87.050781 34.335938 L 85.898438 34.621094 C 85.550781 34.707031 85.1875 34.652344 84.886719 34.46875 C 84.582031 34.285156 84.363281 33.992188 84.277344 33.648438 L 83.484375 30.484375 C 83.457031 30.277344 83.476562 30.0625 83.542969 29.867188 C 83.613281 29.667969 83.730469 29.488281 83.878906 29.339844 C 83.695312 29.261719 83.527344 29.136719 83.398438 28.980469 C 83.269531 28.824219 83.175781 28.640625 83.128906 28.445312 L 82.558594 26.148438 C 82.472656 25.8125 82.519531 25.460938 82.6875 25.160156 C 82.859375 24.863281 83.140625 24.640625 83.46875 24.542969 L 83.515625 24.542969 L 83.671875 24.503906 L 84.382812 24.324219 C 84.726562 24.238281 85.089844 24.292969 85.390625 24.476562 C 85.695312 24.660156 85.914062 24.953125 86 25.296875 L 86.398438 26.878906 L 85.816406 27.023438 L 85.421875 25.445312 C 85.386719 25.230469 85.269531 25.039062 85.09375 24.910156 C 84.921875 24.78125 84.703125 24.726562 84.488281 24.753906 L 83.621094 24.96875 C 83.417969 25.046875 83.25 25.195312 83.15625 25.390625 C 83.066406 25.585938 83.050781 25.8125 83.117188 26.015625 L 83.730469 28.292969 C 83.765625 28.507812 83.882812 28.699219 84.058594 28.828125 C 84.230469 28.957031 84.449219 29.011719 84.664062 28.984375 Z M 86.472656 28.984375 L 84.609375 29.445312 C 84.40625 29.523438 84.242188 29.671875 84.148438 29.863281 C 84.054688 30.058594 84.039062 30.28125 84.105469 30.484375 L 84.863281 33.492188 C 84.898438 33.707031 85.019531 33.902344 85.195312 34.027344 C 85.371094 34.15625 85.589844 34.210938 85.804688 34.179688 L 86.960938 33.894531 C 87.160156 33.816406 87.328125 33.664062 87.417969 33.46875 C 87.511719 33.273438 87.527344 33.050781 87.460938 32.847656 Z M 86.472656 28.984375 "/>
<path style=" stroke:none;fill-rule:nonzero;fill:rgb(0%,0%,0%);fill-opacity:1;" d="M 102.46875 25.195312 L 102.390625 23.273438 C 102.390625 22.839844 102.066406 22.347656 101.625 22.363281 L 100.292969 22.414062 C 99.851562 22.414062 99.574219 22.914062 99.59375 23.378906 L 99.875 31.085938 C 99.867188 31.300781 99.941406 31.507812 100.085938 31.667969 C 100.226562 31.828125 100.429688 31.925781 100.640625 31.9375 L 101.976562 31.886719 C 102.1875 31.859375 102.378906 31.746094 102.511719 31.578125 C 102.640625 31.40625 102.703125 31.195312 102.675781 30.980469 L 102.597656 28.765625 L 103.199219 28.765625 L 103.28125 30.980469 C 103.296875 31.332031 103.179688 31.671875 102.953125 31.9375 C 102.726562 32.203125 102.402344 32.371094 102.054688 32.40625 L 100.660156 32.457031 C 100.296875 32.457031 99.945312 32.3125 99.683594 32.058594 C 99.425781 31.800781 99.277344 31.453125 99.273438 31.085938 L 98.992188 23.398438 C 98.976562 23.042969 99.101562 22.691406 99.34375 22.425781 C 99.582031 22.160156 99.917969 21.996094 100.277344 21.976562 L 101.609375 21.925781 C 101.96875 21.921875 102.3125 22.058594 102.570312 22.308594 C 102.832031 22.558594 102.980469 22.894531 102.992188 23.253906 L 103.0625 25.175781 Z M 102.46875 25.195312 "/>
<path style=" stroke:none;fill-rule:nonzero;fill:rgb(0%,0%,0%);fill-opacity:1;" d="M 112.894531 22.390625 L 112.136719 31.386719 C 112.109375 31.746094 111.941406 32.078125 111.671875 32.3125 C 111.398438 32.550781 111.046875 32.671875 110.691406 32.652344 L 109.359375 32.539062 C 109 32.5 108.671875 32.316406 108.445312 32.035156 C 108.21875 31.753906 108.109375 31.394531 108.140625 31.035156 L 108.90625 22.0625 L 109.5 22.105469 L 108.742188 31.132812 C 108.707031 31.574219 108.953125 32.09375 109.394531 32.132812 L 110.730469 32.25 C 111.164062 32.285156 111.5 31.808594 111.535156 31.371094 L 112.292969 22.347656 Z M 112.894531 22.390625 "/>
<path style=" stroke:none;fill-rule:nonzero;fill:rgb(0%,0%,0%);fill-opacity:1;" d="M 122.566406 25.410156 L 121.957031 28.3125 C 121.878906 28.65625 121.667969 28.953125 121.375 29.140625 C 121.078125 29.328125 120.71875 29.394531 120.375 29.316406 L 118.324219 28.90625 L 117.347656 33.546875 L 116.761719 33.425781 L 118.898438 23.273438 L 119.34375 23.371094 L 119.488281 23.398438 L 121.492188 23.824219 C 121.667969 23.859375 121.835938 23.925781 121.984375 24.023438 C 122.132812 24.121094 122.261719 24.246094 122.359375 24.394531 C 122.460938 24.542969 122.53125 24.707031 122.566406 24.882812 C 122.601562 25.054688 122.601562 25.234375 122.566406 25.410156 Z M 121.363281 28.191406 L 121.976562 25.285156 C 122.027344 25.082031 122.003906 24.867188 121.90625 24.679688 C 121.808594 24.496094 121.640625 24.351562 121.445312 24.28125 L 119.414062 23.855469 L 118.4375 28.5 L 120.464844 28.929688 C 120.683594 28.953125 120.898438 28.886719 121.066406 28.746094 C 121.234375 28.609375 121.34375 28.410156 121.363281 28.191406 Z M 121.363281 28.191406 "/>
<path style=" stroke:none;fill-rule:nonzero;fill:rgb(0%,0%,0%);fill-opacity:1;" d="M 130.578125 29.84375 L 131.199219 28.023438 C 131.289062 27.820312 131.296875 27.589844 131.222656 27.382812 C 131.152344 27.175781 131.003906 27 130.808594 26.894531 L 129.546875 26.464844 C 129.128906 26.324219 128.6875 26.699219 128.542969 27.117188 L 126.035156 34.390625 C 125.949219 34.585938 125.945312 34.808594 126.019531 35.007812 C 126.097656 35.210938 126.25 35.371094 126.441406 35.464844 L 127.707031 35.894531 C 127.917969 35.949219 128.144531 35.914062 128.332031 35.804688 C 128.519531 35.691406 128.65625 35.507812 128.707031 35.296875 L 129.425781 33.203125 L 129.992188 33.398438 L 129.273438 35.492188 C 129.167969 35.828125 128.9375 36.105469 128.628906 36.273438 C 128.320312 36.4375 127.957031 36.480469 127.621094 36.386719 L 126.300781 35.933594 C 125.964844 35.808594 125.691406 35.554688 125.539062 35.230469 C 125.386719 34.90625 125.367188 34.535156 125.484375 34.195312 L 127.992188 26.917969 C 128.113281 26.589844 128.355469 26.316406 128.671875 26.160156 C 128.988281 26 129.355469 25.96875 129.691406 26.074219 L 130.957031 26.503906 C 131.289062 26.632812 131.5625 26.882812 131.714844 27.207031 C 131.867188 27.53125 131.886719 27.902344 131.773438 28.242188 L 131.144531 30.0625 Z M 130.578125 29.84375 "/>
<path style=" stroke:none;fill-rule:nonzero;fill:rgb(0%,0%,0%);fill-opacity:1;" d="M 137.175781 36.6875 L 135.085938 35.683594 L 133.046875 38.488281 L 132.542969 38.242188 L 138.78125 29.71875 L 139.0625 29.851562 L 139.257812 29.949219 L 139.554688 30.089844 L 136.78125 40.273438 L 136.25 40.015625 Z M 137.304688 36.253906 L 138.917969 30.429688 L 135.371094 35.316406 Z M 137.304688 36.253906 "/>
<path style=" stroke:none;fill-rule:nonzero;fill:rgb(0%,0%,0%);fill-opacity:1;" d="M 144.699219 38.515625 L 143.144531 39.425781 L 141.027344 42.742188 L 140.527344 42.433594 L 146.125 33.695312 L 146.628906 34 L 143.800781 38.4375 L 148.894531 35.429688 L 149.394531 35.75 L 145.316406 38.128906 L 143.941406 44.574219 L 143.4375 44.246094 Z M 144.699219 38.515625 "/>
<path style=" stroke:none;fill-rule:nonzero;fill:rgb(0%,0%,0%);fill-opacity:1;" d="M 150.503906 49.105469 L 150.226562 49.445312 L 147.765625 47.441406 L 147.652344 47.347656 L 147.300781 47.0625 L 153.816406 39.039062 L 156.707031 41.375 L 156.429688 41.714844 L 154.007812 39.753906 L 151.417969 42.96875 L 153.363281 44.546875 L 153.085938 44.894531 L 151.136719 43.308594 L 148.042969 47.128906 Z M 150.503906 49.105469 "/>
<path style=" stroke:none;fill-rule:nonzero;fill:rgb(0%,0%,0%);fill-opacity:1;" d="M 158.5 52.722656 L 157.023438 54.148438 C 156.765625 54.398438 156.421875 54.535156 156.066406 54.535156 C 155.710938 54.535156 155.367188 54.398438 155.113281 54.148438 L 154.042969 53.058594 C 153.808594 52.792969 153.683594 52.445312 153.699219 52.09375 C 153.710938 51.738281 153.859375 51.402344 154.113281 51.15625 L 155.617188 49.714844 L 156.039062 50.144531 L 154.535156 51.589844 C 154.367188 51.730469 154.257812 51.929688 154.226562 52.148438 C 154.199219 52.367188 154.253906 52.589844 154.378906 52.769531 L 155.417969 53.835938 C 155.597656 53.964844 155.816406 54.023438 156.039062 54.003906 C 156.257812 53.980469 156.460938 53.875 156.609375 53.710938 L 158.089844 52.265625 C 158.5 51.863281 158.460938 51.554688 158.375 50.957031 C 158.289062 50.285156 158.175781 49.492188 158.042969 48.773438 C 157.953125 48.492188 157.941406 48.1875 158.011719 47.894531 C 158.085938 47.605469 158.238281 47.339844 158.449219 47.128906 L 159.71875 45.886719 C 159.972656 45.636719 160.316406 45.5 160.675781 45.5 C 161.03125 45.5 161.375 45.636719 161.628906 45.886719 L 162.472656 46.75 C 162.710938 47.015625 162.835938 47.363281 162.824219 47.71875 C 162.8125 48.074219 162.660156 48.410156 162.40625 48.660156 L 160.941406 50.140625 L 160.519531 49.707031 L 162.027344 48.265625 C 162.195312 48.121094 162.308594 47.921875 162.335938 47.703125 C 162.367188 47.484375 162.3125 47.261719 162.1875 47.082031 L 161.34375 46.222656 C 161.167969 46.089844 160.945312 46.03125 160.726562 46.054688 C 160.507812 46.078125 160.304688 46.1875 160.160156 46.355469 L 158.992188 47.492188 C 158.492188 47.992188 158.5625 48.308594 158.65625 48.867188 C 158.75 49.421875 158.917969 50.585938 159.027344 51.15625 C 159.09375 51.441406 159.082031 51.738281 158.988281 52.015625 C 158.894531 52.292969 158.726562 52.535156 158.5 52.722656 Z M 158.5 52.722656 "/>
<path style=" stroke:none;fill-rule:evenodd;fill:rgb(0%,29.803923%,36.470589%);fill-opacity:1;" d="M 89.878906 82.914062 C 89.375 81.175781 87.695312 80.09375 84.777344 79.679688 C 82.613281 79.371094 80.410156 79.488281 78.289062 80.03125 C 76.582031 80.476562 74.945312 81.171875 73.4375 82.09375 L 72.066406 83.136719 C 71.605469 83.480469 71.125 83.816406 70.628906 84.136719 C 69.703125 83.988281 68.890625 83.863281 68.199219 83.757812 L 66.472656 83.515625 C 64.121094 83.375 61.761719 83.652344 59.507812 84.332031 C 56.214844 85.242188 53.5625 86.457031 51.546875 87.96875 C 51.066406 88.359375 49.640625 89.75 47.273438 92.136719 C 45.019531 91.785156 42.714844 91.875 40.492188 92.40625 C 35.519531 93.78125 31.753906 96.847656 29.195312 101.605469 C 26.636719 106.367188 26.058594 111.214844 27.457031 116.148438 C 28.667969 120.535156 31.074219 123.632812 34.671875 125.445312 C 38.265625 127.25 42.277344 127.546875 46.703125 126.324219 C 51.949219 124.878906 56.042969 122.546875 58.992188 119.335938 C 61.445312 116.59375 63.460938 112.683594 65.042969 107.597656 C 65.484375 106.109375 65.730469 103.660156 65.785156 100.253906 C 65.785156 98.589844 65.875 97.179688 66 96.015625 C 66.078125 95.0625 66.28125 94.125 66.609375 93.222656 C 68.191406 89.0625 69.542969 86.476562 70.664062 85.460938 C 72.246094 85.839844 73.5 87.707031 74.425781 91.066406 C 75.039062 93.292969 74.332031 96.070312 72.296875 99.394531 C 71.457031 98.910156 70.46875 98.75 69.515625 98.949219 C 68.421875 99.25 67.976562 99.777344 68.1875 100.535156 C 68.261719 100.753906 68.394531 100.949219 68.570312 101.101562 C 68.746094 101.253906 68.960938 101.355469 69.191406 101.398438 C 69.675781 101.558594 70.195312 101.578125 70.695312 101.457031 C 70.96875 101.382812 71.195312 101.300781 71.433594 101.226562 C 71.628906 101.15625 71.820312 101.074219 72.003906 100.980469 C 72.488281 101.960938 72.878906 102.980469 73.175781 104.035156 C 73.941406 106.8125 73.902344 108.871094 73.054688 110.210938 C 70.695312 110.835938 68.449219 111.832031 66.398438 113.152344 C 63.601562 115.035156 62.5 117.054688 63.09375 119.210938 C 63.519531 120.753906 64.90625 121.238281 67.253906 120.664062 C 68.703125 120.300781 70.09375 119.730469 71.382812 118.96875 C 72.625 118.234375 73.75 117.316406 74.71875 116.246094 C 76.695312 114.085938 77.902344 111.332031 78.148438 108.414062 C 80.15625 106.828125 81.894531 104.925781 83.300781 102.785156 L 82.796875 102.488281 C 81.609375 104.4375 80.046875 106.132812 78.195312 107.46875 C 77.300781 104.210938 75.75 101.800781 73.542969 100.234375 C 74.332031 99.472656 75.054688 98.648438 75.707031 97.769531 C 76.199219 97.121094 76.640625 96.4375 77.027344 95.71875 C 77.90625 94.019531 78.085938 92.039062 77.527344 90.207031 C 77.101562 88.78125 76.234375 87.527344 75.050781 86.628906 L 73.296875 85.480469 C 72.753906 85.132812 72.234375 84.785156 71.738281 84.449219 C 74.285156 82.445312 76.515625 81.179688 78.4375 80.660156 C 80.371094 80.15625 82.386719 80.03125 84.367188 80.292969 C 87.085938 80.652344 88.65625 81.601562 89.078125 83.140625 C 89.296875 83.925781 88.996094 84.769531 88.167969 85.648438 C 87.855469 85.996094 87.507812 86.316406 87.132812 86.601562 C 86.746094 86.898438 86.320312 87.144531 85.871094 87.335938 L 86.527344 87.707031 C 87.492188 87.261719 88.347656 86.609375 89.035156 85.796875 C 89.832031 84.796875 90.101562 83.84375 89.847656 82.914062 Z M 71.5625 100.148438 C 71.21875 100.386719 70.835938 100.566406 70.433594 100.679688 C 69.75 100.871094 69.339844 100.726562 69.210938 100.242188 C 69.125 99.933594 69.285156 99.742188 69.710938 99.613281 C 70.214844 99.472656 70.851562 99.644531 71.578125 100.148438 Z M 57.898438 102.367188 C 58.0625 103.308594 58.046875 104.273438 57.855469 105.207031 C 56.992188 106.632812 55.613281 107.667969 54.003906 108.09375 C 51.847656 108.691406 49.980469 108.46875 48.398438 107.429688 C 46.75 106.292969 45.589844 104.578125 45.140625 102.628906 C 44.652344 100.914062 44.6875 99.09375 45.246094 97.398438 C 45.453125 96.742188 45.71875 96.101562 46.042969 95.488281 C 46.425781 94.738281 46.910156 93.878906 47.492188 92.90625 C 53.058594 94.246094 56.527344 97.398438 57.898438 102.367188 Z M 73.070312 111.023438 L 71.363281 115.253906 C 69.917969 117.898438 68.207031 119.460938 66.238281 119.925781 C 64.785156 120.292969 63.929688 119.996094 63.664062 119.035156 C 63.164062 117.21875 64.074219 115.507812 66.398438 113.910156 C 68.445312 112.585938 70.703125 111.609375 73.070312 111.023438 Z M 69.757812 84.992188 C 67.089844 87.070312 64.949219 89.746094 63.503906 92.804688 C 61.976562 95.808594 61.023438 99.074219 60.6875 102.429688 C 60.515625 104.097656 60.390625 105.382812 60.304688 106.269531 C 60.21875 107.15625 60.160156 107.683594 60.128906 107.839844 C 59.714844 110.609375 58.839844 113.292969 57.539062 115.777344 C 56.328125 118.023438 54.773438 120.070312 52.929688 121.839844 C 51.117188 123.621094 48.898438 124.9375 46.460938 125.671875 C 42.210938 126.847656 38.402344 126.605469 35.035156 124.953125 C 31.492188 123.210938 29.136719 120.226562 27.972656 115.996094 C 26.660156 111.234375 27.261719 106.53125 29.777344 101.890625 C 32.292969 97.253906 35.894531 94.265625 40.582031 92.933594 C 42.609375 92.367188 44.75 92.328125 46.796875 92.816406 C 45.675781 94.753906 45.019531 95.929688 44.84375 96.328125 C 44.035156 98.367188 43.917969 100.613281 44.507812 102.726562 C 45.148438 105.066406 46.308594 106.792969 47.988281 107.902344 C 48.878906 108.507812 49.898438 108.902344 50.964844 109.054688 C 52.03125 109.210938 53.121094 109.125 54.148438 108.800781 C 55.375 108.375 56.53125 107.773438 57.589844 107.023438 C 57.539062 108.144531 57.257812 109.246094 56.769531 110.257812 C 56.277344 111.269531 55.582031 112.167969 54.730469 112.902344 C 53.355469 114.207031 52.0625 114.929688 50.851562 115.074219 L 51.050781 115.796875 C 52.128906 115.507812 53.144531 115.03125 54.058594 114.390625 C 54.949219 113.761719 55.734375 112.996094 56.390625 112.121094 C 57.054688 111.226562 57.582031 110.242188 57.960938 109.191406 C 58.351562 108.113281 58.589844 106.988281 58.671875 105.84375 C 60.03125 103.441406 60.476562 101.4375 59.996094 99.828125 C 59.808594 99.066406 59.464844 98.355469 58.992188 97.730469 C 58.875 97.636719 58.765625 97.539062 58.660156 97.429688 C 58.484375 97.261719 58.214844 96.980469 57.855469 96.601562 L 57.351562 96.914062 C 58.542969 98.285156 59.21875 99.332031 59.382812 100.0625 C 59.515625 100.726562 59.496094 101.414062 59.328125 102.066406 L 58.78125 104.097656 C 58.691406 103.496094 58.625 103.046875 58.601562 102.738281 C 58.574219 102.433594 58.550781 102.261719 58.539062 102.238281 C 57.203125 97.40625 53.664062 94.140625 47.925781 92.445312 C 49.289062 90.785156 50.847656 89.296875 52.566406 88.007812 C 54.742188 86.578125 57.144531 85.523438 59.667969 84.886719 C 62.972656 83.945312 66.476562 83.984375 69.757812 84.992188 Z M 69.757812 84.992188 "/>
<path style=" stroke:none;fill-rule:evenodd;fill:rgb(0%,29.803923%,36.470589%);fill-opacity:1;" d="M 105.242188 96.714844 L 104.742188 96.460938 C 104.171875 97.730469 103.539062 99.042969 102.847656 100.417969 C 102.15625 101.792969 101.375 103.226562 100.496094 104.71875 C 98.089844 108.960938 96.304688 111.242188 95.140625 111.566406 C 94.386719 111.773438 93.914062 111.535156 93.722656 110.847656 C 93.59375 110.371094 93.667969 109.503906 93.949219 108.246094 L 97.175781 93.761719 C 96.914062 94.066406 96.695312 94.402344 96.515625 94.761719 C 96.21875 95.265625 96.015625 95.566406 95.863281 95.605469 C 95.503906 95.691406 95.132812 95.746094 94.761719 95.765625 C 94.382812 95.777344 94.007812 95.824219 93.636719 95.90625 C 93.328125 95.992188 93.035156 96.351562 92.769531 96.980469 C 92.359375 96.652344 91.871094 96.4375 91.351562 96.347656 C 90.835938 96.261719 90.304688 96.304688 89.808594 96.476562 C 86.929688 97.269531 84.601562 99.128906 82.828125 102.054688 C 81.054688 104.976562 80.578125 107.875 81.410156 110.746094 C 82.339844 114.089844 83.949219 115.453125 86.242188 114.832031 C 88.027344 114.335938 89.378906 112.894531 90.304688 110.507812 C 91.777344 112.242188 93.355469 112.867188 95.035156 112.40625 C 97.535156 111.714844 100.945312 106.496094 105.257812 96.75 Z M 92.253906 98.085938 C 92.425781 98.707031 91.589844 102.480469 89.746094 109.410156 C 89.035156 112.042969 87.992188 113.546875 86.625 113.921875 C 85.933594 114.117188 85.433594 113.648438 85.121094 112.511719 C 84.609375 110.667969 84.894531 107.894531 85.976562 104.199219 C 87.195312 100.0625 88.816406 97.726562 90.839844 97.179688 C 91.535156 96.953125 92.011719 97.269531 92.253906 98.085938 Z M 92.253906 98.085938 "/>
<path style=" stroke:none;fill-rule:evenodd;fill:rgb(0%,29.803923%,36.470589%);fill-opacity:1;" d="M 119.828125 71.277344 C 119.761719 71.042969 119.632812 70.828125 119.457031 70.660156 C 119.28125 70.492188 119.0625 70.371094 118.828125 70.316406 C 118.339844 70.15625 117.816406 70.144531 117.324219 70.269531 C 115.097656 70.886719 112.382812 75.285156 109.179688 83.472656 C 107.9375 86.578125 106.925781 89.292969 106.140625 91.609375 C 105.46875 93.550781 104.914062 95.535156 104.488281 97.546875 C 103.988281 100.007812 103.488281 102.371094 102.984375 104.636719 C 102.480469 106.902344 101.980469 109.113281 101.480469 111.269531 C 101.796875 110.953125 102.070312 110.601562 102.296875 110.214844 C 102.625 109.683594 102.878906 109.386719 103.054688 109.34375 C 103.332031 109.285156 103.613281 109.273438 103.894531 109.304688 C 104.195312 109.328125 104.5 109.3125 104.792969 109.25 C 105.410156 109.078125 105.894531 108.296875 106.253906 106.910156 C 106.558594 105.351562 106.832031 104.019531 107.085938 102.902344 C 107.335938 101.78125 107.554688 100.925781 107.746094 100.277344 L 109.644531 99.777344 C 110.695312 99.566406 111.25 99.578125 111.320312 99.816406 C 111.390625 100.058594 111.320312 101.097656 111.039062 102.824219 C 110.78125 104.410156 110.714844 105.441406 110.84375 105.925781 C 110.914062 106.195312 111.042969 106.449219 111.226562 106.664062 C 111.410156 106.878906 111.644531 107.042969 111.902344 107.152344 C 112.453125 107.390625 113.074219 107.425781 113.648438 107.253906 C 115.15625 106.835938 116.945312 104.625 119.011719 100.625 C 119.347656 100.011719 119.832031 98.972656 120.472656 97.511719 C 121.109375 96.046875 121.902344 94.167969 122.847656 91.875 L 122.347656 91.628906 C 118.460938 100.65625 115.917969 105.332031 114.714844 105.667969 C 114.339844 105.769531 114.113281 105.667969 114.039062 105.414062 C 114.105469 104.5625 114.261719 103.722656 114.507812 102.90625 C 114.878906 101.441406 114.996094 100.46875 114.867188 99.988281 C 114.753906 99.578125 114.257812 98.992188 113.386719 98.238281 C 116.464844 95.359375 117.738281 92.960938 117.207031 91.042969 C 116.839844 89.703125 115.96875 89.226562 114.601562 89.601562 C 112.953125 90.058594 111.039062 91.878906 108.859375 95.0625 C 109.089844 94.296875 109.28125 93.664062 109.441406 93.160156 C 109.601562 92.652344 109.714844 92.296875 109.808594 92.089844 C 111.9375 90.320312 114.257812 87.152344 116.757812 82.59375 C 119.515625 77.480469 120.554688 73.703125 119.886719 71.269531 Z M 117.375 72.402344 C 117.773438 74.136719 117.234375 76.996094 115.753906 80.980469 C 114.097656 85.277344 112.171875 88.523438 109.976562 90.710938 C 110.058594 88.992188 110.902344 85.515625 112.515625 80.273438 C 114.21875 74.675781 115.554688 71.746094 116.527344 71.480469 C 116.9375 71.363281 117.226562 71.671875 117.394531 72.402344 Z M 113.863281 92.839844 C 114.117188 93.765625 113.902344 94.785156 113.214844 95.894531 C 112.121094 97.671875 110.28125 98.859375 107.703125 99.460938 C 107.882812 98.375 108.492188 96.988281 109.542969 95.300781 C 110.613281 93.453125 111.597656 92.410156 112.488281 92.160156 C 113.230469 91.960938 113.679688 92.183594 113.859375 92.839844 Z M 113.863281 92.839844 "/>
<path style=" stroke:none;fill-rule:evenodd;fill:rgb(0%,29.803923%,36.470589%);fill-opacity:1;" d="M 138.457031 87.542969 L 137.953125 87.296875 C 137.542969 88.671875 137.027344 90.015625 136.40625 91.308594 C 135.625 92.898438 134.734375 94.429688 133.738281 95.890625 C 131.09375 99.941406 128.640625 102.28125 126.378906 102.910156 C 125.457031 103.167969 124.816406 102.667969 124.46875 101.40625 C 124.171875 100.144531 124.144531 98.828125 124.398438 97.554688 C 125.972656 97.117188 127.8125 96.019531 129.914062 94.261719 C 132.636719 91.960938 133.699219 89.730469 133.101562 87.574219 C 133.003906 87.191406 132.828125 86.839844 132.578125 86.535156 C 132.332031 86.230469 132.023438 85.980469 131.671875 85.808594 C 130.976562 85.425781 130.15625 85.332031 129.390625 85.550781 C 126.988281 86.21875 124.816406 87.925781 122.875 90.667969 C 120.621094 93.867188 119.945312 97.097656 120.84375 100.355469 C 120.992188 100.960938 121.261719 101.53125 121.636719 102.03125 C 122.015625 102.53125 122.488281 102.953125 123.027344 103.265625 C 123.558594 103.578125 124.148438 103.777344 124.757812 103.851562 C 125.367188 103.925781 125.988281 103.875 126.578125 103.699219 C 129.042969 103.027344 131.636719 100.523438 134.351562 96.175781 C 136.445312 92.796875 137.8125 89.929688 138.449219 87.578125 Z M 130.242188 87.242188 C 130.578125 88.445312 130.03125 90.144531 128.609375 92.339844 C 127.183594 94.539062 125.835938 95.796875 124.5625 96.117188 C 125.765625 90.0625 127.191406 86.8125 128.839844 86.359375 C 129.5625 86.179688 130.027344 86.476562 130.242188 87.242188 Z M 130.242188 87.242188 "/>
<path style=" stroke:none;fill-rule:evenodd;fill:rgb(0%,29.803923%,36.470589%);fill-opacity:1;" d="M 153.621094 83.355469 L 153.121094 83.105469 C 150.027344 91.929688 147.128906 96.714844 144.417969 97.460938 C 143.53125 97.707031 142.953125 97.371094 142.695312 96.457031 C 142.605469 96.117188 142.730469 95.324219 143.09375 94.082031 L 145.238281 86.019531 C 145.613281 84.589844 145.742188 83.648438 145.621094 83.207031 C 145.488281 82.683594 145.167969 82.230469 144.71875 81.933594 C 144.511719 81.785156 144.273438 81.6875 144.019531 81.648438 C 143.769531 81.605469 143.511719 81.625 143.269531 81.695312 C 142.472656 82.007812 141.792969 82.5625 141.328125 83.28125 L 138.835938 86.742188 C 139.648438 85 139.921875 83.648438 139.652344 82.695312 C 139.4375 81.910156 138.917969 81.628906 138.09375 81.851562 C 137.34375 82.0625 136.785156 82.714844 136.421875 83.808594 C 136.09375 84.691406 136.03125 85.652344 136.246094 86.570312 C 136.605469 87.867188 137.195312 88.402344 138.019531 88.179688 C 138.707031 87.941406 139.296875 87.488281 139.703125 86.886719 C 140.207031 86.152344 140.578125 85.757812 140.816406 85.691406 C 140.953125 85.652344 141.054688 85.757812 141.117188 85.992188 C 141.222656 86.375 140.886719 87.953125 140.113281 90.757812 C 139.34375 93.558594 139.085938 95.375 139.328125 96.117188 C 140.054688 98.613281 141.308594 99.617188 143.089844 99.125 C 145.730469 98.398438 148.039062 96.210938 150.015625 92.566406 C 151.128906 90.5625 152.332031 87.5 153.628906 83.382812 Z M 138.882812 82.941406 C 139.074219 83.628906 138.738281 84.996094 137.878906 87.035156 C 137.503906 87.140625 137.230469 86.90625 137.070312 86.324219 C 136.925781 85.613281 136.972656 84.875 137.203125 84.183594 C 137.460938 83.265625 137.832031 82.734375 138.316406 82.605469 C 138.375 82.582031 138.4375 82.574219 138.5 82.578125 C 138.5625 82.585938 138.625 82.601562 138.679688 82.636719 C 138.734375 82.667969 138.78125 82.710938 138.816406 82.765625 C 138.851562 82.816406 138.875 82.878906 138.882812 82.941406 Z M 138.882812 82.941406 "/>
<path style=" stroke:none;fill-rule:evenodd;fill:rgb(0%,29.803923%,36.470589%);fill-opacity:1;" d="M 173.257812 77.929688 L 172.753906 77.683594 L 167.742188 85.933594 L 165.132812 90.304688 C 164.601562 91.078125 164.089844 91.808594 163.578125 92.507812 C 163.097656 93.171875 162.570312 93.796875 161.996094 94.382812 C 163.542969 90.300781 164.789062 86.109375 165.726562 81.847656 L 167.316406 74.386719 C 167.011719 74.707031 166.761719 75.074219 166.566406 75.472656 C 166.242188 76.046875 165.996094 76.351562 165.828125 76.402344 C 165.511719 76.464844 165.191406 76.476562 164.875 76.441406 C 164.539062 76.40625 164.199219 76.425781 163.871094 76.496094 C 163.367188 76.644531 162.992188 77.183594 162.773438 78.132812 L 160.042969 89.289062 C 159.691406 90.667969 158.9375 91.914062 157.878906 92.867188 C 156.953125 93.789062 156.269531 94.3125 155.824219 94.433594 C 155.378906 94.550781 154.972656 94.15625 154.707031 93.199219 C 154.542969 92.285156 154.585938 91.34375 154.832031 90.445312 L 157.867188 76.992188 C 157.59375 77.324219 157.359375 77.6875 157.167969 78.070312 C 156.847656 78.644531 156.601562 78.949219 156.429688 78.996094 C 156.101562 79.0625 155.761719 79.082031 155.425781 79.054688 C 155.054688 79.027344 154.679688 79.054688 154.316406 79.140625 C 153.8125 79.28125 153.4375 79.828125 153.214844 80.769531 L 151.210938 89.734375 C 150.925781 90.859375 150.925781 92.039062 151.210938 93.164062 C 151.847656 95.460938 153.074219 96.355469 154.886719 95.855469 C 156.019531 95.542969 157.464844 94.238281 159.226562 91.945312 L 158.261719 96.859375 C 154.871094 99.078125 152.421875 100.96875 150.914062 102.535156 C 148.71875 104.875 147.898438 107.046875 148.457031 109.050781 C 148.589844 109.589844 148.839844 110.09375 149.183594 110.527344 C 149.53125 110.960938 149.96875 111.3125 150.464844 111.558594 C 151.472656 112.074219 152.644531 112.175781 153.726562 111.851562 C 155.578125 111.339844 157.082031 110.054688 158.238281 107.996094 C 158.710938 107.09375 159.121094 106.160156 159.457031 105.203125 C 159.863281 104.039062 160.183594 102.851562 160.410156 101.640625 C 160.71875 100.199219 160.976562 98.945312 161.203125 97.886719 C 161.429688 96.828125 161.609375 95.945312 161.746094 95.25 C 163.164062 93.925781 164.425781 92.445312 165.503906 90.832031 C 166.148438 89.828125 166.691406 88.90625 167.140625 88.140625 C 167.585938 87.371094 167.972656 86.742188 168.277344 86.25 C 170.890625 81.953125 172.5625 79.167969 173.292969 77.894531 Z M 158.214844 97.410156 C 157.683594 99.367188 157.226562 100.949219 156.839844 102.164062 C 156.460938 103.371094 156.183594 104.222656 156.023438 104.710938 C 154.710938 108.101562 153.230469 110.015625 151.585938 110.476562 C 150.148438 110.867188 149.230469 110.351562 148.828125 108.90625 C 148.320312 107.058594 149.113281 105.054688 151.207031 102.890625 C 152.054688 102.050781 152.953125 101.261719 153.902344 100.539062 C 155.078125 99.628906 156.515625 98.585938 158.21875 97.410156 Z M 158.214844 97.410156 "/>
<path style=" stroke:none;fill-rule:nonzero;fill:rgb(92.941177%,69.411767%,8.627451%);fill-opacity:1;" d="M 104.203125 35.574219 L 106.414062 40.054688 L 111.355469 40.773438 L 107.78125 44.261719 L 108.625 49.179688 L 104.203125 46.859375 L 99.78125 49.179688 L 100.621094 44.261719 L 97.046875 40.773438 L 101.992188 40.054688 Z M 104.203125 35.574219 "/>
<path style=" stroke:none;fill-rule:nonzero;fill:rgb(92.941177%,69.411767%,8.627451%);fill-opacity:1;" d="M 120.304688 42.117188 L 121.453125 44.441406 L 124.015625 44.820312 L 122.160156 46.628906 L 122.601562 49.179688 L 120.304688 47.976562 L 118.007812 49.179688 L 118.445312 46.628906 L 116.589844 44.820312 L 119.15625 44.441406 Z M 120.304688 42.117188 "/>
<path style=" stroke:none;fill-rule:nonzero;fill:rgb(92.941177%,69.411767%,8.627451%);fill-opacity:1;" d="M 88.101562 42.117188 L 89.246094 44.441406 L 91.8125 44.820312 L 89.957031 46.628906 L 90.394531 49.179688 L 88.101562 47.976562 L 85.804688 49.179688 L 86.242188 46.628906 L 84.386719 44.820312 L 86.953125 44.441406 Z M 88.101562 42.117188 "/>
<path style=" stroke:none;fill-rule:nonzero;fill:rgb(92.941177%,69.411767%,8.627451%);fill-opacity:1;" d="M 104.203125 163.875 L 101.992188 159.390625 L 97.046875 158.675781 L 100.621094 155.183594 L 99.78125 150.265625 L 104.203125 152.589844 L 108.625 150.265625 L 107.78125 155.183594 L 111.355469 158.675781 L 106.414062 159.390625 Z M 104.203125 163.875 "/>
<path style=" stroke:none;fill-rule:nonzero;fill:rgb(92.941177%,69.411767%,8.627451%);fill-opacity:1;" d="M 88.097656 157.332031 L 86.949219 155.003906 L 84.386719 154.628906 L 86.242188 152.820312 L 85.800781 150.265625 L 88.097656 151.46875 L 90.394531 150.265625 L 89.957031 152.820312 L 91.8125 154.628906 L 89.246094 155.003906 Z M 88.097656 157.332031 "/>
<path style=" stroke:none;fill-rule:nonzero;fill:rgb(92.941177%,69.411767%,8.627451%);fill-opacity:1;" d="M 120.304688 157.332031 L 119.15625 155.003906 L 116.589844 154.628906 L 118.445312 152.820312 L 118.007812 150.265625 L 120.304688 151.46875 L 122.601562 150.265625 L 122.160156 152.820312 L 124.015625 154.628906 L 121.453125 155.003906 Z M 120.304688 157.332031 "/>
<path style=" stroke:none;fill-rule:nonzero;fill:rgb(0%,0%,0%);fill-opacity:1;" d="M 59.816406 158.070312 L 58.070312 156.539062 L 55.363281 158.695312 L 54.941406 158.328125 L 63.214844 151.8125 L 63.445312 152.011719 L 63.609375 152.15625 L 63.851562 152.375 L 58.476562 161.449219 L 58.035156 161.0625 Z M 60.050781 157.6875 L 63.160156 152.507812 L 58.425781 156.269531 Z M 60.050781 157.6875 "/>
<path style=" stroke:none;fill-rule:nonzero;fill:rgb(0%,0%,0%);fill-opacity:1;" d="M 66.183594 166.460938 L 65.9375 166.828125 L 63.605469 165.269531 L 63.105469 164.933594 L 63.347656 164.566406 L 68.863281 156.320312 L 69.367188 156.65625 L 63.851562 164.902344 Z M 66.183594 166.460938 "/>
<path style=" stroke:none;fill-rule:nonzero;fill:rgb(0%,0%,0%);fill-opacity:1;" d="M 80.992188 163.066406 L 75.011719 171.6875 L 74.878906 171.621094 L 74.46875 171.425781 L 74.339844 171.359375 L 76.847656 163.148438 L 71.941406 170.203125 L 71.8125 170.136719 L 71.402344 169.941406 L 71.269531 169.875 L 74.320312 159.847656 L 74.859375 160.113281 L 72.226562 168.789062 L 77.386719 161.332031 L 77.929688 161.59375 L 75.292969 170.273438 L 80.449219 162.816406 Z M 80.992188 163.066406 "/>
<path style=" stroke:none;fill-rule:nonzero;fill:rgb(0%,0%,0%);fill-opacity:1;" d="M 85.015625 171.742188 L 82.804688 171.039062 L 81.183594 174.101562 L 80.652344 173.9375 L 85.613281 164.632812 L 85.910156 164.726562 L 86.121094 164.792969 L 86.425781 164.890625 L 85.128906 175.351562 L 84.574219 175.175781 Z M 85.074219 171.300781 L 85.851562 165.308594 L 83.019531 170.648438 Z M 85.074219 171.300781 "/>
<path style=" stroke:none;fill-rule:nonzero;fill:rgb(0%,0%,0%);fill-opacity:1;" d="M 95.667969 167.0625 L 92.625 172.359375 L 91.769531 176.871094 L 91.191406 176.761719 L 92.046875 172.25 L 91.148438 166.195312 L 91.742188 166.3125 L 92.5 171.476562 L 95.089844 166.964844 Z M 95.667969 167.0625 "/>
<path style=" stroke:none;fill-rule:nonzero;fill:rgb(0%,0%,0%);fill-opacity:1;" d="M 103.285156 174.710938 L 103.164062 176.777344 C 103.144531 177.132812 102.988281 177.464844 102.726562 177.707031 C 102.464844 177.953125 102.121094 178.085938 101.765625 178.078125 L 100.261719 177.992188 C 99.910156 177.957031 99.585938 177.785156 99.355469 177.511719 C 99.128906 177.242188 99.015625 176.894531 99.039062 176.539062 L 99.152344 174.46875 L 99.753906 174.503906 L 99.632812 176.570312 C 99.632812 177.011719 99.875 177.527344 100.316406 177.574219 L 101.796875 177.65625 C 102.234375 177.65625 102.574219 177.203125 102.597656 176.761719 L 102.71875 174.695312 C 102.753906 174.125 102.511719 173.917969 102.050781 173.535156 C 101.589844 173.15625 100.914062 172.589844 100.332031 172.144531 C 100.066406 171.992188 99.855469 171.773438 99.710938 171.507812 C 99.566406 171.242188 99.503906 170.941406 99.523438 170.636719 L 99.625 168.863281 C 99.640625 168.507812 99.796875 168.171875 100.058594 167.929688 C 100.320312 167.6875 100.667969 167.554688 101.023438 167.566406 L 102.226562 167.636719 C 102.582031 167.667969 102.910156 167.839844 103.140625 168.113281 C 103.375 168.382812 103.492188 168.734375 103.46875 169.089844 L 103.347656 171.15625 L 102.746094 171.121094 L 102.867188 169.054688 C 102.894531 168.613281 102.625 168.097656 102.1875 168.050781 L 100.984375 167.980469 C 100.546875 167.957031 100.21875 168.4375 100.195312 168.878906 L 100.101562 170.507812 C 100.058594 171.226562 100.332031 171.402344 100.78125 171.75 C 101.234375 172.101562 102.132812 172.84375 102.597656 173.195312 C 102.84375 173.355469 103.039062 173.585938 103.160156 173.851562 C 103.285156 174.121094 103.328125 174.417969 103.285156 174.710938 Z M 103.285156 174.710938 "/>
<path style=" stroke:none;fill-rule:nonzero;fill:rgb(0%,0%,0%);fill-opacity:1;" d="M 115.105469 167.433594 L 115.796875 171.53125 L 118.421875 171.085938 L 118.492188 171.519531 L 115.875 171.96875 L 116.761719 177.214844 L 116.167969 177.316406 L 115.28125 172.066406 L 115.207031 171.632812 L 114.507812 167.535156 L 114.441406 167.097656 L 115.03125 167 L 117.953125 166.496094 L 118.03125 166.933594 Z M 115.105469 167.433594 "/>
<path style=" stroke:none;fill-rule:nonzero;fill:rgb(0%,0%,0%);fill-opacity:1;" d="M 125.675781 169.832031 L 124.078125 170.332031 L 125.582031 175.292969 L 125.019531 175.460938 L 121.984375 165.550781 L 122.410156 165.417969 L 122.550781 165.378906 L 124.527344 164.773438 C 124.867188 164.671875 125.230469 164.707031 125.542969 164.871094 C 125.855469 165.039062 126.089844 165.320312 126.195312 165.660156 L 126.933594 168.0625 C 127.019531 168.359375 127.003906 168.675781 126.886719 168.960938 C 126.769531 169.246094 126.5625 169.484375 126.292969 169.636719 L 129.300781 174.148438 L 128.683594 174.332031 Z M 123.945312 169.902344 L 125.925781 169.300781 C 126.125 169.210938 126.277344 169.050781 126.363281 168.851562 C 126.445312 168.652344 126.445312 168.429688 126.367188 168.226562 L 125.628906 165.824219 C 125.585938 165.613281 125.457031 165.429688 125.277344 165.308594 C 125.097656 165.191406 124.878906 165.144531 124.667969 165.183594 L 122.660156 165.789062 Z M 123.945312 169.902344 "/>
<path style=" stroke:none;fill-rule:nonzero;fill:rgb(0%,0%,0%);fill-opacity:1;" d="M 137.734375 170.140625 L 137.914062 170.546875 L 135.027344 171.863281 L 134.894531 171.921875 L 134.484375 172.113281 L 130.171875 162.679688 L 133.550781 161.136719 L 133.738281 161.539062 L 130.90625 162.835938 L 132.628906 166.613281 L 134.914062 165.570312 L 135.097656 165.96875 L 132.816406 167.015625 L 134.871094 171.476562 Z M 137.734375 170.140625 "/>
<path style=" stroke:none;fill-rule:nonzero;fill:rgb(0%,0%,0%);fill-opacity:1;" d="M 144.445312 162.832031 L 145.546875 164.585938 C 145.738281 164.886719 145.804688 165.25 145.730469 165.597656 C 145.660156 165.949219 145.457031 166.253906 145.164062 166.457031 L 143.894531 167.273438 C 143.585938 167.445312 143.222656 167.492188 142.878906 167.402344 C 142.539062 167.316406 142.242188 167.097656 142.054688 166.796875 L 140.953125 165.042969 L 141.453125 164.722656 L 142.558594 166.476562 C 142.660156 166.671875 142.832031 166.824219 143.039062 166.898438 C 143.246094 166.972656 143.476562 166.96875 143.679688 166.882812 L 144.9375 166.097656 C 145.105469 165.949219 145.210938 165.742188 145.234375 165.523438 C 145.257812 165.300781 145.199219 165.078125 145.070312 164.898438 L 143.964844 163.148438 C 143.664062 162.644531 143.347656 162.644531 142.753906 162.589844 C 142.070312 162.53125 141.273438 162.480469 140.546875 162.449219 C 140.25 162.476562 139.957031 162.421875 139.691406 162.292969 C 139.425781 162.160156 139.199219 161.960938 139.042969 161.707031 L 138.09375 160.203125 C 137.902344 159.902344 137.832031 159.539062 137.90625 159.1875 C 137.976562 158.839844 138.183594 158.53125 138.480469 158.328125 L 139.484375 157.691406 C 139.792969 157.515625 140.160156 157.464844 140.503906 157.550781 C 140.851562 157.636719 141.148438 157.855469 141.339844 158.160156 L 142.4375 159.910156 L 141.933594 160.230469 L 140.832031 158.480469 C 140.730469 158.285156 140.558594 158.132812 140.351562 158.058594 C 140.140625 157.984375 139.914062 157.988281 139.707031 158.074219 L 138.707031 158.714844 C 138.539062 158.859375 138.433594 159.0625 138.410156 159.28125 C 138.386719 159.503906 138.449219 159.722656 138.582031 159.898438 L 139.453125 161.28125 C 139.835938 161.890625 140.15625 161.878906 140.726562 161.898438 C 141.296875 161.917969 142.460938 162.007812 143.042969 162.023438 C 143.328125 162.015625 143.613281 162.085938 143.859375 162.230469 C 144.105469 162.371094 144.308594 162.582031 144.445312 162.832031 Z M 144.445312 162.832031 "/>
<path style=" stroke:none;fill-rule:nonzero;fill:rgb(0%,0%,0%);fill-opacity:1;" d="M 147.691406 151.496094 L 154.375 159.414062 L 153.917969 159.804688 L 150.480469 155.730469 L 148.210938 157.644531 L 151.652344 161.71875 L 151.191406 162.105469 L 144.503906 154.183594 L 144.964844 153.796875 L 147.925781 157.304688 L 150.191406 155.390625 L 147.230469 151.882812 Z M 147.691406 151.496094 "/>
<path style=" stroke:none;fill-rule:nonzero;fill:rgb(92.941177%,69.411767%,8.627451%);fill-opacity:1;" d="M 102.859375 8.914062 C 102.855469 9.382812 102.710938 9.839844 102.449219 10.230469 C 102.183594 10.617188 101.8125 10.917969 101.378906 11.097656 C 100.941406 11.273438 100.464844 11.316406 100.003906 11.222656 C 99.546875 11.128906 99.125 10.902344 98.792969 10.566406 C 98.464844 10.234375 98.238281 9.8125 98.148438 9.351562 C 98.058594 8.890625 98.105469 8.414062 98.289062 7.980469 C 98.46875 7.546875 98.773438 7.175781 99.164062 6.917969 C 99.554688 6.65625 100.011719 6.519531 100.480469 6.519531 C 100.796875 6.519531 101.105469 6.582031 101.394531 6.699219 C 101.683594 6.820312 101.949219 7 102.167969 7.222656 C 102.390625 7.445312 102.566406 7.707031 102.683594 8 C 102.800781 8.289062 102.859375 8.601562 102.859375 8.914062 Z M 102.859375 8.914062 "/>
<path style=" stroke:none;fill-rule:nonzero;fill:rgb(92.941177%,69.411767%,8.627451%);fill-opacity:1;" d="M 83.855469 10.3125 C 83.953125 10.773438 83.914062 11.25 83.738281 11.6875 C 83.566406 12.125 83.265625 12.5 82.878906 12.765625 C 82.492188 13.03125 82.03125 13.179688 81.5625 13.183594 C 81.09375 13.191406 80.632812 13.058594 80.238281 12.800781 C 79.84375 12.546875 79.53125 12.179688 79.347656 11.746094 C 79.160156 11.3125 79.109375 10.835938 79.195312 10.375 C 79.28125 9.914062 79.5 9.484375 79.828125 9.148438 C 80.15625 8.8125 80.578125 8.582031 81.039062 8.484375 C 81.65625 8.351562 82.296875 8.472656 82.824219 8.816406 C 83.355469 9.160156 83.722656 9.699219 83.855469 10.3125 Z M 83.855469 10.3125 "/>
<path style=" stroke:none;fill-rule:nonzero;fill:rgb(92.941177%,69.411767%,8.627451%);fill-opacity:1;" d="M 65.558594 15.628906 C 65.753906 16.058594 65.8125 16.535156 65.734375 17 C 65.652344 17.460938 65.4375 17.890625 65.113281 18.234375 C 64.792969 18.574219 64.375 18.8125 63.914062 18.914062 C 63.457031 19.019531 62.976562 18.984375 62.539062 18.816406 C 62.097656 18.648438 61.71875 18.351562 61.449219 17.96875 C 61.175781 17.585938 61.027344 17.128906 61.015625 16.65625 C 61.003906 16.1875 61.128906 15.726562 61.382812 15.328125 C 61.632812 14.929688 61.996094 14.617188 62.425781 14.425781 C 63 14.167969 63.65625 14.152344 64.242188 14.378906 C 64.828125 14.605469 65.304688 15.054688 65.558594 15.628906 Z M 65.558594 15.628906 "/>
<path style=" stroke:none;fill-rule:nonzero;fill:rgb(92.941177%,69.411767%,8.627451%);fill-opacity:1;" d="M 48.773438 24.632812 C 49.050781 25.011719 49.207031 25.46875 49.226562 25.9375 C 49.246094 26.40625 49.125 26.871094 48.878906 27.273438 C 48.632812 27.671875 48.273438 27.992188 47.847656 28.1875 C 47.417969 28.386719 46.941406 28.449219 46.480469 28.378906 C 46.015625 28.304688 45.582031 28.09375 45.238281 27.773438 C 44.890625 27.457031 44.648438 27.042969 44.539062 26.585938 C 44.429688 26.128906 44.460938 25.648438 44.621094 25.207031 C 44.785156 24.765625 45.074219 24.382812 45.453125 24.105469 C 45.964844 23.738281 46.601562 23.585938 47.222656 23.683594 C 47.84375 23.785156 48.402344 24.125 48.773438 24.632812 Z M 48.773438 24.632812 "/>
<path style=" stroke:none;fill-rule:nonzero;fill:rgb(92.941177%,69.411767%,8.627451%);fill-opacity:1;" d="M 34.222656 36.933594 C 34.574219 37.246094 34.820312 37.660156 34.933594 38.113281 C 35.050781 38.570312 35.027344 39.050781 34.867188 39.492188 C 34.710938 39.933594 34.425781 40.320312 34.046875 40.601562 C 33.671875 40.882812 33.21875 41.042969 32.75 41.066406 C 32.28125 41.09375 31.816406 40.976562 31.410156 40.734375 C 31.007812 40.496094 30.683594 40.140625 30.484375 39.714844 C 30.28125 39.289062 30.210938 38.816406 30.277344 38.351562 C 30.347656 37.886719 30.550781 37.453125 30.863281 37.101562 C 31.074219 36.871094 31.328125 36.683594 31.609375 36.546875 C 31.890625 36.414062 32.195312 36.335938 32.507812 36.320312 C 32.820312 36.304688 33.132812 36.351562 33.425781 36.457031 C 33.722656 36.5625 33.992188 36.722656 34.222656 36.933594 Z M 34.222656 36.933594 "/>
<path style=" stroke:none;fill-rule:nonzero;fill:rgb(92.941177%,69.411767%,8.627451%);fill-opacity:1;" d="M 22.5625 51.984375 C 22.96875 52.21875 23.296875 52.570312 23.503906 52.992188 C 23.710938 53.414062 23.789062 53.886719 23.726562 54.355469 C 23.664062 54.820312 23.464844 55.257812 23.15625 55.609375 C 22.847656 55.960938 22.4375 56.214844 21.984375 56.335938 C 21.53125 56.457031 21.050781 56.441406 20.605469 56.289062 C 20.160156 56.140625 19.769531 55.859375 19.484375 55.484375 C 19.199219 55.113281 19.03125 54.664062 19 54.195312 C 18.96875 53.726562 19.078125 53.257812 19.3125 52.851562 C 19.628906 52.304688 20.148438 51.910156 20.757812 51.746094 C 21.367188 51.585938 22.015625 51.667969 22.5625 51.984375 Z M 22.5625 51.984375 "/>
<path style=" stroke:none;fill-rule:nonzero;fill:rgb(92.941177%,69.411767%,8.627451%);fill-opacity:1;" d="M 14.257812 69.136719 C 14.703125 69.285156 15.097656 69.5625 15.382812 69.933594 C 15.671875 70.304688 15.84375 70.753906 15.875 71.222656 C 15.910156 71.691406 15.804688 72.160156 15.570312 72.566406 C 15.335938 72.976562 14.988281 73.304688 14.570312 73.515625 C 14.148438 73.726562 13.675781 73.808594 13.210938 73.75 C 12.742188 73.691406 12.304688 73.496094 11.949219 73.1875 C 11.59375 72.878906 11.339844 72.472656 11.214844 72.019531 C 11.089844 71.566406 11.101562 71.085938 11.25 70.640625 C 11.347656 70.34375 11.503906 70.070312 11.710938 69.835938 C 11.914062 69.597656 12.164062 69.40625 12.441406 69.265625 C 12.722656 69.125 13.027344 69.042969 13.339844 69.019531 C 13.648438 68.996094 13.964844 69.039062 14.257812 69.136719 Z M 14.257812 69.136719 "/>
<path style=" stroke:none;fill-rule:nonzero;fill:rgb(92.941177%,69.411767%,8.627451%);fill-opacity:1;" d="M 9.710938 87.636719 C 10.179688 87.6875 10.621094 87.875 10.984375 88.175781 C 11.34375 88.476562 11.609375 88.878906 11.742188 89.328125 C 11.875 89.78125 11.871094 90.257812 11.730469 90.707031 C 11.589844 91.15625 11.320312 91.554688 10.957031 91.851562 C 10.589844 92.144531 10.144531 92.328125 9.675781 92.367188 C 9.207031 92.410156 8.738281 92.3125 8.324219 92.089844 C 7.914062 91.863281 7.574219 91.519531 7.359375 91.105469 C 7.140625 90.6875 7.050781 90.214844 7.097656 89.75 C 7.167969 89.121094 7.480469 88.550781 7.96875 88.152344 C 8.457031 87.757812 9.085938 87.574219 9.710938 87.636719 Z M 9.710938 87.636719 "/>
<path style=" stroke:none;fill-rule:nonzero;fill:rgb(92.941177%,69.411767%,8.627451%);fill-opacity:1;" d="M 9.113281 106.679688 C 9.582031 106.628906 10.054688 106.714844 10.472656 106.929688 C 10.890625 107.148438 11.234375 107.480469 11.460938 107.894531 C 11.6875 108.304688 11.789062 108.777344 11.75 109.242188 C 11.710938 109.714844 11.53125 110.160156 11.238281 110.527344 C 10.945312 110.894531 10.546875 111.164062 10.101562 111.308594 C 9.652344 111.449219 9.171875 111.457031 8.71875 111.324219 C 8.269531 111.195312 7.867188 110.933594 7.5625 110.574219 C 7.261719 110.210938 7.070312 109.769531 7.019531 109.304688 C 6.949219 108.679688 7.132812 108.050781 7.523438 107.558594 C 7.917969 107.066406 8.488281 106.75 9.113281 106.679688 Z M 9.113281 106.679688 "/>
<path style=" stroke:none;fill-rule:nonzero;fill:rgb(92.941177%,69.411767%,8.627451%);fill-opacity:1;" d="M 12.488281 125.433594 C 12.933594 125.285156 13.414062 125.273438 13.867188 125.398438 C 14.320312 125.519531 14.726562 125.777344 15.035156 126.132812 C 15.34375 126.488281 15.539062 126.925781 15.597656 127.390625 C 15.65625 127.859375 15.574219 128.332031 15.363281 128.75 C 15.15625 129.171875 14.824219 129.519531 14.417969 129.753906 C 14.007812 129.984375 13.539062 130.09375 13.070312 130.058594 C 12.601562 130.027344 12.15625 129.855469 11.78125 129.566406 C 11.410156 129.277344 11.132812 128.886719 10.984375 128.441406 C 10.886719 128.144531 10.84375 127.832031 10.867188 127.519531 C 10.890625 127.207031 10.972656 126.902344 11.113281 126.625 C 11.25 126.34375 11.445312 126.097656 11.679688 125.890625 C 11.917969 125.6875 12.191406 125.53125 12.488281 125.433594 Z M 12.488281 125.433594 "/>
<path style=" stroke:none;fill-rule:nonzero;fill:rgb(92.941177%,69.411767%,8.627451%);fill-opacity:1;" d="M 19.6875 143.066406 C 20.097656 142.832031 20.5625 142.722656 21.03125 142.753906 C 21.5 142.785156 21.949219 142.953125 22.324219 143.238281 C 22.695312 143.523438 22.976562 143.914062 23.128906 144.359375 C 23.28125 144.804688 23.296875 145.285156 23.175781 145.738281 C 23.054688 146.191406 22.800781 146.601562 22.445312 146.910156 C 22.09375 147.21875 21.65625 147.417969 21.191406 147.480469 C 20.726562 147.542969 20.25 147.464844 19.828125 147.257812 C 19.40625 147.050781 19.058594 146.722656 18.820312 146.316406 C 18.664062 146.046875 18.5625 145.746094 18.523438 145.4375 C 18.480469 145.128906 18.5 144.8125 18.582031 144.511719 C 18.664062 144.210938 18.800781 143.925781 18.992188 143.679688 C 19.183594 143.429688 19.417969 143.222656 19.6875 143.066406 Z M 19.6875 143.066406 "/>
<path style=" stroke:none;fill-rule:nonzero;fill:rgb(92.941177%,69.411767%,8.627451%);fill-opacity:1;" d="M 30.398438 158.824219 C 30.746094 158.511719 31.183594 158.308594 31.648438 158.242188 C 32.113281 158.171875 32.585938 158.246094 33.011719 158.449219 C 33.433594 158.648438 33.789062 158.972656 34.03125 159.378906 C 34.269531 159.78125 34.386719 160.246094 34.359375 160.71875 C 34.335938 161.1875 34.171875 161.636719 33.890625 162.015625 C 33.613281 162.390625 33.226562 162.675781 32.78125 162.832031 C 32.339844 162.988281 31.859375 163.011719 31.40625 162.898438 C 30.949219 162.78125 30.539062 162.535156 30.222656 162.183594 C 30.015625 161.953125 29.851562 161.683594 29.746094 161.386719 C 29.644531 161.09375 29.597656 160.78125 29.613281 160.46875 C 29.628906 160.15625 29.707031 159.851562 29.84375 159.570312 C 29.976562 159.289062 30.167969 159.035156 30.398438 158.824219 Z M 30.398438 158.824219 "/>
<path style=" stroke:none;fill-rule:nonzero;fill:rgb(92.941177%,69.411767%,8.627451%);fill-opacity:1;" d="M 44.152344 172.011719 C 44.429688 171.632812 44.816406 171.347656 45.257812 171.183594 C 45.699219 171.027344 46.179688 171 46.636719 171.113281 C 47.09375 171.226562 47.503906 171.472656 47.820312 171.820312 C 48.140625 172.167969 48.34375 172.601562 48.414062 173.066406 C 48.484375 173.53125 48.417969 174.007812 48.214844 174.433594 C 48.015625 174.855469 47.695312 175.214844 47.292969 175.457031 C 46.890625 175.699219 46.421875 175.816406 45.953125 175.792969 C 45.484375 175.773438 45.03125 175.609375 44.652344 175.332031 C 44.148438 174.957031 43.808594 174.398438 43.714844 173.777344 C 43.621094 173.152344 43.777344 172.519531 44.152344 172.011719 Z M 44.152344 172.011719 "/>
<path style=" stroke:none;fill-rule:nonzero;fill:rgb(92.941177%,69.411767%,8.627451%);fill-opacity:1;" d="M 60.339844 182.050781 C 60.53125 181.621094 60.847656 181.257812 61.242188 181.007812 C 61.640625 180.757812 62.101562 180.628906 62.574219 180.640625 C 63.042969 180.652344 63.5 180.804688 63.882812 181.074219 C 64.265625 181.34375 64.5625 181.722656 64.730469 182.160156 C 64.898438 182.601562 64.933594 183.078125 64.832031 183.539062 C 64.726562 183.996094 64.492188 184.414062 64.152344 184.738281 C 63.808594 185.0625 63.382812 185.277344 62.917969 185.359375 C 62.457031 185.4375 61.980469 185.378906 61.550781 185.1875 C 61.261719 185.0625 61.003906 184.882812 60.789062 184.65625 C 60.574219 184.429688 60.40625 184.164062 60.292969 183.871094 C 60.179688 183.578125 60.125 183.269531 60.136719 182.957031 C 60.144531 182.644531 60.214844 182.335938 60.339844 182.050781 Z M 60.339844 182.050781 "/>
<path style=" stroke:none;fill-rule:nonzero;fill:rgb(92.941177%,69.411767%,8.627451%);fill-opacity:1;" d="M 78.269531 188.523438 C 78.367188 188.066406 78.601562 187.644531 78.9375 187.320312 C 79.273438 186.992188 79.699219 186.773438 80.160156 186.6875 C 80.621094 186.601562 81.097656 186.65625 81.527344 186.839844 C 81.957031 187.027344 82.324219 187.335938 82.578125 187.726562 C 82.832031 188.121094 82.964844 188.582031 82.960938 189.050781 C 82.953125 189.519531 82.808594 189.976562 82.542969 190.363281 C 82.28125 190.75 81.90625 191.046875 81.472656 191.222656 C 81.035156 191.394531 80.558594 191.4375 80.101562 191.339844 C 79.792969 191.277344 79.503906 191.152344 79.246094 190.976562 C 78.992188 190.800781 78.769531 190.574219 78.601562 190.3125 C 78.429688 190.050781 78.3125 189.757812 78.257812 189.449219 C 78.199219 189.144531 78.203125 188.828125 78.269531 188.523438 Z M 78.269531 188.523438 "/>
<path style=" stroke:none;fill-rule:nonzero;fill:rgb(92.941177%,69.411767%,8.627451%);fill-opacity:1;" d="M 97.140625 191.085938 C 97.140625 190.613281 97.28125 190.15625 97.542969 189.765625 C 97.804688 189.375 98.175781 189.070312 98.609375 188.890625 C 99.042969 188.710938 99.519531 188.664062 99.980469 188.753906 C 100.445312 188.847656 100.867188 189.074219 101.199219 189.40625 C 101.53125 189.738281 101.757812 190.160156 101.851562 190.621094 C 101.941406 191.082031 101.894531 191.5625 101.714844 191.996094 C 101.535156 192.429688 101.230469 192.800781 100.839844 193.0625 C 100.449219 193.324219 99.988281 193.460938 99.519531 193.460938 C 98.886719 193.460938 98.285156 193.210938 97.839844 192.765625 C 97.390625 192.320312 97.140625 191.714844 97.140625 191.085938 Z M 97.140625 191.085938 "/>
<path style=" stroke:none;fill-rule:nonzero;fill:rgb(92.941177%,69.411767%,8.627451%);fill-opacity:1;" d="M 116.144531 189.691406 C 116.046875 189.234375 116.089844 188.757812 116.261719 188.320312 C 116.4375 187.886719 116.738281 187.511719 117.125 187.246094 C 117.511719 186.980469 117.964844 186.835938 118.433594 186.832031 C 118.902344 186.824219 119.363281 186.957031 119.757812 187.214844 C 120.148438 187.46875 120.457031 187.835938 120.644531 188.265625 C 120.828125 188.695312 120.882812 189.171875 120.796875 189.632812 C 120.710938 190.09375 120.492188 190.519531 120.167969 190.855469 C 119.839844 191.191406 119.421875 191.421875 118.960938 191.519531 C 118.65625 191.585938 118.339844 191.59375 118.035156 191.535156 C 117.726562 191.480469 117.433594 191.363281 117.171875 191.191406 C 116.910156 191.023438 116.683594 190.804688 116.507812 190.542969 C 116.332031 190.289062 116.207031 189.996094 116.144531 189.691406 Z M 116.144531 189.691406 "/>
<path style=" stroke:none;fill-rule:nonzero;fill:rgb(92.941177%,69.411767%,8.627451%);fill-opacity:1;" d="M 134.433594 184.371094 C 134.242188 183.941406 134.183594 183.464844 134.265625 183.003906 C 134.347656 182.539062 134.5625 182.109375 134.886719 181.769531 C 135.210938 181.429688 135.625 181.191406 136.085938 181.089844 C 136.542969 180.988281 137.023438 181.023438 137.460938 181.191406 C 137.898438 181.359375 138.277344 181.65625 138.550781 182.039062 C 138.820312 182.421875 138.972656 182.878906 138.984375 183.347656 C 138.996094 183.816406 138.867188 184.28125 138.617188 184.679688 C 138.367188 185.074219 138.003906 185.390625 137.574219 185.578125 C 137.289062 185.707031 136.980469 185.777344 136.667969 185.785156 C 136.355469 185.792969 136.042969 185.742188 135.753906 185.628906 C 135.460938 185.515625 135.195312 185.347656 134.96875 185.132812 C 134.742188 184.914062 134.5625 184.65625 134.433594 184.371094 Z M 134.433594 184.371094 "/>
<path style=" stroke:none;fill-rule:nonzero;fill:rgb(92.941177%,69.411767%,8.627451%);fill-opacity:1;" d="M 151.226562 175.371094 C 150.949219 174.992188 150.792969 174.539062 150.773438 174.066406 C 150.757812 173.597656 150.878906 173.132812 151.121094 172.734375 C 151.367188 172.332031 151.726562 172.011719 152.15625 171.816406 C 152.582031 171.621094 153.054688 171.554688 153.519531 171.628906 C 153.984375 171.703125 154.417969 171.910156 154.761719 172.230469 C 155.109375 172.550781 155.351562 172.964844 155.460938 173.421875 C 155.570312 173.878906 155.539062 174.355469 155.378906 174.796875 C 155.214844 175.238281 154.925781 175.621094 154.542969 175.898438 C 154.035156 176.269531 153.398438 176.421875 152.777344 176.320312 C 152.152344 176.222656 151.597656 175.882812 151.226562 175.371094 Z M 151.226562 175.371094 "/>
<path style=" stroke:none;fill-rule:nonzero;fill:rgb(92.941177%,69.411767%,8.627451%);fill-opacity:1;" d="M 165.777344 163.074219 C 165.425781 162.757812 165.179688 162.347656 165.0625 161.890625 C 164.949219 161.4375 164.972656 160.957031 165.128906 160.511719 C 165.285156 160.070312 165.570312 159.683594 165.945312 159.402344 C 166.324219 159.121094 166.773438 158.960938 167.242188 158.933594 C 167.714844 158.910156 168.179688 159.027344 168.582031 159.265625 C 168.988281 159.503906 169.308594 159.859375 169.511719 160.285156 C 169.714844 160.707031 169.785156 161.183594 169.71875 161.648438 C 169.652344 162.113281 169.449219 162.546875 169.136719 162.898438 C 168.925781 163.128906 168.671875 163.316406 168.390625 163.453125 C 168.109375 163.585938 167.804688 163.664062 167.492188 163.679688 C 167.179688 163.699219 166.867188 163.652344 166.574219 163.546875 C 166.277344 163.445312 166.007812 163.28125 165.777344 163.074219 Z M 165.777344 163.074219 "/>
<path style=" stroke:none;fill-rule:nonzero;fill:rgb(92.941177%,69.411767%,8.627451%);fill-opacity:1;" d="M 177.453125 148.015625 C 177.046875 147.78125 176.71875 147.429688 176.507812 147.007812 C 176.300781 146.585938 176.222656 146.113281 176.285156 145.648438 C 176.34375 145.179688 176.542969 144.742188 176.855469 144.390625 C 177.164062 144.035156 177.574219 143.78125 178.027344 143.660156 C 178.480469 143.539062 178.960938 143.554688 179.40625 143.707031 C 179.851562 143.859375 180.242188 144.136719 180.527344 144.511719 C 180.8125 144.886719 180.980469 145.335938 181.011719 145.804688 C 181.042969 146.273438 180.933594 146.742188 180.695312 147.148438 C 180.542969 147.417969 180.332031 147.65625 180.085938 147.84375 C 179.839844 148.035156 179.554688 148.175781 179.253906 148.253906 C 178.953125 148.335938 178.640625 148.355469 178.332031 148.316406 C 178.019531 148.273438 177.722656 148.171875 177.453125 148.015625 Z M 177.453125 148.015625 "/>
<path style=" stroke:none;fill-rule:nonzero;fill:rgb(92.941177%,69.411767%,8.627451%);fill-opacity:1;" d="M 185.742188 130.863281 C 185.296875 130.714844 184.902344 130.4375 184.617188 130.066406 C 184.328125 129.695312 184.15625 129.246094 184.125 128.777344 C 184.089844 128.308594 184.195312 127.839844 184.429688 127.433594 C 184.660156 127.023438 185.011719 126.695312 185.429688 126.484375 C 185.851562 126.273438 186.324219 126.191406 186.792969 126.25 C 187.257812 126.308594 187.695312 126.503906 188.050781 126.8125 C 188.40625 127.121094 188.660156 127.527344 188.785156 127.980469 C 188.910156 128.433594 188.898438 128.914062 188.75 129.359375 C 188.652344 129.65625 188.496094 129.929688 188.292969 130.167969 C 188.085938 130.402344 187.835938 130.597656 187.558594 130.738281 C 187.277344 130.875 186.972656 130.960938 186.660156 130.980469 C 186.351562 131.003906 186.039062 130.960938 185.742188 130.863281 Z M 185.742188 130.863281 "/>
<path style=" stroke:none;fill-rule:nonzero;fill:rgb(92.941177%,69.411767%,8.627451%);fill-opacity:1;" d="M 190.285156 112.363281 C 189.816406 112.3125 189.375 112.125 189.011719 111.824219 C 188.652344 111.523438 188.386719 111.125 188.253906 110.671875 C 188.121094 110.222656 188.121094 109.742188 188.261719 109.292969 C 188.402344 108.84375 188.671875 108.449219 189.035156 108.152344 C 189.402344 107.855469 189.847656 107.675781 190.3125 107.632812 C 190.78125 107.589844 191.253906 107.683594 191.664062 107.910156 C 192.078125 108.132812 192.414062 108.476562 192.632812 108.890625 C 192.855469 109.308594 192.945312 109.777344 192.894531 110.246094 C 192.863281 110.554688 192.769531 110.855469 192.621094 111.132812 C 192.472656 111.40625 192.269531 111.648438 192.027344 111.84375 C 191.785156 112.042969 191.507812 112.1875 191.207031 112.277344 C 190.90625 112.367188 190.59375 112.394531 190.285156 112.363281 Z M 190.285156 112.363281 "/>
<path style=" stroke:none;fill-rule:nonzero;fill:rgb(92.941177%,69.411767%,8.627451%);fill-opacity:1;" d="M 190.878906 93.320312 C 190.414062 93.367188 189.941406 93.277344 189.523438 93.058594 C 189.109375 92.839844 188.769531 92.503906 188.542969 92.089844 C 188.320312 91.675781 188.222656 91.207031 188.265625 90.738281 C 188.308594 90.269531 188.488281 89.824219 188.785156 89.460938 C 189.082031 89.09375 189.480469 88.824219 189.925781 88.683594 C 190.375 88.546875 190.855469 88.542969 191.308594 88.675781 C 191.757812 88.808594 192.160156 89.074219 192.460938 89.4375 C 192.761719 89.796875 192.945312 90.238281 192.996094 90.707031 C 193.027344 91.015625 193 91.332031 192.914062 91.632812 C 192.824219 91.929688 192.675781 92.210938 192.480469 92.453125 C 192.285156 92.695312 192.042969 92.898438 191.765625 93.046875 C 191.492188 93.195312 191.191406 93.285156 190.878906 93.320312 Z M 190.878906 93.320312 "/>
<path style=" stroke:none;fill-rule:nonzero;fill:rgb(92.941177%,69.411767%,8.627451%);fill-opacity:1;" d="M 187.515625 74.566406 C 187.070312 74.714844 186.589844 74.726562 186.136719 74.601562 C 185.683594 74.480469 185.277344 74.222656 184.96875 73.867188 C 184.660156 73.511719 184.464844 73.074219 184.40625 72.609375 C 184.347656 72.140625 184.429688 71.667969 184.640625 71.25 C 184.851562 70.828125 185.179688 70.480469 185.589844 70.246094 C 185.996094 70.015625 186.464844 69.910156 186.933594 69.941406 C 187.402344 69.972656 187.851562 70.144531 188.222656 70.433594 C 188.59375 70.722656 188.871094 71.113281 189.019531 71.558594 C 189.121094 71.855469 189.160156 72.167969 189.136719 72.480469 C 189.117188 72.792969 189.03125 73.097656 188.894531 73.375 C 188.753906 73.65625 188.558594 73.902344 188.324219 74.109375 C 188.085938 74.3125 187.8125 74.46875 187.515625 74.566406 Z M 187.515625 74.566406 "/>
<path style=" stroke:none;fill-rule:nonzero;fill:rgb(92.941177%,69.411767%,8.627451%);fill-opacity:1;" d="M 180.304688 56.933594 C 179.898438 57.167969 179.429688 57.277344 178.960938 57.246094 C 178.492188 57.214844 178.042969 57.042969 177.671875 56.757812 C 177.300781 56.46875 177.019531 56.082031 176.871094 55.636719 C 176.71875 55.191406 176.703125 54.710938 176.824219 54.257812 C 176.945312 53.804688 177.199219 53.394531 177.554688 53.085938 C 177.90625 52.777344 178.34375 52.578125 178.808594 52.515625 C 179.277344 52.457031 179.75 52.535156 180.171875 52.742188 C 180.59375 52.949219 180.945312 53.277344 181.179688 53.683594 C 181.335938 53.953125 181.4375 54.253906 181.480469 54.5625 C 181.519531 54.871094 181.5 55.1875 181.417969 55.488281 C 181.335938 55.792969 181.195312 56.074219 181.007812 56.324219 C 180.816406 56.570312 180.578125 56.777344 180.304688 56.933594 Z M 180.304688 56.933594 "/>
<path style=" stroke:none;fill-rule:nonzero;fill:rgb(92.941177%,69.411767%,8.627451%);fill-opacity:1;" d="M 169.597656 41.175781 C 169.246094 41.488281 168.8125 41.691406 168.347656 41.757812 C 167.882812 41.828125 167.40625 41.753906 166.984375 41.550781 C 166.558594 41.347656 166.203125 41.027344 165.964844 40.621094 C 165.726562 40.21875 165.609375 39.753906 165.632812 39.28125 C 165.660156 38.8125 165.820312 38.363281 166.101562 37.984375 C 166.382812 37.609375 166.769531 37.324219 167.210938 37.167969 C 167.65625 37.011719 168.136719 36.988281 168.589844 37.101562 C 169.046875 37.21875 169.457031 37.464844 169.773438 37.816406 C 169.980469 38.046875 170.144531 38.316406 170.25 38.613281 C 170.355469 38.90625 170.402344 39.21875 170.386719 39.53125 C 170.367188 39.84375 170.289062 40.148438 170.15625 40.433594 C 170.019531 40.714844 169.828125 40.964844 169.597656 41.175781 Z M 169.597656 41.175781 "/>
<path style=" stroke:none;fill-rule:nonzero;fill:rgb(92.941177%,69.411767%,8.627451%);fill-opacity:1;" d="M 155.84375 27.992188 C 155.5625 28.371094 155.179688 28.65625 154.738281 28.816406 C 154.296875 28.976562 153.816406 29 153.359375 28.886719 C 152.902344 28.773438 152.492188 28.527344 152.175781 28.179688 C 151.859375 27.832031 151.652344 27.398438 151.582031 26.9375 C 151.511719 26.472656 151.582031 25.996094 151.78125 25.570312 C 151.980469 25.144531 152.300781 24.789062 152.703125 24.546875 C 153.105469 24.304688 153.574219 24.183594 154.042969 24.207031 C 154.511719 24.230469 154.964844 24.390625 155.34375 24.667969 C 155.847656 25.042969 156.183594 25.605469 156.28125 26.226562 C 156.375 26.851562 156.214844 27.484375 155.84375 27.992188 Z M 155.84375 27.992188 "/>
<path style=" stroke:none;fill-rule:nonzero;fill:rgb(92.941177%,69.411767%,8.627451%);fill-opacity:1;" d="M 139.652344 17.953125 C 139.460938 18.382812 139.148438 18.746094 138.75 18.996094 C 138.351562 19.246094 137.890625 19.371094 137.417969 19.359375 C 136.949219 19.34375 136.496094 19.195312 136.109375 18.921875 C 135.726562 18.648438 135.433594 18.269531 135.265625 17.832031 C 135.097656 17.394531 135.0625 16.914062 135.167969 16.457031 C 135.273438 16 135.507812 15.582031 135.851562 15.257812 C 136.191406 14.933594 136.621094 14.71875 137.082031 14.640625 C 137.546875 14.5625 138.019531 14.621094 138.449219 14.8125 C 139.027344 15.070312 139.476562 15.542969 139.703125 16.132812 C 139.929688 16.722656 139.910156 17.378906 139.652344 17.953125 Z M 139.652344 17.953125 "/>
<path style=" stroke:none;fill-rule:nonzero;fill:rgb(92.941177%,69.411767%,8.627451%);fill-opacity:1;" d="M 121.730469 11.5 C 121.632812 11.960938 121.398438 12.382812 121.0625 12.707031 C 120.726562 13.035156 120.300781 13.257812 119.839844 13.339844 C 119.375 13.425781 118.898438 13.375 118.46875 13.1875 C 118.035156 13.003906 117.667969 12.695312 117.414062 12.300781 C 117.15625 11.90625 117.023438 11.445312 117.03125 10.976562 C 117.035156 10.507812 117.179688 10.046875 117.445312 9.660156 C 117.710938 9.273438 118.085938 8.972656 118.519531 8.800781 C 118.957031 8.625 119.433594 8.582031 119.894531 8.679688 C 120.199219 8.742188 120.492188 8.867188 120.75 9.042969 C 121.007812 9.222656 121.226562 9.445312 121.398438 9.710938 C 121.570312 9.972656 121.683594 10.265625 121.742188 10.574219 C 121.800781 10.878906 121.796875 11.195312 121.730469 11.5 Z M 121.730469 11.5 "/>
<path style=" stroke:none;fill-rule:nonzero;fill:rgb(95.686275%,83.529413%,69.803923%);fill-opacity:1;" d="M 115.761719 129.152344 C 109.457031 125.496094 102.226562 123.730469 94.945312 124.078125 C 87.660156 124.421875 80.632812 126.859375 74.699219 131.097656 L 74.964844 131.46875 C 80.828125 127.28125 87.773438 124.871094 94.96875 124.53125 C 102.164062 124.191406 109.304688 125.9375 115.53125 129.554688 C 119.96875 132.125 120.257812 131.765625 115.761719 129.152344 Z M 115.761719 129.152344 "/>
<path style=" stroke:none;fill-rule:nonzero;fill:rgb(95.686275%,83.529413%,69.803923%);fill-opacity:1;" d="M 77.878906 129.503906 C 75.96875 131.363281 75.707031 137.882812 67.882812 137.339844 C 69.429688 136.046875 68.75 129.402344 77.878906 129.503906 Z M 77.878906 129.503906 "/>
<path style=" stroke:none;fill-rule:nonzero;fill:rgb(21.960784%,19.215687%,17.647059%);fill-opacity:1;" d="M 78.039062 129.667969 C 77.5 130.3125 77.066406 131.035156 76.757812 131.816406 C 75.507812 134.421875 73.796875 137.992188 67.867188 137.566406 L 67.296875 137.527344 L 67.734375 137.160156 C 68.152344 136.652344 68.453125 136.0625 68.613281 135.425781 C 69.53125 132.917969 70.921875 129.199219 77.878906 129.277344 L 78.441406 129.277344 Z M 76.34375 131.621094 C 76.632812 130.960938 76.976562 130.332031 77.378906 129.734375 C 71.171875 129.839844 69.898438 133.285156 69.042969 135.582031 C 68.871094 136.121094 68.644531 136.644531 68.359375 137.136719 C 73.609375 137.332031 75.121094 134.171875 76.34375 131.621094 Z M 76.34375 131.621094 "/>
<path style=" stroke:none;fill-rule:nonzero;fill:rgb(21.960784%,19.215687%,17.647059%);fill-opacity:1;" d="M 77.878906 129.503906 C 77.878906 129.503906 73.160156 132.511719 71.863281 134.867188 C 72.683594 132.699219 75.6875 130.613281 75.6875 130.613281 C 75.6875 130.613281 73.824219 131.152344 73.015625 131.964844 C 73.226562 131.050781 77.878906 129.503906 77.878906 129.503906 Z M 77.878906 129.503906 "/>
<path style=" stroke:none;fill-rule:nonzero;fill:rgb(95.686275%,83.529413%,69.803923%);fill-opacity:1;" d="M 81.320312 127.542969 C 80.230469 129.96875 82.4375 136.144531 74.949219 138.535156 C 75.910156 136.765625 72.804688 130.863281 81.320312 127.542969 Z M 81.320312 127.542969 "/>
<path style=" stroke:none;fill-rule:nonzero;fill:rgb(21.960784%,19.215687%,17.647059%);fill-opacity:1;" d="M 81.527344 127.632812 C 81.265625 128.433594 81.132812 129.269531 81.136719 130.109375 C 80.949219 132.988281 80.691406 136.941406 75.019531 138.753906 L 74.480469 138.925781 L 74.75 138.425781 C 74.949219 137.800781 75.011719 137.136719 74.925781 136.488281 C 74.851562 133.871094 74.746094 129.859375 81.222656 127.351562 L 81.726562 127.152344 Z M 80.683594 130.082031 C 80.699219 129.363281 80.785156 128.648438 80.9375 127.945312 C 75.214844 130.351562 75.316406 134.027344 75.382812 136.46875 C 75.421875 137.035156 75.398438 137.601562 75.316406 138.164062 C 80.265625 136.402344 80.496094 132.902344 80.683594 130.082031 Z M 80.683594 130.082031 "/>
<path style=" stroke:none;fill-rule:nonzero;fill:rgb(21.960784%,19.215687%,17.647059%);fill-opacity:1;" d="M 81.320312 127.542969 C 81.320312 127.542969 78.058594 132.101562 77.734375 134.765625 C 77.6875 132.441406 79.703125 129.390625 79.703125 129.390625 C 79.703125 129.390625 78.167969 130.585938 77.722656 131.636719 C 77.574219 130.707031 81.320312 127.542969 81.320312 127.542969 Z M 81.320312 127.542969 "/>
<path style=" stroke:none;fill-rule:nonzero;fill:rgb(95.686275%,83.529413%,69.803923%);fill-opacity:1;" d="M 81.320312 127.542969 C 78.691406 127.152344 74.683594 121.964844 68.628906 126.976562 C 70.640625 127.121094 73.949219 132.929688 81.320312 127.542969 Z M 81.320312 127.542969 "/>
<path style=" stroke:none;fill-rule:nonzero;fill:rgb(21.960784%,19.215687%,17.647059%);fill-opacity:1;" d="M 81.453125 127.730469 C 75.832031 131.835938 72.523438 129.589844 70.339844 128.105469 C 69.835938 127.683594 69.246094 127.375 68.613281 127.203125 L 68.046875 127.164062 L 68.484375 126.800781 C 73.066406 123.007812 76.503906 124.921875 79.0625 126.300781 C 79.769531 126.753906 80.542969 127.089844 81.355469 127.304688 L 81.90625 127.382812 Z M 70.59375 127.730469 C 72.597656 129.109375 75.664062 131.171875 80.777344 127.65625 C 80.105469 127.402344 79.457031 127.089844 78.84375 126.722656 C 76.363281 125.351562 73.296875 123.664062 69.136719 126.871094 C 69.648438 127.101562 70.140625 127.390625 70.59375 127.722656 Z M 70.59375 127.730469 "/>
<path style=" stroke:none;fill-rule:nonzero;fill:rgb(21.960784%,19.215687%,17.647059%);fill-opacity:1;" d="M 81.320312 127.542969 C 81.320312 127.542969 75.726562 127.828125 73.296875 126.671875 C 75.222656 127.964844 78.882812 127.914062 78.882812 127.914062 C 78.882812 127.914062 77.046875 128.550781 75.917969 128.367188 C 76.636719 128.992188 81.320312 127.542969 81.320312 127.542969 Z M 81.320312 127.542969 "/>
<path style=" stroke:none;fill-rule:nonzero;fill:rgb(95.686275%,83.529413%,69.803923%);fill-opacity:1;" d="M 86.3125 125.699219 C 85.070312 128.050781 86.894531 134.347656 79.292969 136.273438 C 80.347656 134.5625 77.609375 128.464844 86.3125 125.699219 Z M 86.3125 125.699219 "/>
<path style=" stroke:none;fill-rule:nonzero;fill:rgb(21.960784%,19.215687%,17.647059%);fill-opacity:1;" d="M 86.511719 125.804688 C 86.203125 126.582031 86.019531 127.410156 85.972656 128.246094 C 85.601562 131.113281 85.097656 135.035156 79.328125 136.5 L 78.78125 136.632812 L 79.078125 136.132812 C 79.324219 135.746094 79.347656 135.035156 79.378906 134.207031 C 79.46875 131.566406 79.605469 127.570312 86.242188 125.464844 L 86.773438 125.292969 Z M 85.511719 128.191406 C 85.574219 127.472656 85.707031 126.765625 85.902344 126.074219 C 80.039062 128.121094 79.886719 131.792969 79.824219 134.246094 C 79.832031 134.8125 79.777344 135.378906 79.660156 135.933594 C 84.734375 134.46875 85.15625 131 85.515625 128.191406 Z M 85.511719 128.191406 "/>
<path style=" stroke:none;fill-rule:nonzero;fill:rgb(21.960784%,19.215687%,17.647059%);fill-opacity:1;" d="M 86.3125 125.699219 C 86.3125 125.699219 82.777344 130.039062 82.300781 132.679688 C 82.398438 130.363281 84.597656 127.433594 84.597656 127.433594 C 84.597656 127.433594 82.996094 128.535156 82.488281 129.558594 C 82.375 128.621094 86.3125 125.699219 86.3125 125.699219 Z M 86.3125 125.699219 "/>
<path style=" stroke:none;fill-rule:nonzero;fill:rgb(95.686275%,83.529413%,69.803923%);fill-opacity:1;" d="M 86.3125 125.699219 C 83.730469 125.140625 80.035156 119.71875 73.703125 124.34375 C 75.679688 124.617188 78.621094 130.617188 86.3125 125.699219 Z M 86.3125 125.699219 "/>
<path style=" stroke:none;fill-rule:nonzero;fill:rgb(21.960784%,19.215687%,17.647059%);fill-opacity:1;" d="M 86.433594 125.894531 C 80.570312 129.640625 77.40625 127.191406 75.316406 125.574219 C 74.835938 125.125 74.269531 124.785156 73.648438 124.570312 L 73.085938 124.496094 L 73.546875 124.160156 C 78.355469 120.648438 81.695312 122.78125 84.132812 124.332031 C 84.804688 124.828125 85.554688 125.214844 86.351562 125.472656 L 86.898438 125.589844 Z M 75.59375 125.210938 C 77.53125 126.714844 80.441406 128.96875 85.765625 125.769531 C 85.109375 125.476562 84.480469 125.125 83.886719 124.714844 C 81.492188 123.210938 78.539062 121.316406 74.195312 124.265625 C 74.691406 124.53125 75.160156 124.847656 75.59375 125.210938 Z M 75.59375 125.210938 "/>
<path style=" stroke:none;fill-rule:nonzero;fill:rgb(21.960784%,19.215687%,17.647059%);fill-opacity:1;" d="M 86.3125 125.699219 C 86.3125 125.699219 80.722656 125.636719 78.371094 124.34375 C 80.214844 125.757812 83.886719 125.933594 83.886719 125.933594 C 83.886719 125.933594 82.011719 126.460938 80.902344 126.199219 C 81.550781 126.851562 86.3125 125.699219 86.3125 125.699219 Z M 86.3125 125.699219 "/>
<path style=" stroke:none;fill-rule:nonzero;fill:rgb(95.686275%,83.529413%,69.803923%);fill-opacity:1;" d="M 90.503906 124.601562 C 89.089844 126.855469 90.4375 133.269531 82.695312 134.628906 C 83.890625 133 81.621094 126.710938 90.503906 124.601562 Z M 90.503906 124.601562 "/>
<path style=" stroke:none;fill-rule:nonzero;fill:rgb(21.960784%,19.215687%,17.647059%);fill-opacity:1;" d="M 90.695312 124.722656 C 90.328125 125.476562 90.085938 126.285156 89.972656 127.117188 C 89.390625 129.945312 88.597656 133.820312 82.738281 134.847656 L 82.175781 134.945312 L 82.511719 134.488281 C 82.792969 133.894531 82.945312 133.25 82.953125 132.59375 C 83.238281 129.964844 83.675781 125.988281 90.472656 124.378906 L 91.015625 124.25 Z M 89.519531 127.023438 C 89.640625 126.316406 89.828125 125.621094 90.074219 124.945312 C 84.054688 126.550781 83.671875 130.203125 83.402344 132.644531 C 83.367188 133.207031 83.269531 133.769531 83.109375 134.3125 C 88.242188 133.230469 88.960938 129.800781 89.519531 127.023438 Z M 89.519531 127.023438 "/>
<path style=" stroke:none;fill-rule:nonzero;fill:rgb(21.960784%,19.215687%,17.647059%);fill-opacity:1;" d="M 90.503906 124.601562 C 90.503906 124.601562 86.652344 128.671875 85.992188 131.265625 C 86.257812 128.953125 88.667969 126.207031 88.667969 126.207031 C 88.667969 126.207031 86.988281 127.207031 86.40625 128.164062 C 86.363281 127.222656 90.503906 124.601562 90.503906 124.601562 Z M 90.503906 124.601562 "/>
<path style=" stroke:none;fill-rule:nonzero;fill:rgb(95.686275%,83.529413%,69.803923%);fill-opacity:1;" d="M 90.503906 124.601562 C 87.953125 123.859375 84.6875 118.171875 78.007812 122.308594 C 79.980469 122.726562 82.46875 128.933594 90.503906 124.601562 Z M 90.503906 124.601562 "/>
<path style=" stroke:none;fill-rule:nonzero;fill:rgb(21.960784%,19.215687%,17.647059%);fill-opacity:1;" d="M 90.609375 124.800781 C 84.476562 128.105469 81.515625 125.433594 79.542969 123.65625 C 78.9375 123.105469 78.40625 122.625 77.960938 122.535156 L 77.40625 122.414062 L 77.910156 122.117188 C 82.964844 118.980469 86.136719 121.347656 88.4375 123.078125 C 89.078125 123.621094 89.796875 124.0625 90.574219 124.378906 L 91.109375 124.535156 Z M 79.855469 123.34375 C 81.675781 124.980469 84.402344 127.4375 89.953125 124.652344 C 89.320312 124.308594 88.71875 123.914062 88.15625 123.460938 C 85.890625 121.769531 83.082031 119.675781 78.527344 122.289062 C 79.003906 122.589844 79.449219 122.945312 79.855469 123.34375 Z M 79.855469 123.34375 "/>
<path style=" stroke:none;fill-rule:nonzero;fill:rgb(21.960784%,19.215687%,17.647059%);fill-opacity:1;" d="M 90.503906 124.601562 C 90.503906 124.601562 84.917969 124.125 82.6875 122.640625 C 84.421875 124.183594 88.050781 124.644531 88.050781 124.644531 C 88.050781 124.644531 86.148438 125.03125 85.042969 124.691406 C 85.664062 125.394531 90.503906 124.601562 90.503906 124.601562 Z M 90.503906 124.601562 "/>
<path style=" stroke:none;fill-rule:nonzero;fill:rgb(95.686275%,83.529413%,69.803923%);fill-opacity:1;" d="M 96.355469 124.191406 C 94.710938 126.28125 95.351562 132.796875 87.527344 133.324219 C 88.890625 131.832031 87.296875 125.347656 96.355469 124.191406 Z M 96.355469 124.191406 "/>
<path style=" stroke:none;fill-rule:nonzero;fill:rgb(21.960784%,19.215687%,17.647059%);fill-opacity:1;" d="M 96.53125 124.34375 C 96.085938 125.058594 95.757812 125.835938 95.558594 126.652344 C 94.679688 129.402344 93.480469 133.167969 87.535156 133.566406 L 86.972656 133.605469 L 87.355469 133.183594 C 87.695312 132.625 87.910156 131.996094 87.988281 131.34375 C 88.558594 128.761719 89.414062 124.863281 96.320312 123.980469 L 96.871094 123.910156 Z M 95.121094 126.511719 C 95.316406 125.820312 95.570312 125.148438 95.890625 124.503906 C 89.757812 125.464844 88.964844 129.054688 88.4375 131.449219 C 88.34375 132.007812 88.1875 132.550781 87.972656 133.074219 C 93.203125 132.53125 94.257812 129.1875 95.121094 126.496094 Z M 95.121094 126.511719 "/>
<path style=" stroke:none;fill-rule:nonzero;fill:rgb(21.960784%,19.215687%,17.647059%);fill-opacity:1;" d="M 96.355469 124.191406 C 96.355469 124.191406 92.09375 127.824219 91.140625 130.328125 C 91.640625 128.066406 94.339844 125.589844 94.339844 125.589844 C 94.339844 125.589844 92.570312 126.378906 91.878906 127.292969 C 91.957031 126.351562 96.355469 124.191406 96.355469 124.191406 Z M 96.355469 124.191406 "/>
<path style=" stroke:none;fill-rule:nonzero;fill:rgb(95.686275%,83.529413%,69.803923%);fill-opacity:1;" d="M 96.355469 124.191406 C 93.894531 123.1875 91.257812 117.171875 84.175781 120.578125 C 86.089844 121.207031 87.898438 127.644531 96.355469 124.191406 Z M 96.355469 124.191406 "/>
<path style=" stroke:none;fill-rule:nonzero;fill:rgb(21.960784%,19.215687%,17.647059%);fill-opacity:1;" d="M 96.441406 124.398438 C 89.992188 127.03125 87.332031 124.054688 85.558594 122.089844 C 85.175781 121.558594 84.679688 121.121094 84.105469 120.800781 L 83.566406 120.621094 L 84.066406 120.378906 C 89.425781 117.796875 92.328125 120.484375 94.449219 122.453125 C 95.027344 123.054688 95.695312 123.5625 96.429688 123.960938 L 96.933594 124.167969 Z M 85.910156 121.777344 C 87.539062 123.609375 89.992188 126.34375 95.808594 124.160156 C 95.214844 123.753906 94.664062 123.292969 94.152344 122.785156 C 92.078125 120.859375 89.511719 118.480469 84.699219 120.59375 C 85.140625 120.945312 85.546875 121.34375 85.90625 121.777344 Z M 85.910156 121.777344 "/>
<path style=" stroke:none;fill-rule:nonzero;fill:rgb(21.960784%,19.215687%,17.647059%);fill-opacity:1;" d="M 96.355469 124.191406 C 96.355469 124.191406 90.839844 123.121094 88.789062 121.40625 C 90.347656 123.132812 93.914062 123.964844 93.914062 123.964844 C 93.914062 123.964844 91.976562 124.140625 90.929688 123.683594 C 91.460938 124.464844 96.355469 124.191406 96.355469 124.191406 Z M 96.355469 124.191406 "/>
<path style=" stroke:none;fill-rule:nonzero;fill:rgb(95.686275%,83.529413%,69.803923%);fill-opacity:1;" d="M 102.515625 132.492188 C 106.339844 126.28125 111.871094 121.300781 118.453125 118.15625 C 125.035156 115.011719 132.382812 113.832031 139.617188 114.761719 L 139.558594 115.214844 C 132.414062 114.300781 125.15625 115.464844 118.65625 118.570312 C 112.160156 121.679688 106.691406 126.59375 102.917969 132.726562 C 100.214844 137.09375 99.773438 136.914062 102.515625 132.492188 Z M 102.515625 132.492188 "/>
<path style=" stroke:none;fill-rule:nonzero;fill:rgb(95.686275%,83.529413%,69.803923%);fill-opacity:1;" d="M 136.050781 114.863281 C 138.609375 115.582031 141.929688 121.230469 148.582031 117.03125 C 146.59375 116.628906 144.046875 110.453125 136.050781 114.863281 Z M 136.050781 114.863281 "/>
<path style=" stroke:none;fill-rule:nonzero;fill:rgb(21.960784%,19.215687%,17.647059%);fill-opacity:1;" d="M 135.453125 114.929688 L 135.953125 114.664062 C 142.050781 111.292969 145.050781 113.941406 147.03125 115.695312 C 147.476562 116.175781 148.019531 116.554688 148.628906 116.804688 L 149.183594 116.914062 L 148.683594 117.21875 C 143.671875 120.402344 140.460938 118.066406 138.128906 116.363281 C 137.488281 115.824219 136.761719 115.390625 135.984375 115.078125 Z M 148.050781 117.074219 C 147.570312 116.78125 147.121094 116.429688 146.714844 116.039062 C 144.875 114.414062 142.121094 111.980469 136.601562 114.828125 C 137.238281 115.160156 137.839844 115.550781 138.40625 115.996094 C 140.691406 117.667969 143.515625 119.730469 148.050781 117.074219 Z M 148.050781 117.074219 "/>
<path style=" stroke:none;fill-rule:nonzero;fill:rgb(21.960784%,19.215687%,17.647059%);fill-opacity:1;" d="M 136.050781 114.863281 C 136.050781 114.863281 141.632812 115.28125 143.886719 116.742188 C 142.136719 115.214844 138.5 114.804688 138.5 114.804688 C 138.5 114.804688 140.402344 114.398438 141.507812 114.726562 C 140.886719 114.019531 136.050781 114.863281 136.050781 114.863281 Z M 136.050781 114.863281 "/>
<path style=" stroke:none;fill-rule:nonzero;fill:rgb(95.686275%,83.529413%,69.803923%);fill-opacity:1;" d="M 132.09375 114.769531 C 134.199219 116.386719 135.183594 122.867188 142.910156 121.433594 C 141.21875 120.332031 141.152344 113.640625 132.09375 114.769531 Z M 132.09375 114.769531 "/>
<path style=" stroke:none;fill-rule:nonzero;fill:rgb(21.960784%,19.215687%,17.647059%);fill-opacity:1;" d="M 131.515625 114.609375 L 132.0625 114.539062 C 138.976562 113.679688 140.773438 117.253906 141.960938 119.617188 C 142.195312 120.230469 142.5625 120.785156 143.03125 121.242188 L 143.503906 121.550781 L 142.949219 121.65625 C 137.097656 122.742188 135 119.386719 133.46875 116.9375 C 133.074219 116.195312 132.566406 115.519531 131.960938 114.933594 Z M 142.390625 121.28125 C 142.050781 120.828125 141.765625 120.335938 141.535156 119.816406 C 140.429688 117.632812 138.78125 114.347656 132.597656 114.9375 C 133.0625 115.484375 133.480469 116.074219 133.839844 116.695312 C 135.371094 119.09375 137.21875 122.0625 142.390625 121.28125 Z M 142.390625 121.28125 "/>
<path style=" stroke:none;fill-rule:nonzero;fill:rgb(21.960784%,19.215687%,17.647059%);fill-opacity:1;" d="M 132.09375 114.769531 C 132.09375 114.769531 137.105469 117.234375 138.667969 119.425781 C 137.609375 117.359375 134.390625 115.621094 134.390625 115.621094 C 134.390625 115.621094 136.304688 115.953125 137.195312 116.667969 C 136.875 115.777344 132.09375 114.769531 132.09375 114.769531 Z M 132.09375 114.769531 "/>
<path style=" stroke:none;fill-rule:nonzero;fill:rgb(95.686275%,83.529413%,69.803923%);fill-opacity:1;" d="M 132.09375 114.761719 C 134.222656 113.171875 135.296875 106.710938 143.003906 108.246094 C 141.304688 109.339844 141.136719 116.015625 132.09375 114.761719 Z M 132.09375 114.761719 "/>
<path style=" stroke:none;fill-rule:nonzero;fill:rgb(21.960784%,19.215687%,17.647059%);fill-opacity:1;" d="M 131.511719 114.914062 L 131.957031 114.582031 C 132.574219 114.011719 133.097656 113.347656 133.503906 112.613281 C 135.066406 110.183594 137.210938 106.863281 143.027344 108.03125 L 143.585938 108.144531 L 143.082031 108.445312 C 142.609375 108.898438 142.234375 109.445312 141.992188 110.054688 C 140.765625 112.402344 138.917969 115.945312 132.023438 114.988281 Z M 142.503906 108.394531 C 137.316406 107.539062 135.417969 110.480469 133.882812 112.859375 C 133.519531 113.476562 133.097656 114.058594 132.621094 114.597656 C 138.792969 115.28125 140.496094 112.019531 141.644531 109.84375 C 141.878906 109.332031 142.167969 108.847656 142.503906 108.394531 Z M 142.503906 108.394531 "/>
<path style=" stroke:none;fill-rule:nonzero;fill:rgb(21.960784%,19.215687%,17.647059%);fill-opacity:1;" d="M 132.09375 114.761719 C 132.09375 114.761719 137.15625 112.371094 138.730469 110.199219 C 137.648438 112.25 134.40625 113.941406 134.40625 113.941406 C 134.40625 113.941406 136.320312 113.636719 137.222656 112.9375 C 136.90625 113.816406 132.09375 114.761719 132.09375 114.761719 Z M 132.09375 114.761719 "/>
<path style=" stroke:none;fill-rule:nonzero;fill:rgb(95.686275%,83.529413%,69.803923%);fill-opacity:1;" d="M 126.847656 115.5 C 129.054688 117.003906 130.429688 123.390625 138.050781 121.488281 C 136.273438 120.484375 135.796875 113.816406 126.847656 115.5 Z M 126.847656 115.5 "/>
<path style=" stroke:none;fill-rule:nonzero;fill:rgb(21.960784%,19.215687%,17.647059%);fill-opacity:1;" d="M 126.238281 115.378906 L 126.785156 115.273438 C 133.628906 113.996094 135.636719 117.445312 136.972656 119.730469 C 137.242188 120.332031 137.640625 120.859375 138.140625 121.285156 L 138.640625 121.566406 L 138.09375 121.707031 C 132.320312 123.152344 130.023438 119.933594 128.34375 117.582031 C 127.898438 116.867188 127.347656 116.226562 126.703125 115.6875 Z M 137.519531 121.367188 C 137.15625 120.933594 136.839844 120.460938 136.574219 119.957031 C 135.335938 117.84375 133.492188 114.667969 127.355469 115.636719 C 127.855469 116.15625 128.304688 116.71875 128.699219 117.320312 C 130.359375 119.621094 132.363281 122.46875 137.519531 121.367188 Z M 137.519531 121.367188 "/>
<path style=" stroke:none;fill-rule:nonzero;fill:rgb(21.960784%,19.215687%,17.647059%);fill-opacity:1;" d="M 126.847656 115.5 C 126.847656 115.5 132.019531 117.65625 133.699219 119.746094 C 132.515625 117.742188 129.183594 116.210938 129.183594 116.210938 C 129.183594 116.210938 131.121094 116.421875 132.054688 117.085938 C 131.671875 116.210938 126.847656 115.5 126.847656 115.5 Z M 126.847656 115.5 "/>
<path style=" stroke:none;fill-rule:nonzero;fill:rgb(95.686275%,83.529413%,69.803923%);fill-opacity:1;" d="M 126.847656 115.5 C 128.855469 113.78125 129.546875 107.261719 137.332031 108.324219 C 135.679688 109.515625 135.921875 116.191406 126.847656 115.5 Z M 126.847656 115.5 "/>
<path style=" stroke:none;fill-rule:nonzero;fill:rgb(21.960784%,19.215687%,17.647059%);fill-opacity:1;" d="M 126.253906 115.6875 L 126.679688 115.324219 C 127.257812 114.71875 127.734375 114.023438 128.09375 113.265625 C 129.507812 110.757812 131.445312 107.292969 137.339844 108.101562 L 137.898438 108.179688 L 137.441406 108.515625 C 136.992188 108.992188 136.648438 109.5625 136.441406 110.183594 C 135.363281 112.601562 133.738281 116.253906 126.796875 115.726562 Z M 136.816406 108.5 C 131.589844 107.964844 129.878906 111.007812 128.492188 113.484375 C 128.167969 114.128906 127.785156 114.742188 127.351562 115.320312 C 133.550781 115.609375 135.046875 112.257812 136.039062 110.015625 C 136.242188 109.484375 136.503906 108.976562 136.816406 108.5 Z M 136.816406 108.5 "/>
<path style=" stroke:none;fill-rule:nonzero;fill:rgb(21.960784%,19.215687%,17.647059%);fill-opacity:1;" d="M 126.847656 115.5 C 126.847656 115.5 131.753906 112.796875 133.191406 110.535156 C 132.234375 112.652344 129.101562 114.546875 129.101562 114.546875 C 129.101562 114.546875 131 114.121094 131.859375 113.371094 C 131.5625 114.261719 126.847656 115.5 126.847656 115.5 Z M 126.847656 115.5 "/>
<path style=" stroke:none;fill-rule:nonzero;fill:rgb(95.686275%,83.529413%,69.803923%);fill-opacity:1;" d="M 122.613281 116.519531 C 124.921875 117.835938 126.769531 124.125 134.230469 121.652344 C 132.410156 120.785156 131.4375 114.171875 122.613281 116.519531 Z M 122.613281 116.519531 "/>
<path style=" stroke:none;fill-rule:nonzero;fill:rgb(21.960784%,19.215687%,17.647059%);fill-opacity:1;" d="M 122.015625 116.445312 L 122.558594 116.296875 C 129.28125 114.507812 131.546875 117.800781 133.046875 119.984375 C 133.363281 120.558594 133.800781 121.058594 134.328125 121.445312 L 134.832031 121.6875 L 134.289062 121.867188 C 128.644531 123.738281 126.105469 120.703125 124.261719 118.484375 C 123.769531 117.804688 123.167969 117.207031 122.488281 116.71875 Z M 133.71875 121.574219 C 133.324219 121.167969 132.972656 120.722656 132.667969 120.242188 C 131.28125 118.238281 129.199219 115.195312 123.144531 116.617188 C 123.679688 117.097656 124.171875 117.625 124.613281 118.191406 C 126.433594 120.363281 128.671875 123.054688 133.71875 121.574219 Z M 133.71875 121.574219 "/>
<path style=" stroke:none;fill-rule:nonzero;fill:rgb(21.960784%,19.215687%,17.647059%);fill-opacity:1;" d="M 122.613281 116.519531 C 122.613281 116.519531 127.925781 118.285156 129.757812 120.242188 C 128.429688 118.332031 125 117.054688 125 117.054688 C 125 117.054688 126.945312 117.125 127.925781 117.707031 C 127.5 116.871094 122.613281 116.519531 122.613281 116.519531 Z M 122.613281 116.519531 "/>
<path style=" stroke:none;fill-rule:nonzero;fill:rgb(95.686275%,83.529413%,69.803923%);fill-opacity:1;" d="M 122.613281 116.519531 C 124.507812 114.652344 124.6875 108.101562 132.535156 108.585938 C 130.996094 109.886719 131.742188 116.527344 122.613281 116.519531 Z M 122.613281 116.519531 "/>
<path style=" stroke:none;fill-rule:nonzero;fill:rgb(21.960784%,19.215687%,17.647059%);fill-opacity:1;" d="M 122.054688 116.742188 L 122.453125 116.359375 C 122.988281 115.710938 123.414062 114.980469 123.714844 114.195312 C 124.933594 111.578125 126.609375 107.988281 132.550781 108.355469 L 133.109375 108.394531 L 132.679688 108.761719 C 132.269531 109.269531 131.972656 109.867188 131.816406 110.5 C 130.921875 113.007812 129.578125 116.753906 122.613281 116.742188 Z M 132.058594 108.800781 C 126.804688 108.660156 125.320312 111.835938 124.125 114.398438 C 123.851562 115.058594 123.515625 115.695312 123.125 116.292969 C 129.335938 116.128906 130.574219 112.667969 131.402344 110.363281 C 131.5625 109.820312 131.785156 109.296875 132.058594 108.800781 Z M 132.058594 108.800781 "/>
<path style=" stroke:none;fill-rule:nonzero;fill:rgb(21.960784%,19.215687%,17.647059%);fill-opacity:1;" d="M 122.613281 116.519531 C 122.613281 116.519531 127.300781 113.457031 128.566406 111.09375 C 127.769531 113.273438 124.789062 115.390625 124.789062 115.390625 C 124.789062 115.390625 126.648438 114.828125 127.445312 114.011719 C 127.246094 114.929688 122.613281 116.519531 122.613281 116.519531 Z M 122.613281 116.519531 "/>
<path style=" stroke:none;fill-rule:nonzero;fill:rgb(95.686275%,83.529413%,69.803923%);fill-opacity:1;" d="M 117.261719 118.925781 C 119.699219 119.992188 122.207031 126.042969 129.359375 122.792969 C 127.460938 122.125 125.785156 115.65625 117.261719 118.925781 Z M 117.261719 118.925781 "/>
<path style=" stroke:none;fill-rule:nonzero;fill:rgb(21.960784%,19.215687%,17.647059%);fill-opacity:1;" d="M 116.660156 118.914062 L 117.160156 118.714844 C 123.679688 116.207031 126.261719 119.25 127.988281 121.257812 C 128.363281 121.792969 128.851562 122.242188 129.414062 122.574219 L 129.953125 122.765625 L 129.449219 123 C 124.03125 125.464844 121.191406 122.710938 119.113281 120.703125 C 118.554688 120.078125 117.894531 119.546875 117.160156 119.136719 Z M 128.84375 122.765625 C 128.40625 122.40625 128.011719 122.003906 127.660156 121.558594 C 126.0625 119.691406 123.648438 116.910156 117.8125 118.964844 C 118.398438 119.382812 118.941406 119.859375 119.4375 120.378906 C 121.46875 122.339844 123.984375 124.78125 128.855469 122.765625 Z M 128.84375 122.765625 "/>
<path style=" stroke:none;fill-rule:nonzero;fill:rgb(21.960784%,19.215687%,17.647059%);fill-opacity:1;" d="M 117.261719 118.925781 C 117.261719 118.925781 122.738281 120.113281 124.785156 121.867188 C 123.28125 120.113281 119.71875 119.207031 119.71875 119.207031 C 119.71875 119.207031 121.65625 119.066406 122.691406 119.542969 C 122.160156 118.753906 117.261719 118.925781 117.261719 118.925781 Z M 117.261719 118.925781 "/>
<path style=" stroke:none;fill-rule:nonzero;fill:rgb(95.686275%,83.529413%,69.803923%);fill-opacity:1;" d="M 117.261719 118.925781 C 118.945312 116.867188 118.429688 110.335938 126.289062 109.984375 C 124.894531 111.445312 126.347656 117.96875 117.261719 118.925781 Z M 117.261719 118.925781 "/>
<path style=" stroke:none;fill-rule:nonzero;fill:rgb(21.960784%,19.215687%,17.647059%);fill-opacity:1;" d="M 116.730469 119.210938 L 117.085938 118.78125 C 117.539062 118.078125 117.878906 117.308594 118.089844 116.5 C 119.027344 113.765625 120.304688 110.019531 126.253906 109.753906 L 126.820312 109.730469 L 126.425781 110.140625 C 126.113281 110.464844 125.925781 111.144531 125.75 111.964844 C 125.128906 114.539062 124.1875 118.421875 117.261719 119.148438 Z M 125.847656 110.242188 C 120.605469 110.652344 119.472656 113.972656 118.554688 116.644531 C 118.347656 117.335938 118.078125 118.003906 117.75 118.648438 C 123.90625 117.816406 124.769531 114.25 125.34375 111.871094 C 125.449219 111.308594 125.621094 110.765625 125.847656 110.242188 Z M 125.847656 110.242188 "/>
<path style=" stroke:none;fill-rule:nonzero;fill:rgb(21.960784%,19.215687%,17.647059%);fill-opacity:1;" d="M 117.261719 118.925781 C 117.261719 118.925781 121.597656 115.378906 122.605469 112.910156 C 122.050781 115.160156 119.304688 117.582031 119.304688 117.582031 C 119.304688 117.582031 121.09375 116.824219 121.808594 115.925781 C 121.703125 116.855469 117.261719 118.925781 117.261719 118.925781 Z M 117.261719 118.925781 "/>
</g>
</svg>
